<?xml version="1.0" encoding="utf-8"?>
<!-- Generator: Adobe Illustrator 27.6.1, SVG Export Plug-In . SVG Version: 6.00 Build 0)  -->
<svg version="1.1" id="Layer_1" xmlns="http://www.w3.org/2000/svg" xmlns:xlink="http://www.w3.org/1999/xlink" x="0px" y="0px"
	 width="70.026px" height="66px" viewBox="0 0 70.026 66" enable-background="new 0 0 70.026 66" xml:space="preserve">
<g>
	<g>
		<path fill-rule="evenodd" clip-rule="evenodd" fill="#113D3C" d="M20.815,59.716c0.598,0.898,1.496,1.346,2.543,1.346
			c4.488-0.15,11.221-1.197,16.307-3.142L14.083,44.307C15.429,49.842,18.422,55.976,20.815,59.716z"/>
	</g>
	<path fill-rule="evenodd" clip-rule="evenodd" fill="#3AB54A" d="M8.996,17.527c-2.693,0.748-5.236,1.945-7.63,3.74
		c-1.197,0.898-1.496,2.843-0.598,4.039c0.898,1.197,2.693,1.496,4.039,0.598c4.339-3.291,9.874-4.189,14.961-2.394
		c-2.394,2.394-3.591,3.142-4.787,5.236c-5.386,0.15-10.473,2.543-14.213,6.583c-1.047,1.197-1.047,2.992,0.15,4.039
		c1.197,1.047,2.992,1.047,4.039-0.15c2.244-2.394,5.087-3.89,8.079-4.488c0,0.748-0.15,1.646-0.15,2.394L45.8,54.63
		c0.598-0.449,1.346-0.898,1.945-1.496c1.346,2.843,1.795,6.134,1.047,9.425C48.493,64.354,49.84,66,51.635,66
		c1.346,0,2.543-0.898,2.843-2.244c1.197-5.386,0.15-11.071-2.843-15.709c1.047-2.244,0.898-3.591,1.496-7.032
		c4.339,3.142,6.882,8.378,6.583,13.764c-0.15,1.646,1.197,2.992,2.693,2.992c1.496,0,2.843-1.197,2.992-2.843
		c0.15-2.843-0.299-5.835-1.346-8.528"/>
	<g>
		<path fill-rule="evenodd" clip-rule="evenodd" fill="#113D3C" d="M68.827,24.189c-1.346-0.898-3.142-0.449-3.89,0.748
			c-2.095,3.291-5.236,5.536-8.977,6.583c1.945-4.189,0.898-9.276-2.543-12.268c0.15-1.197,0.15-2.394-0.15-3.591
			c1.047-0.748,2.693-1.496,5.386-0.748c1.496,0.449,3.142-0.449,3.441-2.095c0.449-1.496-0.449-3.142-2.095-3.591
			c-4.787-1.346-8.229,0.15-10.173,1.795c-0.449-0.299-0.898-0.598-1.496-0.748c0.15-2.543-0.598-6.284-4.488-9.575
			C42.646-0.347,40.85-0.197,39.803,1c-1.047,1.197-0.898,2.992,0.299,4.039c2.095,1.795,2.543,3.74,2.394,4.937
			c-1.197,0.449-2.095,1.047-2.992,1.945c-4.339-1.047-8.977,0.898-11.221,4.937c-1.197-3.591-1.197-7.48,0.15-11.071
			c0.598-1.496-0.15-3.142-1.646-3.74c-1.496-0.598-3.142,0.15-3.74,1.646c-1.795,4.638-1.945,9.575-0.598,14.213l35.757,19
			c4.488-1.496,8.378-4.488,11.071-8.528C70.473,26.882,70.174,25.087,68.827,24.189z"/>
	</g>
</g>
</svg>
