<svg width="36" height="40" viewBox="0 0 36 40" fill="none" xmlns="http://www.w3.org/2000/svg">
<g clip-path="url(#clip0_772_115)">
<path d="M15.397 40C15.243 38.5717 15.0568 37.1779 14.9589 35.7778C14.9172 35.1881 14.7086 34.9237 14.1245 34.7516C13.3141 34.5139 12.515 34.1932 11.772 33.7974C11.2537 33.5221 10.9391 33.605 10.5235 33.9476C9.40825 34.8705 8.25447 35.7497 7.16487 36.6085C5.92283 35.3962 4.73855 34.2385 3.4917 33.0215C4.36626 31.9624 5.27613 30.8173 6.23735 29.7176C6.58397 29.3218 6.63211 29.0371 6.38017 28.5569C5.95653 27.7528 5.63719 26.894 5.32106 26.0399C5.18787 25.6801 5.04345 25.508 4.61339 25.472C3.10175 25.3453 1.59493 25.1592 0.0351562 24.9918V22.5358H11.8715C12.0448 24.4568 12.7878 26.0962 14.4326 27.2569C15.5767 28.0657 16.8589 28.4349 18.2694 28.3582C21.5093 28.183 23.5714 26.1447 24.1202 22.542H35.9325V24.9871C34.4337 25.1513 32.9076 25.3391 31.3751 25.4705C30.9498 25.5064 30.799 25.6707 30.6626 26.0336C30.324 26.9331 29.8939 27.8013 29.5682 28.7039C29.4767 28.9558 29.5104 29.3672 29.6693 29.5706C30.5888 30.7516 31.5644 31.892 32.4775 32.9949C31.2531 34.1822 30.0496 35.3492 28.7851 36.5757C27.7741 35.7825 26.6524 34.9488 25.5885 34.0493C25.083 33.6222 24.7075 33.4861 24.0753 33.8709C23.4302 34.2636 22.6792 34.5295 21.941 34.7235C21.2863 34.894 21.0632 35.199 21.0215 35.8498C20.9317 37.2233 20.7391 38.5921 20.585 39.9984H15.397V40Z" fill="#3AB54A"/>
<path d="M27.0677 20.1033H8.87351C8.87351 19.3446 8.86549 18.6266 8.87351 17.9085C8.88956 16.557 8.7997 15.1897 8.96498 13.8553C9.22815 11.72 10.9532 10.3356 13.1533 10.3293C16.3579 10.32 19.5625 10.3215 22.7687 10.3293C25.0538 10.334 26.8462 11.7388 27.0324 13.9492C27.2009 15.9609 27.0677 17.9961 27.0677 20.1049V20.1033Z" fill="#194342"/>
<path d="M18.0016 3.61072e-06C20.5482 0.00313228 22.6392 2.04302 22.6424 4.52718C22.6456 7.05045 20.5418 9.08252 17.9406 9.06844C15.3987 9.05436 13.3287 7.00352 13.3399 4.50685C13.3495 2.02738 15.4485 -0.00312506 18.0016 3.61072e-06Z" fill="#194342"/>
<path d="M0.0426377 20.1001C0.0426377 18.1119 -0.0745059 16.158 0.0795459 14.2245C0.199899 12.7149 1.71474 11.5057 3.27452 11.4149C4.393 11.3492 5.5179 11.3758 6.64119 11.3665C6.79845 11.3665 6.95572 11.3899 7.17235 11.4087C5.9287 14.2307 6.73106 17.192 6.39407 20.1017H0.0426377V20.1001Z" fill="#194342"/>
<path d="M29.5816 20.0892C29.2591 17.1811 30.047 14.2417 28.8242 11.4681C30.3102 11.4681 31.7881 11.318 33.2163 11.5088C34.7857 11.7184 35.9186 13.1701 35.9668 14.7298C36.0181 16.3958 35.9908 18.0649 35.9941 19.7325C35.9941 19.8342 35.962 19.9359 35.9363 20.0892H29.58H29.5816Z" fill="#194342"/>
<path d="M12.2524 6.48729C12.2219 6.64059 12.1385 7.02073 12.0678 7.40242C11.9764 7.89206 11.6378 8.07665 11.1933 8.28314C10.2674 8.71334 9.34787 9.19828 8.53428 9.80211C8.06571 10.1494 7.66292 10.2386 7.15263 10.1228C5.02158 9.63786 3.67523 7.61517 4.02345 5.43137C4.33155 3.49785 6.35188 1.93821 8.3353 2.10246C10.6397 2.29331 12.3134 4.06257 12.2524 6.48885V6.48729Z" fill="#194342"/>
<path d="M23.7188 6.16819C23.7076 4.0141 25.3829 2.28239 27.6519 2.09936C29.637 1.9398 31.6541 3.50257 31.959 5.43608C32.304 7.62146 30.9512 9.63945 28.8218 10.126C28.2665 10.2527 27.8477 10.1353 27.3856 9.73643C26.7774 9.21395 26.0553 8.77437 25.3123 8.45055C23.9724 7.86549 23.7252 7.5933 23.7188 6.16819Z" fill="#194342"/>
</g>
<defs>
<clipPath id="clip0_772_115">
<rect width="36" height="40" fill="white"/>
</clipPath>
</defs>
</svg>
