<?xml version="1.0" encoding="utf-8"?>
<!-- Generator: Adobe Illustrator 25.0.0, SVG Export Plug-In . SVG Version: 6.00 Build 0)  -->
<svg version="1.1" id="Layer_1" xmlns="http://www.w3.org/2000/svg" xmlns:xlink="http://www.w3.org/1999/xlink" x="0px" y="0px"
	 width="53.2px" height="53.8px" viewBox="0 0 53.2 53.8" style="enable-background:new 0 0 53.2 53.8;" xml:space="preserve">
<style type="text/css">
	.st0{fill-rule:evenodd;clip-rule:evenodd;fill:#113D3C;}
	.st1{fill-rule:evenodd;clip-rule:evenodd;fill:#3AB54A;}
</style>
<g>
	<g>
		<path class="st0" d="M19.4,24h-1.6c-0.9,0-1.5,0.5-1.5-0.4c0-0.9,0.7-1.6,1.5-1.6h1.6c0.9,0,1.5-0.1,1.5,0.8
			C21,23.7,20.3,24,19.4,24z M11.2,24H9.6C8.7,24,8,24.5,8,23.6C8,22.7,8.7,22,9.6,22h1.6c0.9,0,1.6-0.1,1.6,0.8
			C12.8,23.7,12.1,24,11.2,24z M11.2,33H9.6C8.7,33,8,32.5,8,31.6S8.7,30,9.6,30h1.6c0.9,0,1.6,0.6,1.6,1.5
			C12.8,32.4,12.1,33,11.2,33z M11.2,42H9.6C8.7,42,8,41.5,8,40.6S8.7,39,9.6,39h1.6c0.9,0,1.6,0.8,1.6,1.6S12.1,42,11.2,42z
			 M7,16.4V7.6C7,6.7,7.9,6,8.7,6h19.7C29.3,6,30,6.7,30,7.6v8.8c0,0.9-0.7,1.6-1.5,1.6H8.5C7.7,18,7,17.3,7,16.4z M21,39.2
			c0-9.5,7-18.1,16-19V1.6C37,0.7,36.3,0,35.5,0H1.5C0.7,0,0,0.7,0,1.6v47.8C0,50.3,0.7,51,1.5,51h23.2C22.1,47.8,21,43.7,21,39.2z"
			/>
	</g>
	<path class="st1" d="M39.9,45.4v0.3c0,0.9-0.7,1.6-1.5,1.6c-0.8,0-1.5-0.7-1.5-1.6v-0.1c-0.7-0.1-1.4-0.4-2.2-1
		c-0.7-0.5-0.9-1.5-0.4-2.2c0.5-0.7,1.4-0.9,2.1-0.5c0.8,0.5,1,0.5,2,0.5c1,0,1.4-0.8,1.5-1.3c0.1-0.4,0-1-0.8-1.3
		c-1.3-0.5-2.6-1-3.5-1.8c-2.1-1.7-1.5-5.6,1.3-6.7v-0.2c0-0.9,0.7-1.6,1.5-1.6c0.9,0,1.5,0.7,1.5,1.6v0.1c0.8,0.2,1.4,0.6,1.8,1.1
		c0.6,0.6,0.6,1.6,0,2.2c-0.6,0.6-1.6,0.6-2.2,0c-0.1-0.1-0.6-0.5-1.6-0.2c-0.4,0.1-0.5,0.6-0.5,0.7c0,0.3,0,0.5,0.1,0.5
		c0.6,0.5,1.7,0.9,2.7,1.3C44.2,38.4,43.7,44,39.9,45.4L39.9,45.4z M37.9,23.3c-7.9,0.2-14.3,7-14.3,15.2c0,8.4,6.6,15.3,14.7,15.3
		s14.8-6.9,14.8-15.3C53.2,29.9,46.2,23,37.9,23.3z"/>
	<path class="st0" d="M10,12c0-1.7,1.3-3,3-3h11c1.7,0,3,1.3,3,3s-1.3,3-3,3H13C11.3,15,10,13.7,10,12z"/>
</g>
</svg>
