<svg width="37" height="38" viewBox="0 0 37 38" fill="none" xmlns="http://www.w3.org/2000/svg">
<g clip-path="url(#clip0_772_141)">
<path d="M9.72826 35.2395V24.2666C12.0568 24.3718 13.2007 22.5786 14.2954 20.9957C15.3478 19.475 16.0681 17.6973 16.8137 15.9783C17.3408 14.7679 17.8034 14.3972 19.0626 14.6592C21.3148 15.1265 22.5875 17.1714 21.9605 19.4405C21.5232 21.0268 20.9691 22.5786 20.4488 24.208C22.557 24.208 24.6923 24.208 26.8276 24.208C28.7578 24.208 29.5967 25.2649 29.1968 27.1926C28.6206 29.9634 28.041 32.7342 27.4614 35.505C27.1089 37.1896 26.1294 37.9948 24.4245 37.9965C22.0537 37.9982 19.6845 38 17.3137 37.9965C15.5478 37.9931 13.9616 37.4413 12.7211 36.1533C12.0279 35.4343 11.2975 35.0998 10.3333 35.236C10.1451 35.2619 9.95196 35.2395 9.72656 35.2395H9.72826Z" fill="#3AB54A"/>
<path d="M14.4451 11.7902C14.6417 10.5625 14.7501 9.53319 14.9891 8.53487C15.128 7.95553 14.9433 7.62448 14.5603 7.26585C13.8553 6.60547 13.1673 5.92613 12.4962 5.22955C12.0302 4.74504 12.1183 4.43813 12.7724 4.31399C13.7401 4.13122 14.7298 4.06053 15.6873 3.83811C16.0601 3.75189 16.4821 3.44843 16.6804 3.11911C17.1634 2.31735 17.5158 1.43282 17.9514 0.600027C18.0717 0.370706 18.3005 0.198285 18.4801 0C18.6665 0.18794 18.9089 0.344843 19.0275 0.570716C19.4783 1.42938 19.846 2.33459 20.3358 3.16739C20.5171 3.47774 20.9222 3.75879 21.273 3.83811C22.2321 4.05363 23.2218 4.12433 24.1878 4.30709C24.9097 4.44503 24.9809 4.72952 24.4573 5.27093C23.7845 5.96579 23.0964 6.64513 22.3948 7.30895C22.0373 7.6469 21.8678 7.96243 21.9983 8.50556C22.2305 9.47629 22.3592 10.4729 22.5033 11.4643C22.5321 11.6643 22.4931 11.9712 22.366 12.0678C22.2338 12.1695 21.9254 12.1437 21.7509 12.0557C20.8917 11.6281 20.0358 11.1884 19.2122 10.6953C18.7191 10.4022 18.314 10.3781 17.8107 10.6815C16.9888 11.1781 16.1279 11.6057 15.2738 12.0454C14.7976 12.2902 14.4468 12.2419 14.4468 11.7919L14.4451 11.7902Z" fill="#194342"/>
<path d="M2.28317 14.8437C2.45433 13.7988 2.65939 12.7574 2.77632 11.7074C2.81191 11.3953 2.69328 10.9711 2.48992 10.7435C1.80696 9.98143 1.04435 9.29346 0.330892 8.55722C-0.184291 8.02444 -0.104641 7.74857 0.617293 7.6158C1.61377 7.43131 2.62719 7.33303 3.61688 7.12095C3.92023 7.05716 4.27611 6.8037 4.42863 6.53127C4.92857 5.6364 5.3319 4.68636 5.80641 3.77597C5.90809 3.58114 6.13857 3.37768 6.33685 3.34492C6.46225 3.32423 6.69104 3.58286 6.78255 3.7639C7.23842 4.65187 7.62481 5.5795 8.12304 6.44161C8.30268 6.75197 8.69923 7.03991 9.04664 7.12095C9.94991 7.33131 10.8837 7.40027 11.7954 7.57442C12.0649 7.62615 12.3055 7.83478 12.5597 7.97099C12.4241 8.20548 12.3275 8.47963 12.1462 8.6693C11.4768 9.36933 10.7532 10.0142 10.1109 10.7366C9.90754 10.966 9.78044 11.3849 9.81433 11.6953C9.92279 12.6902 10.1363 13.6712 10.2804 14.6627C10.3143 14.8937 10.2922 15.3041 10.1855 15.3472C9.97194 15.4334 9.64995 15.3886 9.42964 15.2799C8.56874 14.8558 7.74852 14.3402 6.87237 13.9557C6.54529 13.8126 6.05383 13.8092 5.72846 13.9557C4.80316 14.3696 3.93548 14.9144 3.02544 15.3679C2.47128 15.6438 2.20521 15.4368 2.28147 14.8454L2.28317 14.8437Z" fill="#194342"/>
<path d="M26.6863 14.8334C26.8575 13.7885 27.0626 12.7471 27.1812 11.697C27.2151 11.3867 27.0914 10.9642 26.8863 10.7366C26.2034 9.97452 25.4391 9.28656 24.7273 8.55032C24.2172 8.02271 24.3002 7.74856 25.0289 7.61235C25.9983 7.4313 26.9863 7.34509 27.9438 7.12439C28.2912 7.04335 28.6895 6.75541 28.8691 6.44333C29.3673 5.58294 29.7537 4.65359 30.2096 3.76562C30.3028 3.58458 30.5282 3.32422 30.6536 3.34491C30.8519 3.37595 31.084 3.5794 31.1857 3.77424C31.6484 4.65876 32.0297 5.58984 32.5296 6.45022C32.7093 6.75886 33.1109 7.04335 33.4583 7.12267C34.4446 7.34854 35.4563 7.45889 36.4579 7.62269C37.1036 7.72959 37.1408 8.07099 36.7273 8.49687C35.9952 9.2538 35.2123 9.96073 34.5073 10.7435C34.3039 10.9694 34.1853 11.3936 34.2192 11.7056C34.3294 12.7005 34.5429 13.6816 34.6852 14.673C34.7174 14.9023 34.6886 15.3144 34.5819 15.3541C34.365 15.4351 34.0464 15.3868 33.8244 15.2765C32.9635 14.8506 32.1432 14.3351 31.2671 13.9523C30.9417 13.8092 30.4485 13.8144 30.1232 13.9609C29.1979 14.3764 28.3302 14.9196 27.4201 15.373C26.8728 15.6455 26.605 15.4282 26.6863 14.8368V14.8334Z" fill="#194342"/>
<path d="M7.65125 29.734C7.65125 31.6859 7.636 33.6377 7.65972 35.5895C7.6682 36.3154 7.39874 36.643 6.66494 36.6257C5.50917 36.5982 4.3517 36.6016 3.19593 36.6257C2.51806 36.6395 2.22488 36.3533 2.22657 35.655C2.23843 31.6945 2.23843 27.734 2.22657 23.7717C2.22488 23.0579 2.55534 22.8113 3.21796 22.8234C4.34662 22.8458 5.47528 22.8562 6.60224 22.8199C7.36146 22.7958 7.67158 23.0958 7.65972 23.8803C7.63091 25.8321 7.64955 27.784 7.64955 29.7358L7.65125 29.734Z" fill="#3AB54A"/>
</g>
<defs>
<clipPath id="clip0_772_141">
<rect width="37" height="38" fill="white"/>
</clipPath>
</defs>
</svg>
