<svg width="34" height="25" viewBox="0 0 34 25" fill="none" xmlns="http://www.w3.org/2000/svg">
<g clip-path="url(#clip0_772_150)">
<path d="M32.1273 17.6774H23.9706C23.8949 16.1952 24.1287 14.8492 25.0451 13.6634C25.2165 13.4411 25.3294 13.1155 25.3374 12.8349C25.3692 11.6888 25.3785 10.5414 25.3427 9.39658C25.3095 8.36826 25.6601 7.64036 26.7891 7.35714C26.1303 6.21103 25.4967 5.10992 24.8632 4.00881C24.6653 3.66471 24.4541 3.32856 24.2681 2.97917C23.705 1.9204 23.9069 0.939726 24.7941 0.360055C25.7079 -0.235499 26.9937 -0.0608031 27.679 0.766354C27.8331 0.951637 27.9526 1.16604 28.0735 1.37514C29.7975 4.34761 31.4525 7.36111 33.2656 10.278C34.2484 11.8608 34.1887 13.318 33.409 14.8889C32.9601 15.7941 32.5629 16.7245 32.1259 17.6774H32.1273Z" fill="#194342"/>
<path d="M7.30926 7.33713C8.45154 7.76461 8.73312 8.16562 8.73844 9.29981C8.74375 10.4684 8.72515 11.637 8.75039 12.8043C8.7557 13.0703 8.82344 13.3906 8.98416 13.5891C9.94978 14.7776 10.1862 16.1487 10.1211 17.6667H1.8861C1.30832 16.2321 0.686712 14.7789 0.142138 13.298C-0.135462 12.5436 0.0133001 11.7733 0.417082 11.0719C2.34169 7.73285 4.2623 4.39113 6.20417 1.06133C6.74875 0.125647 7.77016 -0.211833 8.78625 0.129618C9.70937 0.439305 10.25 1.18176 10.1145 2.07906C10.0534 2.47874 9.86743 2.8771 9.66687 3.23576C8.90579 4.59627 8.1155 5.93957 7.30793 7.33581L7.30926 7.33713Z" fill="#194342"/>
<path d="M6.13817 18.5072C7.62047 18.5072 9.1041 18.5006 10.5864 18.5085C11.5547 18.5138 11.7858 18.7322 11.7938 19.6639C11.8044 21.0522 11.8044 22.4418 11.7938 23.8301C11.7871 24.7182 11.5228 24.9895 10.6448 24.9921C7.6125 25.0001 4.58148 25.0014 1.54914 24.9921C0.652582 24.9895 0.374982 24.7168 0.368341 23.8553C0.356386 22.4445 0.356386 21.0337 0.368341 19.6229C0.37631 18.7745 0.627345 18.5204 1.49202 18.5125C3.04074 18.4966 4.59078 18.5085 6.13949 18.5072H6.13817ZM6.12621 22.9911C6.83814 22.9739 7.39334 22.4206 7.39069 21.7325C7.38803 21.0218 6.789 20.4222 6.08637 20.4275C5.40233 20.4315 4.79666 21.0734 4.81658 21.7708C4.8365 22.4418 5.4435 23.0069 6.12488 22.9911H6.12621Z" fill="#194342"/>
<path d="M28.0415 18.5072C29.5238 18.5072 31.0074 18.5006 32.4897 18.5098C33.4885 18.5164 33.7183 18.7414 33.725 19.7115C33.7329 21.0786 33.7343 22.4458 33.725 23.8116C33.7183 24.7327 33.4633 24.9908 32.5216 24.9934C29.4892 25.0027 26.4582 25.0027 23.4259 24.9934C22.5838 24.9908 22.3062 24.7115 22.2995 23.8764C22.2862 22.4431 22.2849 21.0098 22.2995 19.5778C22.3088 18.7613 22.5585 18.5204 23.394 18.5125C24.9427 18.4992 26.4927 18.5085 28.0415 18.5085V18.5072ZM29.2727 21.7668C29.2913 21.0694 28.683 20.4301 27.999 20.4275C27.3216 20.4262 26.7358 20.9873 26.7013 21.6715C26.6654 22.3875 27.2299 22.9765 27.9684 22.991C28.6511 23.0056 29.2555 22.4378 29.2727 21.7668Z" fill="#194342"/>
<path d="M23.0239 6.50208C22.895 9.67968 20.6795 11.9203 18.0297 12.3517C16.0108 12.6813 14.2682 12.0778 12.851 10.7517C11.6781 9.65321 11.03 8.14713 11.0897 6.5206C11.2119 3.17095 13.5323 0.656391 17.0043 0.61404C20.3249 0.573013 22.8114 2.98699 23.0239 6.5034V6.50208ZM21.5655 6.49414C21.5549 4.0431 19.4921 2.01558 17.0216 2.02484C14.579 2.0341 12.5163 4.11192 12.5256 6.55369C12.5348 8.98487 14.6242 11.0402 17.0747 11.0296C19.516 11.019 21.5761 8.93723 21.5655 6.49414Z" fill="#3AB54A"/>
<path d="M16.7107 13.3999C15.955 14.7022 15.2032 16.023 14.4129 17.3213C14.3066 17.4946 14.0025 17.5476 13.7899 17.6574C13.7116 17.4496 13.5788 17.2458 13.5668 17.0354C13.5349 16.4743 13.5562 15.9105 13.5562 15.2726C12.9744 15.6193 12.4391 15.9608 11.8786 16.2559C11.7392 16.33 11.4629 16.3221 11.3566 16.2294C11.2637 16.1487 11.2517 15.8575 11.3247 15.7252C11.9636 14.5473 12.6304 13.3853 13.2507 12.2869C14.4341 12.668 15.5498 13.0267 16.712 13.4012L16.7107 13.3999Z" fill="#3AB54A"/>
<path d="M17.3841 13.4066C18.5437 13.0321 19.6381 12.6774 20.8389 12.2883C21.4671 13.3775 22.1618 14.5673 22.8299 15.7703C22.8923 15.8828 22.8418 16.1713 22.7489 16.2296C22.616 16.3143 22.3584 16.3328 22.2202 16.2574C21.6663 15.9556 21.139 15.6062 20.548 15.241C20.548 15.9053 20.5719 16.4903 20.5347 17.07C20.5214 17.2724 20.3594 17.467 20.2651 17.6642C20.0698 17.5623 19.7896 17.5107 19.6926 17.3492C18.8957 16.0337 18.1346 14.697 17.3828 13.404L17.3841 13.4066Z" fill="#3AB54A"/>
<path d="M6.09467 20.9806C6.33109 21.3617 6.55025 21.5629 6.54759 21.7614C6.54627 21.9057 6.25538 22.1584 6.09201 22.1598C5.93661 22.1611 5.65502 21.9017 5.65237 21.7535C5.64971 21.5576 5.86356 21.3578 6.09467 20.9792V20.9806Z" fill="#194342"/>
<path d="M28.0039 20.9807C28.2297 21.3605 28.4422 21.563 28.4382 21.7602C28.4342 21.9071 28.1486 22.1639 27.9932 22.1599C27.8299 22.1559 27.5416 21.9018 27.543 21.7576C27.543 21.5591 27.7635 21.3605 28.0039 20.982V20.9807Z" fill="black"/>
<path d="M17.0537 2.89577C19.1297 2.90106 20.7063 4.48523 20.6904 6.54982C20.6744 8.61837 19.0752 10.184 17.0058 10.1562C14.9524 10.1284 13.409 8.57734 13.4024 6.53526C13.3957 4.47067 14.9803 2.89047 17.0537 2.89577ZM17.1971 7.04876C17.1373 7.23404 17.0563 7.41403 17.0218 7.60328C16.9089 8.22795 17.3459 8.76263 17.9994 8.81821C18.6422 8.8738 19.1735 8.40132 19.1709 7.77798C19.1682 7.15463 18.6316 6.67687 17.9901 6.75495C17.7563 6.78274 17.5305 6.87935 17.302 6.9442C17.909 6.31292 18.5333 5.69619 19.1098 5.03711C19.2426 4.88624 19.212 4.59375 19.2572 4.36612C19.0128 4.39656 18.694 4.34097 18.5386 4.47464C17.9569 4.97623 17.4282 5.5387 16.8783 6.07867C16.9341 5.91456 17.0005 5.7531 17.0417 5.58502C17.1666 5.08608 17.0484 4.66654 16.5848 4.40053C16.1226 4.13584 15.655 4.13452 15.2526 4.51832C14.9006 4.85315 14.8036 5.26474 15.0281 5.71472C15.2778 6.21366 15.6975 6.38438 16.2328 6.27718C16.4453 6.23483 16.6512 6.15807 16.8597 6.09719C16.2687 6.69275 15.675 7.28433 15.0892 7.88518C14.8674 8.11281 14.4862 8.3775 14.886 8.6766C15.0255 8.78115 15.4864 8.60778 15.6989 8.43706C16.2288 8.01223 16.7004 7.51593 17.1958 7.04876H17.1971Z" fill="#3AB54A"/>
</g>
<defs>
<clipPath id="clip0_772_150">
<rect width="34" height="25" fill="white"/>
</clipPath>
</defs>
</svg>
