<svg width="62" height="59" viewBox="0 0 62 59" fill="none" xmlns="http://www.w3.org/2000/svg">
<g clip-path="url(#clip0_10_76)">
<path d="M16.1231 24.286C16.1231 23.6177 16.1231 23.1499 16.1231 22.6821C16.1231 16.0419 16.1207 9.40175 16.1231 2.76159C16.1231 0.551389 16.6731 0.011966 18.9044 0.00957918C22.335 0.00480552 25.7655 -0.00474179 29.1961 0.0143528C30.9526 0.0239001 31.6358 0.696986 31.6649 2.38686C31.9241 18.0898 32.1809 33.7951 32.4353 49.4981C32.4426 49.973 32.4353 50.4504 32.227 51.0423C31.7424 50.2595 31.2094 49.5028 30.7806 48.6937C29.3996 46.0921 28.0793 43.4618 26.6838 40.8673C26.2356 40.0319 25.7001 39.218 25.0799 38.4996C23.7038 36.9028 21.974 36.6951 20.2587 37.9291C19.418 38.533 18.6597 39.2657 17.928 40.0009C15.8033 42.1347 13.8215 42.2517 11.6241 40.1847C10.672 39.2872 9.91365 38.1869 9.0875 37.1653C6.59936 34.0983 4.12091 31.0216 1.63519 27.9522C1.359 27.6109 1.03435 27.3077 0.765432 26.9616C-0.5065 25.3195 -0.24 24.5724 1.87746 24.391C3.88106 24.2216 5.90888 24.3003 7.92701 24.2908C10.5872 24.2788 13.2497 24.2884 16.1231 24.2884V24.286Z" fill="#36A84D"/>
<path d="M33.9569 53.3361C34.1556 52.2763 34.4366 51.4887 34.4294 50.7034C34.3397 42.0798 34.2041 33.4538 34.0805 24.8302C34.0757 24.4411 34.0805 24.0497 34.0805 23.5437C34.5893 23.5198 35.0181 23.484 35.4469 23.484C43.1124 23.4816 50.7779 23.4936 58.4434 23.4673C59.3277 23.4649 59.7638 23.5867 59.9552 24.6106C60.1999 25.9138 60.7256 27.1955 61.3095 28.4033C63.3688 32.6685 60.5851 38.6666 56.0207 40.1035C51.042 41.6717 47.1971 44.8318 44.4473 49.1806C43.8829 50.0733 43.8368 51.355 43.769 52.4697C43.6793 53.9328 43.8683 55.4079 43.8247 56.8758C43.7641 58.9022 42.7514 59.4822 40.8714 58.6157C38.0901 57.3316 35.7158 55.5296 33.9569 53.3409V53.3361Z" fill="#36A84D"/>
<path d="M33.986 21.3551V12.519C37.9278 14.2853 42.1458 13.8867 46.3104 14.0514C49.2443 14.166 52.1734 14.4548 55.0952 14.7674C55.9068 14.8557 56.7112 15.2448 57.4622 15.6076C58.7293 16.221 59.3859 17.2497 59.3471 18.6794C59.3253 19.5459 59.3423 20.4147 59.3423 21.3551H33.986Z" fill="#36A84D"/>
</g>
<defs>
<clipPath id="clip0_10_76">
<rect width="62" height="59" fill="white"/>
</clipPath>
</defs>
</svg>
