<svg width="68" height="59" viewBox="0 0 68 59" fill="none" xmlns="http://www.w3.org/2000/svg">
<g id="Layer_1" clip-path="url(#clip0_10_80)">
<path id="Vector" d="M35.9785 57.2801C36.0685 56.922 36.1598 56.564 36.2498 56.2045C35.689 57.0115 34.6714 57.5486 34.9146 58.9982C34.5435 58.7051 34.3369 58.5087 34.1022 58.3643C33.7564 58.1521 33.4008 57.8446 33.0312 57.8143C32.5266 57.7738 32.0965 57.8085 31.7662 57.2916C31.3755 56.6809 31.1112 56.0745 31.2996 55.3367C31.3586 55.1043 31.4261 54.8747 31.4935 54.6452C31.6819 54.0041 31.6004 53.4916 31.1197 52.9401C30.7795 52.5503 30.549 51.8832 30.5856 51.3635C30.639 50.617 30.1232 50.2416 29.8238 49.7811C29.5469 49.3537 28.9566 49.104 28.4619 48.873C27.7816 48.5553 27.6902 48.216 27.6523 47.4422C27.5708 45.8222 27.6706 44.1345 26.5265 42.7542C26.3255 42.5131 26.2763 42.0583 26.303 41.7147C26.3592 40.9928 26.1681 40.4139 25.5581 40.0558C25.0127 39.7353 24.421 39.4999 23.8588 39.2069C23.1279 38.8271 22.3465 38.485 22.3647 37.4267C22.3662 37.3242 22.2298 37.1509 22.1286 37.1249C21.2249 36.8939 21.3162 36.0955 21.1349 35.4054C20.4265 35.1599 19.8967 34.7499 20.0836 33.335C20.1637 32.733 20.0302 32.346 19.5312 32.0038C19.2122 31.7858 19.0182 31.3859 18.7245 31.1174C18.3829 30.8055 18.0302 30.4041 17.6197 30.2959C16.6499 30.0403 16.0863 29.3935 15.9135 28.4854C15.5958 26.8279 14.4363 25.9486 13.2233 25.0766C12.744 24.733 12.2324 24.424 11.8023 24.0241C11.465 23.7093 11.1291 23.3181 10.9703 22.8922C10.5388 21.7299 9.73202 20.8521 9.04754 19.8718C8.59918 19.2293 8.35743 18.428 8.05806 17.683C7.61392 16.58 7.24849 15.4394 6.74672 14.3652C6.59492 14.0404 6.07488 13.6491 5.77551 13.6895C4.55974 13.857 3.90478 13.164 3.22732 12.315C2.80707 11.7895 2.33623 11.3203 1.62363 11.0561C0.0986534 10.4915 -0.418574 8.9135 0.361484 7.45817C0.940554 6.37678 1.45216 5.19721 2.72274 4.73232C3.59697 3.20624 5.30045 3.46901 6.59492 2.84963C7.6083 2.36596 8.6554 1.94727 9.70672 1.556C10.3828 1.30479 11.0897 1.13875 11.7925 0.971273C12.3252 0.844221 12.827 0.738825 13.0842 0.133882C13.1362 0.0126045 13.5044 0.0111608 13.7293 -0.00183324C13.8825 -0.0104959 14.0385 0.0761308 14.1945 0.0833497C18.6584 0.307135 23.1237 0.536696 27.589 0.741713C28.5701 0.78647 29.5553 0.754707 30.5378 0.735937C32.1738 0.704174 32.5505 0.977048 32.9679 2.59697C33.1717 2.45981 33.3671 2.33998 33.5512 2.20282C34.3102 1.6383 34.4578 1.64407 34.9989 2.44826C35.4501 3.11962 35.9392 3.78953 36.2385 4.53307C36.4367 5.02829 36.3693 5.65345 36.3524 6.21796C36.3257 7.13909 36.3173 7.16941 37.1845 7.19396C41.9604 7.3239 46.7363 7.45673 51.5122 7.55779C52.2262 7.57223 52.7196 7.822 53.2045 8.36197C57.6993 13.3632 62.2236 18.337 66.7339 23.3238C67.2877 23.936 68.0284 24.4384 68.0003 25.426C66.8548 25.5617 66.0016 26.2951 65.1386 26.9737C63.7078 28.0984 62.6256 29.548 61.653 31.0885C61.615 31.1491 61.5841 31.2155 61.5377 31.2704C60.3079 32.7517 59.5616 34.4409 59.4252 36.3987C59.414 36.5619 59.3536 36.7221 59.3128 36.8824C59.3072 36.9026 59.2805 36.9156 59.2622 36.9315C59.043 36.0007 58.6588 35.4843 58.1097 35.3823C58.2671 34.8409 58.4231 34.3096 58.5707 33.7999C57.5882 34.5305 57.466 35.5368 58.2713 36.4723C58.6115 36.8679 58.9642 37.2534 59.3451 37.6822C59.0753 37.8887 58.8237 38.0821 58.5623 38.2814C58.5257 38.2496 58.3908 38.1327 58.2559 38.0157C58.2193 38.0446 58.1814 38.0735 58.1448 38.1038C58.201 38.3218 58.2573 38.5384 58.336 38.843C57.9579 38.6062 57.6726 38.4272 57.3873 38.2482C57.3718 38.2799 57.3549 38.3132 57.3395 38.3449C57.4927 38.5774 57.7822 38.8214 57.7625 39.0379C57.7386 39.3065 57.5053 39.6068 57.2818 39.7959C56.6044 40.3691 55.8876 40.8946 55.227 41.4072C55.0569 41.2845 55.0091 41.2671 54.9852 41.231C54.7969 40.948 54.6142 40.6622 54.4287 40.3778C54.1729 40.6708 53.8454 40.9264 53.6795 41.2657C53.4631 41.7104 53.3745 42.22 53.1693 42.913C52.5425 43.4501 51.5347 43.9237 51.0386 45.0238C50.7715 45.6158 49.5881 45.6013 49.2072 45.0686C49.1102 44.9329 49.1299 44.673 49.1664 44.4853C49.203 44.2991 49.3281 44.1301 49.4293 43.9266C49.0751 43.9424 48.8193 43.9554 48.5325 43.9684C48.5747 44.276 48.6239 44.6456 48.6829 45.0787C48.4848 45.0672 48.34 45.057 48.1938 45.0484C48.1741 45.0859 48.1559 45.1235 48.1362 45.161C48.3583 45.2938 48.5719 45.4469 48.8038 45.5551C49.6555 45.9493 49.7427 46.5225 48.9865 47.0942C48.638 47.357 48.0673 47.4162 47.8551 47.7439C47.3224 48.5683 46.4229 48.4543 45.7173 48.808C45.4545 48.9394 45.1284 48.9365 44.9907 48.9639C44.2584 49.5371 43.6147 50.0424 42.9021 50.5997C42.7503 50.2893 42.6519 50.0843 42.5141 49.8027C42.427 50.6488 41.9534 50.7109 41.3883 50.4207C40.9133 50.1767 40.4762 49.8533 40.188 49.6685C39.8535 49.771 39.6567 49.8634 39.4529 49.885C39.0046 49.9327 38.5 49.6295 38.1149 50.0742C39.0018 50.2243 39.8704 50.373 40.739 50.5203C40.7348 50.591 40.732 50.6618 40.7277 50.7325C40.3609 50.8018 39.9927 50.8711 39.6258 50.9404C39.6244 50.9823 39.623 51.0256 39.6202 51.0675C39.9308 51.1094 40.2583 51.0993 40.545 51.2075C40.7516 51.2855 40.9765 51.4905 41.0482 51.6926C41.0876 51.8067 40.8542 52.0579 40.701 52.1965C40.4312 52.4405 40.1262 52.6441 39.8367 52.865C39.8943 52.9531 39.9519 53.0411 40.0095 53.1292C40.493 52.7986 40.9765 52.4694 41.4839 52.1229C41.4558 52.8202 41.0876 53.3963 40.5507 53.7688C39.9955 54.1557 39.3293 54.3752 38.5829 54.7289V52.6138H38.1219C38.1992 52.0738 38.2723 51.5627 38.3454 51.0516L38.0826 51.03V53.8251C36.8949 53.3732 36.0797 51.723 36.3946 50.4597C36.1205 50.2171 35.8534 49.9818 35.54 49.7046C35.8295 50.7542 36.2175 51.7215 36.3215 52.7206C36.3791 53.275 36.4339 53.7587 36.7712 54.1731C36.9216 54.3579 37.1507 54.5095 37.3728 54.5932C37.8746 54.7794 38.0938 55.3613 37.7368 55.7728C37.2407 56.3459 36.6981 56.8787 36.1767 57.4288C36.1092 57.3782 36.0432 57.3292 35.9757 57.2786L35.9785 57.2801Z" fill="#36A84D"/>
</g>
<defs>
<clipPath id="clip0_10_80">
<rect width="68" height="59" fill="white"/>
</clipPath>
</defs>
</svg>
