<?xml version="1.0" encoding="utf-8"?>
<!-- Generator: Adobe Illustrator 27.6.1, SVG Export Plug-In . SVG Version: 6.00 Build 0)  -->
<svg version="1.1" id="Layer_1" xmlns="http://www.w3.org/2000/svg" xmlns:xlink="http://www.w3.org/1999/xlink" x="0px" y="0px"
	 width="51.684px" height="66px" viewBox="0 0 51.684 66" enable-background="new 0 0 51.684 66" xml:space="preserve">
<g>
	<g>
		<path fill="#113D3C" d="M33.581,13.689v7.115c0,0.575-0.08,1.137-0.214,1.685c-1.904-1.361-4.187-2.091-6.527-2.086h-1.966
			c-2.394,0-4.654,0.736-6.54,2.086c-0.134-0.548-0.214-1.11-0.214-1.685v-7.115c0-1.404,0.789-2.621,1.953-3.263
			c0.134-0.869,0.455-1.672,0.923-2.367c1.687-2.576,5.091-3.386,7.757-1.846c0.789,0.455,1.458,1.083,1.953,1.832
			c0.468,0.709,0.789,1.511,0.923,2.381C32.779,11.054,33.581,12.271,33.581,13.689L33.581,13.689z M35.427,31.491
			c0.013,0.174,0.013,0.361,0,0.535l-0.094,2.18l-0.535,12.907l-0.12,3.063l-0.241,5.711c-0.174,4.611-3.972,8.255-8.587,8.239
			c-4.614,0-8.386-3.611-8.587-8.239l-0.227-5.711l-0.134-3.063l-0.522-12.893l-0.094-2.193c-0.013-0.174-0.013-0.348-0.013-0.535
			c0.037-2.156,0.893-4.217,2.394-5.765c1.614-1.702,3.86-2.66,6.206-2.648h1.966c2.367,0,4.561,0.936,6.206,2.648
			C34.558,27.304,35.4,29.324,35.427,31.491L35.427,31.491z"/>
	</g>
	<g>
		<path fill="#3AB54A" d="M51.33,43.156c-0.25,0.275-0.605,0.43-0.976,0.428c-0.334,0-0.655-0.12-0.923-0.348
			c-0.415-0.388-1.083-0.682-1.939-0.856c-1.605-0.321-3.156-1.057-4.481-2.127c-3.919-3.156-6.42-4.119-7.691-4.4l0.094-2.18
			c0.013-0.174,0.013-0.361,0-0.535c1.725,0.267,4.735,1.364,9.282,5.042c0.976,0.789,2.127,1.337,3.317,1.578
			c1.364,0.267,2.448,0.776,3.25,1.511C51.798,41.778,51.825,42.621,51.33,43.156L51.33,43.156z M48.361,65.438
			C48.254,65.519,47.465,66,46.301,66c-0.401,0-0.856-0.053-1.337-0.214c-2.06-0.669-3.798-2.835-5.149-6.42
			c-1.605-4.253-3.705-6.447-5.149-7.543l0.12-3.063c1.685,0.883,5.176,3.397,7.53,9.657c1.351,3.598,2.728,4.561,3.424,4.802
			c0.669,0.241,1.137,0,1.19-0.027c0.629-0.361,1.444-0.174,1.819,0.441C49.123,64.248,48.963,65.05,48.361,65.438L48.361,65.438z
			 M16.368,35.866c-1.271,0.267-3.772,1.217-7.691,4.387c-1.324,1.07-2.876,1.806-4.494,2.127c-0.843,0.174-1.525,0.468-1.939,0.856
			c-0.254,0.227-0.575,0.348-0.909,0.348c-0.361,0-0.709-0.134-0.976-0.428c-0.502-0.539-0.473-1.382,0.066-1.885
			c0,0,0.001-0.001,0.001-0.001c0.789-0.736,1.886-1.244,3.237-1.511c1.19-0.241,2.354-0.789,3.33-1.578
			c4.534-3.678,7.543-4.775,9.269-5.042c0,0.187,0,0.361,0.013,0.535L16.368,35.866z M17.023,51.823
			c-1.431,1.083-3.544,3.277-5.149,7.543c-1.351,3.584-3.09,5.751-5.149,6.42C6.23,65.947,5.789,66,5.374,66
			c-1.15,0-1.939-0.481-2.06-0.562C2.703,65.04,2.53,64.221,2.928,63.61c0.004-0.006,0.008-0.012,0.011-0.017
			c0.404-0.615,1.229-0.788,1.846-0.388c0.027,0.013,0.495,0.254,1.164,0.013c0.695-0.241,2.06-1.204,3.424-4.802
			c2.354-6.233,5.831-8.761,7.517-9.657L17.023,51.823z"/>
	</g>
	<path fill="#113D3C" d="M44.167,4.742c-0.666,0.302-1.453,0.026-1.773-0.618c-0.6-1.249-1.266-1.446-1.706-1.486
		c-2.652-0.237-7.29,4.326-10.023,7.744c-0.493-0.736-1.16-1.354-1.946-1.801c2.132-2.643,7.797-9.006,12.222-8.559
		c1.16,0.105,2.759,0.71,3.852,2.958C45.114,3.638,44.834,4.427,44.167,4.742L44.167,4.742z M44.127,11.132
		c-0.07,0.722-0.72,1.252-1.453,1.183c-2.946-0.329-4.691,5.969-5.078,8.191c-0.107,0.631-0.666,1.104-1.306,1.104h-2.759v-2.63
		h1.666c0.653-2.866,2.746-9.755,7.744-9.282C43.674,9.765,44.207,10.409,44.127,11.132z M22.962,8.568
		c-0.786,0.447-1.466,1.065-1.973,1.828c-2.706-3.432-7.344-8.007-10.009-7.757c-0.44,0.039-1.106,0.237-1.706,1.486
		c-0.32,0.644-1.12,0.933-1.786,0.618C6.835,4.427,6.542,3.638,6.862,2.981c1.093-2.248,2.706-2.853,3.865-2.958
		C15.179-0.425,20.803,5.926,22.962,8.568z M18.124,18.981v2.63h-2.746c-0.653,0-1.2-0.473-1.306-1.104
		c-0.387-2.222-2.146-8.52-5.078-8.191c-0.746,0.053-1.386-0.46-1.466-1.183c-0.07-0.722,0.467-1.364,1.2-1.433
		c4.971-0.486,7.091,6.416,7.744,9.282H18.124z"/>
</g>
</svg>
