<svg width="40" height="53" viewBox="0 0 40 53" fill="none" xmlns="http://www.w3.org/2000/svg">
<g clip-path="url(#clip0_819_263)">
<path d="M15.2765 14.2649C13.8214 15.8043 12.4055 17.3814 10.8895 18.852C10.4937 19.2357 9.78681 19.4376 9.21262 19.4575C7.11377 19.5285 5.01056 19.4841 2.90736 19.4864C1.6785 19.4864 0.671486 19.0361 0.206041 17.8316C-0.252879 16.6494 0.105992 15.6202 0.989032 14.7152C4.36025 11.2527 7.74016 7.80125 11.0526 4.28108C14.4826 0.634471 18.7064 -0.456848 23.4478 0.164228C25.1574 0.388259 26.856 0.829667 28.5134 1.3354C31.8085 2.34243 35.1601 2.8038 38.5879 2.65741C39.6405 2.61304 40.019 3.03005 39.9972 4.07035C39.9581 6.06445 39.9624 8.06299 39.9972 10.0571C40.0146 11.0286 39.6057 11.3436 38.6792 11.541C37.5417 11.7828 36.3128 12.1466 35.4015 12.8364C32.1391 15.3096 28.6917 15.4693 25.0095 14.1362C22.0602 13.0693 19.05 12.344 15.8876 12.3639C14.6305 12.3706 13.9584 11.6741 13.9693 10.5917C13.9823 9.51808 14.6783 8.90144 15.9376 8.89701C18.7651 8.88813 21.5904 8.89479 24.4179 8.89257C24.7072 8.89257 25.0704 8.99238 25.2705 8.85486C25.6141 8.6153 26.0121 8.25375 26.0796 7.88332C26.1187 7.66594 25.5684 7.0981 25.2792 7.09367C21.9101 7.05152 18.5367 6.99829 15.1742 7.13803C13.5887 7.20457 12.2445 8.85264 12.1053 10.4209C11.9683 11.9492 13.0275 13.4774 14.6087 14.0342C14.8458 14.1185 15.0851 14.1983 15.2786 14.2649H15.2765Z" fill="#113D3C"/>
<path d="M0.00793825 52.9241C0.00793825 50.6705 -0.0268614 48.4258 0.0492628 46.1832C0.0601377 45.8793 0.593007 45.4801 0.962753 45.3226C2.21119 44.7947 3.67277 44.6084 4.73416 43.8342C7.89223 41.5274 11.1743 41.3078 14.726 42.5677C17.8101 43.6634 20.9573 44.4686 24.2676 44.422C25.3899 44.4065 26.0489 45.1917 26.0076 46.2431C25.9685 47.2368 25.3051 47.8845 24.2046 47.8912C21.1987 47.9134 18.1907 47.8845 15.1849 47.9178C14.7934 47.9222 14.2888 48.0531 14.0387 48.3215C13.5428 48.8516 13.9648 49.7012 14.7456 49.7078C18.0428 49.7367 21.3401 49.781 24.633 49.6768C26.2621 49.6258 27.6758 48.0465 27.865 46.4228C28.0477 44.8634 26.9798 43.2997 25.3399 42.7252C25.1115 42.6453 24.881 42.5721 24.6765 42.5056C26.1446 40.9595 27.5627 39.3847 29.0809 37.9185C29.4767 37.537 30.1857 37.3418 30.7578 37.324C32.8936 37.2553 35.0316 37.2996 37.1696 37.2952C38.3702 37.293 39.3163 37.781 39.7687 38.9277C40.2124 40.0568 39.9296 41.0904 39.0792 41.9688C35.695 45.4668 32.3259 48.9803 28.9264 52.4605C28.6567 52.7378 28.1935 52.9707 27.8194 52.9729C18.7258 52.9995 9.63221 52.9929 0.540808 52.9907C0.401609 52.9907 0.260236 52.9552 0.00793825 52.9197V52.9241Z" fill="#113D3C"/>
<path d="M28.6332 28.4788C28.5853 33.3387 24.6965 37.2715 19.9572 37.2515C15.1722 37.2315 11.2921 33.199 11.3443 28.3013C11.3965 23.3749 15.2745 19.5131 20.1334 19.553C24.8596 19.5907 28.6832 23.6056 28.6353 28.481L28.6332 28.4788ZM19.1633 23.6211C19.2394 23.6965 19.3156 23.7719 19.3917 23.8473C19.2938 23.8806 19.1959 23.9183 19.0959 23.9494C17.5778 24.4107 16.7513 25.5642 16.9492 26.9461C17.1558 28.3923 18.1998 29.2729 19.7593 29.3128C19.868 29.315 19.9768 29.3172 20.0855 29.3128C20.6923 29.2973 21.3013 29.4725 21.1425 30.1801C21.0642 30.5306 20.4531 30.8855 20.0224 30.9964C19.4787 31.1361 18.8719 31.0452 18.2933 31.0274C17.6387 31.0097 16.9688 31.0407 16.9361 31.8969C16.9035 32.7332 17.5169 32.8973 18.2041 32.8729C18.3042 32.8685 18.4086 32.9195 18.5108 32.9439C18.4369 33.0171 18.3651 33.0881 18.2911 33.1613C18.7087 33.6493 19.1285 34.1372 19.5461 34.6252C19.9681 34.1439 20.39 33.6626 20.8141 33.1835C20.7358 33.1036 20.6575 33.0237 20.5814 32.9439C20.7489 32.8907 20.9185 32.8441 21.0838 32.7842C22.5128 32.2585 23.2349 31.1139 23.0108 29.7343C22.7846 28.3346 21.7863 27.5228 20.2378 27.4784C20.0203 27.4718 19.7397 27.5538 19.6005 27.4474C19.2938 27.2122 18.8545 26.8817 18.8545 26.5912C18.8545 26.3161 19.3112 25.8902 19.6375 25.8037C20.1464 25.6684 20.7141 25.7838 21.2556 25.7572C21.969 25.7217 22.9478 26.0389 23.0391 24.8788C23.1261 23.7653 22.1235 23.9982 21.4557 23.8606C21.5384 23.7786 21.6189 23.6965 21.7015 23.6144C21.2774 23.1309 20.8533 22.6473 20.4291 22.166C20.0094 22.6518 19.5896 23.1375 19.1698 23.6233L19.1633 23.6211Z" fill="#3AB54A"/>
</g>
<defs>
<clipPath id="clip0_819_263">
<rect width="40" height="53" fill="white"/>
</clipPath>
</defs>
</svg>
