<svg width="50" height="50" viewBox="0 0 50 50" fill="none" xmlns="http://www.w3.org/2000/svg">
<g clip-path="url(#clip0_819_176)">
<path d="M21.3551 7.50816C23.771 5.24635 26.2357 5.25221 28.6517 7.50816C29.8391 6.12529 29.4348 3.99045 27.8587 3.02361C27.722 2.93962 27.5658 2.88298 27.4251 2.80485C26.5853 2.34194 26.2631 1.51965 26.6283 0.775478C26.9857 0.0449803 27.8372 -0.19917 28.7298 0.173892C32.1789 1.61731 33.4386 6.3128 31.1203 9.30706C30.6594 9.90279 30.6731 10.2837 30.9777 10.9185C31.841 12.7193 32.4347 14.61 32.2804 16.6491C32.1261 18.6668 31.1652 20.0282 29.1731 20.1903C26.4057 20.4169 23.5874 20.4325 20.8258 20.1688C18.5954 19.9559 17.4685 18.325 17.7458 15.9636C17.9509 14.2213 18.5544 12.5142 19.0934 10.8267C19.279 10.2505 19.3649 9.9106 18.9411 9.37737C16.6267 6.45734 17.6833 1.96302 21.0211 0.304756C22.0836 -0.222608 22.9839 -0.0429137 23.3804 0.777431C23.7651 1.57434 23.4058 2.34585 22.4 2.88884C20.5992 3.85958 20.0797 6.0374 21.359 7.50621L21.3551 7.50816Z" fill="#3AB54A"/>
<path d="M31.271 32.1924C32.101 33.5264 32.3042 34.9347 32.3042 36.3703C32.3042 40.0091 31.48 43.4526 29.6304 46.6031C29.193 47.3492 28.6207 48.0446 27.9996 48.652C26.1657 50.447 23.8748 50.4372 22.0096 48.6794C20.3515 47.1168 19.4258 45.1167 18.7559 42.9936C17.8399 40.0853 17.3165 37.1242 17.9746 34.0792C18.1133 33.4346 18.416 32.8272 18.6563 32.1611C23.8533 36.175 26.4685 36.173 31.271 32.1904V32.1924Z" fill="#113D3C"/>
<path d="M19.3811 22.9619C23.1662 23.5811 26.8398 23.6885 30.5174 22.9248C31.4627 25.6085 30.3729 29.345 28.1191 31.0833C25.7696 32.8959 22.7463 32.5053 20.8791 30.0794C19.2601 27.9758 18.7933 25.5968 19.3792 22.9639L19.3811 22.9619Z" fill="#113D3C"/>
<path d="M33.3203 21.6804C33.9297 20.4186 34.4882 19.3053 34.998 18.1724C35.1503 17.8326 35.2382 17.4361 35.2421 17.063C35.2655 15.0454 35.3085 13.0238 35.2323 11.0081C35.1855 9.75804 35.6503 9.0295 36.7967 8.52557C38.4588 7.79508 40.0525 6.90832 41.6833 6.1036C42.6285 5.63679 43.482 5.85164 43.8726 6.61925C44.2613 7.38686 43.9332 8.25017 43.027 8.71503C41.6989 9.3967 40.3689 10.0803 39.0115 10.7014C38.3924 10.9847 38.1561 11.344 38.1717 12.0355C38.2166 14.1508 38.1912 16.2681 38.1854 18.3834C38.1814 19.8717 37.9686 20.1627 36.5487 20.6354C35.4862 20.9889 34.4179 21.3249 33.3184 21.6784L33.3203 21.6804Z" fill="#113D3C"/>
<path d="M16.6724 21.72C15.2427 21.2044 13.7955 20.7786 12.4479 20.1379C12.0808 19.9621 11.8562 19.1535 11.8405 18.6261C11.7741 16.4151 11.7839 14.2002 11.8288 11.9872C11.8425 11.327 11.6062 10.9891 11.0339 10.7215C9.68241 10.0887 8.35043 9.41289 7.02041 8.73513C6.09076 8.2605 5.74116 7.44211 6.09857 6.66473C6.4677 5.86392 7.3661 5.63735 8.35825 6.1276C10.0476 6.95967 11.7097 7.84447 13.4166 8.63747C14.3658 9.07889 14.7896 9.71173 14.7603 10.7645C14.7115 12.456 14.8092 14.1514 14.731 15.8409C14.6373 17.8976 15.2564 19.6594 16.604 21.1907C16.6646 21.2591 16.6939 21.3548 16.731 21.4427C16.7407 21.468 16.7192 21.5052 16.6724 21.7239V21.72Z" fill="#113D3C"/>
<path d="M15.2073 32.542C15.0648 33.7159 14.9827 34.714 14.7991 35.6945C14.7542 35.9367 14.4202 36.2433 14.1644 36.3117C12.1078 36.8644 11.4926 38.2082 11.8012 40.22C12.0707 41.9799 11.5844 43.603 10.7075 45.1538C10.0064 46.3921 9.45755 47.7164 8.81109 48.9879C8.34822 49.9001 7.58848 50.2087 6.82875 49.8493C6.01433 49.4665 5.78191 48.6696 6.19987 47.6969C6.26432 47.5484 6.32682 47.3961 6.40884 47.2574C8.3033 44.0952 9.38724 40.7415 8.89117 36.9933C8.77008 36.0792 9.23295 35.4874 10.0786 35.089C11.7758 34.2901 13.4398 33.4229 15.2054 32.54L15.2073 32.542Z" fill="#113D3C"/>
<path d="M34.7188 32.4971C36.6991 33.4912 38.5116 34.3546 40.2674 35.3214C40.6502 35.5323 40.8494 36.1085 41.0857 36.5421C41.1697 36.6945 41.1404 36.9289 41.115 37.1203C40.6463 40.6849 41.5974 43.9135 43.4313 46.9351C43.6149 47.2398 43.7789 47.5621 43.902 47.8961C44.2125 48.734 43.8981 49.529 43.1501 49.8669C42.447 50.1833 41.6716 49.9235 41.2634 49.1423C40.6638 47.9938 40.2439 46.734 39.535 45.6616C38.1112 43.5092 38.0487 41.1458 38.1991 38.7317C38.2557 37.8313 38.0174 37.2453 37.1151 36.9699C35.7734 36.5597 34.8887 35.8019 35.0058 34.2237C35.043 33.7295 34.8457 33.2178 34.7188 32.499V32.4971Z" fill="#113D3C"/>
<path d="M16.2458 23.4187V26.3446C14.7576 26.3446 13.2401 26.3075 11.7284 26.3681C11.2987 26.3856 10.7167 26.5692 10.4823 26.8837C8.97655 28.9033 7.03326 29.6612 4.55484 29.2979C3.63301 29.1631 2.67211 29.2842 1.73074 29.2744C0.67609 29.2627 0.0198653 28.7099 0.00228787 27.8408C-0.0152896 26.9364 0.660465 26.3602 1.7737 26.3524C3.20333 26.3446 4.63492 26.3837 6.0626 26.329C6.46688 26.3134 7.02936 26.161 7.23638 25.87C8.78515 23.6961 10.8827 23.0652 13.4315 23.4011C14.3513 23.5222 15.3005 23.4207 16.2477 23.4207L16.2458 23.4187Z" fill="#113D3C"/>
<path d="M33.7559 26.3451V23.4407C35.7968 23.4407 37.869 23.3548 39.9255 23.4974C40.4841 23.5364 41.1032 24.1771 41.5075 24.6888C42.5622 26.0248 43.8258 26.6147 45.5425 26.3725C46.4663 26.2416 47.4252 26.3373 48.3666 26.3529C49.3451 26.3705 49.9818 26.9428 49.9994 27.7827C50.0169 28.6597 49.3607 29.2632 48.3276 29.271C46.5405 29.2847 44.7496 29.3335 42.9664 29.2417C42.3825 29.2124 41.5973 28.9566 41.281 28.5269C39.8767 26.6264 38.0623 25.9994 35.7929 26.3275C35.1308 26.4233 34.4433 26.3432 33.7559 26.3432V26.3451Z" fill="#113D3C"/>
</g>
<defs>
<clipPath id="clip0_819_176">
<rect width="50" height="50" fill="white"/>
</clipPath>
</defs>
</svg>
