<svg width="32" height="36" viewBox="0 0 32 36" fill="none" xmlns="http://www.w3.org/2000/svg">
<g clip-path="url(#clip0_455_140)">
<path d="M19.581 21.6113C18.9543 22.8808 17.8398 23.0916 16.5848 23.0233C16.1589 23 15.7285 23.0029 15.3026 23.0233C14.0974 23.0815 13.1188 22.7339 12.5298 21.5546C11.2144 22.2221 9.92471 22.8575 8.66217 23.5381C8.49755 23.6268 8.41298 23.9379 8.38126 24.159C8.18796 25.5011 7.93273 26.8433 7.86779 28.1927C7.80285 29.5553 6.73815 30.2372 5.977 31.1301C5.88488 31.2377 5.39859 31.1955 5.27022 31.0632C5.13732 30.9265 5.12222 30.5499 5.2234 30.3623C5.40614 30.0264 5.68553 29.7254 5.97549 29.4607C6.5237 28.9605 6.69435 28.3396 6.77741 27.646C6.94505 26.2282 7.13534 24.8104 7.37999 23.4028C7.43134 23.1047 7.70016 22.7557 7.972 22.5943C8.82678 22.0883 9.72838 21.655 10.6179 21.2027C11.6524 20.6778 12.8077 20.2866 13.0735 18.8252C12.8938 18.6725 12.6114 18.3672 12.2686 18.1505C10.2086 16.849 8.14416 15.5534 6.05855 14.2912C5.70063 14.076 5.23095 13.9437 4.80809 13.9335C3.44134 13.9001 2.03684 13.7256 0.840748 14.6722C0.701808 14.7813 0.284988 14.566 -0.00195312 14.5006C0.105272 14.2374 0.133966 13.8622 0.334825 13.7314C1.18659 13.1773 2.0897 12.8633 3.18763 12.8095C4.99234 12.7208 6.50406 13.1483 7.93424 14.1909C9.15299 15.0794 10.4941 15.8122 11.9363 16.7123C11.811 16.4143 11.7611 16.2543 11.6811 16.1089C10.7191 14.3552 9.7163 12.619 8.80564 10.8406C8.48547 10.2167 7.98408 9.9419 7.38452 9.77322C6.20202 9.44168 5.41369 8.74515 5.11617 7.59784C5.05426 7.3579 5.23548 7.05835 5.30495 6.78643C5.5783 6.88967 6.04647 6.94057 6.09328 7.10343C6.43308 8.29 7.46154 8.64045 8.46886 8.99526C9.13184 9.22937 9.5245 9.63362 9.83712 10.2313C10.8218 12.1086 11.8623 13.9582 12.8696 15.7962C14.9265 14.822 16.9608 14.9819 19.1431 15.6276C19.3047 15.3367 19.5403 14.9194 19.7713 14.5006C20.312 13.5176 20.9357 12.5652 21.3706 11.54C22.0276 9.99425 23.0379 8.92546 24.746 8.42815C25.1417 8.31327 25.4135 7.71562 25.6808 7.3041C25.9073 6.95511 26.1097 6.57122 26.5945 6.78643C27.0929 7.00746 26.8905 7.40444 26.7531 7.78833C26.4208 8.71316 25.862 9.39369 24.8351 9.64235C23.8051 9.89101 23.2297 10.557 22.7751 11.4658C21.9189 13.1803 20.9463 14.8394 20.1292 16.6222C21.129 16.0027 22.1273 15.3818 23.127 14.7624C23.2327 14.6969 23.349 14.6431 23.4427 14.5646C25.1643 13.1192 27.1457 12.5986 29.4216 12.8254C30.3957 12.9229 31.0844 13.4435 31.8591 13.855C31.9784 13.919 32.0403 14.2694 31.9724 14.4235C31.9029 14.5806 31.6537 14.6955 31.4574 14.7565C31.3426 14.7914 31.1493 14.7202 31.0421 14.6358C29.7539 13.6369 28.2301 13.9422 26.7712 13.9306C26.522 13.9291 26.2471 14.0789 26.0236 14.2171C23.9909 15.4705 21.9642 16.7327 19.945 18.0051C19.572 18.2406 19.2412 18.5373 18.9936 18.7263C19.3726 20.0641 20.173 20.7185 21.2604 21.1722C22.2028 21.5662 23.1059 22.0577 23.9803 22.5783C24.2718 22.7514 24.5527 23.1236 24.6116 23.4435C24.8577 24.8017 25.039 26.1715 25.2006 27.5427C25.2881 28.28 25.4286 28.9649 26.0221 29.5044C26.2758 29.7341 26.5371 30.0031 26.6609 30.3041C26.7576 30.5397 26.6489 30.8553 26.6322 31.1345C26.3604 31.1054 25.9768 31.1752 25.8364 31.0298C24.9423 30.0977 24.0105 29.2092 23.9879 27.7609C23.9682 26.5336 23.7145 25.3077 23.5348 24.0863C23.5046 23.8769 23.3838 23.5948 23.2131 23.5017C22.0382 22.859 20.8375 22.2584 19.5795 21.6099L19.581 21.6113Z" fill="white"/>
<path d="M12.0739 22.9055C14.0462 24.5501 17.8293 24.5807 20.1369 22.9579C21.6532 24.9355 22.1198 27.0803 21.3541 29.4375C20.4903 32.0971 18.6463 34.0951 16.526 35.8851C16.3659 36.0203 15.8932 36.0407 15.7392 35.9156C13.2428 33.8857 11.1043 31.61 10.4927 28.3629C10.1453 26.519 10.7539 24.412 12.0739 22.9041V22.9055Z" fill="white"/>
<path d="M13.3346 5.46027C13.2908 5.24215 13.2954 4.99931 13.1957 4.80737C12.4829 3.45357 12.4829 2.15794 13.4872 0.930647C13.7605 0.596196 14.0762 0.238479 14.5443 0.607829C14.9853 0.955367 14.6833 1.27818 14.416 1.59664C13.6593 2.50257 13.6442 3.36923 14.3374 4.39003C15.5078 4.08757 15.5124 4.08757 15.529 2.94899C15.535 2.54037 15.5456 2.10995 16.1044 2.10995C16.642 2.10995 16.7553 2.5331 16.7039 2.94026C16.6043 3.7473 16.7915 4.31733 17.7822 4.3435C18.4331 3.49429 18.4528 2.56219 17.817 1.69843C17.7294 1.58064 17.5617 1.47886 17.5466 1.35671C17.5149 1.08333 17.5557 0.801229 17.5663 0.523489C17.8532 0.567113 18.2459 0.508948 18.409 0.668903C19.3498 1.59228 19.5945 2.71778 19.226 3.95525C19.1097 4.34641 18.9164 4.71576 18.7427 5.136C18.8711 5.27124 19.0191 5.42683 19.2381 5.65949C19.2909 5.5577 19.3196 5.49372 19.3559 5.4341C20.3013 3.83601 21.2452 2.23646 22.1936 0.63982C22.5168 0.0945198 23.8518 -0.212303 24.3638 0.168681C24.5103 0.279195 24.6598 0.588925 24.5994 0.708164C24.4982 0.907381 24.2022 1.18221 24.033 1.15604C23.2039 1.02807 22.9623 1.5661 22.6602 2.1114C21.89 3.49865 21.067 4.85972 20.3254 6.26005C20.1578 6.5756 20.1216 7.04964 20.2288 7.39136C20.999 9.84158 20.8404 12.1609 19.3649 14.3334C17.1797 13.7096 15.0427 13.727 12.8317 14.3116C12.1552 13.4885 11.8078 12.4561 11.6477 11.3742C11.4288 9.89102 11.5465 8.43252 12.1567 7.02201C12.2579 6.7879 12.202 6.41273 12.0721 6.17716C11.2445 4.68231 10.361 3.21655 9.52739 1.7246C9.30992 1.33635 9.06828 1.13568 8.59407 1.1793C8.15007 1.22002 7.73778 1.07897 7.75439 0.575838C7.77251 0.0465333 8.23464 0.0901573 8.64844 0.0378085C9.58629 -0.0843388 10.1209 0.289374 10.5423 1.0906C11.3306 2.59418 12.2231 4.04831 13.0734 5.5228C13.161 5.50099 13.2486 5.47772 13.3362 5.45591L13.3346 5.46027ZM14.4371 6.83152C13.8194 6.81407 13.3195 7.26922 13.3029 7.8625C13.2863 8.45434 13.7605 8.92984 14.3812 8.94438C14.9898 8.95892 15.5033 8.49796 15.5245 7.91776C15.5456 7.34774 15.0457 6.84897 14.4386 6.83152H14.4371ZM17.9091 8.94438C18.5192 8.95601 19.007 8.50378 19.0221 7.9134C19.0372 7.32157 18.5721 6.84897 17.9589 6.83443C17.3715 6.82134 16.861 7.29394 16.8353 7.87559C16.8097 8.44997 17.2944 8.93129 17.9106 8.94293L17.9091 8.94438Z" fill="#113D3C"/>
</g>
<defs>
<clipPath id="clip0_455_140">
<rect width="32" height="36" fill="white"/>
</clipPath>
</defs>
</svg>
