<svg width="46" height="45" viewBox="0 0 46 45" fill="none" xmlns="http://www.w3.org/2000/svg">
<g clip-path="url(#clip0_819_150)">
<path d="M37.738 23.626C37.7056 24.3448 38.1927 24.6142 38.8397 24.8425C40.61 25.4686 42.3641 26.141 44.102 26.851C44.4363 26.9883 44.7687 27.3361 44.9197 27.6679C45.3223 28.5562 45.6278 29.4891 46.0016 30.4898C45.1875 30.7966 44.3895 31.0998 43.5215 31.4262C43.4011 31.1801 43.2321 30.9625 43.1872 30.7217C42.9607 29.4641 42.1717 28.8487 40.9676 28.5188C39.9108 28.2298 38.9044 27.7535 37.9123 27.3754C37.4954 28.7007 37.1269 29.9992 36.6597 31.2639C36.5428 31.5796 36.1492 31.9168 35.815 32.0149C31.2626 33.342 26.6096 33.6987 21.8847 33.4365C17.8068 33.21 13.8223 32.5304 9.93671 31.2639C9.26634 31.0445 8.87275 30.7217 8.72358 30.0349C8.54206 29.2001 8.29764 28.3796 8.04602 27.4289C6.64599 27.9836 5.26931 28.5116 3.9142 29.0895C3.7201 29.1734 3.58711 29.4855 3.50084 29.7192C3.18453 30.5772 2.90057 31.4459 2.56808 32.4109C1.70901 32.1308 0.898457 31.8668 -0.00195312 31.5725C0.486892 30.133 0.934402 28.7346 1.4556 27.3647C1.54726 27.1239 1.92108 26.9419 2.20324 26.8278C3.83153 26.1642 5.46161 25.5007 7.11326 24.8996C7.78004 24.657 8.18441 24.3627 8.11252 23.5849C8.08017 23.2478 8.23114 22.8929 8.28506 22.6182C17.9757 26.2195 27.7436 26.1696 37.7362 23.6295L37.738 23.626Z" fill="#3AB54A"/>
<path d="M2.36139 44.9908C1.57061 44.5163 0.842734 44.0793 0.0429688 43.5995C1.15905 41.748 2.33803 40.0231 3.27079 38.1751C4.06157 36.6055 4.93861 35.8723 6.84008 36.3486C8.67864 36.8088 10.6196 36.8588 12.6775 37.1085C12.061 36.2059 11.5111 35.3979 10.9593 34.5898C14.8144 35.5299 18.6874 36.0543 22.6089 36.1916C26.5592 36.329 30.4772 35.9919 34.5192 35.1981C34.0393 35.8831 33.6529 36.436 33.1694 37.1263C34.9343 36.914 36.5446 36.7196 38.1567 36.5252C38.5126 36.4824 38.8936 36.5056 39.2207 36.3861C40.9964 35.735 41.8788 36.5751 42.648 38.0895C43.5987 39.9624 44.7957 41.7123 45.9351 43.5959C45.1497 44.0704 44.4237 44.511 43.6167 44.9979C42.5366 43.2106 41.4529 41.4786 40.441 39.7092C40.1175 39.1419 39.7365 39.0135 39.1416 39.092C36.2067 39.4719 33.2665 39.8162 30.3352 40.2104C29.9129 40.2675 29.4887 40.4797 29.1185 40.7045C27.2835 41.8211 25.4575 42.9502 23.6513 44.1078C23.1607 44.4218 22.7743 44.445 22.2711 44.1275C20.7848 43.1874 19.2086 42.3758 17.7816 41.3573C16.6979 40.5832 15.5872 40.1337 14.2662 39.9999C11.7986 39.7502 9.33822 39.4166 6.87782 39.0902C6.2398 39.0064 5.8534 39.1598 5.51372 39.7573C4.51806 41.5089 3.44152 43.2142 2.36319 44.9908H2.36139Z" fill="#113D3C"/>
<path d="M18.0524 5.62054C16.257 4.49501 14.5029 3.39444 12.7129 2.27248C13.2107 1.4912 13.6672 0.770572 14.1579 0C16.2355 1.29142 18.2448 2.56857 20.29 3.78508C20.6494 3.99913 21.1617 4.00448 21.6056 4.0241C22.5186 4.06156 23.4333 4.06334 24.3481 4.04015C24.7399 4.03124 25.1946 4.03124 25.5073 3.84216C27.5813 2.60247 29.6212 1.31104 31.7293 0.00178373C32.2056 0.754519 32.6621 1.47336 33.1707 2.27783C31.3897 3.39266 29.6535 4.47895 27.8797 5.59022C28.4746 6.12355 29.0748 6.59268 29.5906 7.14206C31.4993 9.17017 31.6449 11.7816 29.8944 13.9327C26.742 17.8088 20.5398 18.9254 16.3433 14.2395C14.2028 11.8493 14.343 9.22011 16.5967 6.93694C17.0334 6.49457 17.5205 6.10215 18.0542 5.62232L18.0524 5.62054Z" fill="#3AB54A"/>
<path d="M1.8057 17.1794C1.38875 16.3464 1.02032 15.6115 0.601562 14.7768C2.13819 14.0098 3.68381 13.3712 5.08205 12.4989C6.35808 11.7034 7.28006 11.8193 8.33862 12.8521C9.35585 13.8439 10.551 14.6537 11.7012 15.5705C12.1559 15.1406 12.5801 14.7375 13.0114 14.329C17.792 21.8778 28.02 21.8189 32.8905 14.3843C33.3057 14.7678 33.7101 15.1406 34.1737 15.5687C35.6457 14.4075 37.1014 13.2356 38.5931 12.1065C38.8214 11.9335 39.2797 11.8175 39.5133 11.9281C41.4273 12.8271 43.3144 13.785 45.2878 14.7661C44.8906 15.5616 44.5114 16.3215 44.0836 17.1777C42.7591 16.5195 41.4471 15.9076 40.1765 15.2209C39.6139 14.9177 39.224 14.9783 38.7531 15.3797C37.8023 16.1913 36.8067 16.9529 35.82 17.7413C36.2621 18.7206 36.6971 19.682 37.1266 20.6345C32.1447 23.3726 15.3945 23.6562 9.1312 19.7498C9.43493 19.1077 9.74585 18.453 10.0765 17.752C8.97843 16.8744 7.90189 15.979 6.77683 15.1496C6.58992 15.0104 6.1514 15.0586 5.90338 15.1745C4.55366 15.8024 3.22731 16.4767 1.80391 17.1812L1.8057 17.1794Z" fill="#113D3C"/>
</g>
<defs>
<clipPath id="clip0_819_150">
<rect width="46" height="45" fill="white"/>
</clipPath>
</defs>
</svg>
