<svg width="33" height="32" viewBox="0 0 33 32" fill="none" xmlns="http://www.w3.org/2000/svg">
<g clip-path="url(#clip0_772_147)">
<path d="M22.8829 20.879C17.268 20.8956 12.6945 16.2491 12.6797 10.5167C12.665 4.73586 17.2415 0 22.8401 0C28.3843 0 32.9858 4.69194 32.9991 10.3577C33.0138 16.1961 28.5272 20.8623 22.8829 20.879ZM21.6603 11.4542C21.6603 11.6314 21.6603 11.8071 21.6603 11.9843C21.6677 12.9172 22.1066 13.5139 22.8077 13.5397C23.5059 13.5654 23.9434 12.996 24.0362 12.0585C24.0597 11.8207 24.2527 11.5208 24.4545 11.3921C25.9142 10.4577 26.5387 8.90984 26.0571 7.31204C25.5946 5.77784 24.1953 4.83279 22.5367 4.93275C21.0387 5.02362 19.8014 6.21402 19.5069 7.84817C19.3537 8.69629 19.7072 9.36268 20.3847 9.50504C21.1521 9.66558 21.6426 9.25969 21.8209 8.31464C21.9387 7.68915 22.2657 7.31355 22.9241 7.3499C23.475 7.3817 23.8049 7.72853 23.8403 8.25406C23.8845 8.89469 23.5368 9.25969 22.8961 9.37176C21.9608 9.53685 21.6677 9.93365 21.6588 10.9211C21.6588 11.0983 21.6588 11.274 21.6588 11.4512L21.6603 11.4542ZM22.8328 17.1896C23.4323 17.1896 24.0023 16.6096 24.0111 15.9871C24.0214 15.3071 23.475 14.7649 22.7945 14.7816C22.1479 14.7967 21.6485 15.3268 21.6588 15.9871C21.6691 16.6187 22.2244 17.1881 22.8313 17.1896H22.8328Z" fill="white"/>
<path d="M10.8375 6.35798C10.6224 7.89823 10.4118 9.40819 10.182 11.0469C9.18481 11.0469 8.09188 11.0469 6.99895 11.0469C6.63071 11.0469 6.261 11.0257 5.89571 11.0605C5.16807 11.1287 4.68053 11.6845 4.72324 12.3509C4.76448 12.9945 5.25056 13.4504 5.97378 13.4595C7.323 13.4777 8.6737 13.4822 10.0229 13.4595C10.4751 13.4519 10.7461 13.5337 10.8492 14.0577C10.9553 14.5908 11.1807 15.0997 11.4045 15.7691C10.9759 15.7691 10.6239 15.7691 10.2733 15.7691C8.89906 15.7691 7.5248 15.7585 6.15053 15.7752C5.23877 15.7858 4.69526 16.2841 4.72177 17.0307C4.74681 17.7516 5.26381 18.1802 6.15937 18.1848C8.19646 18.1938 10.2336 18.1726 12.2692 18.206C12.5652 18.2105 12.9482 18.368 13.1397 18.5922C16.7072 22.7601 21.1069 24.1383 26.33 22.8146C26.4699 22.7798 26.6098 22.7389 26.7512 22.701C27.1784 25.3257 25.1943 27.6171 22.4605 27.6428C19.8593 27.6671 17.2581 27.6731 14.6568 27.6413C12.6359 27.6171 10.8537 28.2396 9.27613 29.5223C8.44834 30.1948 7.61759 30.8612 6.78979 31.5321C6.17704 32.0273 5.51127 32.1561 4.80131 31.7926C4.12228 31.4443 3.79676 30.8597 3.82032 30.0751C3.82327 29.9737 3.81443 29.8737 3.82032 29.7722C3.89102 28.544 3.9794 27.5399 2.32675 27.0598C0.781624 26.61 0.0333651 25.0561 0.0201085 23.3507C-0.0108234 19.1116 -0.000512774 14.871 0.0142167 10.6319C0.0230544 8.4586 1.56523 6.56244 3.75846 6.39735C6.1196 6.22016 8.50284 6.35646 10.8375 6.35646V6.35798ZM9.65616 22.9373C10.8817 22.9373 12.1071 22.9585 13.3312 22.9297C14.1207 22.9115 14.6185 22.3754 14.592 21.6636C14.567 20.979 14.0824 20.5277 13.3047 20.5247C10.8787 20.5141 8.45275 20.5126 6.02828 20.5307C5.74989 20.5322 5.34483 20.5837 5.22257 20.7685C4.98395 21.129 4.74828 21.6197 4.79394 22.021C4.86317 22.6223 5.38018 22.9267 5.98114 22.9327C7.20664 22.9464 8.43066 22.9373 9.65616 22.9373Z" fill="#194342"/>
</g>
<defs>
<clipPath id="clip0_772_147">
<rect width="33" height="32" fill="white"/>
</clipPath>
</defs>
</svg>
