<svg width="46" height="48" viewBox="0 0 46 48" fill="none" xmlns="http://www.w3.org/2000/svg">
<g clip-path="url(#clip0_819_186)">
<path d="M11.6741 29.7502C10.0039 29.7502 8.34687 29.724 6.69359 29.7783C6.43938 29.7858 6.13622 30.1227 5.9611 30.3773C4.72396 32.1762 3.51884 33.9976 2.29488 35.8077C1.76576 36.5883 1.06716 36.8205 0.496608 36.3768C-0.19069 35.8433 -0.0871241 35.2218 0.3535 34.5685C1.78647 32.4495 3.17801 30.3005 4.66182 28.2171C4.93486 27.8352 5.55813 27.5282 6.04018 27.4983C7.54094 27.4065 9.04923 27.4664 10.5556 27.4608C10.8607 27.4608 11.1638 27.4327 11.6026 27.4121C11.6026 25.8266 11.6101 24.3066 11.5913 22.7885C11.5894 22.6369 11.4538 22.4571 11.3296 22.3467C11.194 22.2269 11.0094 22.1408 10.8306 22.0959C7.31498 21.2179 6.03265 18.3314 4.77292 15.4318C4.49047 14.7822 4.57332 14.1907 5.27568 13.8519C5.98558 13.5112 6.50152 13.835 6.83293 14.4528C7.34699 15.4131 7.8667 16.3753 8.29038 17.3767C8.6651 18.264 9.24506 18.8574 10.1451 19.2019C10.6931 19.4115 11.2072 19.7054 11.7965 19.9918C12.0507 18.7882 12.2918 17.6407 12.5008 16.6523C14.0693 17.139 15.5268 17.7043 17.037 18.03C18.5565 18.3576 20.1288 18.4475 21.7652 18.6534V47.8761C19.5639 47.4212 18.0274 46.0472 16.7206 44.3812C15.1238 42.3445 14.1013 40.0084 13.3161 37.5617C13.2239 37.2716 13.1165 36.9852 12.9753 36.5809C11.6723 37.2285 10.4144 37.8294 9.18669 38.4883C8.98521 38.5969 8.88353 38.9414 8.79502 39.1978C8.1661 41.0192 7.53718 42.8425 6.94214 44.6751C6.68982 45.4519 6.23413 45.8506 5.40938 45.6597C4.72961 45.5006 4.47164 44.8379 4.75597 43.975C5.44704 41.8784 6.13245 39.7781 6.89319 37.7059C7.05701 37.2604 7.46374 36.8017 7.88177 36.5677C9.16221 35.8527 10.4973 35.2293 11.8248 34.5985C12.2485 34.3963 12.4443 34.1736 12.3445 33.6681C12.0997 32.4196 11.9114 31.1597 11.6741 29.7502Z" fill="#113D3C"/>
<path d="M24.2402 48.0004V18.5905C27.4074 18.3397 30.5464 18.1712 33.4631 16.4284C33.723 17.6208 33.9678 18.7515 34.2314 19.9645C35.7265 19.2588 37.344 18.8544 37.9277 17.0143C38.2064 16.1364 38.7243 15.3296 39.163 14.5041C39.5095 13.8508 40.0348 13.4839 40.7805 13.8658C41.5168 14.2439 41.5356 14.8766 41.2061 15.543C40.5037 16.9675 39.8089 18.3977 39.0557 19.796C38.8787 20.1236 38.5247 20.4044 38.1857 20.5878C37.1425 21.1532 36.056 21.6399 35.0129 22.2071C34.7624 22.3437 34.463 22.6657 34.4536 22.9128C34.4009 24.3729 34.4272 25.8349 34.4272 27.4616C35.5627 27.4616 36.6153 27.4429 37.6641 27.4653C41.6448 27.5458 40.4096 26.8457 42.7068 30.1684C43.7011 31.606 44.667 33.0624 45.633 34.5169C46.1659 35.3199 46.1094 36.0088 45.5087 36.4C44.9099 36.7894 44.2434 36.5666 43.7105 35.7785C42.5053 33.9946 41.2852 32.22 40.1233 30.408C39.79 29.8895 39.4304 29.7135 38.8297 29.7303C37.3346 29.7715 35.8357 29.7435 34.3538 29.7435C34.1128 31.1624 33.8623 32.4727 33.6966 33.7924C33.6665 34.0264 33.9301 34.4177 34.1617 34.5412C35.429 35.2207 36.7584 35.786 38.0012 36.5049C38.4927 36.7894 38.9841 37.3004 39.1781 37.8208C39.9219 39.7995 40.5508 41.8211 41.2136 43.8278C41.5337 44.7956 41.3435 45.4078 40.6751 45.6455C39.9313 45.9094 39.3946 45.5556 39.0481 44.5485C38.4437 42.7833 37.86 41.0106 37.2442 39.251C37.1369 38.9459 36.9825 38.5546 36.7302 38.4161C35.557 37.7778 34.3425 37.2162 33.0809 36.5966C31.356 41.3269 29.699 46.0349 24.2383 47.9948L24.2402 48.0004Z" fill="#113D3C"/>
<path d="M18.2137 8.04734C17.6582 6.89798 17.1554 5.79354 16.5867 4.7228C16.4267 4.42141 16.1122 4.14998 15.8034 3.98713C14.6717 3.38624 13.5061 2.84712 12.365 2.26308C11.5761 1.85874 11.2955 1.20357 11.6646 0.604552C12.0845 -0.07683 12.6814 -0.140476 13.3706 0.205831C14.7659 0.907804 16.1819 1.57234 17.5565 2.31175C17.9105 2.50269 18.2231 2.87333 18.4151 3.23461C18.9725 4.27728 19.4903 5.34428 19.9649 6.42812C20.2172 7.00468 20.5109 7.1432 21.17 7.0833C22.4034 6.96911 23.6593 7.01404 24.9002 7.0833C25.4293 7.11325 25.8248 7.13197 25.9773 6.53857C25.9848 6.50862 26.0093 6.48428 26.0225 6.4562C28.1993 2.07027 28.2934 1.99352 32.7881 0.149673C33.5018 -0.142347 34.0535 0.0111507 34.3736 0.655094C34.7013 1.31776 34.432 1.87559 33.7767 2.20879C32.7467 2.73481 31.7242 3.28703 30.6622 3.7419C29.8883 4.07324 29.4138 4.58802 29.0993 5.34989C28.7208 6.26526 28.2501 7.1432 27.8001 8.07729C29.8318 9.34272 31.2196 11.1023 32.2778 13.1708C32.677 13.9514 32.4831 14.4886 31.7751 14.7339C30.3666 15.2224 28.9393 15.7447 27.4743 15.9637C23.6951 16.5328 19.9084 16.4617 16.1857 15.5032C15.4117 15.3048 14.6755 14.9229 13.9618 14.5504C13.4967 14.3071 13.4045 13.9252 13.6587 13.373C14.6378 11.2521 15.7902 9.84814 18.2118 8.04547L18.2137 8.04734Z" fill="#3AB54A"/>
</g>
<defs>
<clipPath id="clip0_819_186">
<rect width="46" height="48" fill="white"/>
</clipPath>
</defs>
</svg>
