<svg width="56" height="51" viewBox="0 0 56 51" fill="none" xmlns="http://www.w3.org/2000/svg">
<g clip-path="url(#clip0_819_146)">
<path d="M14.1992 50.9153V49.6086C14.1992 35.4495 14.1992 21.2905 14.1992 7.13154C14.1992 5.25367 14.295 5.16414 16.1802 5.16172C19.2559 5.16172 22.3293 5.1351 25.4026 5.17866C26.2506 5.19076 26.5404 4.9052 26.4853 4.06791C26.4302 3.22577 26.4709 2.37396 26.4853 1.52698C26.5093 0.544492 27.0842 -0.00241193 27.9896 7.99658e-06C28.8975 0.00242793 29.4604 0.561431 29.4772 1.5415C29.4915 2.38848 29.5371 3.23787 29.4772 4.08243C29.4173 4.9415 29.7407 5.19076 30.5719 5.18108C33.765 5.13994 36.9604 5.1593 40.1559 5.16898C41.5357 5.17382 41.7609 5.38919 41.7609 6.78549C41.768 21.2276 41.7656 35.6673 41.7609 50.1095C41.7609 50.3466 41.7321 50.5838 41.7106 50.9105H34.6441C34.6441 48.7882 34.6441 46.6659 34.6441 44.5436C34.6441 41.6204 33.765 40.7371 30.8497 40.7371C28.7346 40.7371 26.617 40.7226 24.5019 40.7419C22.4011 40.7637 21.3471 41.8236 21.3256 43.9532C21.3016 46.2473 21.3208 48.5414 21.3208 50.9177H14.1992V50.9153ZM21.5987 12.9055C22.0849 12.8716 22.6502 12.891 23.1916 12.7821C24.0013 12.6199 24.4324 12.0537 24.3749 11.2188C24.3175 10.3912 23.8456 9.86848 23.0024 9.82976C22.0873 9.78862 21.1675 9.79346 20.2524 9.82492C19.4164 9.85396 18.923 10.3331 18.8535 11.1752C18.7816 12.073 19.2152 12.6441 20.0943 12.8014C20.5614 12.8837 21.0453 12.8692 21.5963 12.9031L21.5987 12.9055ZM34.3734 9.82492C34.3734 9.82492 34.3734 9.82008 34.3734 9.81766C33.935 9.81766 33.4967 9.80314 33.0583 9.82008C32.16 9.85638 31.645 10.3525 31.5875 11.2406C31.5348 12.0779 31.9828 12.6974 32.7924 12.7748C33.8536 12.874 34.9435 12.874 36.0023 12.7555C36.8335 12.6611 37.3078 11.9424 37.0611 11.1752C36.891 10.6453 36.3065 10.154 35.7867 9.86606C35.4202 9.66278 34.8525 9.82734 34.3734 9.82734V9.82492ZM21.6633 17.5663C21.6633 17.5663 21.6633 17.559 21.6633 17.5566C21.1842 17.5566 20.7052 17.53 20.2285 17.5614C19.3949 17.6195 18.9086 18.0914 18.8511 18.936C18.7936 19.7708 19.1769 20.4145 20.0033 20.4968C21.0645 20.6009 22.1544 20.6057 23.2156 20.4895C24.0204 20.4 24.5594 19.72 24.3318 18.9408C24.1761 18.406 23.5916 17.9002 23.0718 17.605C22.7101 17.3969 22.1376 17.5639 21.6609 17.5639L21.6633 17.5663ZM34.1985 20.6323C34.7974 20.6009 35.3196 20.6154 35.8298 20.5404C36.7137 20.4097 37.1593 19.8507 37.1114 18.9505C37.0658 18.1035 36.582 17.605 35.7484 17.5687C34.795 17.5276 33.8009 17.4114 32.893 17.6244C32.3828 17.7453 31.7935 18.3963 31.6307 18.9311C31.3959 19.7103 31.9373 20.3153 32.7349 20.5016C33.2332 20.6178 33.7626 20.596 34.1985 20.6299V20.6323ZM21.6993 25.3076C21.6993 25.3076 21.6993 25.3028 21.6993 25.3004C21.1819 25.3004 20.6597 25.2568 20.147 25.31C19.3134 25.3972 18.8655 25.9078 18.8511 26.7547C18.8343 27.5993 19.2607 28.1825 20.0871 28.2503C21.1148 28.3325 22.1616 28.3374 23.1844 28.2357C24.006 28.1535 24.5378 27.488 24.3342 26.7112C24.1929 26.174 23.6204 25.6513 23.1102 25.3488C22.7556 25.1382 22.1783 25.3076 21.7017 25.3076H21.6993ZM34.3542 28.3374C34.3542 28.3229 34.3542 28.3108 34.3542 28.2962C34.7926 28.2962 35.2334 28.3253 35.6669 28.289C36.6035 28.2115 37.1353 27.6961 37.1066 26.7257C37.0778 25.8158 36.5556 25.3246 35.6669 25.2955C34.7519 25.2665 33.832 25.2568 32.9194 25.31C32.081 25.3584 31.6187 25.8957 31.5851 26.7257C31.5516 27.5582 31.9852 28.1099 32.8044 28.2503C33.3098 28.3374 33.8368 28.3108 34.3518 28.335L34.3542 28.3374ZM21.546 35.9916C22.1041 35.9916 22.7628 36.1804 23.1892 35.9432C23.6922 35.6625 24.2983 35.014 24.3007 34.5251C24.3007 34.0387 23.6731 33.2232 23.206 33.1264C22.1759 32.911 21.0429 32.9135 20.0105 33.1264C19.5482 33.2208 18.9278 34.0363 18.9278 34.5227C18.9278 35.014 19.5242 35.6456 20.0201 35.9481C20.3986 36.1804 21.0262 35.994 21.5436 35.994L21.546 35.9916ZM34.3518 33.0345C33.8752 33.0345 33.3937 32.9957 32.9194 33.0417C32.0858 33.1216 31.6091 33.6322 31.5875 34.4646C31.5636 35.3503 32.0331 35.9408 32.9242 35.9989C33.8752 36.0618 34.8357 36.0569 35.7891 35.9989C36.6203 35.948 37.085 35.4229 37.109 34.5784C37.1353 33.6757 36.6778 33.1337 35.7843 33.0417C35.3124 32.9933 34.8309 33.032 34.3518 33.0345Z" fill="#113D3C"/>
<path d="M11.1097 25.3148V50.9781C8.70948 50.9781 6.36916 51.0217 4.02884 50.9563C3.15691 50.9321 3.04432 50.1844 3.04672 49.439C3.05869 46.6586 3.05151 43.8781 3.05151 41.1C3.05151 36.9111 3.05151 32.7246 3.05151 28.4171C2.41672 28.3663 1.83464 28.3469 1.25974 28.2671C0.421343 28.1485 -0.122416 27.5532 0.023704 26.7861C0.129102 26.2416 0.747119 25.3946 1.15913 25.3801C4.45043 25.264 7.74892 25.3148 11.1097 25.3148Z" fill="#3AB54A"/>
<path d="M44.8442 51.0003V25.274C45.8718 25.274 46.8539 25.274 47.8337 25.274C49.8674 25.274 51.9011 25.2692 53.9348 25.2765C55.3169 25.2813 55.9685 25.7532 55.9972 26.7405C56.026 27.7133 55.3385 28.2627 54.0258 28.3207C53.712 28.3353 53.4006 28.3643 52.9694 28.3933C52.9503 28.8555 52.9143 29.279 52.9143 29.7049C52.9119 36.1903 52.9143 42.6782 52.9096 49.1636C52.9096 50.7849 52.7059 50.9955 51.1322 51.0003C49.0673 51.0051 47.0001 51.0003 44.8418 51.0003H44.8442Z" fill="#3AB54A"/>
</g>
<defs>
<clipPath id="clip0_819_146">
<rect width="56" height="51" fill="white"/>
</clipPath>
</defs>
</svg>
