<?xml version="1.0" encoding="utf-8"?>
<!-- Generator: Adobe Illustrator 25.0.0, SVG Export Plug-In . SVG Version: 6.00 Build 0)  -->
<svg version="1.1" id="Layer_1" xmlns="http://www.w3.org/2000/svg" xmlns:xlink="http://www.w3.org/1999/xlink" x="0px" y="0px"
	 width="65px" height="66.6px" viewBox="0 0 65 66.6" style="enable-background:new 0 0 65 66.6;" xml:space="preserve">
<style type="text/css">
	.st0{fill-rule:evenodd;clip-rule:evenodd;fill:#113D3C;}
	.st1{fill-rule:evenodd;clip-rule:evenodd;fill:#3AB54A;}
</style>
<g>
	<path class="st0" d="M28.7,23.6h-3.8c-1.1,0-1.9-1-1.9-2.1c0-1.1,0.8-1.9,1.9-1.9h3.8c1.1,0,1.9,1,1.9,2.1
		C30.6,22.8,29.8,23.6,28.7,23.6z M28.7,31.6h-3.8c-1.1,0-1.9-1-1.9-2.1c0-1.1,0.8-1.9,1.9-1.9h3.8c1.1,0,1.9,1.3,1.9,2.3
		S29.8,31.6,28.7,31.6z M28.7,38.6h-3.8c-1.1,0-1.9-1-1.9-2.1c0-1.1,0.8-1.9,1.9-1.9h3.8c1.1,0,1.9,0.5,1.9,1.6
		C30.6,37.3,29.8,38.6,28.7,38.6z M28.7,46.6h-3.8c-1.1,0-1.9-1-1.9-2.1c0-1.1,0.8-1.9,1.9-1.9h3.8c1.1,0,1.9,0.8,1.9,1.9
		C30.6,45.6,29.8,46.6,28.7,46.6z M30.3,62.6h-7.7v-12h5.8c1.1,0,2.2,0.8,2.2,1.9v10.1H30.3z M17.3,23.6h-3.8c-1.1,0-1.9-1-1.9-2.1
		c0-1.1,0.8-1.9,1.9-1.9h3.8c1.1,0,1.9,1,1.9,2.1C19.2,22.8,18.3,23.6,17.3,23.6z M17.3,31.6h-3.8c-1.1,0-1.9-1-1.9-2.1
		c0-1.1,0.8-1.9,1.9-1.9h3.8c1.1,0,1.9,1.3,1.9,2.3S18.3,31.6,17.3,31.6z M17.3,38.6h-3.8c-1.1,0-1.9-1-1.9-2.1
		c0-1.1,0.8-1.9,1.9-1.9h3.8c1.1,0,1.9,0.5,1.9,1.6C19.2,37.3,18.3,38.6,17.3,38.6z M17.3,46.6h-3.8c-1.1,0-1.9-1-1.9-2.1
		c0-1.1,0.8-1.9,1.9-1.9h3.8c1.1,0,1.9,0.8,1.9,1.9C19.2,45.6,18.3,46.6,17.3,46.6z M19.7,62.6h-8.1V52.5c0-1.1,0.8-1.9,1.9-1.9h6.1
		L19.7,62.6L19.7,62.6z M36.4,11.7L6.2,0.1C4.9-0.3,3.6,0.6,3.6,1.9v60.7h-2c-1.1,0-1.6,1.5-1.6,2.5c0,1.1,0.8,1.5,1.9,1.5h35.7
		V14.1C37.6,13.3,37.2,12,36.4,11.7z"/>
	<path class="st1" d="M55.3,38.6h-7.6c-1.1,0-1.9-1-1.9-2.1c0-1.1,0.8-1.9,1.9-1.9h7.6c1.1,0,1.9,0.8,1.9,1.9
		C57.3,37.6,56.4,38.6,55.3,38.6z M55.3,46.6h-7.6c-1.1,0-1.9-1-1.9-2.1c0-1.1,0.8-1.9,1.9-1.9h7.6c1.1,0,1.9,0.8,1.9,1.9
		C57.3,45.6,56.4,46.6,55.3,46.6z M57.8,62.6h-4.2v-8h-4v8h-4V53c0-1.1,0.8-2.4,1.9-2.4h8.2c1.1,0,1.9,0.8,1.9,1.9v10.1H57.8z
		 M62.7,61.6h-2V29.3c0-0.9-0.9-1.6-1.7-1.8l-17.3-6v44.2h21.1c1.1,0,2.3-0.8,2.3-1.9c0-1.1-0.8-2.1-1.9-2.1H62.7z"/>
</g>
</svg>
