<svg width="51" height="51" viewBox="0 0 51 51" fill="none" xmlns="http://www.w3.org/2000/svg">
<g clip-path="url(#clip0_819_267)">
<path d="M5.32963e-05 21.1462C0.0259436 9.44033 9.51575 -0.0119334 21.2301 1.13083e-05C32.9366 0.011956 42.4224 9.50403 42.4184 21.1979C42.4124 32.9237 32.8131 42.4874 21.1266 42.4058C9.38431 42.3262 -0.0258371 32.856 5.32963e-05 21.1462ZM5.54258 21.174C5.52466 29.8379 12.4394 36.8176 21.0768 36.8555C29.8516 36.8953 36.852 29.9634 36.8659 21.2218C36.8799 12.5161 29.9373 5.5563 21.2262 5.54236C12.519 5.52843 5.5605 12.4643 5.54059 21.174H5.54258Z" fill="#113D3C"/>
<path d="M34.207 40.5663C36.338 38.4381 38.4351 36.3438 40.6039 34.1778C40.598 34.1738 40.8091 34.3192 40.9863 34.4944C43.8283 37.3253 46.6722 40.1562 49.5042 42.999C50.8227 44.3229 51.3385 45.9016 50.7709 47.7231C50.2332 49.4492 49.0263 50.5043 47.2677 50.8845C45.8497 51.1911 44.4915 50.8885 43.4738 49.8891C40.3052 46.7835 37.2123 43.5982 34.209 40.5643L34.207 40.5663Z" fill="#113D3C"/>
<path d="M26.9128 22.9694C26.391 24.4147 26.3751 25.5594 27.4346 26.5787C27.9285 27.0545 28.279 27.6816 28.6853 28.247C29.0697 28.7845 29.6233 29.3857 28.8605 29.959C28.1197 30.5165 27.6656 29.8993 27.2593 29.3419C26.7176 28.5973 26.166 27.8588 25.6103 27.1062C22.607 31.2013 19.064 30.3851 16.8016 27.0883C16.2221 27.8747 15.6565 28.6491 15.0849 29.4175C14.6886 29.9491 14.2325 30.4687 13.5315 29.9511C12.8643 29.4574 13.2327 28.9019 13.6032 28.3983C14.0951 27.7313 14.5133 26.9888 15.0988 26.4174C16.1325 25.4081 15.9054 24.3152 15.535 22.9594C15.0889 23.3616 14.7304 23.6662 14.3938 23.9946C13.6569 24.7113 12.928 25.436 12.2011 26.1666C11.7789 26.5906 11.289 26.8116 10.811 26.3557C10.2872 25.858 10.5103 25.3344 10.9643 24.8885C12.0736 23.7936 13.1869 22.7006 14.2982 21.6077C14.3918 21.5161 14.4854 21.4106 14.5989 21.3489C14.9594 21.1558 15.5848 21.0443 15.6485 20.7875C15.8596 19.9314 16.1583 19.0435 15.3418 18.2114C14.6288 17.4867 14.0971 16.5809 13.4896 15.7528C13.1112 15.2372 12.9798 14.7116 13.6032 14.2975C14.1807 13.9133 14.6009 14.2358 14.9475 14.7036C15.5569 15.5278 16.1623 16.354 16.6323 16.993C17.3533 16.1907 18.0563 15.4123 18.9804 14.3871C18.841 13.551 19.3209 12.679 20.5179 12.3266C21.6371 11.9962 23.2344 12.5297 23.2085 13.4892C23.1587 15.3467 24.8017 15.8762 25.5506 17.2956C26.1998 16.4117 26.7694 15.6274 27.3489 14.849C27.7194 14.3513 28.1316 13.8356 28.8127 14.3154C29.5417 14.831 29.1752 15.4024 28.7789 15.9359C28.3846 16.4675 28.042 17.0508 27.5859 17.5246C26.5742 18.5757 26.2118 19.7324 26.6539 20.68C27.6576 21.4564 28.3866 21.9521 29.0338 22.5374C29.8942 23.3158 30.7426 24.1201 31.4874 25.004C31.7244 25.2847 31.8021 25.9834 31.6149 26.2721C31.2624 26.8196 30.6988 26.6424 30.2606 26.2124C29.4082 25.3762 28.5618 24.5341 27.7094 23.698C27.4804 23.473 27.2354 23.262 26.9148 22.9674L26.9128 22.9694Z" fill="#3AB54A"/>
</g>
<defs>
<clipPath id="clip0_819_267">
<rect width="51" height="51" fill="white"/>
</clipPath>
</defs>
</svg>
