<svg width="36" height="55" viewBox="0 0 36 55" fill="none" xmlns="http://www.w3.org/2000/svg">
<g clip-path="url(#clip0_819_285)">
<path d="M28.4854 38.565H18.7616C18.7616 36.0638 18.7451 33.5844 18.7837 31.105C18.7865 30.8453 19.0931 30.572 19.2976 30.3369C22.1263 27.0702 22.5517 23.4373 20.955 19.5146C20.4246 18.2106 19.5241 17.2402 17.9937 17.2429C16.4633 17.2457 15.5683 18.2243 15.0379 19.5255C13.444 23.4482 13.8777 27.0784 16.7092 30.3451C16.9384 30.6075 17.2313 30.9437 17.2368 31.2499C17.281 33.65 17.2616 36.0501 17.2616 38.5322H7.55998C7.34175 37.5645 7.26993 36.5367 6.87766 35.6483C5.77822 33.1661 4.8307 30.5501 3.31413 28.3277C-4.10852 17.4698 1.51302 3.20044 14.444 0.387567C25.06 -1.92232 35.723 6.40148 35.9909 17.1473C36.0959 21.3023 34.9799 25.0392 32.5517 28.4151C30.3832 31.4303 29.0793 34.8008 28.4854 38.565ZM15.7755 31.4576C13.5185 28.9017 12.6042 26.1381 12.734 23.0218C12.7451 22.7566 12.571 22.3192 12.3666 22.2345C11.0296 21.6905 9.69534 20.9497 8.29755 20.7884C6.20639 20.5451 4.86109 22.3821 5.76993 24.2792C6.53236 25.8784 7.61523 27.4256 8.88595 28.6639C10.6594 30.3888 12.9081 31.3866 15.7782 31.4549L15.7755 31.4576ZM20.8031 31.3784C24.3694 31.6408 29.8141 27.524 30.4191 23.8364C30.5821 22.8441 30.444 21.8928 29.5324 21.2723C27.9716 20.2116 26.4826 20.865 24.9633 21.4718C23.7147 21.9693 22.9854 22.6637 23.2313 24.1152C23.3197 24.6319 23.2478 25.2332 23.0627 25.728C22.3418 27.6525 21.5434 29.5496 20.8058 31.3756L20.8031 31.3784Z" fill="#113D3C"/>
<path d="M28.3864 40.1504C28.2483 42.083 28.1074 43.8872 27.9969 45.6941C27.95 46.4459 27.5826 46.6837 26.8422 46.681C20.95 46.6618 15.0577 46.6618 9.16543 46.681C8.43615 46.681 8.04665 46.4677 7.99969 45.7051C7.88919 43.8982 7.74831 42.094 7.60742 40.1504H28.3837H28.3864Z" fill="#3AB54A"/>
<path d="M8.68164 48.1309H27.2562C26.4137 50.5993 25.549 53.3247 23.1457 54.1448C19.8391 55.2738 16.0905 55.312 12.7756 54.1065C10.4385 53.2591 9.65402 50.5911 8.68164 48.1309Z" fill="#113D3C"/>
</g>
<defs>
<clipPath id="clip0_819_285">
<rect width="36" height="55" fill="white"/>
</clipPath>
</defs>
</svg>
