<svg width="46" height="47" viewBox="0 0 46 47" fill="none" xmlns="http://www.w3.org/2000/svg">
<g clip-path="url(#clip0_819_281)">
<path d="M21.5909 36.7436C21.3458 36.1368 21.2483 35.6246 20.97 35.2488C20.0481 34.0038 20.5028 32.9835 21.2503 31.854C24.7679 26.5529 29.7369 23.578 35.8521 22.4275C39.1682 21.8019 42.5071 21.825 45.9998 22.2176C44.3926 29.9855 42.4261 37.4574 36.2196 42.8298C32.6128 45.9496 28.3352 46.6697 23.7545 45.7229C23.5033 45.6704 23.1897 45.2673 23.1441 44.986C22.8451 43.1636 22.5793 41.335 22.382 39.498C22.3405 39.1138 22.5502 38.6331 22.7869 38.2993C26.2193 33.4622 30.9308 30.4306 36.4169 28.5117C36.9048 28.3416 37.4073 28.2115 37.9057 28.0729C38.5182 27.9029 39.0664 27.6488 38.8878 26.8699C38.703 26.0722 38.0697 26.0911 37.4779 26.2737C36.3234 26.6285 35.1668 26.9875 34.0476 27.4389C29.3029 29.3452 25.2164 32.1857 22.0186 36.2586C21.9169 36.3888 21.8027 36.5105 21.5929 36.7499L21.5909 36.7436Z" fill="#113D3C"/>
<path d="M18.9351 31.6891C18.7981 31.2189 18.5634 30.7528 18.5427 30.2762C18.2187 22.8421 19.7263 15.7712 22.7413 9.00686C22.8555 8.75283 23.0881 8.4883 23.0631 8.25106C23.0237 7.85217 22.8202 7.47007 22.6852 7.08168C22.2762 7.23074 21.6678 7.25803 21.4933 7.54985C20.9638 8.44001 20.5631 9.41835 20.1769 10.3883C17.9363 16.0211 16.7507 21.8722 16.6635 27.9458C16.6593 28.1747 16.6427 28.4035 16.6302 28.6722C15.4197 27.9081 14.2859 27.2005 13.1646 26.4741C13.0359 26.3902 12.9466 26.2096 12.8926 26.0543C11.7858 22.8988 11.2231 19.672 12.2614 16.4074C12.7078 15.0028 13.4221 13.6382 14.2444 12.4121C16.2814 9.37636 18.4617 6.43715 20.5631 3.44546C21.3418 2.33696 22.0602 1.18437 22.843 -0.00390625C26.9067 3.13894 29.5957 7.16356 30.3536 12.3974C30.825 15.6558 30.31 18.8028 29.2967 21.889C29.1763 22.2564 28.952 22.7141 28.6447 22.8715C24.6911 24.9038 21.5432 27.8073 19.2549 31.6639C19.149 31.6702 19.0431 31.6786 18.9372 31.6849L18.9351 31.6891Z" fill="#3AB54A"/>
<path d="M0.000123343 27.4976C7.93846 23.8698 19.7203 30.4746 20.1419 38.6813C18.1526 37.2663 16.099 35.7379 13.9727 34.325C13.03 33.6993 11.944 33.2857 10.9057 32.8155C10.316 32.5488 9.691 32.5404 9.42936 33.2647C9.18642 33.9408 9.65985 34.2746 10.2247 34.5055C14.2509 36.1452 17.5608 38.7884 20.5136 41.9543C21.5248 43.0397 21.1531 44.3896 21.3462 45.6325C21.367 45.7606 21.0638 46.0104 20.8666 46.0944C16.4188 47.9923 9.01407 46.9363 5.72495 42.6828C5.07916 41.8472 4.57874 40.8374 4.24235 39.8297C3.54673 37.7512 3.08783 35.5909 2.37976 33.5167C1.68414 31.4781 0.80164 29.5047 -0.00195312 27.4997L0.000123343 27.4976Z" fill="#113D3C"/>
</g>
<defs>
<clipPath id="clip0_819_281">
<rect width="46" height="47" fill="white"/>
</clipPath>
</defs>
</svg>
