<svg width="35" height="35" viewBox="0 0 35 35" fill="none" xmlns="http://www.w3.org/2000/svg">
<g clip-path="url(#clip0_703_596)">
<path d="M23.9698 27.6639C16.4872 32.6841 7.48005 30.3327 2.98534 24.2812C-1.49161 18.2529 -0.883664 9.75289 4.47583 4.42499C9.86676 -0.934376 18.3398 -1.47879 24.3714 3.08173C30.3717 7.61899 32.5958 16.6169 27.6366 23.9857C28.0751 24.2866 28.5301 24.5712 28.9549 24.8953C30.6708 26.2044 32.4059 27.4916 34.0767 28.8567C35.0166 29.6255 35.1669 30.7075 34.8486 31.8497C34.2816 33.8905 31.8744 35.4417 30.0793 34.8864C29.6435 34.7509 29.1612 34.5061 28.8825 34.1627C27.5191 32.4898 26.2117 30.7704 24.8988 29.0564C24.5681 28.6256 24.2935 28.1523 23.9698 27.6653V27.6639ZM26.3934 15.2258C26.407 9.01697 21.4232 3.97495 15.259 3.96127C9.05935 3.9476 3.97445 8.94447 3.95396 15.0739C3.9321 21.3758 8.89131 26.4069 15.1416 26.4233C21.3904 26.441 26.3783 21.477 26.392 15.2258H26.3934Z" fill="#3AB54A"/>
<path d="M15.1639 17.7921C16.7104 17.7921 18.2597 17.7497 19.8034 17.8044C21.3213 17.8591 22.4852 19.0026 22.529 20.4211C22.5385 20.7057 22.4251 21.0586 22.2421 21.2733C18.6791 25.485 12.1146 25.5958 8.34535 21.5606C7.77429 20.9491 7.68548 20.3609 7.96828 19.6497C8.43961 18.4678 9.34539 17.8427 10.59 17.8016C12.1133 17.7524 13.6379 17.7893 15.1626 17.7907L15.1639 17.7921Z" fill="#113D3C"/>
<path d="M15.1963 16.5882C12.7058 16.5978 10.7276 14.6212 10.7344 12.133C10.7412 9.68316 12.7044 7.69152 15.1389 7.66553C17.5789 7.63954 19.635 9.66127 19.6582 12.1084C19.6815 14.5569 17.6677 16.5787 15.1963 16.5882Z" fill="#113D3C"/>
</g>
<defs>
<clipPath id="clip0_703_596">
<rect width="35" height="35" fill="white"/>
</clipPath>
</defs>
</svg>
