<svg width="36" height="36" viewBox="0 0 36 36" fill="none" xmlns="http://www.w3.org/2000/svg">
<g clip-path="url(#clip0_401_309)">
<path d="M29.5371 18.8172C29.5076 19.4776 29.89 19.6915 30.3948 19.8741C31.7798 20.3748 33.1535 20.9125 34.5132 21.4816C34.7748 21.5915 35.0349 21.8696 35.1516 22.1349C35.4665 22.8467 35.7056 23.5926 35.9995 24.3928C35.3625 24.6382 34.7368 24.8806 34.0591 25.1417C33.9648 24.9448 33.8313 24.7694 33.7975 24.5768C33.6204 23.5698 33.0017 23.0792 32.0596 22.8153C31.2314 22.5828 30.444 22.2034 29.6693 21.901C29.343 22.9608 29.0548 24.002 28.6892 25.0133C28.5978 25.2658 28.2899 25.5354 28.0269 25.6138C24.4639 26.675 20.8222 26.9603 17.1242 26.7506C13.9324 26.5695 10.8151 26.026 7.7751 25.0119C7.25063 24.8364 6.9427 24.5768 6.8274 24.0277C6.68539 23.3601 6.49416 22.704 6.29731 21.9438C5.20197 22.3888 4.1235 22.8096 3.06331 23.2731C2.91146 23.3402 2.80741 23.5898 2.73991 23.7766C2.49244 24.4627 2.27028 25.1588 2.01015 25.9305C1.33664 25.7065 0.703902 25.494 -0.00195312 25.2586C0.381908 24.1061 0.732023 22.9879 1.13838 21.891C1.21009 21.6984 1.50256 21.5529 1.72331 21.4617C2.99723 20.931 4.27255 20.399 5.56614 19.9183C6.08921 19.7243 6.40417 19.4876 6.34652 18.8657C6.32262 18.5961 6.43932 18.3122 6.49416 18.0312C14.7001 20.8583 21.4423 21.0965 29.5343 18.8186L29.5371 18.8172Z" fill="white"/>
<path d="M0.0371094 34.8906C0.488463 34.1203 0.915913 33.39 1.34477 32.6612C1.99297 31.5614 2.65243 30.4674 3.28798 29.3591C3.47218 29.0382 3.65637 28.8984 4.06133 28.9541C5.98204 29.2179 7.90838 29.439 9.92048 29.6858C9.4382 28.9612 8.99809 28.3022 8.45534 27.4863C14.6548 29.2707 20.7473 29.3777 26.9875 28.1767C26.6318 28.7116 26.3281 29.1694 25.9738 29.7029C28.0266 29.449 29.9727 29.1965 31.9243 28.9826C32.1437 28.9583 32.498 29.0782 32.602 29.2493C33.7002 31.0451 34.7604 32.8637 35.8276 34.6781C35.8614 34.7351 35.8585 34.8136 35.881 34.9262C35.3313 35.2657 34.7744 35.608 34.1403 35.9989C33.5076 34.9348 32.7637 33.9421 32.2941 32.8295C31.6965 31.4131 30.8191 31.1207 29.4018 31.4031C27.5697 31.7683 25.6911 31.8924 23.8393 32.1577C23.4639 32.2119 23.0814 32.3859 22.7538 32.5884C21.2957 33.4885 19.8657 34.437 18.3992 35.3228C18.1798 35.4554 17.7538 35.4568 17.5302 35.3271C16.3097 34.6253 15.0878 33.915 13.9377 33.1048C13.1109 32.5228 12.2883 32.112 11.2619 32.0136C9.28212 31.8253 7.3122 31.5358 5.34086 31.2705C4.86842 31.2077 4.58158 31.3304 4.32989 31.7811C3.5467 33.1832 2.70586 34.5525 1.85377 35.9889C1.24915 35.6223 0.675472 35.2743 0.0385155 34.8877L0.0371094 34.8906Z" fill="white"/>
<path d="M24.8332 0C25.2058 0.603352 25.5629 1.1796 25.9623 1.82432C24.5674 2.71437 23.2077 3.58303 21.8199 4.47022C22.2868 4.89956 22.7578 5.27469 23.1613 5.71401C24.6546 7.33579 24.7657 9.42684 23.3962 11.147C20.9271 14.2494 16.0733 15.1366 12.7901 11.3895C11.1154 9.47676 11.2265 7.3743 12.9911 5.5457C13.3328 5.19197 13.7139 4.87817 14.1301 4.4959C12.7254 3.59586 11.3516 2.71437 9.95117 1.81719C10.3421 1.19101 10.7006 0.614763 11.0845 0C12.7113 1.03411 14.2833 2.05682 15.8849 3.0296C16.1661 3.20076 16.5668 3.20361 16.9155 3.21788C17.6298 3.24926 18.3469 3.25068 19.0612 3.23214C19.3677 3.22501 19.7221 3.22216 19.9681 3.07239C21.5879 2.07964 23.1852 1.04695 24.8332 0Z" fill="#113D3C"/>
<path d="M7.13781 15.7845C7.3895 15.2639 7.62432 14.776 7.89569 14.2112C7.02251 13.4994 6.14652 12.7606 5.23679 12.0688C5.11164 11.9732 4.79387 12.0531 4.60686 12.143C3.55511 12.6508 2.51742 13.1856 1.41645 13.7419C1.10008 13.1015 0.801992 12.4967 0.46875 11.822C2.03794 11.0218 3.54667 10.2331 5.08071 9.49849C5.24944 9.41718 5.60518 9.58835 5.79922 9.74097C6.92549 10.6253 8.02927 11.5396 9.20195 12.4939C9.50425 12.1173 9.78406 11.7707 10.1117 11.3627C12.0071 14.311 14.5521 15.9571 17.9 15.9827C21.2648 16.0084 23.8266 14.3767 25.7586 11.5097C26.0778 11.8192 26.3899 12.1216 26.7415 12.4625C27.9057 11.5225 29.046 10.5825 30.2145 9.67963C30.3916 9.5427 30.7516 9.46283 30.9358 9.55126C32.4333 10.2716 33.9097 11.0375 35.4423 11.8149C35.1273 12.4596 34.8293 13.0687 34.4988 13.7433C33.4344 13.2042 32.3897 12.6935 31.3633 12.1487C31.0103 11.9618 30.7572 11.9447 30.431 12.23C29.652 12.9103 28.8323 13.5437 28.0336 14.1927C28.3838 14.9886 28.724 15.7588 29.0601 16.5233C24.8967 18.7542 11.8552 18.8668 7.13922 15.7859L7.13781 15.7845Z" fill="white"/>
</g>
<defs>
<clipPath id="clip0_401_309">
<rect width="36" height="36" fill="white"/>
</clipPath>
</defs>
</svg>
