<svg width="36" height="34" viewBox="0 0 36 34" fill="none" xmlns="http://www.w3.org/2000/svg">
<path d="M23.2912 21.7517C23.4928 23.6847 23.4942 25.5449 22.7691 27.2824C22.3282 28.3409 21.7683 29.4165 21.0142 30.2724C19.339 32.1754 16.801 32.1497 15.0243 30.3309C13.6059 28.8787 12.9779 27.0598 12.7952 25.1084C12.6806 23.8887 12.7734 22.6504 12.7734 21.1882C12.2977 21.7303 11.9148 22.2125 11.4841 22.649C10.3572 23.7931 9.19691 24.9058 8.08306 26.0613C7.87856 26.2738 7.72773 26.6276 7.72047 26.9201C7.68422 28.3937 7.68712 29.8687 7.71322 31.3423C7.72192 31.8373 7.54498 32.1326 7.09973 32.3551C6.26145 32.7745 5.44201 33.2339 4.61968 33.6847C4.26145 33.8815 3.90612 33.9514 3.67696 33.5534C3.45071 33.1597 3.67406 32.883 4.041 32.689C4.7009 32.3423 5.34339 31.9571 6.02069 31.6476C6.46739 31.4436 6.58197 31.164 6.57327 30.7046C6.54281 29.3494 6.52831 27.9928 6.58487 26.6404C6.60082 26.2596 6.78646 25.8031 7.05187 25.5278C8.66609 23.8559 10.3514 22.2496 11.9598 20.572C12.814 19.6804 13.6248 18.7346 14.347 17.7375C16.2934 15.0484 19.5653 14.7546 21.3332 17.4678C23.3666 20.5877 26.2469 22.8601 28.7255 25.5306C29.1287 25.9643 29.3492 26.3666 29.3289 26.9686C29.2839 28.2753 29.3419 29.5848 29.3013 30.8915C29.2868 31.3723 29.4551 31.6176 29.8771 31.8173C30.5298 32.124 31.1853 32.4436 31.777 32.8487C32.0033 33.0042 32.2194 33.4593 32.1469 33.6875C32.0105 34.1155 31.6073 34.0385 31.2448 33.8373C30.4253 33.3822 29.6044 32.9258 28.7647 32.5064C28.3122 32.281 28.1585 31.9628 28.1657 31.4793C28.186 30.0056 28.186 28.5306 28.1599 27.057C28.1556 26.8002 28.0613 26.4792 27.8887 26.3009C26.4703 24.8387 25.0243 23.4036 23.5841 21.9628C23.5218 21.9001 23.4391 21.8573 23.2926 21.7517H23.2912Z" fill="white"/>
<path d="M21.8115 13.5864C21.6346 14.2825 21.4692 14.9359 21.2807 15.6805C19.0428 14.1698 16.9007 14.1484 14.6411 15.6834C14.4569 14.9673 14.2916 14.3211 14.0943 13.555C13.053 13.6706 11.9638 13.789 10.8731 13.9159C10.2974 13.983 9.72304 14.1213 9.14871 14.1228C8.454 14.1242 8.07401 14.4067 7.77235 15.0215C7.1197 16.3453 6.39454 17.6363 5.66067 18.9188C5.51274 19.1784 5.21832 19.4552 4.93986 19.5265C3.63312 19.8646 2.30897 20.137 0.98917 20.4223C0.609185 20.5051 0.165385 20.6007 0.0305046 20.0871C-0.114528 19.5365 0.31912 19.4038 0.741165 19.3111C1.84776 19.0643 2.96596 18.8574 4.05661 18.5564C4.39744 18.4623 4.77307 18.1756 4.94856 17.8746C5.73029 16.5365 6.4569 15.167 7.17626 13.7947C7.39961 13.3681 7.68678 13.1841 8.18279 13.1328C10.0813 12.9402 11.971 12.6748 13.8695 12.4823C14.38 12.4309 14.6092 12.2497 14.5831 11.6748C13.1139 11.3154 11.6273 10.9288 10.1291 10.5964C9.49968 10.4566 9.01238 10.2041 8.70491 9.62919C7.3416 7.07427 5.27924 5.27826 2.58018 4.16414C2.09287 3.963 1.65197 3.65772 1.18351 3.41093C0.819482 3.21977 0.54537 2.90879 0.806429 2.56785C0.950011 2.37955 1.49098 2.27256 1.70853 2.3881C3.42572 3.30965 5.12115 4.2697 6.78757 5.27684C7.15451 5.49795 7.39526 5.93875 7.66212 6.29966C8.40034 7.29823 8.93116 8.58069 9.90142 9.23975C10.8702 9.89738 12.2727 9.93589 13.4866 10.244C13.6041 10.274 13.7303 10.2768 13.8405 10.3196C14.6106 10.6235 15.1806 10.5564 15.8507 9.89738C17.1879 8.58211 19.1951 8.75615 20.483 10.1727C20.8079 10.5308 21.0704 10.6078 21.5316 10.4823C22.8804 10.1156 24.251 9.82605 25.6012 9.46371C25.8942 9.38525 26.1393 9.12705 26.4003 8.94445C26.4554 8.90594 26.4961 8.83604 26.5265 8.77184C28.1016 5.45515 31.2502 3.96728 34.2829 2.35957C34.4859 2.25258 34.9747 2.35244 35.1255 2.52648C35.4417 2.8931 35.1182 3.17698 34.7832 3.36671C33.2749 4.21835 31.7549 5.04859 30.2582 5.91878C29.9188 6.11706 29.6012 6.40237 29.3677 6.71621C28.6237 7.71193 27.9609 8.76756 27.1893 9.74046C26.9065 10.0971 26.4453 10.4138 26.0044 10.5365C24.5207 10.9459 23.0095 11.2583 21.5055 11.6092C21.4286 12.1955 21.6897 12.3824 22.2234 12.438C24.1451 12.6377 26.0653 12.856 27.9783 13.1256C28.2959 13.1698 28.6846 13.4452 28.847 13.7219C29.594 14.9972 30.3003 16.2982 30.9631 17.6164C31.2459 18.1784 31.6128 18.4737 32.2437 18.5835C33.2647 18.7619 34.2669 19.04 35.2821 19.2512C35.7448 19.3467 36.0885 19.535 35.9841 20.0472C35.8768 20.5693 35.4446 20.5094 35.0544 20.4252C33.7346 20.1385 32.409 19.8703 31.1037 19.5279C30.8035 19.4494 30.4888 19.1556 30.3293 18.8774C29.5345 17.4922 28.8021 16.0714 28.016 14.682C27.8942 14.468 27.6244 14.2283 27.3938 14.1969C25.6955 13.9644 23.9899 13.7804 22.2872 13.585C22.1248 13.5664 21.9565 13.5821 21.8159 13.5821L21.8115 13.5864Z" fill="white"/>
<path d="M16.4755 3.82151C15.4617 3.05974 14.4842 2.2566 13.4298 1.56759C13.0194 1.2994 12.4161 1.33506 11.9346 1.14961C11.6706 1.04833 11.4763 0.771583 11.25 0.573295C11.4661 0.389272 11.7025 0.0297853 11.8925 0.0526098C12.6177 0.141055 13.4327 0.189557 14.0216 0.553323C15.1151 1.22665 16.1013 2.08114 17.0803 2.91994C17.791 3.52765 18.696 3.51909 19.382 2.93563C20.4335 2.03977 21.5183 1.16245 22.6786 0.413523C23.1818 0.0896997 23.907 0.0354914 24.5393 -0.00017195C24.7656 -0.0130108 25.1833 0.367874 25.2195 0.611811C25.2877 1.0683 24.8671 1.08114 24.4741 1.1325C23.9404 1.20097 23.3356 1.28371 22.9164 1.57472C21.8011 2.34648 20.7685 3.23521 19.6923 4.08399C20.754 5.57615 20.8555 7.00696 20.2101 8.58043C18.6902 7.8101 17.2094 7.79869 15.6793 8.58471C15.0412 6.88143 15.1746 5.34933 16.4755 3.82294V3.82151Z" fill="#113D3C"/>
</svg>
