<svg width="54" height="54" viewBox="0 0 54 54" fill="none" xmlns="http://www.w3.org/2000/svg">
<g clip-path="url(#clip0_819_289)">
<path d="M9.08336 32.4205C9.51538 31.3112 8.81783 30.6839 7.74516 30.0945C5.85693 29.0568 5.68834 28.5979 6.63878 26.6614C7.22253 25.4721 7.08555 24.6827 6.16251 23.7439C4.64939 22.2052 4.66836 21.7274 6.18147 20.1487C7.03708 19.2562 7.26257 18.509 6.67671 17.3197C5.66094 15.261 5.81689 14.9053 7.85896 13.756C8.81572 13.2193 9.3784 12.6383 9.09601 11.4785C8.99064 11.0428 9.01382 10.5712 9.0096 10.1166C9.00328 9.27882 9.3805 8.5905 10.2235 8.52525C12.314 8.36738 13.3846 7.36333 13.5363 5.23945C13.6037 4.30065 14.3898 3.94281 15.3086 3.97438C15.3782 3.97649 15.4477 3.99122 15.5173 4.00596C17.2032 4.39326 18.4149 4.01017 19.1673 2.24834C19.711 0.972745 20.5286 0.724362 21.7467 1.40636C23.2978 2.2757 24.4379 2.11151 25.6433 0.783301C26.5937 -0.262852 27.4093 -0.260747 28.3576 0.787511C29.5631 2.11993 30.7032 2.2757 32.2521 1.40215C33.4575 0.724362 34.2836 0.97485 34.8274 2.25465C35.5797 4.0249 36.7914 4.3238 38.4858 4.0228C39.6659 3.8123 40.3424 4.24381 40.4899 5.45626C40.7154 7.3107 41.55 8.25793 43.4698 8.45789C44.7385 8.5905 45.1599 9.20304 44.9281 10.4323C44.5846 12.2657 45.0777 13.4424 46.8585 14.2044C47.9628 14.6759 48.222 15.5073 47.6277 16.5514C46.692 18.1911 46.8374 19.4457 48.2936 20.7191C49.2188 21.5295 49.2167 22.342 48.2873 23.1798C46.8669 24.4638 46.6815 25.7099 47.6256 27.3539C48.2262 28.4 47.967 29.2273 46.8585 29.7072C45.0841 30.4734 44.5783 31.6416 44.9281 33.4771C45.162 34.698 44.7258 35.3 43.4593 35.4453C41.6195 35.6579 40.7344 36.5146 40.5131 38.3648C40.3551 39.6846 39.7945 40.0803 38.4626 39.8551C36.6776 39.5541 35.527 40.0003 34.7768 41.7453C34.2731 42.9157 33.4491 43.1641 32.3533 42.5431C30.7938 41.659 29.6031 41.7453 28.345 43.122C27.3777 44.1807 26.6254 44.1786 25.6412 43.1093C24.4126 41.7727 23.2683 41.6527 21.7257 42.5157C20.5286 43.1851 19.7468 42.9262 19.1525 41.6401C18.4276 40.0761 17.435 39.5583 15.7238 39.8383C14.1495 40.0951 13.6079 39.6951 13.4056 38.1501C13.1907 36.5146 12.491 35.7505 10.8241 35.5231C9.11076 35.2895 8.99485 34.9106 9.09179 32.4142L9.08336 32.4205ZM25.2577 20.3508C24.1428 19.212 23.1524 18.1701 22.1303 17.1618C21.1503 16.1935 20.3959 16.1935 19.4159 17.1576C17.966 18.5826 16.5267 20.0203 15.1 21.4685C14.139 22.4452 14.1495 23.1798 15.1337 24.167C18.0546 27.0971 20.9817 30.0187 23.9152 32.9362C24.9163 33.9318 25.6855 33.9234 26.6991 32.913C31.0193 28.6063 35.3331 24.2954 39.6449 19.9803C40.6965 18.9278 40.688 18.2037 39.6175 17.1218C38.3615 15.8504 37.0907 14.5917 35.8242 13.3287C34.3089 11.8174 33.7905 11.8195 32.2732 13.3329C29.9698 15.6336 27.6685 17.9343 25.2534 20.3487L25.2577 20.3508Z" fill="#113D3C"/>
<path d="M6.28302 36.0078C7.08594 37.4371 8.27662 38.2159 9.77287 38.6053C10.0173 38.6684 10.285 39.0263 10.3608 39.2978C10.9867 41.5417 12.8012 43.3561 15.5682 43.0741C15.8527 43.0446 16.31 43.1962 16.4407 43.413C17.2015 44.6717 18.2699 45.499 19.7893 45.9263C19.528 46.2294 19.3468 46.4672 19.1382 46.6777C17.0329 48.7869 14.9255 50.8918 12.8138 52.9946C11.2502 54.5523 10.1585 54.3039 9.46519 52.2411C8.90884 50.5845 8.39885 48.9132 7.77084 47.2861C7.60225 46.8482 7.1323 46.3872 6.69185 46.221C4.99329 45.5768 3.24836 45.0569 1.52451 44.476C-0.195129 43.895 -0.488057 42.6931 0.789027 41.4028C2.4897 39.683 4.20934 37.9822 5.92476 36.2751C5.99641 36.2036 6.09124 36.151 6.28091 36.0099L6.28302 36.0078Z" fill="#3AB54A"/>
<path d="M34.0879 45.9413C35.7022 45.5077 36.739 44.6931 37.4956 43.4764C37.6368 43.2491 38.0477 43.0744 38.3364 43.0702C41.4111 43.0196 42.5912 42.1566 43.6365 39.1655C43.7124 38.9466 43.9294 38.6687 44.1318 38.6203C45.6723 38.2499 46.8946 37.4584 47.6806 36.0312C49.6784 37.9909 51.6615 39.8601 53.5455 41.8219C54.4116 42.7249 53.9838 43.9184 52.7173 44.371C50.9387 45.0046 49.1495 45.6087 47.3455 46.1602C46.6649 46.3686 46.3319 46.7285 46.1296 47.4C45.6154 49.105 45.0274 50.7868 44.4542 52.4729C43.8725 54.1842 42.6608 54.4726 41.3711 53.197C38.9834 50.8353 36.6126 48.4588 34.0879 45.9434V45.9413Z" fill="#3AB54A"/>
<path d="M25.2433 29.5659C23.0579 27.381 20.7566 25.0824 18.4785 22.807C19.2309 22.0934 20.078 21.2872 21.0095 20.4053C21.7766 21.1988 22.6701 22.1418 23.5826 23.0617C25.0051 24.4973 25.5804 24.4994 26.984 23.0975C29.3148 20.7673 31.6455 18.435 33.9911 16.0859C34.8045 16.9616 35.5822 17.7994 36.2713 18.5403C32.6445 22.165 28.9144 25.897 25.2433 29.5659Z" fill="#3AB54A"/>
</g>
<defs>
<clipPath id="clip0_819_289">
<rect width="54" height="54" fill="white"/>
</clipPath>
</defs>
</svg>
