<svg width="38" height="38" viewBox="0 0 38 38" fill="none" xmlns="http://www.w3.org/2000/svg">
<g clip-path="url(#clip0_552_814)">
<path d="M19.0119 2.20389e-07C29.4537 -0.00158331 38 8.53048 38 18.958C38 29.5123 29.5012 38.0063 18.9438 38C8.47348 37.9953 -0.00633058 29.4584 3.54622e-06 18.9264C0.00633767 8.49723 8.53999 0.00158375 19.0119 2.20389e-07ZM18.9454 36.9026C28.8979 36.9058 36.8915 28.9343 36.9026 18.9913C36.9137 9.10214 28.9169 1.10214 19.0135 1.0958C9.10531 1.09105 1.10689 9.07047 1.09739 18.9644C1.08789 28.8804 9.06572 36.8979 18.9454 36.9026Z" fill="white"/>
<path d="M13.6388 18.4972C13.2097 18.8187 12.9341 18.9849 12.7077 19.2003C11.8272 20.0443 10.8264 20.4719 9.57386 20.3199C9.30466 20.2866 8.9547 20.5795 8.70926 20.7981C8.47964 21.0024 8.37988 21.3523 8.1471 21.5487C8.00934 21.6643 7.69896 21.6738 7.52003 21.6009C7.42501 21.5629 7.36959 21.2209 7.42343 21.0578C7.81931 19.8432 8.53032 19.3001 9.77339 19.3523C10.581 19.3872 11.2777 19.2478 11.8494 18.6492C11.9207 18.5748 12.0125 18.5146 12.1028 18.4608C13.2429 17.7672 14.1059 16.9121 14.2073 15.4552C14.2453 14.901 14.5462 14.3642 14.7283 13.8179C16.0062 13.9762 17.2255 14.1267 18.4844 14.2818V29.9161C15.9919 29.1496 15.1273 27.0847 14.2516 24.8678C13.7971 25.4695 13.3411 25.9683 13.0054 26.5384C12.307 27.7276 11.3427 28.5336 10.022 28.9422C9.18115 29.2019 8.38938 29.536 8.26428 30.6033C8.24528 30.7585 7.90007 30.8757 7.7053 31.0103C7.60395 30.7775 7.38542 30.5225 7.42343 30.3151C7.59128 29.384 7.92224 28.5875 9.01171 28.3135C10.5842 27.9192 11.634 26.8709 12.5889 25.5613C13.5026 24.3088 14.1075 23.1797 13.6847 21.5613C13.4488 20.6571 13.642 19.6389 13.642 18.4972H13.6388Z" fill="white"/>
<path d="M19.5078 14.28C20.762 14.1264 21.9591 13.9791 23.3004 13.8145C23.5458 14.6616 23.7691 15.5722 24.0811 16.451C24.2267 16.8643 24.5134 17.2396 24.7905 17.588C24.9647 17.8081 25.2639 17.9237 25.4682 18.1264C26.4152 19.067 27.5046 19.5405 28.8728 19.3521C29.4334 19.2761 30.7097 20.7155 30.6448 21.2856C30.6274 21.4312 30.4579 21.6513 30.3344 21.6688C30.1618 21.6941 29.8451 21.607 29.8008 21.4867C29.3067 20.1913 28.2584 20.204 27.1452 20.2705C26.8918 20.2863 26.5941 20.1359 26.3708 19.9823C25.7438 19.5516 25.1436 19.0781 24.45 18.5587C24.4247 18.8263 24.4025 19.0148 24.3898 19.2048C24.2932 20.5413 24.184 21.8778 24.1159 23.2159C24.1032 23.474 24.203 23.7828 24.3518 23.9966C25.0755 25.0338 25.8229 26.0552 26.5894 27.0607C26.7541 27.2761 27.0169 27.4392 27.2671 27.5611C27.834 27.8382 28.3978 28.166 29.0027 28.3085C30.1032 28.5698 30.4057 29.398 30.583 30.3196C30.6226 30.5239 30.3946 30.7788 30.2901 31.01C30.0969 30.8723 29.7564 30.7519 29.7358 30.592C29.6044 29.5278 28.8142 29.1969 27.975 28.934C26.6875 28.5302 25.7232 27.7638 25.0407 26.5936C24.7002 26.0092 24.2394 25.4946 23.7675 24.8612C22.8776 27.0354 22.0415 29.1605 19.5094 29.9126V14.2784L19.5078 14.28Z" fill="white"/>
<path d="M15.8099 11.788C17.7291 9.64862 19.6674 9.16723 22.2073 11.7848C23.433 10.8505 24.6159 9.8339 25.9176 9.00096C26.5921 8.56866 27.4678 8.43722 28.2675 8.2282C28.4053 8.19177 28.6191 8.44197 28.798 8.56074C28.6777 8.74126 28.5716 9.06588 28.4322 9.08014C26.3261 9.30658 24.9405 10.7983 23.5201 12.0619C21.7925 13.5995 19.8257 13.1672 17.897 13.2353C16.4781 13.286 15.2161 12.9139 14.2042 11.7943C13.7006 11.2369 12.9833 10.8774 12.4053 10.3786C11.6689 9.74522 10.8693 9.30975 9.89381 9.15456C9.64203 9.11497 9.43934 8.76976 9.21289 8.56549C9.49634 8.45622 9.79563 8.22345 10.0601 8.25987C10.9738 8.38655 11.8273 8.66525 12.5716 9.29233C13.6151 10.1712 14.7315 10.963 15.8099 11.788Z" fill="#113D3C"/>
<path d="M17.6263 7.84626C18.5733 7.26985 19.4442 7.26352 20.3753 7.85418C20.9486 7.09883 21.5234 6.35616 22.084 5.6024C22.7126 4.75521 23.7388 4.78529 24.6018 4.46225C24.6889 4.429 24.9438 4.62377 24.9913 4.75837C25.0404 4.89614 24.9628 5.10992 24.8789 5.25244C24.8235 5.34586 24.662 5.40604 24.5385 5.42346C22.7649 5.67841 22.1141 7.2081 21.1925 8.40841C21.004 8.65386 21.0689 9.09408 21.0024 9.54064C19.6897 8.90247 18.3484 8.84863 16.9787 9.57706C17.0278 7.92227 15.7625 7.09567 14.9565 6.02995C14.6905 5.67682 13.989 5.67999 13.5361 5.43137C13.3001 5.30152 13.1719 4.97532 12.9961 4.73779C13.2637 4.67603 13.5487 4.52243 13.7974 4.56677C14.9818 4.77738 15.9415 5.33003 16.5543 6.43217C16.8314 6.92939 17.2447 7.35061 17.6263 7.84943V7.84626Z" fill="#113D3C"/>
</g>
<defs>
<clipPath id="clip0_552_814">
<rect width="38" height="38" fill="white"/>
</clipPath>
</defs>
</svg>
