<svg width="52" height="52" viewBox="0 0 52 52" fill="none" xmlns="http://www.w3.org/2000/svg">
<g clip-path="url(#clip0_819_155)">
<path d="M45.3378 20.0703C46.7607 20.2972 48.2263 20.3789 49.6005 20.7816C51.7602 21.4152 52.5376 23.0871 51.6222 25.1636C50.0206 28.7894 47.1667 31.146 43.4643 32.2763C38.2883 33.8562 33.5304 32.5297 29.1723 29.5579C27.8712 28.6709 27.4145 27.2443 27.6905 25.6828C27.9869 24.0007 28.9673 22.7723 30.6318 22.3983C35.4688 21.3109 40.3323 20.3565 45.3399 20.0724L45.3378 20.0703Z" fill="#113D3C"/>
<path d="M6.73709 20.3059C11.6919 20.3672 16.531 21.3155 21.3417 22.3967C22.9635 22.7606 23.9338 23.9419 24.2646 25.5872C24.5711 27.116 24.1712 28.5263 22.9513 29.4379C18.1061 33.0514 10.5207 34.57 4.85748 30.4843C3.07935 29.2028 1.52654 27.6965 0.556282 25.6812C-0.661612 23.155 0.132049 21.3953 2.82156 20.6288C3.30669 20.4898 3.80603 20.3508 4.30536 20.3181C5.11323 20.267 5.92719 20.3038 6.73912 20.3038L6.73709 20.3059Z" fill="#113D3C"/>
<path d="M30.899 33.8582C30.6027 36.55 30.3226 39.0681 30.0465 41.5881C29.7664 44.1573 29.5249 46.7305 29.2041 49.2935C28.989 51.0083 27.6148 52.0568 25.8285 51.9975C24.1296 51.9403 22.93 50.8039 22.7412 49.0789C22.1972 44.0776 21.6491 39.0762 21.0788 33.8501C19.8385 34.87 18.6978 35.7856 17.5936 36.7421C17.4799 36.8423 17.5347 37.1877 17.5712 37.4084C17.758 38.5469 18.0137 39.6771 18.1375 40.8237C18.1822 41.2305 18.0584 41.8048 17.7884 42.0766C16.1098 43.7567 14.3702 45.3734 12.6469 47.0085C12.1983 47.4356 11.7192 47.6032 11.2504 47.0534C10.8099 46.5343 11.0778 46.1194 11.4838 45.7351C12.9615 44.3351 14.4595 42.9555 15.8966 41.5146C16.1646 41.2468 16.3209 40.7072 16.2823 40.3189C16.1686 39.207 15.8601 38.1136 15.7687 36.9997C15.7322 36.5418 15.9149 35.9001 16.2376 35.6057C17.4291 34.5123 18.6876 33.5394 20.2607 32.9487C22.2256 32.2129 24.0646 31.191 25.3008 29.3413C25.6722 28.7854 26.2893 28.7895 26.6689 29.3249C28.1831 31.4608 30.4626 32.3744 32.7056 33.4331C33.9296 34.0115 34.9729 34.9946 36.0406 35.8674C36.2517 36.0411 36.2903 36.5582 36.2436 36.8954C36.0893 38.0379 35.8132 39.1662 35.6915 40.3128C35.6488 40.7011 35.8072 41.2407 36.0731 41.5105C37.4594 42.9064 38.9067 44.239 40.3377 45.59C40.7762 46.0049 41.2227 46.4423 40.7153 47.0575C40.2017 47.6809 39.6943 47.3457 39.2436 46.9206C37.5427 45.3141 35.8275 43.7199 34.165 42.0705C33.9072 41.815 33.7712 41.2836 33.8098 40.9034C33.9154 39.859 34.0615 38.8023 34.3497 37.7968C34.5832 36.9813 34.2868 36.5541 33.6921 36.1106C32.7807 35.4279 31.914 34.684 30.899 33.8603V33.8582Z" fill="#113D3C"/>
<path d="M26.8256 13.0686C28.8717 13.5795 30.3514 14.722 30.8812 16.8027C31.0781 17.5732 31.0801 18.4092 31.074 19.2124C31.0679 20.0341 30.5828 20.4878 29.8358 20.8823C28.8453 21.4055 27.9115 22.0984 27.0895 22.8668C26.3039 23.6006 25.6706 23.5945 24.877 22.8546C24.0549 22.0881 23.113 21.4075 22.1266 20.8761C21.4263 20.498 21.0162 20.077 20.8924 19.3003C20.4662 16.6004 21.9094 14.1579 24.4629 13.2995C24.6821 13.2259 24.8952 13.1278 25.151 13.0236C25.151 9.26697 25.151 5.52466 25.151 1.7803C25.151 1.47372 25.0576 1.11808 25.1814 0.872821C25.3499 0.537627 25.6848 0.286232 25.9467 -0.00195312C26.239 0.290319 26.7627 0.568285 26.7809 0.876909C26.8723 2.33418 26.8256 3.80168 26.8256 5.26509C26.8256 7.85057 26.8256 10.434 26.8256 13.0645V13.0686Z" fill="#3AB54A"/>
<path d="M12.8943 8.19629C13.0202 8.27804 13.3003 8.39659 13.5033 8.59689C14.6623 9.73736 15.7909 10.9105 16.954 12.0469C17.4695 12.5518 17.5101 13.0402 17.1955 13.682C16.6901 14.7142 16.2273 15.7749 15.8294 16.8521C15.7239 17.1341 15.9269 17.5286 15.9695 17.8719C16.0203 18.293 16.0507 18.7161 16.0893 19.1391C15.6955 19.1678 15.2205 19.3517 14.9181 19.1964C13.4444 18.4401 13.3632 18.109 14.0351 16.5537C14.0493 16.523 14.0635 16.4923 14.0757 16.4596C14.5324 15.3355 15.4966 14.1092 15.3017 13.1138C15.1048 12.1082 13.759 11.3295 12.9187 10.4507C12.6365 10.1584 12.3057 9.89883 12.0844 9.56568C11.6927 8.97705 12.0621 8.24534 12.8964 8.19833L12.8943 8.19629Z" fill="#3AB54A"/>
<path d="M36.4496 17.4688C35.8853 16.1771 35.3575 14.8935 34.7648 13.6406C34.4786 13.0357 34.4989 12.5676 34.984 12.0893C36.1674 10.9243 37.3305 9.7389 38.4997 8.5596C38.9219 8.13243 39.4659 7.97505 39.7805 8.50441C39.9652 8.81508 39.8861 9.52226 39.6445 9.8084C38.8387 10.7649 37.9313 11.6397 37.0118 12.4899C36.5287 12.9355 36.4841 13.3279 36.7642 13.9043C37.2798 14.9712 37.7629 16.0565 38.1749 17.1684C38.3069 17.524 38.3414 18.1617 38.1323 18.3538C37.635 18.8116 37.0017 19.2327 36.3582 19.3778C35.8183 19.4984 35.4732 18.5848 35.8284 18.0615C35.9766 17.8449 36.2121 17.6916 36.4496 17.4688Z" fill="#3AB54A"/>
</g>
<defs>
<clipPath id="clip0_819_155">
<rect width="52" height="52" fill="white"/>
</clipPath>
</defs>
</svg>
