<?xml version="1.0" encoding="utf-8"?>
<!-- Generator: Adobe Illustrator 25.0.0, SVG Export Plug-In . SVG Version: 6.00 Build 0)  -->
<svg version="1.1" id="Layer_1" xmlns="http://www.w3.org/2000/svg" xmlns:xlink="http://www.w3.org/1999/xlink" x="0px" y="0px"
	 width="65px" height="66px" viewBox="0 0 65 66" style="enable-background:new 0 0 65 66;" xml:space="preserve">
<style type="text/css">
	.st0{fill-rule:evenodd;clip-rule:evenodd;fill:#113D3C;}
	.st1{fill-rule:evenodd;clip-rule:evenodd;fill:#3AB54A;}
</style>
<g>
	<g>
		<path class="st0" d="M36,55v-6.7c0-0.5,0.2-1-0.1-1.4l0-0.3c-1,2.8-2.1,5.4-2.9,7.2v2c0,0.5,0.2,1,0.6,1.4l3.7,4.1
			c0.8,0.8,2,0.8,2.7,0c0.7-0.8,0.3-2-0.4-2.7L36,55z M12,13.1v3.3c1.2,0.3,2.7,0.6,4,1v-5.1c0-0.5-0.2-1-0.6-1.4l-4.1-4.1
			C10.7,6,9.5,6,8.7,6.8c-0.8,0.8-1,2-0.2,2.7L12,13.1z M41,13.1l3-3.6c0.8-0.8,0.8-2,0-2.7c-0.7-0.8-1.9-0.8-2.7,0l-3.8,4.1
			c-0.4,0.4-0.6,0.9-0.6,1.4v5.1c1.3-0.4,2.8-0.8,4-1V13.1L41,13.1z M33.1,18.6c-0.3-1.2-0.9-2.2-1.8-3.1l-0.3,0
			c-0.8-0.8-1.9-1.5-3-1.8V1.9C28,0.9,26.7,0,25.7,0S24,0.9,24,1.9v11.9c-1.1,0.3-2.2,0.9-3,1.8h0.4c-0.8,0.9-1.4,1.9-1.8,3.1
			c2.4,0.9,4.8,1.9,6.7,2.8C28.3,20.6,30.6,19.6,33.1,18.6z M26.4,34.2c-2.2,1-5,2.2-7.8,3.2c1,6.3,5.5,15.9,6.1,17.1
			c0.5,1,1.6,1.4,2.5,0.9c0.4-0.2,0.7-0.5,0.9-0.9c0.6-1.2,5-10.9,6.1-17.1C31.4,36.4,28.6,35.2,26.4,34.2z"/>
	</g>
	<path class="st1" d="M63.1,57.7c1.1,0,1.9-0.9,1.9-1.9s-0.8-1.9-1.9-1.9h-0.4c-0.2-0.8-0.5-1.6-0.9-2.3l1.6-1.6
		c0.8-0.8,0.8-2,0-2.7c-0.7-0.8-1.9-0.8-2.7,0l-1.6,1.7c-0.7-0.4-1.5-0.8-2.3-1v-0.4c0-1.1-0.8-1.9-1.9-1.9c-1,0-1.9,0.9-1.9,1.9
		v0.4c-0.8,0.2-1.6,0.5-2.3,1l-1.6-1.7c-0.7-0.8-2-0.8-2.7,0c-0.7,0.8-0.7,2,0,2.7l1.6,1.6c-0.4,0.7-0.7,1.5-0.9,2.3h-0.4
		c-1,0-1.9,0.9-1.9,1.9s0.9,1.9,1.9,1.9h0.4c0.2,0.8,0.5,1.6,0.9,2.3l-1.6,1.7c-0.7,0.8-0.7,2,0,2.7c0.7,0.8,2,0.8,2.7,0l1.6-1.7
		c0.7,0.4,1.5,0.8,2.3,0.9v0.4c0,1.1,0.9,1.9,1.9,1.9c1.1,0,1.9-0.9,1.9-1.9v-0.4c0.8-0.2,1.6-0.5,2.3-0.9l1.6,1.7
		c0.7,0.8,2,0.8,2.7,0c0.8-0.8,0.8-2,0-2.7L61.8,60c0.4-0.7,0.8-1.5,0.9-2.3H63.1z"/>
	<path class="st0" d="M16.6,46.9c-0.4,0.4-0.6,0.9-0.6,1.4V55l-3.5,3.6c-0.8,0.8-0.4,2,0.3,2.7c0.7,0.8,1.9,0.8,2.7,0l4-4.1
		c0.4-0.4,0.6-0.9,0.6-1.4v-2c-0.8-1.8-1.9-4.4-2.9-7.2L16.6,46.9z M52.8,27.8c0-4.5-3.6-8.1-8-8.1c-5.1,0-15.2,4.5-18.4,6
		c-3.1-1.5-13.2-6-18.4-6c-4.4,0-8,3.7-8,8.1S3.6,36,8,36c5.1,0,15.2-4.6,18.4-6c3.1,1.5,13.2,6,18.4,6C49.2,36,52.8,32.3,52.8,27.8
		z"/>
</g>
</svg>
