<?xml version="1.0" encoding="utf-8"?>
<!-- Generator: Adobe Illustrator 25.0.0, SVG Export Plug-In . SVG Version: 6.00 Build 0)  -->
<svg version="1.1" id="Layer_1" xmlns="http://www.w3.org/2000/svg" xmlns:xlink="http://www.w3.org/1999/xlink" x="0px" y="0px"
	 width="65px" height="66.5px" viewBox="0 0 65 66.5" style="enable-background:new 0 0 65 66.5;" xml:space="preserve">
<style type="text/css">
	.st0{fill-rule:evenodd;clip-rule:evenodd;fill:#3AB54A;}
	.st1{fill-rule:evenodd;clip-rule:evenodd;fill:#113D3C;}
</style>
<g>
	<g>
		<path class="st0" d="M32.5,23.2c-1,0-1.9,0.9-1.9,1.9s0.9,1.9,1.9,1.9s1.9-0.9,1.9-1.9S33.5,23.2,32.5,23.2z M22.1,38.5h8v20h-8
			V38.5z M34.1,38.5h8v20h-8V38.5z"/>
		<path class="st1" d="M32.5,30.9c-3.1,0-5.7-2.6-5.7-5.8s2.6-5.8,5.7-5.8s5.7,2.6,5.7,5.8S35.7,30.9,32.5,30.9z M62.8,54.5h-5.7
			V33.6L31.6,14.1L7.1,33.5v20.9H1.3c-1,0-1.3,1.1-1.3,2.1s0.9,1.9,1.9,1.9h17.2V36.6c0-1.1,0.9-2.1,1.9-2.1h23.2
			c1,0,1.9,0.9,1.9,1.9v22.1h17.3c1,0,1.6-0.8,1.6-1.9S63.9,54.5,62.8,54.5z"/>
		<path class="st1" d="M15.1,8.1V5.4c0-1.1-0.9-1.9-1.9-1.9H10C9,3.5,8.1,4.3,8.1,5.4v8.7 M64.2,24.3l-30.6-24
			c-0.7-0.5-1.6-0.5-2.3,0l-30.6,24c-0.9,0.7-1,1.9-0.4,2.7l2.3,3.1c0.6,0.8,1.8,1,2.7,0.4L32.5,9.2l27.2,21.4
			c0.8,0.6,2,0.4,2.6-0.4l2.3-3.1C65.2,26.2,65.1,25,64.2,24.3L64.2,24.3z"/>
	</g>
	<path class="st0" d="M15.6,63.5c-0.3,0.6-0.3,1.4,0.1,2c0.3,0.6,1,0.9,1.6,0.9h30.5c0.7,0,1.3-0.3,1.6-0.9c0.3-0.6,0.4-1.4,0.1-2
		l-0.5-1.1H16.1L15.6,63.5z"/>
</g>
</svg>
