<svg width="52" height="50" viewBox="0 0 52 50" fill="none" xmlns="http://www.w3.org/2000/svg">
<g clip-path="url(#clip0_819_142)">
<path d="M44.4479 49.9998H31.8176C31.798 49.5757 31.7613 49.1467 31.7613 48.7177C31.7564 43.6508 31.7295 38.5863 31.7809 33.5194C31.7931 32.4384 31.4748 32.1124 30.3974 32.1369C27.3782 32.2055 24.3565 32.1957 21.3373 32.1393C20.3603 32.1222 20.0763 32.4335 20.0836 33.3993C20.1252 38.5863 20.1032 43.7758 20.0983 48.9653C20.0983 49.2815 20.0542 49.5978 20.0273 49.9802H7.40438C7.38479 49.5414 7.35295 49.1467 7.35295 48.7545C7.35051 41.3588 7.34071 33.9656 7.37254 26.5699C7.37254 26.0575 7.5513 25.4006 7.89166 25.0549C13.7195 19.1619 19.5865 13.3057 25.4462 7.44451C25.5833 7.30724 25.7498 7.19938 25.9482 7.04004C26.2543 7.31949 26.531 7.55237 26.7832 7.80486C32.442 13.465 38.1058 19.1202 43.7353 24.8074C44.1198 25.1971 44.4797 25.8271 44.4822 26.3493C44.5287 33.9484 44.514 41.5476 44.5116 49.1467C44.5116 49.3845 44.4773 49.6223 44.4454 50.0022L44.4479 49.9998Z" fill="#113D3C"/>
<path d="M25.9878 0C34.5801 8.60176 43.2778 17.3089 52 26.0381C51.356 26.6608 50.6336 27.3594 49.8892 28.0777C42.0119 20.1892 34.0708 12.2395 26.1469 4.30701C18.059 12.4087 10.14 20.3363 2.09606 28.3914C1.26841 27.455 0.585233 26.6828 0 26.021C8.61933 17.3898 17.317 8.68265 25.9878 0Z" fill="#3AB54A"/>
<path d="M44.2052 15.2494C42.3197 13.3398 40.3632 11.489 38.5952 9.47647C38.1594 8.9813 38.2475 7.95419 38.2377 7.16976C38.2108 4.81647 38.0247 5.17437 40.2408 5.14985C41.3818 5.1376 42.5254 5.09837 43.6615 5.18172C43.9603 5.20378 44.4721 5.63277 44.477 5.8828C44.5333 8.96659 44.5137 12.0504 44.5137 15.1342L44.2052 15.2469V15.2494Z" fill="#3AB54A"/>
</g>
<defs>
<clipPath id="clip0_819_142">
<rect width="52" height="50" fill="white"/>
</clipPath>
</defs>
</svg>
