<svg width="48" height="42" viewBox="0 0 48 42" fill="none" xmlns="http://www.w3.org/2000/svg">
<g clip-path="url(#clip0_819_207)">
<path d="M24.456 41.9273C25.3075 40.8769 24.9077 39.9561 24.368 39.053C23.0709 36.8776 19.649 35.5602 17.1106 36.2748C16.9287 36.3259 16.7928 36.5418 16.6369 36.6793C16.8308 36.8069 17.0146 37.0288 17.2185 37.0464C18.3058 37.1407 19.4211 37.07 20.4845 37.2742C22.0315 37.5706 23.1868 38.4895 23.8524 39.9286C24.2841 40.8612 24.0962 41.3462 23.0829 41.623C22.3553 41.8213 21.5838 41.9352 20.8283 41.9469C18.098 41.9862 15.3637 41.8782 12.6374 41.996C10.4967 42.0883 9.00165 41.1459 7.79241 39.5929C4.63838 35.5503 4.08073 28.4116 9.37942 23.6819C11.7899 21.5301 14.5582 20.1263 17.8221 19.8435C20.9922 19.5706 23.7884 20.5621 26.2049 22.5726C26.4308 22.7591 26.5467 23.1086 26.6406 23.4051C27.0983 24.8324 27.7639 26.1361 28.9452 27.1197C29.319 27.4319 29.7467 27.7362 30.2044 27.8795C30.5442 27.9875 30.9699 27.8305 31.3577 27.7892C31.0898 27.5713 30.852 27.2964 30.5502 27.1472C28.7233 26.2519 27.7779 24.6891 27.4501 22.8337C27.2642 21.7873 27.3062 20.5877 27.65 19.5922C28.2916 17.7329 30.2164 17.2048 31.8794 18.2905C33.4704 19.3272 34.4517 20.8252 34.9095 22.6335C34.9694 22.8671 34.7156 23.2225 34.5257 23.46C34.3498 23.6819 34.03 23.7899 33.8501 24.0098C33.7622 24.1178 33.7802 24.4181 33.8741 24.5301C33.9541 24.6243 34.2819 24.6538 34.3818 24.5713C35.5611 23.621 36.8502 23.9882 38.0975 24.2945C41.2375 25.0621 44.0418 26.4836 46.0685 29.0026C46.882 30.0157 47.4196 31.3134 47.8174 32.5621C48.3191 34.1407 47.7974 34.9162 46.1944 35.4875C44.4035 36.1256 42.5387 36.1963 40.6779 35.996C39.4646 35.8664 38.2614 35.5778 37.0761 35.2696C36.3845 35.0909 35.8948 35.2225 35.7969 35.9018C35.5131 37.8769 34.4138 38.6151 32.453 38.2087C32.2951 38.1753 32.0972 38.1714 31.9613 38.2382C31.7554 38.3403 31.5915 38.5189 31.4076 38.6662C31.6015 38.7879 31.7874 38.996 31.9933 39.0157C32.9827 39.1119 34.032 38.9842 34.9534 39.2689C35.8908 39.5595 36.7563 40.174 37.5518 40.7748C38.0595 41.1577 37.9795 41.6387 37.226 41.7742C36.9642 41.8213 36.7043 41.9234 36.4445 41.9234C32.493 41.9332 28.5414 41.9293 24.456 41.9293V41.9273ZM38.9289 26.7781C38.0335 26.7879 37.4958 27.2041 37.302 27.9895C37.254 28.1839 37.4339 28.4312 37.5078 28.6551C37.7037 28.5412 37.9176 28.4509 38.0895 28.3095C38.3413 28.1014 38.6071 27.64 38.785 27.6753C39.0868 27.7342 39.3187 28.1053 39.5905 28.337C39.7464 28.4685 39.9203 28.5805 40.0862 28.7022C40.1862 28.4882 40.4 28.2565 40.368 28.0641C40.2341 27.2591 39.6985 26.8409 38.9269 26.7781H38.9289Z" fill="#113D3C"/>
<path d="M31.0489 0.0608741C30.895 0.543858 30.759 1.03273 30.5832 1.50786C28.9922 5.80367 26.2639 9.15119 21.9905 11.091C18.6186 12.6224 15.1368 13.9162 11.7829 15.481C9.57829 16.5098 7.35567 17.625 5.42488 19.07C2.1949 21.483 2.27285 26.9686 4.51345 29.0282C4.71133 29.2107 4.80727 29.5995 4.79328 29.8861C4.7473 30.7638 4.62538 31.6355 4.51945 32.625C3.21226 32.2088 2.1929 31.4333 1.41739 30.3514C-0.22159 28.0661 -0.207599 25.5236 0.316074 22.9241C0.947679 19.7945 2.75255 17.4346 5.63875 16.1093C8.63487 14.735 11.7849 13.6846 14.877 12.5203C16.362 11.9607 17.8671 11.4424 19.3762 10.9457C24.5809 9.23169 28.0767 5.7114 30.4033 0.940455C30.5572 0.624356 30.7231 0.312183 30.883 -0.00195312C30.9389 0.0176804 30.9949 0.0392772 31.0489 0.0589107V0.0608741Z" fill="#3AB54A"/>
<path d="M38.4631 23.4487C37.5797 23.3093 36.7662 23.1798 36.1945 23.0894C35.481 21.7308 34.8554 20.4978 34.1878 19.2845C33.81 18.5973 34.1898 17.2171 35.0033 16.4808C35.7348 15.8172 36.4504 15.9782 37.1539 16.5063C39.0587 17.9376 39.7123 21.3656 38.4631 23.4487Z" fill="#113D3C"/>
</g>
<defs>
<clipPath id="clip0_819_207">
<rect width="48" height="42" fill="white"/>
</clipPath>
</defs>
</svg>
