<?xml version="1.0" encoding="utf-8"?>
<!-- Generator: Adobe Illustrator 27.6.1, SVG Export Plug-In . SVG Version: 6.00 Build 0)  -->
<svg version="1.1" id="Layer_1" xmlns="http://www.w3.org/2000/svg" xmlns:xlink="http://www.w3.org/1999/xlink" x="0px" y="0px"
	 width="69.427px" height="60px" viewBox="0 0 69.427 60" enable-background="new 0 0 69.427 60" xml:space="preserve">
<g>
	<path fill="#3AB54A" d="M22.334,46.464H9.57c-3.029,0-5.494-2.464-5.494-5.493c0-1.584-0.083-2.42,0.414-3.618
		c-0.705-1.667-1.079-3.45-1.056-5.237c-3.775,3.166-3.425,7.238-3.425,8.855c0,5.272,4.288,9.561,9.561,9.561h12.765
		c3.028,0,5.492,2.465,5.492,5.494v1.939c0,1.123,0.91,2.034,2.034,2.034c1.123,0,2.034-0.911,2.034-2.034v-1.939
		C31.894,50.755,27.606,46.464,22.334,46.464L22.334,46.464z"/>
	<path fill="#113D3C" d="M68.724,25.205c-1.984-3.73-4.827-6.914-8.464-9.489c0.93-1.587,1.429-3.397,1.429-5.273
		C61.689,4.685,57.005,0,51.246,0c-5.22,0-9.556,3.851-10.32,8.86c-2.508-0.308-5.43-0.496-8.548-0.496
		c-8.363,0-14.803,2.376-19.14,7.059c-4.193,4.528-5.731,10.361-5.731,16.493c0,5.607,4.562,10.17,10.168,10.17h18.637
		c1.124,0,2.034-0.911,2.034-2.034c0-1.106-0.881-2.006-1.981-2.033c-0.228-0.018-2.139,0.033-2.53-0.034h-0.007
		c-3.284-0.335-5.854-3.117-5.854-6.487v-7.294c0-3.55-1.668-5.625-5.216-5.625c-1.124,0-2.034-0.911-2.034-2.034
		c0-1.123,0.91-2.034,2.034-2.034c5.782,0,9.267,3.885,9.282,9.666c0,0.009,0.001,0.018,0.001,0.027v7.294
		c0,1.332,1.066,2.419,2.39,2.452h9.337v1.615c0,3.595,2.926,6.521,6.52,6.521h3.441c1.124,0,2.034-0.911,2.034-2.034
		c0-1.124-0.91-2.034-2.034-2.034h-3.441c-1.352,0-2.453-1.101-2.453-2.453V33.95h15.624C67.952,33.95,70.829,29.171,68.724,25.205
		L68.724,25.205z M55.13,25.814c-1.124,0-2.034-0.911-2.034-2.034c0-1.124,0.91-2.034,2.034-2.034c1.123,0,2.034,0.91,2.034,2.034
		C57.163,24.903,56.252,25.814,55.13,25.814z"/>
</g>
</svg>
