<svg width="35" height="32" viewBox="0 0 35 32" fill="none" xmlns="http://www.w3.org/2000/svg">
<g clip-path="url(#clip0_888_134)">
<path d="M21.1958 29.9325C15.5439 29.9325 9.97234 30.0325 4.40681 29.8878C1.8656 29.8216 0.0164777 27.5061 0.01042 24.8934C-0.00472428 18.866 -0.00169542 12.8386 0.0089056 6.80963C0.0134489 3.88753 2.12154 1.72443 5.0035 1.65361C5.83341 1.63359 6.66331 1.65053 7.38267 1.65053C7.62043 1.11938 7.77642 0.648268 8.03993 0.249519C8.14897 0.0847852 8.49577 -0.00297042 8.72597 0.0139649C9.65734 0.0832456 9.78153 0.806844 9.80273 1.59972H22.7405C23.0131 0.329577 23.322 -0.0553159 24.0051 0.00472743C24.6729 0.0632312 24.9652 0.495851 25.0424 1.64745C25.7512 1.64745 26.4736 1.66593 27.1929 1.64437C30.658 1.53814 32.71 4.29859 32.6176 7.09907C32.504 10.5585 32.5873 14.0241 32.5858 17.4866C32.5858 17.5374 32.5692 17.5866 32.5525 17.6898C28.3712 15.83 24.5866 16.298 21.6653 20.0392C19.2861 23.086 19.3285 26.4484 21.1973 29.9309L21.1958 29.9325ZM17.5672 20.1962C17.5733 19.5388 16.9796 18.9168 16.3269 18.8968C15.6817 18.8783 15.0623 19.4711 15.0321 20.1377C15.0003 20.8197 15.6303 21.4802 16.3072 21.4741C16.9539 21.4679 17.5612 20.8536 17.5672 20.1962ZM9.71186 13.1835C9.69672 12.4799 9.12881 11.9272 8.4352 11.9426C7.7537 11.9564 7.19185 12.5522 7.20851 13.2435C7.22517 13.9455 7.80217 14.506 8.48972 14.489C9.17121 14.4721 9.72549 13.8778 9.71035 13.185L9.71186 13.1835ZM24.1414 11.9426C23.4493 11.9379 22.8904 12.4999 22.8859 13.2035C22.8813 13.8978 23.4462 14.4844 24.1262 14.489C24.8138 14.4936 25.3817 13.924 25.3877 13.222C25.3923 12.5291 24.8244 11.9456 24.1429 11.9426H24.1414ZM9.71186 20.1762C9.7058 19.5003 9.12578 18.903 8.46851 18.8984C7.80671 18.8922 7.22365 19.4772 7.21002 20.1608C7.19488 20.8736 7.80065 21.4941 8.49123 21.4741C9.15607 21.454 9.7164 20.8582 9.71186 20.1762ZM16.3042 11.9426C15.6393 11.9395 15.0472 12.5199 15.0321 13.1896C15.0154 13.8609 15.5818 14.4628 16.2557 14.4875C16.9524 14.5137 17.5763 13.9024 17.5657 13.2004C17.5566 12.5307 16.969 11.9441 16.3042 11.941V11.9426Z" fill="#194342"/>
<path d="M28.3471 32.0001C24.6413 31.997 21.6685 28.9702 21.6837 25.2137C21.6988 21.5079 24.6853 18.498 28.3502 18.498C32.0484 18.498 35.0106 21.5233 35.0016 25.2937C34.994 29.0118 32.0242 32.0032 28.3471 32.0016V32.0001ZM27.5445 25.1813C27.3204 24.9027 27.1674 24.6979 26.9993 24.5085C26.4859 23.9266 25.9104 23.8373 25.4076 24.2514C24.9109 24.6594 24.8685 25.2691 25.3153 25.8865C25.6439 26.3406 25.9861 26.7856 26.339 27.2213C26.969 27.9972 27.5112 28.0603 28.2745 27.4414C29.221 26.6747 30.1614 25.8988 31.0989 25.1197C31.7425 24.584 31.8682 23.9173 31.4396 23.3954C31.0171 22.8797 30.3583 22.8889 29.6995 23.4247C28.9923 23.9989 28.2866 24.5763 27.5445 25.1829V25.1813Z" fill="#2D9742"/>
</g>
<defs>
<clipPath id="clip0_888_134">
<rect width="35" height="32" fill="white"/>
</clipPath>
</defs>
</svg>
