<svg width="37" height="47" viewBox="0 0 37 47" fill="none" xmlns="http://www.w3.org/2000/svg">
<g clip-path="url(#clip0_819_204)">
<path d="M19.4495 30.2869C20.7337 29.8306 21.8792 29.4087 23.0399 29.0271C23.2735 28.9504 23.606 28.9409 23.8111 29.0521C25.3993 29.9092 26.9532 30.8296 28.5489 31.6714C29.115 31.9705 28.9915 32.3368 28.8719 32.7797C28.1804 35.3281 27.5098 37.8841 26.8012 40.4267C26.6132 41.0998 26.6132 41.6788 27.3692 41.8879C28.1082 42.0911 28.4368 41.6347 28.6192 40.9444C29.3943 38.0222 30.194 35.1076 31.0033 32.1949C31.2389 31.3492 30.99 30.8181 30.213 30.4058C28.5356 29.518 26.8924 28.565 25.158 27.5948C25.5189 27.1806 25.8476 26.8048 26.2446 26.3484C29.1245 27.5813 32.0139 28.8181 34.9755 30.0856C34.3904 32.6148 33.8186 35.0884 33.2449 37.562C33.1803 37.8419 33.0056 38.1583 33.0797 38.3922C33.2145 38.8179 33.4083 39.3817 33.7426 39.5485C34.2461 39.7997 34.7172 39.468 34.8635 38.862C35.1332 37.748 35.3897 36.632 35.6537 35.516C36.0716 33.75 36.4801 31.982 36.9189 30.2217C37.1393 29.3359 36.9094 28.799 36.0166 28.4346C33.471 27.3992 30.9539 26.287 28.4273 25.2017C28.0835 25.0541 27.7435 24.8911 27.5402 24.7971C27.827 23.2248 28.2963 21.7368 28.3115 20.245C28.3267 18.7838 27.8783 17.3188 27.6029 15.6794C28.8947 14.9814 30.3308 14.0284 31.8943 13.4014C33.9212 12.5903 34.9945 11.2595 35.27 9.07357C35.4448 7.69488 35.9539 6.36222 36.2958 5.00462C36.4592 4.35459 36.5371 3.65086 35.705 3.4361C34.8824 3.22517 34.6222 3.84261 34.455 4.51566C34.0162 6.27593 33.5527 8.02853 33.1214 9.79072C32.979 10.3775 32.7282 10.7782 32.145 11.0716C30.2795 12.0093 28.4539 13.0313 26.6132 14.0188C26.5581 14.0476 26.4954 14.0591 26.332 14.1128C25.8989 13.6027 25.4316 13.0524 24.949 12.4829C21.6189 17.0753 15.4602 17.1597 12.0806 12.5404C11.6114 13.0735 11.1536 13.5951 10.6635 14.1511C8.54153 13.0198 6.47088 11.9402 4.43443 10.7993C4.16658 10.6478 3.99751 10.203 3.90632 9.86167C3.4276 8.0803 2.98118 6.28743 2.53665 4.49648C2.37708 3.85603 2.11683 3.27119 1.35696 3.41501C0.522998 3.57416 0.5078 4.26255 0.676872 4.93176C1.19928 6.99883 1.7046 9.07165 2.30869 11.1157C2.45117 11.5951 2.871 12.1147 3.30412 12.3621C5.36147 13.5356 7.46821 14.6228 9.62815 15.7772C8.29077 18.7762 8.28508 21.7406 9.73643 24.7703C8.94996 25.1116 8.18629 25.451 7.41692 25.7731C5.26079 26.6782 3.11226 27.6005 0.937127 28.4615C0.0879719 28.797 -0.143789 29.3109 0.0632761 30.1719C0.731962 32.958 1.36835 35.7518 2.02184 38.5399C2.17002 39.1727 2.42837 39.7652 3.21484 39.583C4.0279 39.397 4.0431 38.7757 3.87403 38.0739C3.31742 35.7518 2.78551 33.424 2.2479 31.098C2.17762 30.7912 2.12632 30.4787 2.05034 30.0894C4.08299 29.2342 6.08525 28.3886 8.08941 27.5487C8.61372 27.3282 9.17982 27.1844 9.66234 26.893C10.5381 26.3637 11.1897 26.4558 11.6817 27.5181C11.4955 27.6446 11.2847 27.8057 11.0567 27.9399C9.57876 28.8028 8.10841 29.6772 6.61526 30.5075C5.98457 30.8584 5.7737 31.3281 5.95797 32.0089C6.78053 35.05 7.60499 38.0912 8.42565 41.1324C8.59662 41.7632 9.00885 42.0585 9.63195 41.8917C10.2797 41.7172 10.4146 41.2091 10.2512 40.605C9.54456 37.9934 8.85118 35.3798 8.11221 32.7778C7.94313 32.1834 8.04382 31.8593 8.59662 31.5582C10.0423 30.7702 11.4404 29.8958 12.8899 29.1173C13.19 28.9562 13.6612 28.9524 13.9993 29.0559C15.1391 29.3991 16.2542 29.8248 17.546 30.2754C17.546 30.4384 17.546 30.7797 17.546 31.1211C17.546 35.8496 17.546 40.5801 17.546 45.3087C17.546 45.533 17.4605 45.8168 17.565 45.9683C17.8215 46.3441 18.1634 46.6586 18.4711 46.9961C18.7941 46.672 19.1512 46.3748 19.421 46.0105C19.5274 45.8667 19.4419 45.5771 19.4419 45.3528C19.4419 40.6242 19.4419 35.8937 19.4419 31.1652C19.4419 30.82 19.4419 30.4749 19.4419 30.2831L19.4495 30.2869ZM23.6839 19.198C23.6592 19.9286 23.2355 20.3082 22.563 20.3811C21.9362 20.4501 21.3473 19.8269 21.353 19.1769C21.3567 18.5326 21.9646 17.9133 22.5858 17.9938C23.2545 18.0801 23.6782 18.4598 23.6839 19.1961V19.198ZM12.9469 20.1222C12.964 19.3955 13.3762 19.0043 14.0506 18.9238C14.6832 18.849 15.2664 19.4511 15.2721 20.1088C15.2778 20.7665 14.7003 21.3705 14.062 21.3034C13.3876 21.2344 12.9602 20.8605 12.9469 20.1203V20.1222ZM17.8196 24.9639C17.8139 24.3484 18.3344 23.7904 18.9461 23.7578C19.5692 23.7252 20.1903 24.3158 20.196 24.9448C20.2017 25.568 19.5787 26.2084 18.9689 26.149C18.2831 26.0819 17.905 25.6562 17.8215 24.9639H17.8196Z" fill="#113D3C"/>
<path d="M19.8512 2.69063H17.1023C17.1023 2.18825 17.1194 1.62833 17.0985 1.06842C17.0758 0.447151 16.7775 -0.0130522 16.1297 0.0003703C15.4857 0.0137928 15.2008 0.466323 15.2103 1.10485C15.2141 1.3292 15.1913 1.55355 15.2103 1.77598C15.311 2.92073 15.0583 3.82004 14.1996 4.7462C12.1423 6.96284 12.4557 10.5601 14.6784 12.5715C16.9561 14.6329 20.3432 14.5677 22.4917 12.4201C24.6631 10.2514 24.7694 6.70014 22.6152 4.49309C21.9655 3.82772 21.7091 3.19494 21.7926 2.31864C21.8382 1.84501 21.8933 1.32537 21.749 0.893929C21.6312 0.543025 21.2 0.0368035 20.9454 0.0578961C20.5921 0.0866587 20.0886 0.487416 19.9823 0.832567C19.8018 1.41357 19.8835 2.07703 19.855 2.69255L19.8512 2.69063ZM17.203 5.47102C17.2068 5.61291 17.2087 5.75672 17.2125 5.89862C16.8801 6.1479 16.578 6.5314 16.2076 6.61577C15.6282 6.74808 15.1685 6.34732 15.2673 5.76439C15.3281 5.40582 15.765 4.88618 16.0746 4.85358C16.4261 4.81715 16.825 5.24475 17.203 5.47102ZM22.1802 5.69153C21.5951 6.14215 21.3006 6.52948 20.934 6.61577C20.3508 6.75575 19.969 6.35115 19.9424 5.76248C19.9158 5.16613 20.2995 4.7462 20.8656 4.81907C21.2341 4.867 21.5571 5.26009 22.1802 5.68961V5.69153Z" fill="#3AB54A"/>
</g>
<defs>
<clipPath id="clip0_819_204">
<rect width="37" height="47" fill="white" transform="matrix(1 0 0 -1 0 47)"/>
</clipPath>
</defs>
</svg>
