<svg width="29" height="30" viewBox="0 0 29 30" fill="none" xmlns="http://www.w3.org/2000/svg">
<g clip-path="url(#clip0_772_135)">
<path d="M7.60213 0.00124111C7.60213 1.50631 7.59738 2.93172 7.6045 4.35834C7.60687 4.74577 7.47289 5.28045 7.96966 5.37942C8.25303 5.43615 8.64546 5.18389 8.92052 4.9775C9.55482 4.49955 10.1536 3.97332 10.7547 3.45071C11.0973 3.1538 11.3984 3.14294 11.7482 3.44709C12.424 4.03487 13.1093 4.6118 13.8159 5.15855C14.0103 5.30942 14.4063 5.47839 14.5178 5.39028C14.7229 5.22614 14.8841 4.88095 14.8924 4.60576C14.9304 3.31915 14.909 2.03133 14.909 0.744724C14.909 0.526265 14.909 0.307807 14.909 0.0446914C15.1307 0.0277941 15.3015 0.00365501 15.4722 0.00244806C17.3099 3.41548e-05 19.1476 -0.0035867 20.9853 0.00244806C22.0938 0.00606891 22.5266 0.452641 22.5266 1.57511C22.5278 3.94556 22.5266 6.31601 22.5266 8.77216C22.3428 8.65147 22.2183 8.57663 22.1009 8.48973C20.8584 7.57004 19.1061 7.68711 18.0402 8.80234C17.7687 9.08718 17.5174 9.14994 17.1546 9.08356C15.5279 8.78302 13.8633 10.0129 13.6274 11.6906C13.5752 12.0611 13.4472 12.2832 13.0939 12.4594C11.5538 13.2222 10.9313 15.1811 11.7292 16.7248C11.894 17.0434 11.8679 17.2715 11.7577 17.6071C11.5324 18.2926 11.4269 19.018 11.2455 19.8472H10.8566C7.75507 19.8472 4.65233 19.8472 1.55078 19.8472C0.436304 19.8472 0.00118561 19.4078 0 18.2878C0 12.7165 0 7.14519 0 1.57269C0 0.432123 0.410221 0.00727587 1.53062 0.00365501C3.52363 -0.00237975 5.51664 0.00244806 7.60213 0.00244806V0.00124111ZM6.41533 12.9724C5.66484 12.9724 4.91435 12.9844 4.16386 12.9675C3.80936 12.9591 3.6659 13.0846 3.67539 13.4551C3.69436 14.1781 3.69199 14.9035 3.67539 15.6264C3.66827 15.968 3.81292 16.0959 4.13185 16.0947C5.63283 16.0911 7.13381 16.0899 8.63479 16.0947C8.96083 16.0959 9.10311 15.9475 9.10074 15.6228C9.09718 14.8987 9.09244 14.1745 9.10311 13.4515C9.10903 13.0906 8.96439 12.9555 8.60634 12.9663C7.876 12.9868 7.14448 12.9724 6.41415 12.9724H6.41533Z" fill="#194342"/>
<path d="M23.6845 24.3455C23.5932 24.3358 23.4095 24.3406 23.2423 24.2911C22.6732 24.121 22.2547 24.3479 21.8765 24.7606C20.9529 25.7685 19.5491 25.7914 18.6386 24.7993C18.2272 24.3503 17.7932 24.1656 17.1696 24.2948C15.8726 24.5627 14.7474 23.7516 14.5542 22.424C14.4581 21.7662 14.1831 21.3377 13.5701 21.0565C12.4473 20.5424 11.9897 19.1447 12.5884 18.0572C12.9239 17.4465 12.9322 16.9251 12.5943 16.3132C11.9909 15.2221 12.4402 13.8341 13.5606 13.3079C14.1629 13.0255 14.4581 12.6091 14.5542 11.944C14.7486 10.5947 15.8358 9.82944 17.1518 10.066C17.7411 10.1722 18.2094 10.037 18.6327 9.5615C19.5053 8.58146 20.9399 8.58025 21.8279 9.55788C22.2523 10.025 22.7159 10.1734 23.3087 10.0672C24.6698 9.82582 25.7926 10.655 25.9479 12.049C26.0131 12.6356 26.2858 12.9953 26.7956 13.2403C28.0452 13.8414 28.4898 15.198 27.8282 16.4158C27.5413 16.9444 27.5461 17.4236 27.8294 17.9474C28.4768 19.1435 28.0488 20.511 26.8442 21.0855C26.2917 21.3498 26.006 21.7312 25.9384 22.3685C25.8151 23.532 24.8796 24.3467 23.6845 24.3442V24.3455ZM15.2845 17.2063C15.2916 20.0028 17.5336 22.2743 20.2605 22.249C22.9933 22.2248 25.2294 19.9184 25.2021 17.152C25.1737 14.341 22.9708 12.1239 20.2095 12.1299C17.4613 12.1347 15.2774 14.3869 15.2845 17.2063Z" fill="white"/>
<path d="M28.8903 27.2288C28.4943 27.1745 28.0971 27.1322 27.7047 27.0635C27.1806 26.9717 26.659 26.8691 26.1397 26.7545C25.7781 26.6748 25.5706 26.7496 25.4425 27.1564C25.1639 28.0447 24.8236 28.9137 24.3945 29.8238C23.5041 28.5963 22.8259 27.2662 22.0742 25.9977C22.4335 25.4087 22.8638 25.2023 23.5799 25.2748C25.0916 25.428 26.0922 24.5711 26.7882 23.1614C27.5458 24.4999 28.2738 25.7853 29.0017 27.0707C28.965 27.1226 28.927 27.1757 28.8903 27.2276V27.2288Z" fill="white"/>
<path d="M13.6293 23.2495C14.0087 23.713 14.3264 24.2006 14.7402 24.582C15.3472 25.142 16.1155 25.4534 16.9241 25.2784C17.6426 25.1227 18.0219 25.4498 18.4013 25.9941C17.6746 27.2662 16.9407 28.5528 16.1143 29.9988C15.9424 29.6487 15.8464 29.4894 15.7835 29.3168C15.5381 28.6409 15.269 27.9699 15.0757 27.2783C14.937 26.7834 14.7058 26.6603 14.228 26.7762C13.5202 26.9476 12.7993 27.061 12.0809 27.1866C11.9172 27.2155 11.7453 27.1902 11.4062 27.1902C12.1994 25.7829 12.9262 24.4951 13.6293 23.2471V23.2495Z" fill="white"/>
<path d="M19.4352 17.3729C20.2177 16.6004 20.9635 15.8594 21.7151 15.1243C22.1538 14.6946 22.6612 14.6452 23.0335 14.9807C23.4224 15.3307 23.4841 15.8473 23.0952 16.2649C22.1171 17.3137 21.1164 18.3421 20.098 19.3499C19.7008 19.7433 19.2396 19.7083 18.8317 19.3124C18.3741 18.8695 17.9141 18.4277 17.4718 17.9691C17.0486 17.531 17.0201 17.006 17.3699 16.627C17.7149 16.254 18.2508 16.2564 18.6906 16.6511C18.955 16.8877 19.2005 17.1436 19.4352 17.3729Z" fill="white"/>
</g>
<defs>
<clipPath id="clip0_772_135">
<rect width="29" height="30" fill="white"/>
</clipPath>
</defs>
</svg>
