<svg width="109" height="48" viewBox="0 0 109 48" fill="none" xmlns="http://www.w3.org/2000/svg">
<g id="Layer_1" clip-path="url(#clip0_10_82)">
<path id="Vector" d="M94.9656 42.1637C95.2835 42.1049 95.7901 42.0145 96.2254 41.9354C96.5869 42.288 96.9071 42.5999 97.2295 42.9119C97.3331 42.8373 97.4344 42.7627 97.5381 42.6881C97.3354 42.2835 97.1328 41.8811 96.8357 41.2912C97.3354 41.3138 97.819 41.2053 98.1461 41.3771C98.9475 41.7998 99.6315 42.5932 100.626 41.7071C100.672 41.6664 101.264 42.0281 101.396 42.2993C102.183 43.9448 101.529 45.6061 101.264 47.2336C101.221 47.498 100.246 47.7489 99.6891 47.7738C98.2336 47.8439 96.7735 47.7738 95.3157 47.7828C83.1168 47.8597 70.9156 48.0631 58.7168 47.9817C48.3211 47.9139 37.9301 47.5365 27.5367 47.2562C26.2332 47.22 24.9344 46.7838 23.6332 46.7928C16.7887 46.8403 9.94657 46.9736 3.10442 47.0731C2.0888 47.0867 1.07319 47.0731 0.0575745 47.0731C0.0391506 46.9578 0.0207268 46.8403 0 46.725C0.56423 46.4696 1.10543 46.1441 1.69269 45.9723C3.22187 45.5248 4.77868 45.1609 6.31016 44.7201C6.54046 44.6546 6.79149 44.3924 6.879 44.1663C7.1853 43.3797 7.55147 42.887 8.57629 42.8463C9.50209 42.8101 10.5131 42.4643 10.4371 41.1646C10.4325 41.0923 10.4325 40.9793 10.4763 40.9522C12.3946 39.7565 13.1431 37.191 15.6418 36.6824C16.9039 36.427 17.8066 35.6495 18.7025 34.8064C19.8287 33.744 21.0285 32.7585 22.1961 31.7414C22.2859 31.8024 22.3757 31.8657 22.4656 31.9267C22.3297 32.2161 22.1938 32.5076 22.1593 32.58C22.3942 33.2671 22.4955 33.8367 22.7742 34.3046C23.1081 34.8651 23.5387 35.3963 24.0293 35.8303C24.4807 36.2281 25.0956 36.4428 25.5861 36.8068C26.4083 37.4148 27.2327 37.365 28.0319 36.8542C28.7988 36.3637 29.5127 35.7919 30.3625 35.1725C31.2606 36.6282 32.5503 36.6666 34.0334 35.871C34.3858 35.6811 34.851 35.654 35.2678 35.6314C36.2834 35.5749 37.1102 35.3986 36.7463 34.0763C36.7118 33.9475 36.8983 33.7621 37.048 33.4728C38.4275 35.1951 39.3879 33.7553 40.4357 33.1224C41.1128 32.7133 41.7023 32.32 41.9142 33.6378C42.7525 33.1292 43.4918 32.6839 44.2241 32.2409C44.1113 31.6804 44.2633 31.3843 45.2351 30.2609C44.2172 29.8133 44.3669 29.0494 44.8298 28.3532C45.5092 27.3315 46.1932 26.276 47.066 25.4216C48.13 24.3841 48.9659 23.3104 49.2008 21.8186C49.2584 21.4524 49.5877 21.1202 49.8134 20.7879C50.5504 19.6984 51.3541 18.6497 52.0151 17.5195C52.3398 16.9657 52.3582 16.2492 52.6047 15.6434C52.7613 15.2592 53.0814 14.9382 53.3278 14.5901C53.7953 14.9134 54.4125 15.1439 54.6935 15.5824C55.0688 16.1656 55.336 16.6832 56.1052 16.8979C57.6297 17.3206 58.1272 17.0923 58.8043 15.6118C59.6333 13.7968 60.5361 12.0179 61.4941 10.0446C62.1113 10.5329 62.6203 10.9375 63.203 11.3986C63.4079 11.0573 63.6313 10.7951 63.735 10.4922C64.2048 9.1134 65.5842 8.76531 66.6022 8.00811C66.7403 7.90413 67.0328 7.86119 67.0489 7.75947C67.2424 6.54795 68.3455 5.99869 68.9719 5.11039C69.1654 4.83689 68.9627 4.3238 69.0756 3.96215C69.4855 2.66925 69.9507 1.39443 70.4366 -0.00244141C72.4978 1.67697 74.6833 3.4581 76.9633 5.31834C77.2972 4.52044 77.5643 3.86495 77.8453 3.21398C78.3381 2.06348 79.69 1.86684 80.5835 2.80035C80.7862 3.01282 81.1409 3.12583 81.2583 3.36542C81.4172 3.68639 81.5923 4.17914 81.4495 4.43229C80.9797 5.26861 81.3827 6.31287 82.3983 6.42815C83.4669 6.54795 84.3351 6.74007 84.9431 7.81372C85.2793 8.40592 86.318 8.58449 86.7717 9.15409C87.1655 9.64683 87.2415 10.4199 87.352 11.0867C87.4695 11.7873 87.3958 12.4474 86.4354 12.5875C86.2765 12.6101 86.0554 12.9198 86.0485 13.1051C85.9932 14.3754 85.3714 13.6453 84.9109 13.4238C84.5124 14.3686 83.9712 15.266 83.7824 16.2289C83.6442 16.9296 83.8331 17.7885 84.1739 18.4214C84.2798 18.618 85.3668 18.3174 86.0002 18.2247C86.2258 18.1908 86.4377 18.0823 86.6611 18.0303C86.995 17.9535 87.3336 17.897 87.6698 17.8314C87.6399 18.2089 87.6076 18.5864 87.5777 18.9435C87.9277 19.5086 88.1696 20.2997 88.7085 20.6772C89.655 21.3372 90.7005 21.7983 92.0224 21.6988C92.7041 21.6468 93.448 22.4244 94.1942 22.8425C94.0329 23.2969 93.9293 23.5884 93.8786 23.7263C95.2489 24.4225 96.534 25.0757 98.0447 25.842C96.9831 27.1688 96.9278 28.7713 96.686 30.4394C95.8431 30.1411 95.09 29.8766 94.1366 29.5398C93.8971 28.5114 93.1509 27.6163 91.9257 26.936C91.1197 26.4862 90.5877 25.5594 89.9336 24.8474C89.6849 24.5762 89.4293 24.3117 89.0125 24.1784C89.1414 24.3456 89.2566 24.5265 89.404 24.6757C90.6015 25.8781 91.1911 27.6254 92.8607 28.4052C92.9275 28.4368 93.0196 28.473 93.0404 28.5272C93.342 29.359 93.4848 30.2857 94.5626 30.5819C95.3641 30.8034 96.1494 31.0859 97.2088 31.4272C96.5731 31.6555 96.1747 31.7956 95.8523 31.9109C96.2784 32.0578 96.7827 32.2319 97.3285 32.4217C97.0222 33.2287 98.8807 34.1825 97.2088 35.0121C96.7044 34.6075 96.1862 34.1938 95.6704 33.7802C95.569 33.8073 95.47 33.8344 95.3687 33.8616C95.4792 34.5351 95.5898 35.2065 95.7371 36.0993C95.5898 36.1535 95.1223 36.3276 94.6363 36.5084C93.4572 35.1477 92.3149 33.8277 91.1726 32.5076C92.1675 35.3443 94.5281 36.8384 97.0936 38.224C96.9094 38.563 96.7482 38.8614 96.4695 39.3745C96.9163 39.2004 97.1673 39.1032 97.4483 38.9947C97.7983 40.5498 96.0365 40.1498 95.8201 40.9906C94.9495 40.2153 94.155 39.5078 93.3628 38.8003C93.3351 38.7755 93.3098 38.7371 93.3075 38.7032C93.1486 37.3763 92.6811 36.5739 91.0621 37.1051C90.7144 37.2181 90.1639 36.6237 89.6711 36.4677C89.4431 36.3954 89.1276 36.5988 88.6716 36.7276C89.7218 37.1639 90.5831 37.5255 91.7277 38.0002C91.7438 37.9482 91.8474 37.6182 91.951 37.2882C92.0478 37.356 92.1445 37.4216 92.2435 37.4894C92.3149 37.7335 92.4946 38.0047 92.437 38.2149C92.1007 39.4965 92.8745 40.0548 93.8372 40.6493C94.3208 40.9476 94.5695 41.6167 94.9564 42.1637H94.9656Z" fill="#36A84D"/>
<path id="Vector_2" d="M101.552 38.7169C101.301 37.6478 100.818 36.7662 100.97 36.0045C101.375 33.968 101.974 31.954 102.662 29.9898C102.952 29.1648 103.662 28.4822 104.267 27.6097C104.237 27.6007 104.507 27.673 104.988 27.7996C104.44 26.9633 106.361 26.2061 104.903 25.5958C105.347 25.1663 105.741 24.5153 106.303 24.3097C107.1 24.0181 108.021 24.0542 109.005 23.939C108.892 24.2283 108.74 24.4249 108.76 24.6035C108.947 26.3033 107.593 27.2277 106.803 28.437C106.628 28.7037 106.483 28.9953 106.354 29.2869C106.2 29.6327 106.075 29.9898 105.937 30.3424C105.81 30.3334 105.684 30.3221 105.557 30.313C105.787 30.686 106.018 31.0567 106.273 31.4748C106.075 31.7551 105.868 32.0512 105.656 32.3496C105.295 32.0354 104.977 31.7596 104.64 31.4681C103.542 32.3812 103.48 33.7193 102.803 34.7455C102.126 35.7694 102.015 37.1528 101.554 38.7214L101.552 38.7169Z" fill="#36A84D"/>
</g>
<defs>
<clipPath id="clip0_10_82">
<rect width="109" height="48" fill="white"/>
</clipPath>
</defs>
</svg>
