<svg width="32" height="36" viewBox="0 0 32 36" fill="none" xmlns="http://www.w3.org/2000/svg">
<mask id="mask0_347_190" style="mask-type:alpha" maskUnits="userSpaceOnUse" x="0" y="0" width="32" height="36">
<rect width="32" height="36" fill="#D9D9D9"/>
</mask>
<g mask="url(#mask0_347_190)">
<path d="M13.6389 14.2202C13.777 14.1441 13.915 14.1695 14.0657 14.2202C14.4548 14.3216 16.5134 14.5246 16.8774 14.5119C19.3502 14.4358 19.4381 11.7092 18.7979 9.21092C18.7854 9.14751 18.7979 9.0841 18.7979 9.02069C18.7728 8.98265 18.7477 8.9446 18.7603 8.90656C19.049 8.05688 18.6975 7.53693 17.9192 7.24525C18.1452 7.08039 18.1577 6.90285 18.0071 6.66189C17.3042 5.50786 16.4506 4.506 15.1703 3.97337C15.8732 3.70705 16.5636 3.80851 17.254 4.06214C17.618 3.96069 17.7686 4.26505 18.0448 4.40455C18.0448 4.60746 18.2456 4.6455 18.4213 4.70891C18.7477 4.81036 18.9611 5.03863 19.0866 5.35568C20.1661 6.78871 20.8691 8.37392 20.8565 10.2255C20.8565 11.8868 20.1912 13.1422 18.71 13.9158C18.5845 13.9792 18.4213 14.0173 18.4339 14.2075C18.1954 14.4104 17.8941 14.4485 17.618 14.4865C17.1787 14.5499 17.1159 14.7275 17.2791 15.1206C17.7812 16.3127 17.8565 17.5301 17.4297 18.7602C17.254 19.2675 16.9653 19.6987 16.7017 20.1679C17.2163 20.3835 17.7561 20.0665 18.1954 20.4342C18.346 20.6498 18.5971 20.6118 18.8105 20.6752C19.8147 20.9922 20.5929 21.5502 20.982 22.5648C20.4172 22.9452 19.8021 22.7677 19.1996 22.7169C18.9234 22.6282 18.7728 22.3999 18.6222 22.1716C18.0824 21.3473 17.2916 20.9288 16.3628 20.7766C15.7351 20.6752 15.095 20.5484 14.4548 20.6371C14.2414 20.6625 14.028 20.6752 13.9276 20.4342C13.7644 20.3581 13.5887 20.2821 13.4255 20.1933C13.4255 19.8255 13.0615 19.6226 13.0364 19.2802C12.9987 18.849 12.8606 18.4813 12.5343 18.1769C12.4715 17.8091 12.3962 17.4287 12.6473 17.0989C12.5719 16.4649 12.8606 15.8815 12.8983 15.2601C12.936 14.905 13.0991 14.6387 13.4129 14.4738C13.5008 14.3851 13.5761 14.2963 13.664 14.2202H13.6389Z" fill="white"/>
<path d="M10.6492 28.4249C10.4233 27.7655 10.3605 27.0807 10.4108 26.3959C10.599 26.2817 10.8124 26.3071 11.0133 26.3071C13.5865 26.3071 16.1597 26.3071 18.7455 26.3071C19.0593 26.3071 19.3731 26.2817 19.6619 26.4593C20.0259 27.1568 19.9255 27.9684 19.4108 28.5264C19.1347 28.6532 18.8459 28.6405 18.5572 28.6405C16.2476 28.6405 13.938 28.6405 11.6158 28.6405C11.2894 28.6405 10.938 28.6786 10.6618 28.4249H10.6492Z" fill="white"/>
<path d="M10.4102 25.7621C10.4855 25.0392 10.4855 24.3037 10.7616 23.6062C10.975 23.4033 11.2512 23.3906 11.5273 23.3906C13.9248 23.3906 16.3098 23.3906 18.7073 23.3906C18.9332 23.3906 19.1717 23.3906 19.3725 23.5174C19.8244 24.1515 19.9876 24.8237 19.6613 25.5719C19.36 25.7621 19.0211 25.7241 18.6947 25.7241C16.4981 25.7241 14.2888 25.7241 12.0922 25.7241C11.5273 25.7241 10.975 25.7875 10.4102 25.7621Z" fill="white"/>
<path d="M13.0121 19.2813C13.2757 19.4335 13.3636 19.7252 13.5267 19.9534C13.6397 20.1056 13.5267 20.169 13.3887 20.2071C12.4096 20.1056 11.4556 19.9154 10.464 19.9408C9.37191 19.9788 9.13341 20.1563 8.84471 21.2343C8.35517 23.1112 8.2673 25.0642 7.99115 26.9791C7.84052 27.9936 7.71499 29.0335 7.35098 29.9974C6.98696 30.9485 5.8698 31.6587 4.87816 31.5952C4.61456 31.5826 4.43883 31.4304 4.40117 31.1768C4.36351 30.9485 4.48904 30.7709 4.70243 30.6822C4.80285 30.6441 4.90326 30.6061 5.00368 30.5934C6.1334 30.53 6.54762 29.7944 6.73591 28.7926C7.08738 26.9918 7.238 25.1656 7.48905 23.3521C7.62713 22.3883 7.7652 21.4372 8.06646 20.5114C8.38027 19.573 9.00789 19.0911 9.96187 19.0403C10.9786 18.9896 11.9954 18.9389 12.987 19.2813H13.0121Z" fill="white"/>
<path d="M19.1518 19.1934C20.0556 19.0158 20.9719 18.9778 21.9008 19.0285C23.1309 19.0919 23.6832 19.5104 24.0347 20.7025C24.4991 22.2243 24.5995 23.8095 24.8004 25.382C24.9636 26.6629 25.1142 27.9311 25.4029 29.1865C25.5912 29.9855 26.018 30.442 26.8213 30.5562C26.9594 30.5815 27.11 30.6069 27.2481 30.6449C27.5242 30.721 27.7 30.8986 27.6372 31.2029C27.5745 31.4946 27.3611 31.6341 27.0724 31.5707C25.4782 31.241 24.9887 31.0634 24.5493 29.529C24.11 28.0198 23.997 26.46 23.8087 24.9128C23.6456 23.632 23.5326 22.3511 23.1811 21.1083C22.9175 20.1825 22.679 20.005 21.725 19.9416C20.6958 19.8782 19.6916 20.0938 18.6748 20.1952C18.4238 20.2967 18.3359 20.1698 18.4238 19.9669C18.5744 19.6245 18.6999 19.2441 19.1518 19.1934Z" fill="white"/>
<path d="M12.096 31.3404C11.619 30.7824 11.2424 30.161 11.0039 29.4508C11.029 29.4254 11.0541 29.3874 11.0792 29.362C11.2801 29.2225 11.5186 29.2479 11.7445 29.2479C13.9537 29.2479 16.1629 29.2479 18.3721 29.2479C19.2634 29.2479 19.3889 29.4381 18.9747 30.2498C18.7362 30.719 18.4851 31.1882 17.9956 31.4545C17.4182 31.6194 16.8282 31.5433 16.2508 31.5433C15.1587 31.5433 14.0792 31.5433 12.9872 31.5433C12.6734 31.5433 12.3596 31.5433 12.0834 31.3404H12.096Z" fill="white"/>
<path d="M13.903 20.4336C14.6185 20.5097 15.334 20.4336 16.0494 20.535C17.4051 20.738 18.4469 21.3086 19.0495 22.5895C18.8235 22.8304 18.5223 22.8051 18.2335 22.8051C16.1373 22.8051 14.0411 22.8051 11.9448 22.8051C11.6561 22.8051 11.3548 22.8304 11.1289 22.5768C11.518 21.5876 12.2712 21.0296 13.2377 20.6999C13.4636 20.6238 13.7398 20.6619 13.903 20.4336Z" fill="white"/>
<path d="M19.1491 19.1942C18.8855 19.3971 18.7474 19.6888 18.5591 19.9551C18.4461 20.1073 18.5215 20.158 18.6595 20.1961C18.4964 20.2722 18.3332 20.361 18.1574 20.437C17.58 20.437 16.9901 20.437 16.375 20.437C16.4127 20.1454 16.5884 19.9678 16.7265 19.7649C17.7307 18.1924 17.7683 16.5691 16.9775 14.9078C16.8645 14.6542 16.7516 14.4386 17.0905 14.4132C17.5424 14.3752 17.9566 14.1215 18.421 14.223C18.4963 14.3118 18.5842 14.4005 18.6595 14.4766C19.011 14.6161 19.1491 14.8951 19.1742 15.2629C19.3499 15.8589 19.2495 16.5184 19.6386 17.051C19.6386 17.4315 19.5507 17.7992 19.5382 18.1797C19.262 18.4587 19.0487 18.7757 19.1365 19.2069L19.1491 19.1942Z" fill="white"/>
<path d="M10.4102 25.7599C10.5733 25.4682 10.8495 25.5063 11.1256 25.5063C13.975 25.5063 16.8244 25.5063 19.6738 25.5063C20.201 25.1766 20.7659 25.3034 21.3182 25.3668C21.6194 25.3921 21.6069 25.6838 21.6696 25.8867C21.6696 26.1023 21.6696 26.3052 21.6696 26.5208C21.0044 26.8505 20.3516 26.8379 19.6864 26.5208C16.8621 26.5208 14.0378 26.5208 11.2135 26.5208C10.9499 26.5208 10.6738 26.5589 10.4227 26.394C10.4227 26.1784 10.4227 25.9755 10.4227 25.7599H10.4102Z" fill="white"/>
<path d="M11.114 22.5781C13.75 22.5781 16.3986 22.5781 19.0346 22.5781C19.6747 22.5781 20.3149 22.5781 20.9551 22.5781C21.1685 22.8825 21.294 23.2249 21.3065 23.6053C20.6789 23.9351 20.0388 23.9351 19.4111 23.6053C16.5241 23.6053 13.637 23.6053 10.75 23.6053C10.75 23.2249 10.8881 22.8825 11.1015 22.5781H11.114Z" fill="white"/>
<path d="M12.6232 17.1017C12.5855 17.4568 12.7738 17.8499 12.5102 18.1796C11.7947 17.7865 11.1043 17.3553 10.3638 17.0129C9.69848 16.7086 9.0332 16.6705 8.36793 16.9368C7.7152 17.2032 7.04993 17.4695 6.42231 17.7992C5.24239 18.4079 4.13778 18.2557 3.02062 17.647C2.71936 17.4822 2.46831 17.2792 2.64405 16.9115C2.83233 16.531 3.14614 16.6071 3.4474 16.7973C4.38883 17.3807 5.33025 17.4061 6.28423 16.8227C6.38465 16.7593 6.51018 16.7213 6.62315 16.6578C8.506 15.5419 10.3386 15.6053 12.1336 16.8608C12.2843 16.9622 12.4726 17.0256 12.6357 17.1017H12.6232Z" fill="white"/>
<path d="M19.5489 18.1773C19.2853 17.7715 19.3731 17.4037 19.6493 17.0486C20.1514 16.7062 20.7037 16.4526 21.2434 16.1863C22.21 15.7171 23.1765 15.7171 24.1556 16.1102C24.733 16.3385 25.323 16.5794 25.8627 16.8838C26.779 17.391 27.6577 17.3657 28.5364 16.8457C28.8376 16.6682 29.1765 16.4906 29.3899 16.8965C29.6159 17.3403 29.2519 17.5305 28.9255 17.7081C27.846 18.2788 26.7665 18.4056 25.6368 17.8222C25.0217 17.5052 24.3815 17.2515 23.7539 16.9852C23.0384 16.6809 22.323 16.7062 21.6326 17.0613C20.9296 17.4291 20.2393 17.8095 19.5363 18.19L19.5489 18.1773Z" fill="white"/>
<path d="M10.6523 28.4257C13.577 28.4257 16.5017 28.4257 19.4264 28.4257C20.0917 28.134 20.757 28.0833 21.4348 28.4257C21.4348 28.7427 21.2968 29.0217 21.1587 29.3134C20.5938 29.6685 19.9788 29.5543 19.3888 29.4656C19.1001 29.4275 18.8239 29.3768 18.5227 29.3768C16.2256 29.3768 13.9285 29.3768 11.644 29.3768C11.4431 29.3768 11.2298 29.3387 11.0289 29.4275L11.0164 29.4656C10.8155 29.1485 10.7026 28.8061 10.6649 28.4257H10.6523Z" fill="white"/>
<path d="M13.3892 14.4873C13.2512 14.7663 13.1005 15.0453 12.8746 15.2736C12.1465 15.0199 11.4687 14.6395 10.816 14.2337C10.3892 13.9673 10.088 13.6123 9.91222 13.143C9.57331 12.1919 9.19674 11.2535 8.89548 10.2897C8.71975 9.73166 8.4436 9.31316 7.9415 9.03416C7.76577 8.93271 7.60259 8.79321 7.42685 8.66639C7.16325 8.47617 6.98752 8.23521 7.23857 7.93085C7.45196 7.66454 7.70301 7.72795 7.95405 7.89281C8.85782 8.4508 9.66118 9.05953 9.86201 10.2262C9.96243 10.7969 10.2762 11.3296 10.4143 11.9002C10.6654 12.9528 11.3055 13.6123 12.2972 13.9927C12.6612 14.1322 13.0127 14.3224 13.3767 14.4873H13.3892Z" fill="white"/>
<path d="M19.1865 15.2612C19.0108 14.9949 18.8351 14.7413 18.6719 14.475C18.7095 14.4623 18.7472 14.4496 18.7848 14.4369C20.5045 13.9043 21.6091 12.8137 21.9355 10.9875C21.9731 10.7592 22.1238 10.5563 22.1614 10.3281C22.3372 9.14865 23.128 8.47652 24.0568 7.90585C24.333 7.74098 24.5966 7.63953 24.8225 7.95657C25.061 8.2863 24.8602 8.55261 24.584 8.67943C23.5296 9.17402 23.128 10.1125 22.8644 11.165C22.8016 11.406 22.6761 11.6343 22.6259 11.8879C22.2367 13.8028 20.8685 14.6906 19.1865 15.2612Z" fill="white"/>
<path d="M19.0715 5.36841C18.7954 5.20355 18.582 4.98796 18.4062 4.72165C19.674 3.5042 21.2933 3.18716 22.9377 2.95889C23.3142 2.90816 23.6782 2.83207 24.0548 2.79403C24.7577 2.73062 25.3352 2.50235 25.7368 1.86826C25.9126 1.58926 26.2013 1.38636 26.5276 1.69072C26.8414 1.9824 26.6406 2.23603 26.4398 2.51503C25.9126 3.27593 25.2347 3.65638 24.3059 3.73247C23.4398 3.79588 22.5736 3.99879 21.7075 4.13829C20.7033 4.29047 19.8623 4.77237 19.0715 5.3811V5.36841Z" fill="#113D3C"/>
<path d="M13.6509 4.7211C13.4877 4.98742 13.2618 5.203 12.9982 5.38055C11.7429 4.26456 10.1864 4.07433 8.62994 3.84606C8.05253 3.75729 7.47512 3.6812 6.89771 3.56706C6.11947 3.41488 5.81821 2.69202 5.40398 2.14671C5.30356 2.00721 5.40398 1.81699 5.54206 1.69017C5.68013 1.56335 5.83076 1.52531 6.00649 1.58872C6.06926 1.61408 6.13202 1.63944 6.15712 1.69017C7.01068 3.11052 8.52952 2.81884 9.80986 3.05979C11.2408 3.32611 12.5714 3.73193 13.6634 4.73378L13.6509 4.7211Z" fill="#113D3C"/>
<path d="M12.0938 31.3432C14.077 31.3432 16.0477 31.3432 18.031 31.3305C18.6837 31.0515 19.3239 30.9754 19.9766 31.3432C19.7758 31.6983 19.5122 31.99 19.1984 32.2309C18.5331 32.5607 17.8427 32.4212 17.1524 32.4085C16.0729 32.4592 14.9933 32.4212 13.9013 32.4338C13.5373 32.4338 13.1984 32.3958 12.872 32.2309C12.5582 31.9773 12.282 31.6983 12.0938 31.3432Z" fill="white"/>
<path d="M19.9772 31.3545C19.3245 31.3545 18.6843 31.3545 18.0316 31.3418C18.4835 30.7965 18.8475 30.1877 19.1362 29.4268C16.3747 29.4268 13.701 29.4268 11.0273 29.4268C11.2407 29.2366 11.5043 29.3254 11.7554 29.3254C14.8935 29.3254 18.0316 29.3254 21.1571 29.3254C20.881 30.0736 20.5044 30.7584 19.9897 31.3671L19.9772 31.3545Z" fill="white"/>
<path d="M12.8711 32.2422C14.3021 32.2422 15.7205 32.2422 17.1515 32.2422C17.3397 32.5339 17.0887 32.648 16.9381 32.8002C16.4485 33.2567 15.8962 33.5991 15.2811 33.8654C14.3272 33.5484 13.5489 32.9777 12.8711 32.2549V32.2422Z" fill="white"/>
<path d="M19.4141 23.6064C20.0417 23.6064 20.6819 23.6064 21.3095 23.6064C21.5856 24.342 21.6107 25.1156 21.6484 25.8891C21.5354 25.6101 21.3597 25.4833 21.0333 25.496C20.5814 25.5341 20.117 25.496 19.6651 25.496C19.7028 24.8492 19.4894 24.2278 19.4141 23.5938V23.6064Z" fill="white"/>
<path d="M21.4224 28.4257C20.7572 28.4257 20.0919 28.4257 19.4141 28.4257C19.7028 27.817 19.6777 27.1702 19.6651 26.5234C20.3304 26.5234 20.9831 26.5234 21.6484 26.5234C21.6484 27.1702 21.548 27.8043 21.4099 28.4257H21.4224Z" fill="white"/>
<path d="M15.2812 33.8498C15.708 33.2918 16.4361 33.1396 16.888 32.6197C17.0009 32.4929 17.1516 32.4168 17.1516 32.2266C17.8294 32.2266 18.5072 32.2266 19.1976 32.2266C18.57 32.9367 17.8043 33.4694 16.9131 33.8118C16.3733 34.0274 15.8336 34.0781 15.2812 33.8371V33.8498Z" fill="white"/>
<path d="M14.8066 4.06208C14.5054 4.13817 14.292 4.48058 13.9154 4.34108C13.6392 3.74504 13.6392 3.12364 13.8024 2.48955C13.8777 2.19787 14.0535 1.98228 14.3798 2.05837C14.6936 2.13446 14.8066 2.3881 14.7187 2.69246C14.5807 3.16168 14.6183 3.60554 14.7941 4.0494L14.8066 4.06208Z" fill="#113D3C"/>
<path d="M18.1334 4.35472C17.7694 4.48154 17.5434 4.13913 17.2422 4.06304C17.4305 3.64454 17.4681 3.21336 17.3426 2.7695C17.2422 2.43978 17.3301 2.16078 17.669 2.07201C18.033 1.98324 18.1962 2.24955 18.2589 2.55392C18.397 3.16264 18.4096 3.75868 18.1209 4.34204L18.1334 4.35472Z" fill="#113D3C"/>
<path d="M15.0951 3.98933C15.1328 3.98933 15.1705 3.96397 15.2081 3.95129C15.4341 3.84983 16.4131 3.49475 18.1328 4.43319C19.8525 5.37164 20.3797 6.55104 20.7437 8.97325C21.2081 11.6745 20.204 14.1854 16.8776 14.5025C13.6642 14.4898 13.6516 14.0967 13.4382 13.9445C11.5679 12.5622 11.0031 10.9896 11.3294 8.98593C11.5428 7.62899 12.183 6.44959 12.9989 5.37164C13.1119 5.0546 14.0784 4.20492 15.0951 3.98933Z" fill="#113D3C"/>
<path d="M14.6561 8.13406C14.6561 8.78083 14.3046 9.23737 13.79 9.23737C13.3883 9.23737 13.0117 8.75547 13.0117 8.2482C13.0117 7.70289 13.4385 7.23366 13.9155 7.24634C14.3799 7.24634 14.6561 7.57607 14.6561 8.13406Z" fill="white"/>
<path d="M17.9081 7.24609C18.9625 7.28414 19.3014 7.96895 18.7867 9.02153C18.3097 9.22444 17.8578 9.31321 17.5315 8.7679C17.2302 8.24795 17.3683 7.67727 17.9081 7.24609Z" fill="white"/>
</g>
</svg>
