<svg width="34" height="46" viewBox="0 0 34 46" fill="none" xmlns="http://www.w3.org/2000/svg">
<g clip-path="url(#clip0_819_162)">
<path d="M24.8879 33.0175C24.8879 36.8207 24.2124 40.0154 22.264 42.8323C19.3307 47.075 14.7422 47.0482 11.7927 42.8082C8.28886 37.7668 8.32115 29.0535 11.8627 24.0496C14.8176 19.8765 19.2984 19.8792 22.2371 24.0817C24.2043 26.8933 24.8663 30.0854 24.8852 33.0175H24.8879Z" fill="#113D3C"/>
<path d="M23.0829 11.4072C22.4586 13.0019 22.106 14.6073 21.2691 15.9045C19.2077 19.0993 15.066 19.0752 12.8296 16.0037C10.9189 13.3771 10.8839 9.49354 12.7489 6.8348C15.0337 3.5757 19.1834 3.53817 21.3202 6.90181C22.1464 8.20169 22.4774 9.81517 23.0802 11.4099L23.0829 11.4072Z" fill="#3AB54A"/>
<path d="M12.863 17.204C12.7607 18.0108 12.6827 18.654 12.5804 19.45C10.3494 18.5629 8.27993 17.7588 6.23465 16.9012C5.96823 16.7886 5.7933 16.4107 5.62914 16.1266C5.54572 15.9845 5.5511 15.7755 5.56187 15.6013C5.73679 13.0792 5.35734 10.793 2.70117 9.45292C2.79536 9.37788 2.89224 9.30551 2.98643 9.23047C4.1517 9.75042 5.34657 10.2168 6.4634 10.8198C6.78365 10.994 7.03662 11.5595 7.06353 11.9643C7.28689 15.1751 7.26806 15.1751 10.266 16.2472C11.1029 16.5474 11.9318 16.8583 12.8603 17.1987L12.863 17.204Z" fill="#113D3C"/>
<path d="M31.3195 9.53387C28.7064 10.8445 28.3538 13.0878 28.5287 15.5589C28.5853 16.3657 28.2354 16.8347 27.42 17.1295C25.4985 17.821 23.6174 18.6224 21.7228 19.3782C20.902 17.5208 21.0043 17.2689 22.7535 16.6551C23.2998 16.4621 23.8488 16.2719 24.3951 16.0789C26.8495 15.2105 26.9194 15.2105 26.941 12.5812C26.9517 11.4368 27.2639 10.7855 28.3861 10.4317C29.3038 10.1423 30.1623 9.65716 31.045 9.25781C31.1365 9.34894 31.228 9.44274 31.3195 9.53387Z" fill="#113D3C"/>
<path d="M0.553472 38.9087C2.80597 37.054 3.3738 34.4301 3.95509 31.8303C4.14347 30.9861 4.53907 30.5385 5.40024 30.3777C6.44709 30.182 7.47511 29.8845 8.5139 29.6299C8.82876 31.6802 8.56772 32.0367 6.72697 32.5674C6.31254 32.688 6.00574 33.1999 5.66397 33.5483C5.57785 33.6368 5.52941 33.7868 5.51326 33.9155C5.18763 36.8181 3.27692 38.2386 0.550781 38.9114L0.553472 38.9087Z" fill="#113D3C"/>
<path d="M25.7298 32.2829C25.5925 31.2483 25.4929 30.5032 25.3691 29.5625C26.7605 29.9243 28.0361 30.2272 29.2875 30.6078C29.5566 30.6909 29.8068 31.0286 29.9441 31.3073C30.1163 31.6611 30.1675 32.0738 30.2617 32.4625C30.8483 34.8532 31.4592 37.2305 33.666 38.8279C33.5718 38.911 33.4776 38.9941 33.3834 39.0772C32.2262 38.4741 31.0071 37.9595 29.936 37.2305C29.5027 36.933 29.3251 36.1906 29.1448 35.6144C28.6012 33.8669 28.289 31.9371 25.7298 32.2802V32.2829Z" fill="#113D3C"/>
<path d="M12.0214 22.3181C11.2786 23.961 10.3582 24.8669 8.4852 24.2424C6.98623 23.7439 5.64603 24.0789 4.63685 25.4619C3.47966 27.0459 1.5824 26.3249 0 26.7055C0.228748 26.5447 0.438658 26.3303 0.694317 26.2284C2.41396 25.5396 3.71917 24.3872 4.63954 22.7951C5.03783 22.109 5.56261 21.8624 6.40494 21.9509C8.24838 22.1438 10.108 22.2001 12.0214 22.3181Z" fill="#113D3C"/>
<path d="M33.9997 26.7935C33.3349 26.7211 32.6729 26.6327 32.0082 26.5817C30.956 26.5013 29.9764 26.2655 29.3224 25.3489C28.4344 24.1053 27.2287 23.7434 25.8347 24.2151C24.0182 24.8316 22.8529 24.1991 22.0859 22.3337C24.1958 22.1996 26.2949 22.0522 28.3967 21.9477C28.612 21.937 28.9295 22.1219 29.0506 22.3122C30.2859 24.2714 31.8952 25.7991 33.9997 26.7908V26.7935Z" fill="#113D3C"/>
<path d="M13.6004 17.9707C15.9363 19.4555 18.1727 19.4421 20.4709 17.9841C20.6459 19.1473 20.8019 20.1845 20.9957 21.4791C18.3315 19.7932 15.7803 19.6378 13.0918 21.5675C13.2775 20.2515 13.4255 19.2197 13.6004 17.9707Z" fill="#113D3C"/>
<path d="M23.1326 8.09936C22.0965 7.05945 21.9942 6.16427 22.8554 5.00911C24.5239 2.77115 26.5503 1.07192 29.2415 0.166016C26.3323 2.11987 24.1848 4.65532 23.1326 8.09668V8.09936Z" fill="#3AB54A"/>
<path d="M4.83398 0.179688C7.55474 1.08291 9.57041 2.80091 11.2497 5.03082C12.1405 6.21278 11.9036 7.08384 10.9725 8.10499C9.85567 4.67704 7.79425 2.07458 4.83398 0.179688Z" fill="#3AB54A"/>
<path d="M14.5294 0C14.9358 0.999709 15.2452 1.76088 15.7027 2.88388C15.0111 3.53248 13.9831 4.49735 12.9551 5.46221C12.8017 5.37109 12.6456 5.27728 12.4922 5.18616C13.1623 3.48156 13.8324 1.77428 14.5294 0.00268018V0Z" fill="#3AB54A"/>
<path d="M21.1014 5.43286C20.095 4.49212 19.0858 3.55137 18.3457 2.85989C18.7978 1.82801 19.1315 1.06684 19.5729 0.0644531C20.2564 1.77709 20.9292 3.46561 21.6047 5.15412C21.4378 5.24525 21.271 5.33906 21.1014 5.43018V5.43286Z" fill="#3AB54A"/>
</g>
<defs>
<clipPath id="clip0_819_162">
<rect width="34" height="46" fill="white"/>
</clipPath>
</defs>
</svg>
