<svg width="66" height="60" viewBox="0 0 66 60" fill="none" xmlns="http://www.w3.org/2000/svg">
<mask id="mask0_401_239" style="mask-type:alpha" maskUnits="userSpaceOnUse" x="0" y="0" width="66" height="60">
<path d="M64.438 32.804C65.4622 31.2338 65.515 29.7196 64.5328 28.0535C63.9631 27.0907 63.7412 25.9211 63.3686 24.843C63.1769 24.2927 62.8538 23.7413 62.8398 23.1834C62.7795 20.8593 62.8064 18.5363 62.8161 16.2122C62.8204 15.3818 62.4639 14.7292 61.6271 14.7658C60.6438 14.8089 59.8975 14.3803 59.1156 13.9484C58.3542 13.5305 57.6132 13.0793 56.8367 12.6937C56.5406 12.5451 56.1604 12.4417 55.8416 12.4826C54.825 12.6119 53.818 12.81 52.811 13.0017C52.2219 13.1137 51.6436 13.2861 51.0523 13.3873C50.8369 13.4239 50.5935 13.3507 50.3728 13.2904C49.3486 13.0157 48.4805 12.1617 47.2302 12.7077C46.7111 12.936 45.9679 12.725 45.3422 12.6226C44.7596 12.5279 44.1963 12.3103 43.6223 12.1477C43.6169 12.194 43.6105 12.2403 43.6029 12.2866C43.2831 12.068 42.9837 11.704 42.6423 11.6609C41.8798 11.5694 41.0408 11.4638 40.3343 11.6824C39.0506 12.0777 38.3904 11.5004 37.8379 10.515C37.4642 9.84513 36.9742 9.56189 36.1643 9.7999C35.1455 10.0961 34.5553 9.60066 34.5531 8.54307C34.5456 6.2502 34.551 3.95948 34.5488 1.66661C34.5467 0.349476 34.2117 0.00269243 32.9129 0.00161546C28.4262 -0.000538485 23.9407 -0.000538485 19.454 0.00161546C17.971 0.00161546 17.6662 0.313936 17.6662 1.83139C17.6641 8.64215 17.6662 15.4529 17.6641 22.2637V23.4236H8.97507C6.6822 23.4236 4.39148 23.4139 2.10077 23.4279C1.05287 23.4354 0.69855 23.8544 0.642548 24.9098C0.603777 25.6249 0.855788 26.1279 1.40181 26.5769C1.9963 27.067 2.52294 27.6399 3.08619 28.1687C4.49595 29.4934 5.73877 31.1099 7.37146 32.048C8.95569 32.958 9.47048 34.2191 9.92173 35.7258C10.1188 36.3839 10.3224 37.0796 10.6982 37.6396C12.4397 40.2426 15.1827 41.4025 17.9559 42.4709C18.2661 42.5904 18.8197 42.4655 19.0889 42.2447C20.1131 41.4004 21.0081 40.4473 21.2073 39.0203C21.2439 38.7553 21.6446 38.3633 21.9063 38.3364C23.1415 38.2169 24.3865 38.191 25.6283 38.1684C25.8146 38.1641 26.0311 38.3256 26.1861 38.4646C26.6665 38.8889 27.135 39.3304 27.5862 39.7849C28.0816 40.2868 28.6955 40.738 29.01 41.3422C29.6389 42.5484 30.0772 43.8516 30.6362 45.0976C30.787 45.4369 31.0821 45.7169 31.3298 46.0098C32.3023 47.1546 33.2855 48.2876 34.2505 49.4378C34.342 49.5466 34.313 49.748 34.37 49.8934C34.8256 51.0167 34.5424 52.4339 35.741 53.2761C35.8886 53.3806 35.8552 53.7543 35.8886 54.0063C36.0361 55.1738 36.7598 55.9201 37.7517 56.3961C38.8976 56.9443 40.0791 57.4182 41.2627 57.8856C41.6407 58.0331 42.0704 58.1139 42.4732 58.1107C43.1969 58.1031 43.7957 58.2097 44.416 58.7095C45.7827 59.8134 47.3863 59.1166 47.5242 57.3557C47.578 56.6621 47.3034 55.9223 47.0923 55.2308C46.7207 54.0268 46.2652 52.9229 46.6938 51.5476C47.1138 50.1938 47.5209 48.8498 48.5699 47.9268C50.0281 46.6409 51.6296 45.5144 53.2063 44.3696C54.6569 43.3142 56.2422 42.4267 57.6122 41.2808C58.9756 40.1425 60.3778 39.2454 62.1301 38.8447C62.6707 38.723 63.3718 38.2352 63.5377 37.7548C64.0255 36.3548 64.7072 34.9504 64.3841 33.3748C64.3475 33.1949 64.3454 32.9505 64.438 32.8094V32.804Z" fill="black"/>
</mask>
<g mask="url(#mask0_401_239)">
<rect x="-8.51562" y="-6.78516" width="82.8191" height="72.9109" fill="#3AB54A"/>
</g>
</svg>
