<svg width="46" height="46" viewBox="0 0 46 46" fill="none" xmlns="http://www.w3.org/2000/svg">
<g clip-path="url(#clip0_819_190)">
<path d="M12.3262 28.2295H33.6743C33.5134 29.9182 33.3597 31.5422 33.2024 33.2057H12.8234C12.6625 31.5889 12.498 29.9488 12.3262 28.2295Z" fill="#3AB54A"/>
<path d="M12.5098 25.4314C12.9003 23.8038 13.2493 22.2662 13.6616 20.7465C13.7123 20.5595 14.0974 20.3437 14.3271 20.3419C20.1134 20.3203 25.8998 20.3203 31.6862 20.3383C31.905 20.3383 32.2757 20.5055 32.3173 20.6638C32.7368 22.2122 33.1039 23.775 33.5089 25.4314H12.5098Z" fill="#113D3C"/>
<path d="M13.9551 35.9951C19.9802 35.9951 25.9908 35.9951 32.0014 35.9951C31.7699 38.8348 27.4175 42.3022 23.9004 42.6277C18.6077 43.1187 14.8881 39.0992 13.9551 35.9951Z" fill="#113D3C"/>
<path d="M14.9198 17.5403C16.634 14.4866 18.4712 11.7692 22.1275 11.0318C23.6247 10.7297 25.0044 11.1451 26.2683 11.9059C28.4509 13.2205 29.8686 15.2006 31.0602 17.5403H14.918H14.9198Z" fill="#3AB54A"/>
<path d="M10.0376 32.8252C10.2582 33.7172 10.4589 34.5211 10.6831 35.4275C9.65242 35.6109 9.42097 36.476 9.19313 37.2979C8.58917 39.4704 7.43732 41.222 5.61099 42.6086C4.28193 43.6175 3.11561 44.8404 1.83899 46.0004C1.20429 45.3242 0.636503 44.7164 0 44.0365C1.41947 42.7399 2.75758 41.4109 4.21141 40.2221C5.30359 39.3301 6.0504 38.2942 6.41747 36.9472C6.57479 36.3735 6.94548 35.8465 7.03951 35.271C7.3234 33.5482 8.75553 33.3575 10.0376 32.827V32.8252Z" fill="#113D3C"/>
<path d="M35.3848 35.1917C35.5439 34.5496 35.7428 33.7439 35.9743 32.8105C37.1333 33.3753 38.5546 33.4202 38.9 35.0622C39.5021 37.9199 41.2109 40.0384 43.5128 41.7685C44.3736 42.4159 45.1204 43.2126 45.9992 44.0165C45.4133 44.6585 44.8383 45.2898 44.2018 45.9894C43.7786 45.6189 43.3754 45.2736 42.9794 44.9193C42.3971 44.3978 41.8565 43.8223 41.2326 43.3583C38.8674 41.6012 37.2382 39.3748 36.5005 36.4955C36.3829 36.0351 35.8224 35.6844 35.3866 35.1917H35.3848Z" fill="#113D3C"/>
<path d="M28.0536 9.79972C24.6595 7.78369 21.3848 7.75851 18.1282 9.7116C17.7954 8.35739 18.535 6.54458 19.8659 5.53567C21.5421 4.26598 23.3811 4.03938 25.2762 4.99074C27.1405 5.92772 27.9723 7.52652 28.0518 9.79792L28.0536 9.79972Z" fill="#3AB54A"/>
<path d="M15.4969 11.8215C14.8495 12.7009 14.3251 13.4617 13.7411 14.1738C13.5855 14.3627 13.2384 14.5209 12.9997 14.4958C12.3125 14.422 11.9798 14.7421 11.6851 15.305C11.1046 16.4183 10.4302 17.4829 9.84609 18.5944C9.59112 19.0799 9.29276 19.2939 8.72678 19.2706C7.678 19.2274 6.62741 19.258 5.51172 19.258V16.6287C5.65457 16.6017 5.77753 16.5424 5.88241 16.5657C7.56046 16.9524 8.38322 16.046 8.97632 14.6486C9.32531 13.8285 9.82258 13.066 10.3108 12.3143C10.4573 12.0877 10.79 11.8503 11.045 11.8431C12.4843 11.7981 13.9255 11.8215 15.4969 11.8215Z" fill="#113D3C"/>
<path d="M40.5365 16.5548V19.2434C39.2671 19.2434 38.0176 19.2668 36.7717 19.2182C36.5855 19.211 36.3649 18.9017 36.2383 18.6877C35.5584 17.5259 34.8803 16.3623 34.2492 15.1736C33.9943 14.6916 33.6941 14.4992 33.1335 14.4848C32.7936 14.4758 32.3777 14.233 32.1408 13.9668C31.5857 13.3446 31.1173 12.6432 30.5098 11.8357C32.1679 11.8357 33.7339 11.8213 35.2998 11.8591C35.4535 11.8627 35.6307 12.1666 35.7446 12.3626C36.4047 13.501 37.0846 14.6304 37.6849 15.7994C37.9869 16.3857 38.3558 16.6429 39.0176 16.5655C39.4877 16.5116 39.9687 16.5548 40.5347 16.5548H40.5365Z" fill="#113D3C"/>
<path d="M35.6582 22.6039C36.3291 22.6039 36.8987 22.6399 37.461 22.5931C38.0198 22.5482 38.3272 22.7442 38.5586 23.264C39.1644 24.6272 39.875 25.9436 40.4573 27.3158C40.7593 28.0298 41.1535 28.3517 41.9346 28.2366C42.3379 28.1772 42.7592 28.2258 43.2221 28.2258V30.9216C41.9726 30.9216 40.7231 30.9468 39.4772 30.8946C39.2801 30.8857 39.0378 30.5512 38.9221 30.3156C38.1807 28.8175 37.6346 27.1917 36.6943 25.8339C36 24.834 35.9801 23.7837 35.6582 22.6003V22.6039Z" fill="#113D3C"/>
<path d="M2.76367 30.9288V28.2276C3.0765 28.2276 3.37305 28.1808 3.64971 28.2366C4.80518 28.4704 5.36393 27.9165 5.76355 26.895C6.24274 25.6756 6.90456 24.53 7.42895 23.3269C7.66583 22.7856 7.95696 22.5284 8.57357 22.5913C9.13413 22.6489 9.70553 22.6039 10.3077 22.6039C10.1847 23.4204 10.1449 24.1722 9.94061 24.8753C9.82307 25.2836 9.38728 25.5911 9.18837 25.9886C8.47954 27.4021 7.78337 28.8229 7.14325 30.2688C6.90998 30.7939 6.61705 30.9612 6.06011 30.9396C4.98782 30.8983 3.91191 30.927 2.76367 30.927V30.9288Z" fill="#113D3C"/>
<path d="M19 2.76058V0H21.6039C21.622 0.264368 21.6165 0.528736 21.6635 0.784111C21.81 1.57542 21.5026 1.96927 20.6943 2.12214C20.15 2.22465 19.6401 2.51239 19.0018 2.76237L19 2.76058Z" fill="#3AB54A"/>
<path d="M24.3945 1.77515V0.0126953H27.0165V2.7391C26.1341 2.41538 25.3023 2.10965 24.3945 1.77515Z" fill="#3AB54A"/>
</g>
<defs>
<clipPath id="clip0_819_190">
<rect width="46" height="46" fill="white"/>
</clipPath>
</defs>
</svg>
