<svg width="45" height="57" viewBox="0 0 45 57" fill="none" xmlns="http://www.w3.org/2000/svg">
<g clip-path="url(#clip0_819_241)">
<path d="M31.613 20.6787C31.6319 25.5888 27.6224 29.5082 22.5733 29.5174C17.5148 29.5266 13.4958 25.6394 13.4864 20.7269C13.4745 15.8467 17.5266 11.8629 22.5237 11.8399C27.5019 11.817 31.5917 15.7961 31.613 20.681V20.6787Z" fill="#113D3C"/>
<path d="M26.982 31.2601C26.363 32.4394 25.8078 33.529 25.2218 34.6071C24.8863 35.2255 24.617 35.9289 24.1232 36.4024C22.37 38.0828 21.9778 39.6781 23.1214 41.7631C23.5797 42.5999 23.6506 43.386 23.516 44.2803C23.4262 44.8779 23.4994 45.5009 23.4994 46.2066C23.2513 46.2296 22.956 46.2825 22.6583 46.2825C17.113 46.2871 11.5678 46.2894 6.02016 46.2825C4.82463 46.2825 4.6616 46.0756 4.86952 44.9193C6.61792 35.2714 16.9973 28.7453 26.741 31.1704C26.9301 31.2164 27.1073 31.3061 26.982 31.2601Z" fill="#113D3C"/>
<path d="M34.5376 30.9046C35.0928 31.1713 35.6906 31.3253 36.1017 31.6816C37.1058 32.5483 38.2588 32.8448 39.5583 32.9023C41.0374 32.9666 41.6399 33.4402 41.9021 34.8332C42.1431 36.1021 42.7361 37.0745 43.7474 37.9113C44.8555 38.8285 45.0043 39.6146 44.2743 40.8583C43.5867 42.026 43.4261 43.2076 43.6482 44.4926C43.8537 45.6765 43.3764 46.5523 42.2282 46.9523C40.9074 47.412 39.9198 48.1545 39.2394 49.3706C38.6345 50.4556 37.5902 50.805 36.4159 50.3636C35.1353 49.8832 33.9398 49.9108 32.6474 50.3521C31.296 50.8142 30.5352 50.4901 29.7602 49.2855C29.1388 48.32 28.4276 47.5568 27.2746 47.1362C25.5239 46.4971 25.1293 45.8604 25.4459 44.0581C25.6396 42.9547 25.401 42.0444 24.8954 41.1019C24.0685 39.5595 24.1582 38.9181 25.4719 37.7779C26.365 37.0009 26.8801 36.1113 27.0998 34.962C27.3951 33.4264 27.9764 32.9666 29.583 32.8954C30.8896 32.8356 32.0237 32.4908 33.0184 31.6288C33.4011 31.2954 33.9682 31.1644 34.5376 30.9023V30.9046ZM28.6757 40.7732C28.6757 43.98 31.2865 46.5155 34.5801 46.5017C37.765 46.4879 40.4207 43.8949 40.4278 40.7893C40.4349 37.6653 37.6752 34.9941 34.4785 35.0332C31.2605 35.0723 28.6781 37.6262 28.6757 40.7732Z" fill="#113D3C"/>
<path d="M12.9708 6.2338C11.8461 8.35555 12.8007 9.50263 14.835 10.1624C15.024 10.2244 15.1776 10.5394 15.2343 10.7624C15.2532 10.8359 14.9106 11.1049 14.7381 11.1003C12.5573 11.0543 11.4587 12.0336 11.4988 14.1944C11.5036 14.3898 11.2318 14.5898 11.0901 14.7875C10.8869 14.6358 10.5561 14.5208 10.5018 14.33C9.88747 12.2037 8.51001 11.6865 6.46864 12.4198C6.30798 12.4772 5.90632 12.3301 5.88269 12.2198C5.83307 12.006 5.88978 11.6405 6.04572 11.5347C7.82483 10.3233 8.19105 8.93024 6.7687 7.21307C6.64584 7.06365 6.75925 6.73033 6.76162 6.48207C7.0097 6.48896 7.33575 6.39701 7.49405 6.51655C9.18811 7.79006 10.6294 7.68202 11.8532 5.88209C11.9714 5.70738 12.3423 5.57406 12.5526 5.61773C12.7203 5.65451 12.8196 5.99013 12.9779 6.2384L12.9708 6.2338Z" fill="#3AB54A"/>
<path d="M32.6358 5.42061C33.2171 5.92864 33.855 6.38839 34.363 6.95848C34.9324 7.59984 35.4333 7.61363 36.1775 7.22514C36.8462 6.87573 37.6306 6.7401 38.363 6.50793C38.1197 7.19985 38.0133 7.98373 37.6022 8.56301C36.9265 9.5124 37.4841 9.97905 38.0889 10.5813C38.5544 11.0457 38.8923 11.6319 39.2868 12.1629C38.6253 12.1836 37.907 12.3744 37.314 12.1882C36.0665 11.7951 35.4994 12.3123 35.1167 13.3444C34.9985 13.664 34.8402 13.9858 34.63 14.2547C34.4622 14.4708 34.1881 14.6064 33.9613 14.7789C33.829 14.5697 33.5738 14.3559 33.5785 14.149C33.64 12.0272 32.5579 11.0802 30.4291 11.1008C30.2282 11.1008 30.025 10.8457 29.8242 10.7078C29.9778 10.5124 30.0983 10.1951 30.292 10.1423C32.4752 9.53309 33.0139 8.18832 32.2554 6.19989C32.1964 6.04588 32.2909 5.83669 32.3145 5.65279C32.4208 5.57463 32.5271 5.49647 32.6311 5.41602L32.6358 5.42061Z" fill="#3AB54A"/>
<path d="M45 22.1251C44.2888 22.3618 43.5871 22.6469 42.8594 22.8239C42.0064 23.0308 41.6 23.4446 41.7016 24.3457C41.7773 25.0215 41.7158 25.7111 41.7158 26.6536C41.2622 26.426 40.929 26.3525 40.7448 26.1502C40.3549 25.7272 40.01 25.2537 39.7028 24.7686C39.3295 24.1756 38.8735 24.0629 38.2119 24.302C37.4582 24.5755 36.6738 24.764 35.9036 24.987C35.8043 24.8905 35.7027 24.7916 35.6035 24.6951C35.9343 24.1572 36.1824 23.548 36.61 23.0997C37.4157 22.2584 37.489 21.5527 36.6596 20.6585C36.2414 20.2056 36.0902 19.5183 35.8209 18.9344C36.4494 19.0355 37.1416 19.0057 37.6921 19.2631C38.8144 19.7849 39.4925 19.4723 40.0619 18.4815C40.3691 17.9505 40.8322 17.5023 41.2244 17.0195C41.3874 17.0678 41.5528 17.1138 41.7158 17.1621C41.7158 17.9275 41.7583 18.6953 41.704 19.4585C41.6473 20.2355 41.9214 20.6539 42.7318 20.8401C43.5044 21.0194 44.2415 21.3481 44.9929 21.6102C44.9929 21.7826 44.9952 21.955 44.9976 22.1274L45 22.1251Z" fill="#3AB54A"/>
<path d="M3.20855 26.6155C4.11582 23.8524 2.87068 22.5972 0.382758 22.2041C0.300063 22.1904 0.240995 22.0363 0 21.726C0.758427 21.441 1.42235 21.1214 2.12407 20.9444C3.06206 20.7077 3.53224 20.2663 3.39756 19.2571C3.30778 18.5767 3.38103 17.8756 3.38103 17.1814C3.54405 17.1308 3.70708 17.0779 3.8701 17.0273C4.35209 17.625 4.89552 18.1859 5.29718 18.8296C5.74845 19.5514 6.23753 19.664 7.04321 19.3928C7.76383 19.1491 8.56479 19.1284 9.33031 19.0112C8.97826 19.6571 8.71837 20.3789 8.24819 20.9283C7.65279 21.6249 7.67878 22.1444 8.26237 22.8064C8.74672 23.3581 9.11294 24.0064 9.5335 24.6109L9.29723 24.9029C8.87194 24.8247 8.43484 24.7811 8.01901 24.6615C5.4791 23.9351 6.22808 23.7926 4.65216 25.7741C4.39699 26.0936 4.04731 26.3419 3.74252 26.6224C3.56532 26.6201 3.38575 26.6178 3.20855 26.6155Z" fill="#3AB54A"/>
<path d="M17.8024 3.19757C18.5679 3.19757 19.3358 3.1516 20.0966 3.20907C20.9093 3.27113 21.3205 2.9585 21.5236 2.19761C21.7221 1.45281 22.0387 0.7402 22.3033 0.0114938C22.4569 0.00689627 22.6081 0.00459752 22.7617 0C23.0074 0.639055 23.3382 1.25972 23.4823 1.92176C23.6997 2.93321 24.2384 3.29872 25.2945 3.22286C25.9584 3.17688 26.6389 3.37917 27.3123 3.47112C26.8326 3.96995 26.431 4.59752 25.8521 4.93543C24.9141 5.48484 24.7771 6.1009 25.1787 7.02041C25.441 7.62268 25.5686 8.28242 25.7552 8.91688C25.6513 8.99274 25.5473 9.0663 25.441 9.14216C25.0275 8.91688 24.5857 8.72838 24.2029 8.45943C22.5514 7.30315 22.5632 7.30085 20.9495 8.42495C20.5573 8.6985 20.1202 8.90769 19.702 9.14676C19.5933 9.08009 19.487 9.01343 19.3783 8.94676C19.5484 8.3215 19.65 7.66636 19.9052 7.07328C20.3163 6.11929 20.2312 5.43196 19.2011 4.90785C18.6152 4.61131 18.1308 4.11937 17.6016 3.71709C17.6701 3.54468 17.7386 3.36998 17.8071 3.19757H17.8024Z" fill="#3AB54A"/>
<path d="M30.3915 56.7164C30.1671 56.4382 30.0324 56.3371 29.9875 56.2061C29.333 54.2889 28.0454 53.7464 26.1387 54.4935C26.0111 54.5441 25.841 54.4843 25.5078 54.4682C26.2521 52.9051 26.9538 51.4361 27.7666 49.7305C28.8463 51.5281 30.2261 52.5947 32.4636 52.3717C31.7501 53.8705 31.1121 55.2061 30.3915 56.7164Z" fill="#3AB54A"/>
<path d="M41.26 49.641C42.0917 51.4133 42.7863 52.8845 43.4786 54.358C43.4786 54.4799 43.4786 54.6017 43.4786 54.7212C41.0261 53.5236 39.5376 54.3006 38.8217 56.997C37.9876 55.2775 37.3474 53.958 36.6055 52.4294C38.7295 52.4799 40.2629 51.6708 41.26 49.6387V49.641Z" fill="#3AB54A"/>
</g>
<defs>
<clipPath id="clip0_819_241">
<rect width="45" height="57" fill="white"/>
</clipPath>
</defs>
</svg>
