<svg width="40" height="40" viewBox="0 0 40 40" fill="none" xmlns="http://www.w3.org/2000/svg">
<g clip-path="url(#clip0_401_300)">
<path d="M30.5424 25.4561C32.4774 23.7541 34.2063 22.2161 35.9571 20.703C37.4142 19.4429 39.3617 19.952 39.8958 21.7086C40.127 22.4659 39.9708 23.1639 39.4945 23.7666C36.285 27.8249 33.1084 31.9112 29.8271 35.9117C27.5797 38.6505 24.6436 40.0496 21.0281 39.9996C16.1351 39.9325 11.481 36.5097 10.0989 31.8207C10.0302 31.5864 10.1832 31.2132 10.3503 30.9978C10.7736 30.4544 11.264 29.9625 11.7715 29.4035C15.4542 30.0609 17.511 28.0107 16.4334 24.5442C17.8874 23.8947 18.8151 22.8204 18.801 21.1496C18.7885 19.5163 17.8999 18.4436 16.4287 17.8018C17.0019 16.1607 16.8441 14.7148 15.5104 13.5094C15.3573 13.372 15.3199 13.0472 15.3183 12.8098C15.3058 9.97423 15.3058 7.13705 15.3121 4.30143C15.3136 3.15376 15.9836 2.39176 16.9988 2.35429C18.0327 2.31681 18.8089 3.08349 18.8167 4.25303C18.8385 7.71323 18.8245 11.175 18.8292 14.6352C18.8292 14.9459 18.8292 15.2629 18.8854 15.5674C18.9994 16.1639 19.4117 16.4574 19.9974 16.4559C20.583 16.4559 20.9938 16.1607 21.1062 15.5643C21.1624 15.2613 21.1624 14.9428 21.1624 14.6321C21.1656 10.5207 21.1593 6.40941 21.1734 2.29808C21.1734 1.86555 21.2124 1.4018 21.3702 1.00519C21.6653 0.260367 22.5477 -0.134683 23.3052 0.0433238C24.122 0.235384 24.6717 0.908374 24.6764 1.80622C24.6889 4.66838 24.6811 7.53054 24.6811 10.3943C24.6811 11.9557 24.6764 13.5172 24.6827 15.0787C24.6873 15.939 25.1153 16.4481 25.8228 16.4668C26.563 16.4855 27.0238 15.9624 27.0253 15.0615C27.03 11.4451 27.0238 7.82722 27.03 4.21087C27.0316 3.28804 27.5298 2.62755 28.3434 2.40426C29.0619 2.20595 29.9474 2.52761 30.2691 3.23027C30.4659 3.65811 30.5284 4.1812 30.5299 4.66057C30.5455 11.2187 30.5409 17.7753 30.5409 24.3334C30.5409 24.6348 30.5409 24.9346 30.5409 25.4608L30.5424 25.4561ZM22.3384 32.8044C22.3384 33.1479 22.3197 33.5882 22.3431 34.0286C22.3806 34.7453 22.8741 35.22 23.5332 35.2075C24.161 35.195 24.6249 34.7375 24.6795 34.0614C24.6967 33.8552 24.6827 33.646 24.6842 33.4368C24.6873 32.3484 25.5057 31.8784 26.4537 32.4171C26.7005 32.5577 26.9457 32.7247 27.2143 32.7981C27.8031 32.959 28.3013 32.7981 28.5996 32.2313C28.901 31.6567 28.723 31.1742 28.2513 30.7823C28.0936 30.6511 27.903 30.5574 27.7234 30.4528C26.6942 29.8517 26.6817 28.8929 27.6984 28.3011C27.878 28.1965 28.067 28.1028 28.2279 27.9732C28.737 27.5672 28.9166 27.0582 28.5777 26.4648C28.2404 25.8746 27.7 25.7637 27.0956 25.9699C26.8301 26.0604 26.5974 26.2431 26.3491 26.3836C25.5635 26.8302 24.692 26.3212 24.6858 25.4109C24.6842 25.1766 24.6983 24.9424 24.6811 24.7082C24.6327 23.9915 24.1501 23.5199 23.4879 23.534C22.857 23.5465 22.3962 24.0009 22.3431 24.6785C22.326 24.8846 22.34 25.0939 22.3384 25.3031C22.3353 26.3883 21.517 26.8552 20.5674 26.3212C20.2988 26.1697 20.0255 25.9995 19.7303 25.9246C19.1649 25.7809 18.7042 25.9777 18.4215 26.5054C18.131 27.0473 18.2903 27.5173 18.7089 27.9092C18.876 28.0653 19.09 28.184 19.3008 28.2793C19.824 28.5135 20.0145 28.8461 20.0333 29.4691C20.0567 30.2561 19.4664 30.3123 19.0525 30.5855C18.3216 31.0696 18.0873 31.6583 18.4387 32.2735C18.7885 32.8856 19.5132 33.0964 20.1895 32.6123C20.9719 32.0533 21.6232 32.0361 22.3384 32.8044Z" fill="#3AB54A"/>
<path d="M5.0013 16.2937C5.25431 16.1532 5.40424 16.0267 5.57291 15.983C6.63491 15.7082 7.3299 15.2335 7.18153 13.9344C7.11281 13.341 7.67661 12.9756 8.29819 12.9866C8.91978 12.9975 9.45078 13.3769 9.38674 13.975C9.25556 15.1789 9.83029 15.6926 10.8767 15.9409C11.0938 15.9924 11.2874 16.1392 11.5076 16.2485C11.8637 15.9159 12.1823 15.5677 12.5493 15.285C13.0819 14.8759 13.6332 14.9306 14.0892 15.4146C14.5218 15.8737 14.603 16.5342 14.1455 16.8871C13.1569 17.6507 13.3021 18.4267 13.8315 19.3245C13.933 19.4979 13.9612 19.7134 14.0517 20.0022C14.45 20.0022 14.8576 19.9866 15.2652 20.0053C15.9868 20.0381 16.4678 20.5159 16.4647 21.1749C16.4616 21.8323 15.9805 22.3007 15.2543 22.3366C14.9685 22.3507 14.6796 22.3226 14.3953 22.3475C14.2579 22.36 14.0533 22.4194 14.008 22.5162C13.7441 23.0767 13.4958 23.6482 13.3005 24.2353C13.2568 24.3665 13.4224 24.5976 13.5395 24.7459C13.7472 25.0114 14.0299 25.2238 14.2079 25.5033C14.5187 25.9904 14.4968 26.5042 14.0845 26.932C13.6504 27.3817 13.1209 27.466 12.6071 27.0913C12.212 26.8024 11.8762 26.4354 11.4936 26.0857C11.3483 26.1638 11.2218 26.2621 11.0781 26.3043C10.0005 26.6181 9.20089 27.0756 9.36488 28.4529C9.43047 29.0072 8.87136 29.3538 8.28882 29.3538C7.66724 29.3538 7.10656 28.9853 7.17997 28.3935C7.34551 27.0756 6.60367 26.6384 5.5651 26.3496C5.39643 26.3027 5.24806 26.1809 5.06065 26.0779C4.73424 26.3902 4.43438 26.7149 4.09547 26.9929C3.54417 27.4457 2.94289 27.416 2.48373 26.9492C2.05581 26.5151 1.97772 25.7593 2.48685 25.344C3.27242 24.7022 3.23338 24.1385 2.86636 23.2438C2.53839 22.4459 2.15107 22.2851 1.40299 22.3226C0.498722 22.3678 -0.0728846 21.7948 0.00988911 21.0453C0.0786069 20.416 0.583058 19.9601 1.33583 20.0147C2.15888 20.074 2.56806 19.8726 2.8976 19.006C3.22088 18.155 3.26305 17.646 2.53371 17.0401C1.98084 16.5811 2.03863 15.83 2.49466 15.3772C2.97881 14.8978 3.59415 14.8916 4.16732 15.399C4.4578 15.6567 4.703 15.9643 5.00599 16.2906L5.0013 16.2937ZM8.27633 22.3382C8.27633 21.7245 7.76563 21.2092 7.14248 21.1921C6.48966 21.1733 5.93368 21.7042 5.9368 22.3444C5.93836 22.9565 6.44906 23.4734 7.0722 23.4921C7.72502 23.5108 8.27945 22.9815 8.27789 22.3382H8.27633Z" fill="#113D3C"/>
<path d="M12.9205 12.6917C12.477 12.801 12.0803 12.8994 11.6836 12.9962C11.7257 12.9369 11.7664 12.8791 11.8085 12.8197C11.112 12.1952 10.4061 11.5799 9.72824 10.9351C9.58456 10.7977 9.46587 10.5572 9.46274 10.362C9.44088 9.08785 9.42839 7.81214 9.46274 6.53798C9.49242 5.41529 10.2468 4.67047 11.2525 4.6939C12.2708 4.71732 12.9595 5.47931 12.9627 6.6145C12.9705 8.53978 12.9627 10.4635 12.9611 12.3888C12.9611 12.4653 12.9424 12.5434 12.9221 12.6886L12.9205 12.6917Z" fill="#3AB54A"/>
<path d="M23.5076 30.528C22.8579 30.5264 22.3191 29.9721 22.3425 29.3272C22.366 28.7135 22.8923 28.2123 23.5139 28.2139C24.1354 28.2154 24.6586 28.7182 24.6789 29.3334C24.6992 29.9768 24.1573 30.5295 23.5076 30.528Z" fill="#3AB54A"/>
</g>
<defs>
<clipPath id="clip0_401_300">
<rect width="40" height="40" fill="white"/>
</clipPath>
</defs>
</svg>
