<svg width="31" height="42" viewBox="0 0 31 42" fill="none" xmlns="http://www.w3.org/2000/svg">
<g clip-path="url(#clip0_401_314)">
<path d="M20.2894 12.9137C21.2875 12.2298 22.3605 11.4935 23.478 10.7276C22.663 9.03667 21.8654 7.3835 21.0424 5.67457C22.9925 4.67086 24.9013 3.68847 26.8689 2.67656C27.235 3.41294 27.5678 4.08536 27.9482 4.84962C26.7081 5.50072 25.4966 6.13706 24.2549 6.7898C25.027 8.39213 25.7784 9.95017 26.5601 11.5705C24.9108 12.7071 23.322 13.8354 21.6951 14.9031C21.1443 15.2639 20.958 15.6083 21.122 16.2939C21.2987 17.027 21.3655 17.8109 21.3401 18.5686C21.3162 19.2706 21.6553 19.5937 22.1249 20.0135C24.2072 21.875 26.5728 22.6163 29.2998 22.2325C29.8172 22.1603 30.3521 22.2227 31.0016 22.2227V24.6876H29.4749C29.1565 24.6876 28.835 24.6581 28.5197 24.6926C26.0379 24.9615 23.7296 24.6122 21.832 22.7491C21.746 22.6655 21.6091 22.6376 21.3783 22.5277V24.6401C20.9787 24.6581 20.673 24.686 20.3658 24.686C17.1023 24.6893 13.8388 24.6532 10.5769 24.7106C9.72999 24.7254 9.49438 24.4318 9.58034 23.6446C9.61537 23.3231 9.58671 22.9918 9.58671 22.4391C8.83054 22.9492 8.17147 23.3231 7.59359 23.802C6.7419 24.5105 5.82175 24.7631 4.72809 24.7073C3.17275 24.627 1.61264 24.6876 0 24.6876V22.2227C1.11914 22.2227 2.23032 22.1357 3.32399 22.244C4.89206 22.3998 6.13537 21.8323 7.45191 20.9975C8.95312 20.0463 9.69815 18.9786 9.79207 17.1024C9.85893 15.7805 9.66153 15.036 8.52807 14.3865C7.10168 13.5681 5.78832 12.5415 4.38582 11.5755C5.16905 9.95017 5.92045 8.39213 6.69096 6.79144C5.46197 6.14854 4.26324 5.52204 3.00241 4.86438C3.36219 4.12308 3.6981 3.42934 4.06424 2.6782C6.02712 3.68683 7.91676 4.65774 9.89714 5.67621C9.08525 7.36546 8.28609 9.03339 7.46624 10.7374C8.58219 11.5017 9.65517 12.2364 10.6517 12.9187C11.2248 12.2479 11.7534 11.6443 12.2564 11.0211C12.3503 10.9047 12.4252 10.6636 12.3726 10.5472C11.3904 8.42657 11.9587 6.75044 13.791 5.38428C12.9266 3.57203 11.513 2.6454 9.55806 2.42563V0.0114803C12.051 0.0639619 13.9455 1.22184 15.469 3.29486C16.9463 1.253 18.8487 0.0852825 21.383 0V2.40923C19.503 2.62408 18.0495 3.5179 17.1628 5.3482C17.2822 5.463 17.3857 5.57781 17.5035 5.67129C19.0047 6.85048 19.4218 8.54301 18.6799 10.3307C18.5987 10.5275 18.586 10.867 18.6974 11.0146C19.1798 11.6542 19.7211 12.2479 20.291 12.9154L20.2894 12.9137Z" fill="#3AB54A"/>
<path d="M1.99844 41.4774C1.43648 40.8968 0.915915 40.3589 0.330078 39.7553C1.61637 38.4384 2.92973 37.1362 4.181 35.775C4.47073 35.4601 4.67291 34.9467 4.69838 34.5105C4.76843 33.3116 4.76524 32.1045 4.70634 30.9056C4.6745 30.2463 4.91807 29.938 5.47207 29.674C6.76951 29.0589 8.10356 28.48 9.28797 27.6748C10.0505 27.1565 10.786 27.1434 11.5867 27.1434C14.2135 27.1401 16.8402 27.1499 19.4669 27.1368C20.2278 27.1335 20.8996 27.2123 21.6065 27.6583C22.8641 28.4538 24.23 29.0721 25.572 29.7182C26.0798 29.9626 26.2534 30.2841 26.2343 30.8532C26.1945 32.0816 26.1817 33.3149 26.2438 34.5416C26.2645 34.9549 26.4523 35.4453 26.7246 35.7421C27.9822 37.1099 29.2956 38.4236 30.6248 39.7914C30.0454 40.3507 29.4898 40.887 28.8976 41.4594C27.304 39.8226 25.6643 38.1596 24.0581 36.4654C23.8877 36.285 23.8447 35.9226 23.8384 35.6421C23.8145 34.4941 23.8638 33.3444 23.8033 32.1996C23.7874 31.8995 23.5439 31.4977 23.2891 31.3485C22.3722 30.8056 21.417 30.3316 20.4571 29.8741C20.1323 29.7199 19.7518 29.6231 19.3952 29.6198C16.7956 29.5985 14.1944 29.5608 11.5963 29.6412C10.9261 29.6625 10.2447 30.0315 9.60954 30.3333C8.77536 30.7285 7.68488 31.0204 7.25505 31.7175C6.84274 32.3866 7.04014 33.5248 7.13406 34.44C7.26938 35.7553 6.84592 36.6967 5.88438 37.5675C4.57103 38.7566 3.38821 40.0948 2.14808 41.3675C2.11147 41.4052 2.06212 41.4315 1.99526 41.4807L1.99844 41.4774Z" fill="#3AB54A"/>
<path d="M11.6641 37.0898H19.2656C18.7419 38.6873 18.2022 40.2076 16.9764 41.3376C15.9989 42.2396 14.8893 42.2199 13.9119 41.2933C12.7386 40.1813 12.2228 38.6905 11.6641 37.0898Z" fill="#113D3C"/>
<path d="M20.4172 32.1191C20.2835 32.8276 20.196 33.4738 20.0224 34.0938C19.9715 34.2758 19.6706 34.5054 19.4828 34.5071C16.8083 34.5333 14.1322 34.5333 11.4578 34.5071C11.2715 34.5054 10.9754 34.2709 10.9229 34.0872C10.7493 33.4673 10.6634 32.8227 10.5312 32.1208H20.4188L20.4172 32.1191Z" fill="#113D3C"/>
</g>
<defs>
<clipPath id="clip0_401_314">
<rect width="31" height="42" fill="white"/>
</clipPath>
</defs>
</svg>
