<svg width="33" height="42" viewBox="0 0 33 42" fill="none" xmlns="http://www.w3.org/2000/svg">
<g clip-path="url(#clip0_552_801)">
<path d="M8.26272 29.8392C8.04962 26.5129 7.84303 23.2636 7.62992 19.9306C6.6978 20.1257 5.56722 20.3257 4.45941 20.6208C4.22516 20.6831 4.01368 21.0569 3.90469 21.3323C2.91401 23.8357 1.94773 26.3489 0.973312 28.8605C0.895229 29.0638 0.84968 29.2949 0.719541 29.4556C0.62031 29.5769 0.335631 29.7048 0.264054 29.6507C0.125782 29.5491 0.055832 29.3261 0.00540308 29.1392C-0.0173712 29.0556 0.0786063 28.9408 0.117648 28.8392C1.18967 26.0751 2.24705 23.3045 3.35486 20.5553C3.47849 20.2471 3.85752 19.9372 4.18124 19.8405C5.05805 19.5749 5.96252 19.3634 6.87024 19.2454C7.70963 19.1372 8.27411 18.8814 8.0968 17.8535C13.7611 21.0045 19.3343 21.0241 25.0165 17.8634C24.8115 18.9978 25.5517 19.147 26.3797 19.2749C27.2337 19.4077 28.0894 19.5733 28.9109 19.8323C29.2574 19.9421 29.6625 20.2667 29.7942 20.5946C30.8874 23.2914 31.9334 26.0079 32.9615 28.731C33.0607 28.9966 32.9387 29.3474 32.9192 29.6573C32.6768 29.4294 32.3238 29.249 32.2116 28.9687C31.229 26.5211 30.2676 24.062 29.3485 21.5897C29.0964 20.9127 28.7856 20.5094 28.0064 20.4307C27.1052 20.3405 26.2219 20.0798 25.498 19.9274C25.2898 23.2291 25.0832 26.4784 24.8701 29.8376C26.0056 30.0819 27.3265 30.336 28.6262 30.6704C28.9288 30.7475 29.2932 31.0442 29.4087 31.3311C30.5246 34.1066 31.5999 36.8985 32.6605 39.697C32.7435 39.9167 32.6199 40.215 32.5938 40.4757C32.3645 40.3101 32.0131 40.1954 31.9253 39.9741C30.8972 37.3969 29.8935 34.8116 28.9239 32.2115C28.7157 31.6541 28.4099 31.3967 27.8373 31.2999C26.7262 31.1114 25.6249 30.8557 24.5952 30.6425C23.9624 32.5262 23.4841 34.382 22.7147 36.105C22.0786 37.5264 21.2555 38.9347 20.2355 40.097C18.002 42.643 15.23 42.6069 12.9054 40.1527C10.981 38.1215 10.0391 35.564 9.25666 32.9377C9.0403 32.2115 8.8695 31.4704 8.64663 30.6147C7.32735 30.8983 6.01132 31.1524 4.71644 31.4852C4.51147 31.5377 4.34717 31.918 4.24468 32.1787C3.24261 34.7361 2.26169 37.3035 1.25962 39.8609C1.16689 40.097 0.984699 40.3069 0.805758 40.4921C0.760209 40.5396 0.467397 40.4593 0.457636 40.4069C0.418594 40.1888 0.379553 39.9347 0.454383 39.738C1.43856 37.1444 2.48943 34.5738 3.41505 31.959C3.75341 31.0016 4.28047 30.5934 5.24513 30.4704C6.30901 30.3343 7.35175 30.0376 8.26272 29.8409V29.8392Z" fill="#3AB54A"/>
<path d="M12.7106 7.04428C12.5284 4.8032 13.3304 3.5884 15.5281 2.65394C14.4902 1.14896 11.9883 0.442379 9.89634 1.06863C6.77626 2.0031 5.1056 4.33106 4.23366 7.29347C3.83023 8.66073 3.75866 10.1264 3.54393 11.5494C3.51953 11.71 3.59273 11.9068 3.52441 12.033C3.41379 12.2396 3.22346 12.4019 3.06567 12.5838C2.9518 12.3953 2.74683 12.2101 2.74032 12.0182C2.67037 10.0887 2.97294 8.21317 3.64804 6.40655C4.67288 3.66546 6.29799 1.48996 9.15617 0.452215C12.0127 -0.58553 14.4024 0.209583 16.5497 2.3195C16.8425 2.06375 17.1304 1.78997 17.4379 1.54242C20.6247 -1.01669 25.2072 -0.257648 27.8018 3.27036C29.6791 5.82292 30.4193 8.73779 30.39 11.8756C30.3883 12.1133 30.1655 12.3494 30.0451 12.5871C29.8938 12.3428 29.614 12.1002 29.6124 11.8559C29.6059 9.80996 29.248 7.84103 28.4298 5.96718C27.2699 3.31462 25.4235 1.46701 22.5036 0.894856C20.7922 0.560416 18.7474 1.26044 17.5485 2.64574C19.5884 3.34577 20.6019 4.74255 20.4555 7.05903C17.8576 5.32126 15.3183 5.3065 12.7122 7.04264L12.7106 7.04428Z" fill="#113D3C"/>
<path d="M16.1118 6.62158V17.3187C13.5659 17.2236 11.1958 16.7203 9.081 15.3121C8.93459 15.2154 8.80445 14.8957 8.85163 14.735C9.57227 12.2726 10.6004 9.97745 12.5525 8.2282C13.5399 7.34292 14.6721 6.74782 16.1118 6.62322V6.62158Z" fill="#3AB54A"/>
<path d="M17.0176 17.3351V6.64453C18.4101 6.69863 19.5276 7.30849 20.5151 8.1741C22.5094 9.92007 23.5538 12.2415 24.2663 14.735C24.32 14.9203 24.0532 15.3022 23.8385 15.4432C22.2427 16.4908 20.4484 16.9695 18.5809 17.2072C18.101 17.2679 17.6162 17.2876 17.0176 17.3351Z" fill="#3AB54A"/>
<path d="M8.53082 16.0615C13.9104 18.8846 19.2364 18.8715 24.5835 16.0796C24.9088 16.6222 24.6762 16.955 24.2158 17.273C22.4964 18.46 20.5687 19.0584 18.5271 19.26C15.1403 19.5944 11.8738 19.2371 8.94239 17.2862C8.33561 16.8829 8.34212 16.873 8.53082 16.0632V16.0615Z" fill="#3AB54A"/>
</g>
<defs>
<clipPath id="clip0_552_801">
<rect width="33" height="42" fill="white"/>
</clipPath>
</defs>
</svg>
