<svg width="35" height="35" viewBox="0 0 35 35" fill="none" xmlns="http://www.w3.org/2000/svg">
<g clip-path="url(#clip0_401_305)">
<path d="M23.9698 27.6642C16.4872 32.6843 7.48005 30.3329 2.98534 24.2814C-1.49161 18.2532 -0.883664 9.75313 4.47583 4.42523C9.86676 -0.934132 18.3398 -1.47855 24.3714 3.08197C30.3717 7.61924 32.5958 16.6172 27.6366 23.9859C28.0751 24.2869 28.5301 24.5714 28.9549 24.8956C30.6708 26.2047 32.4059 27.4918 34.0767 28.857C35.0166 29.6257 35.1669 30.7077 34.8486 31.8499C34.2816 33.8908 31.8744 35.442 30.0793 34.8866C29.6435 34.7512 29.1612 34.5063 28.8825 34.163C27.5191 32.4901 26.2117 30.7706 24.8988 29.0567C24.5682 28.6258 24.2935 28.1525 23.9698 27.6655V27.6642ZM26.3934 15.226C26.407 9.01721 21.4232 3.9752 15.259 3.96152C9.05935 3.94784 3.97445 8.94471 3.95396 15.0742C3.9321 21.376 8.89131 26.4071 15.1416 26.4235C21.3904 26.4413 26.3783 21.4772 26.392 15.226H26.3934Z" fill="#3AB54A"/>
<path d="M15.162 17.7923C16.7085 17.7923 18.2577 17.7499 19.8015 17.8046C21.3193 17.8593 22.4833 19.0029 22.527 20.4214C22.5366 20.7059 22.4232 21.0588 22.2401 21.2736C18.6771 25.4853 12.1127 25.5961 8.34339 21.5608C7.77233 20.9494 7.68353 20.3612 7.96633 19.6499C8.43766 18.468 9.34343 17.8429 10.588 17.8019C12.1113 17.7526 13.6359 17.7896 15.1606 17.7909L15.162 17.7923Z" fill="#113D3C"/>
<path d="M15.1983 16.588C12.7077 16.5976 10.7295 14.621 10.7363 12.1328C10.7432 9.68291 12.7064 7.69128 15.1409 7.66529C17.5809 7.6393 19.637 9.66103 19.6602 12.1082C19.6834 14.5567 17.6697 16.5784 15.1983 16.588Z" fill="#113D3C"/>
</g>
<defs>
<clipPath id="clip0_401_305">
<rect width="35" height="35" fill="white"/>
</clipPath>
</defs>
</svg>
