<svg width="38" height="38" viewBox="0 0 38 38" fill="none" xmlns="http://www.w3.org/2000/svg">
<g clip-path="url(#clip0_401_321)">
<path d="M38.0003 19.0391C37.9715 29.5613 29.4954 38.012 18.9833 37.9985C8.4306 37.9866 -0.0556227 29.4529 0.00027456 18.9171C0.0578657 8.38982 8.55256 -0.0405062 19.0613 0.000146408C29.5869 0.0424928 38.0274 8.52703 37.9986 19.0391H38.0003ZM36.154 18.558C36.1065 18.0499 36.0744 17.0573 35.9101 16.0884C33.7402 3.29809 18.5395 -2.49321 8.33575 5.56278C7.7412 6.03197 7.62094 6.33348 8.22395 6.93311C15.848 14.5199 23.4517 22.127 31.0419 29.7477C31.5975 30.3066 31.9142 30.349 32.419 29.6935C34.8361 26.5446 36.1201 23.0163 36.1523 18.558H36.154ZM1.84827 19.3559C1.88384 19.7658 1.90586 20.5856 2.03629 21.3902C3.07971 27.8387 6.60801 32.4511 12.6365 34.8818C18.7089 37.3294 24.4494 36.3402 29.6936 32.4172C30.3525 31.9243 30.3135 31.6024 29.7529 31.0435C22.139 23.4618 14.5403 15.8631 6.95864 8.24923C6.39967 7.68857 6.08461 7.65638 5.58323 8.30682C3.16609 11.4506 1.88046 14.9755 1.84827 19.3592V19.3559Z" fill="#113D3C"/>
<path d="M20.8633 12.0126C20.8667 12.8138 19.7962 13.8165 18.929 13.825C18.1159 13.8335 17.1233 12.8172 17.1369 11.9939C17.1521 11.1064 17.7822 10.6575 19.0086 10.6592C20.2315 10.6626 20.8616 11.1199 20.8633 12.0109V12.0126Z" fill="white"/>
<path d="M24.2029 18.4135C21.9077 19.4569 20.9456 19.1351 19.3398 16.9348C20.4544 16.6858 21.5842 16.4215 22.7191 16.1895C22.8698 16.159 23.1476 16.2335 23.2052 16.3436C23.5643 17.0212 23.876 17.7207 24.2029 18.4135Z" fill="white"/>
<path d="M16.8525 14.0914C17.2353 14.1389 17.6486 14.1084 17.9925 14.2507C18.5633 14.4844 19.1324 14.6894 19.6626 14.2998C20.3605 13.7865 20.911 14.0711 21.4666 14.4997C21.8189 14.7724 22.1543 15.0688 22.6303 15.4668C21.1752 16.0072 19.7863 16.3476 18.4464 16.014C17.8028 15.8547 17.3387 14.9705 16.7949 14.4133C16.8152 14.3066 16.8339 14.1998 16.8542 14.0931L16.8525 14.0914Z" fill="white"/>
<path d="M21.3026 13.3053C23.2189 12.6311 25.0048 12.8716 26.6603 14.0269C27.1989 14.4046 27.7054 14.7925 28.4236 14.5147C28.5015 14.4842 28.6489 14.6282 28.9216 14.7789C28.2508 15.138 27.7376 15.47 27.0956 15.0364C26.3266 14.5164 25.5508 14.0065 24.8174 13.4408C24.3905 13.1122 23.9976 13.0427 23.503 13.2307C23.0321 13.4086 22.5459 13.5644 22.0513 13.6576C21.804 13.7033 21.5279 13.5848 21.2637 13.539C21.2772 13.4611 21.2891 13.3832 21.3026 13.3053Z" fill="white"/>
<path d="M24.7468 17.6296C25.2464 18.0345 25.7597 18.4257 26.2357 18.856C26.383 18.9898 26.5202 19.2354 26.5134 19.4234C26.4592 20.8784 26.3695 22.3335 26.2915 23.7885C26.2052 23.8054 26.1188 23.8224 26.0324 23.8376C25.946 23.5547 25.7817 23.2702 25.7851 22.989C25.8003 22.0303 25.8461 21.0715 25.9375 20.1162C25.9883 19.5793 25.8224 19.232 25.4074 18.8882C25.0584 18.5985 24.8297 18.1649 24.5469 17.7939C24.6129 17.738 24.679 17.6838 24.7468 17.6279V17.6296Z" fill="white"/>
<path d="M15.5267 6.95007C15.1591 7.8241 14.7915 8.69813 14.3986 9.63145C15.1964 10.0024 15.9772 10.3666 16.9614 10.8256C16.6378 10.9831 16.421 11.1796 16.3008 11.1322C15.5199 10.8222 14.756 10.4699 13.9988 10.104C13.8752 10.0448 13.7109 9.811 13.7447 9.73139C14.158 8.72862 14.6052 7.73941 15.0439 6.74512C15.2048 6.81287 15.3658 6.88063 15.5267 6.94838V6.95007Z" fill="white"/>
<path d="M23.597 9.62113C23.2091 8.69967 22.8415 7.82564 22.4739 6.95161C22.5722 6.89572 22.6704 6.83812 22.7687 6.78223C22.9143 6.93976 23.1057 7.07357 23.1955 7.2582C23.5292 7.93744 23.8629 8.62006 24.1254 9.3264C24.2067 9.54491 24.1424 10.0073 23.9967 10.0869C23.2616 10.4884 22.4824 10.8136 21.7049 11.1321C21.5796 11.1829 21.3848 11.066 21.2222 11.027C21.2035 10.9457 21.1866 10.8661 21.168 10.7848C21.9709 10.4003 22.7737 10.0141 23.597 9.61944V9.62113Z" fill="white"/>
<path d="M22.1582 19.7398C22.8696 19.5823 23.5607 19.4298 24.3602 19.252C24.4144 19.8939 24.4635 20.4648 24.5093 21.0203C23.5472 21.4404 23.327 21.3185 22.1582 19.7398Z" fill="white"/>
<path d="M18.054 8.84413C17.3341 7.87863 16.7802 7.13502 16.2246 6.38973C16.3127 6.32028 16.4008 6.24914 16.4889 6.17969C17.3053 6.60485 17.7813 7.37386 18.2149 8.16489C18.2776 8.28007 18.1421 8.50366 18.054 8.84413Z" fill="white"/>
<path d="M21.7679 6.37558C21.214 7.1412 20.6601 7.90513 20.0436 8.75714C19.9199 8.56912 19.7133 8.36586 19.7505 8.29133C20.1808 7.45457 20.6432 6.63305 21.5172 6.19434C21.6002 6.25531 21.6849 6.31629 21.7679 6.37558Z" fill="white"/>
<path d="M18.944 8.78906C19.2693 9.06686 19.4776 9.2481 19.6877 9.42765C19.4539 9.6072 19.2337 9.90701 18.9847 9.93072C18.7764 9.95105 18.5358 9.64954 18.3105 9.49201C18.4901 9.29214 18.6713 9.09226 18.9424 8.78906H18.944Z" fill="white"/>
<path d="M13.8906 24.7829C15.0289 24.9134 16.0266 25.1065 17.0293 25.1251C18.7435 25.1556 20.4628 25.1387 22.1719 25.0167C22.9578 24.9608 23.3542 25.4656 23.4914 25.928C23.6303 26.3904 23.2509 26.8799 22.5784 26.9985C20.1359 27.4338 17.7035 27.4474 15.2779 26.9375C15.0001 26.8799 14.6901 26.614 14.5445 26.3599C14.2819 25.9043 14.1312 25.3826 13.8923 24.7812L13.8906 24.7829Z" fill="white"/>
<path d="M13.5251 22.0898C15.6645 22.2084 17.7361 22.3084 19.8043 22.454C20.0702 22.4727 20.3514 22.6878 20.5682 22.8775C21.0492 23.2993 21.4947 23.7617 22.0673 24.3173C19.2724 24.7475 16.6876 24.5764 14.1231 24.0225C13.9317 23.9819 13.6877 23.7193 13.6505 23.5245C13.5505 23.0113 13.5522 22.4794 13.5234 22.0898H13.5251Z" fill="white"/>
<path d="M13.4707 21.2764C13.5368 20.4989 13.5859 19.9213 13.635 19.3369C14.9833 19.5334 16.3028 19.5673 17.5038 19.9619C18.1983 20.1906 18.6996 21.0037 19.2874 21.5525C19.2586 21.6524 19.2281 21.7524 19.1993 21.854C17.3107 21.6643 15.422 21.4729 13.4724 21.2764H13.4707Z" fill="white"/>
<path d="M15.4863 27.8623H22.4142C21.3352 29.7577 16.5975 29.7425 15.4863 27.8623Z" fill="white"/>
<path d="M13.4327 17.7767C13.2295 18.0951 13.0973 18.522 12.8094 18.71C12.1132 19.1673 12.0268 19.7534 12.0827 20.5156C12.2369 22.6245 12.347 24.7367 12.4062 26.849C12.4215 27.3876 12.181 27.933 12.0573 28.4751C11.9692 28.4666 11.8811 28.4598 11.7931 28.4514C11.7219 28.3226 11.561 28.16 11.5932 28.0685C12.186 26.3984 11.6186 24.7164 11.6559 23.0429C11.6813 21.891 11.5288 20.7358 11.4983 19.5806C11.4916 19.3367 11.6067 19.02 11.7795 18.854C12.2419 18.4085 12.7636 18.0257 13.2633 17.6191C13.3209 17.6717 13.3768 17.7259 13.4344 17.7784L13.4327 17.7767Z" fill="white"/>
<path d="M16.6545 19.1656C15.7432 18.9742 14.8438 18.7862 13.8105 18.5677C14.0426 17.924 14.2357 17.3905 14.3898 16.9619C15.1504 17.7021 15.8872 18.4186 16.6545 19.1656Z" fill="white"/>
<path d="M17.5449 29.8799H20.4245C19.3048 31.113 18.8577 31.1164 17.5449 29.8799Z" fill="white"/>
<path d="M11.8125 14.0417C10.7098 15.3816 10.1983 15.49 9.24805 14.6007C9.54617 14.6007 9.85275 14.6481 10.1373 14.5872C10.4473 14.5211 10.7319 14.3399 11.0368 14.2348C11.2875 14.1484 11.5534 14.1044 11.8125 14.04V14.0417Z" fill="white"/>
</g>
<defs>
<clipPath id="clip0_401_321">
<rect width="38" height="38" fill="white"/>
</clipPath>
</defs>
</svg>
