<svg width="56" height="49" viewBox="0 0 56 49" fill="none" xmlns="http://www.w3.org/2000/svg">
<g clip-path="url(#clip0_819_260)">
<path d="M0.652553 22.832C7.57258 28.7684 15.9027 28.4622 24.3852 27.8453C24.4766 29.1796 24.5506 30.2295 24.6289 31.3931H31.4663V28.0116C34.8479 28.0116 38.0903 27.8803 41.3197 28.0509C44.3793 28.2128 47.1517 27.6572 49.7978 26.0517C51.6257 24.9406 53.6278 24.1138 55.8648 23.0026C55.8648 27.8235 55.8648 32.3118 55.8648 36.7958C55.8648 39.5649 55.8909 42.334 55.8561 45.1032C55.8213 47.6579 54.5069 48.9878 51.9435 48.9922C35.9926 49.0097 20.0417 49.0097 4.09081 48.9922C1.69709 48.9922 0.208627 47.7411 0.19557 45.5406C0.143344 38.2525 0.191218 30.9688 0.208627 23.6807C0.208627 23.567 0.326137 23.4489 0.656906 22.832H0.652553Z" fill="#113D3C"/>
<path d="M14.0919 10.5122C14.0919 8.05366 14.0615 5.94072 14.1006 3.83216C14.1485 1.38675 15.4411 0.0393715 17.8653 0.0262477C24.6069 -0.00874922 31.3485 -0.00874922 38.09 0.0262477C40.6143 0.0393715 41.8939 1.3955 41.9287 3.98527C41.9592 6.08071 41.9331 8.18052 41.9331 10.5122C45.2843 10.5122 48.4483 10.4991 51.6167 10.5122C54.5937 10.5253 55.5773 11.7983 55.9298 14.7293C56.3302 18.0584 55.0115 19.5764 52.1129 21.1119C47.3559 23.636 42.5989 25.1059 37.2196 24.5284C35.4352 24.336 33.616 24.4978 31.6227 24.4978C31.553 23.3429 31.4877 22.2974 31.4137 21.125H24.6069C24.559 22.2011 24.5155 23.1986 24.4589 24.5416C18.3658 23.916 12.0377 26.1033 6.36237 22.188C5.71389 21.7374 4.99578 21.2912 4.24284 21.1075C0.465118 20.1801 -0.366155 17.6559 0.129998 14.1387C0.44771 11.8814 1.57929 10.5559 3.90772 10.5253C7.22411 10.4816 10.5405 10.5122 14.0919 10.5122ZM21.0816 10.3766H34.8215V7.16998H21.0816V10.3766Z" fill="#3AB54A"/>
</g>
<defs>
<clipPath id="clip0_819_260">
<rect width="56" height="49" fill="white"/>
</clipPath>
</defs>
</svg>
