<svg width="36" height="34" viewBox="0 0 36 34" fill="none" xmlns="http://www.w3.org/2000/svg">
<mask id="mask0_347_301" style="mask-type:alpha" maskUnits="userSpaceOnUse" x="0" y="0" width="36" height="34">
<rect width="36" height="34" fill="#D9D9D9"/>
</mask>
<g mask="url(#mask0_347_301)">
<path d="M13.5392 8.91411L13.2109 10.493L17.3692 12.2282L22.1214 10.4617L21.6837 8.80469L13.5392 8.91411Z" fill="white"/>
<path d="M12.4515 15.9991C12.4515 14.8735 12.5922 13.748 12.7798 12.6381C12.7329 12.5755 12.7016 12.4974 12.7016 12.4192C12.7485 12.1066 12.7016 11.7783 12.9517 11.5125C13.2175 10.1681 13.2331 10.1369 14.4681 10.5746C16.8286 11.4344 19.1578 11.2937 21.4558 10.3714C21.9717 10.1681 22.1593 10.2463 22.1749 10.7778C22.1905 11.3718 22.4563 11.6532 23.0972 11.5594C23.5349 11.4969 23.9883 11.5594 24.426 11.5594C25.3952 11.5438 25.8016 11.0905 25.6609 10.1369C25.5515 9.30836 25.4265 8.49547 25.317 7.66695C25.2701 7.32304 25.2076 6.94786 25.6766 6.85406C26.2081 6.74463 26.2706 7.15108 26.3175 7.52626C26.4426 8.43294 26.5989 9.32399 26.6771 10.2307C26.8021 11.5751 25.9423 12.5287 24.5823 12.5912C24.0352 12.6224 23.488 12.6068 22.9409 12.5912C22.6126 12.5912 22.4875 12.6537 22.5501 13.0289C22.6751 13.873 22.7377 14.7328 22.8002 15.5926C22.8158 15.9678 22.9565 16.1085 23.3161 16.0616C24.9262 15.874 26.0361 16.5462 26.8021 17.9688C27.2555 18.8129 27.912 19.5633 29.0532 19.5007C29.3189 19.5007 29.4753 19.6883 29.4909 19.9541C29.4909 20.2667 29.3033 20.4231 29.0063 20.4543C28.3185 20.5481 27.7244 20.3293 27.1929 19.9072C26.552 19.4069 26.0674 18.7504 25.6453 18.0625C25.1138 17.1871 24.1446 16.812 23.1754 17.0152C22.8627 17.0777 22.894 17.2809 22.9096 17.4685C22.9565 18.9849 22.8471 20.4856 22.7377 21.9863C22.7064 22.3615 22.8784 22.4865 23.1754 22.5803C24.0508 22.8617 24.8481 23.2838 25.5828 23.8466C26.5833 24.6126 27.0679 25.5974 27.021 26.8793C26.9428 28.7239 26.6614 30.5685 27.0991 32.3975C27.1617 32.6477 27.0366 32.8665 26.7865 32.9447C26.4895 33.0541 26.2393 32.9447 26.1612 32.6477C26.0518 32.2568 25.958 31.8348 25.9267 31.4283C25.8642 30.1308 25.8642 28.8333 25.9892 27.5358C26.1768 25.5505 24.8637 23.8466 22.9096 23.5339C22.3938 23.4558 22.5344 23.8622 22.5032 24.0811C22.3 25.5505 21.9873 26.9887 21.534 28.4112C21.1588 29.5681 20.6898 30.7092 19.9238 31.6784C18.5325 33.4293 16.7192 33.4605 15.3591 31.6784C14.0616 30.0058 13.5458 28.0204 13.1081 26.0038C12.9674 25.3473 12.8423 24.6751 12.7798 24.0029C12.7173 23.487 12.5453 23.4089 12.0763 23.6277C11.4979 23.8778 10.9508 24.1592 10.4349 24.5031C9.51259 25.1284 9.09052 25.9882 9.23121 27.1138C9.40317 28.4894 9.38753 29.8651 9.34064 31.2407C9.325 31.7097 9.23121 32.163 9.10615 32.6164C9.02799 32.8978 8.7935 33.0228 8.49648 32.929C8.23073 32.8509 8.10567 32.6477 8.1682 32.3819C8.57464 30.7092 8.40269 29.0053 8.24636 27.3326C8.05877 25.4098 8.90293 24.1436 10.5131 23.2682C10.6538 23.19 10.7788 23.0806 10.9195 23.0493C12.3264 22.7836 12.7798 21.9238 12.4671 20.5794C12.3421 19.6102 12.4359 18.641 12.4202 17.6561C12.4202 17.2653 12.389 16.8901 12.2795 16.5149C12.2639 16.2961 12.3577 16.1085 12.4671 15.9365L12.4515 15.9991Z" fill="white"/>
<path d="M19.3567 4.47692C20.6542 5.63372 21.1545 7.22824 21.686 8.80712C21.7798 9.10414 21.6391 9.21356 21.3889 9.32299C18.8565 10.4485 16.3397 10.3704 13.8385 9.27609C13.6352 9.1823 13.4945 9.07287 13.5727 8.80712C14.1042 7.22824 14.6044 5.64936 15.9176 4.47692C16.1052 3.96105 16.5585 3.91415 17.0119 3.86725C17.4339 3.67967 17.856 3.67967 18.2624 3.86725C18.7158 3.89852 19.1535 3.97668 19.3567 4.47692Z" fill="#113D3C"/>
<path d="M19.3599 4.47492C19.0004 4.2717 18.6252 4.06847 18.2656 3.86525C18.5001 3.86525 18.547 3.70893 18.6252 3.52134C18.7346 3.23995 18.8753 2.95857 19.016 2.67718C20.5323 -0.214826 23.0804 -0.824492 25.7223 1.1452C27.7076 2.61465 28.7394 4.72504 29.4585 7.02301C29.5523 7.33566 29.521 7.61705 29.1927 7.74211C28.8175 7.8828 28.6143 7.66394 28.5049 7.32003C28.0985 5.97564 27.5201 4.69377 26.6915 3.5526C25.8943 2.45833 24.9251 1.58291 23.5963 1.17646C22.4551 0.816918 21.5015 1.0983 20.7043 1.97372C20.0477 2.69282 19.6257 3.5526 19.3599 4.49055V4.47492Z" fill="#113D3C"/>
<path d="M16.996 3.88096C16.6364 4.08418 16.2613 4.2874 15.9017 4.49063C15.6203 3.56831 15.1982 2.70852 14.5573 1.9738C13.7757 1.09838 12.8065 0.832627 11.6653 1.17654C10.3678 1.58299 9.41423 2.42714 8.61698 3.49015C7.80409 4.58442 7.22568 5.80376 6.81924 7.10125C6.70981 7.47643 6.60039 7.9454 6.05325 7.74218C5.58427 7.57023 5.7406 7.17941 5.85003 6.81987C6.38153 5.14719 7.14752 3.59958 8.30433 2.27082C8.80457 1.70805 9.36733 1.20781 10.0239 0.816995C12.4938 -0.636826 14.6198 -0.0740568 16.0737 2.34898C16.3863 2.84922 16.3863 3.55268 16.996 3.86533V3.88096Z" fill="#113D3C"/>
<path d="M12.7895 12.4759C12.7895 12.5228 12.7895 12.5854 12.7895 12.6323C12.1173 12.6166 11.4451 12.601 10.7729 12.5854C9.33472 12.5385 8.45931 11.5536 8.61563 10.1311C8.70942 9.22439 8.86575 8.33334 8.99081 7.42666C9.03771 7.06711 9.16277 6.73883 9.63174 6.83262C10.0382 6.91078 10.0382 7.2547 9.99129 7.58298C9.88186 8.4115 9.8037 9.24002 9.64737 10.0529C9.52231 10.7407 9.7099 11.2253 10.3196 11.538C10.9292 11.6787 11.5389 11.5849 12.1486 11.6005C12.9615 11.6162 12.9615 11.6005 12.8208 12.4916L12.7895 12.4759Z" fill="white"/>
<path d="M12.4485 16C12.4485 16.172 12.4485 16.3439 12.4642 16.5315C12.3078 16.6722 12.4642 16.9067 12.2922 17.0317C11.9483 17.0317 11.62 17.0317 11.2761 17.0317C10.5414 17.0317 9.99423 17.3288 9.61905 17.9853C9.21261 18.7201 8.71237 19.3766 8.04017 19.9081C7.49303 20.3302 6.86773 20.5647 6.14864 20.4553C5.88289 20.4084 5.72656 20.252 5.72656 19.9863C5.72656 19.7205 5.88289 19.5017 6.14864 19.5173C7.25855 19.5798 7.93074 18.8764 8.36845 18.0479C9.19697 16.4846 10.4007 15.8437 12.1202 16.0469C12.214 16.0469 12.3235 16.0156 12.4329 16H12.4485Z" fill="white"/>
<path d="M12.3086 17.012C12.3242 16.84 12.293 16.6368 12.4806 16.5117C12.4806 17.8717 12.4806 19.2474 12.4649 20.6074C12.2148 19.4194 12.418 18.2 12.3086 17.012Z" fill="white"/>
<path d="M12.7903 12.4809C12.8997 11.8087 12.587 11.6524 11.9617 11.668C11.4146 11.668 10.8206 11.8556 10.2891 11.543C11.1801 11.543 12.0555 11.543 12.9466 11.5273C12.9153 11.8556 13.056 12.1995 12.7903 12.4966V12.4809Z" fill="white"/>
</g>
</svg>
