<svg width="74" height="85" viewBox="0 0 74 85" fill="none" xmlns="http://www.w3.org/2000/svg">
<g clip-path="url(#clip0_1218_92)">
<path d="M26.0562 35.4489C25.3767 37.4202 24.7611 39.1336 24.199 40.8612C23.8859 41.8186 23.3522 42.5287 22.2813 42.1683C21.246 41.8186 21.1428 40.9636 21.495 39.985C22.1283 38.2186 22.6264 36.3957 23.3487 34.6681C23.797 33.6012 23.8254 32.8452 22.8684 32.0644C20.5308 30.1531 18.2431 28.1853 15.9341 26.2388C16.1049 25.9915 16.2756 25.7406 16.4464 25.4933C15.4894 26.1504 14.5928 26.9559 13.5468 27.4117C12.9455 27.6731 12.0916 27.3657 11.3516 27.3163C11.5223 26.6168 11.4725 25.6982 11.9137 25.2672C12.8708 24.3275 14.1053 23.6739 15.1692 22.826C16.3112 21.9146 17.2078 21.9923 18.2147 23.091C20.6056 25.6947 23.0854 28.2207 25.334 30.5735C27.8992 29.2629 30.2865 28.0405 32.681 26.8252C33.5846 26.3659 34.5631 26.055 35.111 27.2138C35.698 28.4503 34.7836 28.9873 33.8052 29.4642C31.7239 30.4746 29.6639 31.5345 27.3477 32.6968C31.8769 37.4272 36.0182 41.7938 40.2343 46.0862C40.5723 46.4324 41.4155 46.4077 42.0132 46.3653C43.7815 46.2452 45.5426 45.9378 47.3144 45.8884C48.2893 45.8601 49.5274 45.8919 50.2177 46.436C53.4233 48.9513 57.586 49.1351 61.0193 51.0499C61.8839 51.5303 62.905 51.8977 62.446 53.0742C61.9622 54.3213 60.9268 54.0987 59.9057 53.6535C58.511 53.0459 57.0879 52.4948 55.5616 51.873C54.2203 54.3884 52.9252 56.819 51.5696 59.3555C56.3265 62.3231 61.3716 63.9235 66.9289 63.4006C69.8962 63.1216 71.885 59.9738 70.9458 57.1016C68.594 49.9017 66.1391 42.7336 63.6771 35.569C62.9548 33.4634 61.3965 32.0185 59.4254 31.0293C58.1588 30.3969 56.8531 29.8352 55.5616 29.2558C54.6259 28.8354 53.9748 28.1076 54.6294 27.2173C54.9532 26.7757 56.0917 26.5602 56.693 26.7545C58.2015 27.2421 59.6353 27.9734 61.0585 28.6941C63.6522 30.0048 65.5129 32.0467 66.4486 34.767C68.8929 41.8715 71.3194 48.9831 73.6071 56.1371C75.2828 61.3728 71.5933 66.1492 66.0288 66.3152C59.9413 66.4954 54.5013 64.6301 49.4598 61.4011C49.1645 61.2103 48.6807 60.9877 48.6593 60.751C48.4921 58.7903 46.827 58.9634 45.5924 58.5783C42.7639 57.7022 40.2521 56.335 38.3202 54.0563C36.5697 51.9931 36.3918 50.1207 37.8043 47.7537C33.9938 43.7581 30.1406 39.7165 26.0633 35.4418L26.0562 35.4489ZM46.9124 48.6051C45.041 48.8807 43.1446 49.0467 41.3052 49.4565C39.4694 49.8628 39.2096 50.7178 40.4371 52.1804C42.643 54.8017 45.6173 56.0064 48.9546 56.3986C49.8725 56.5081 52.6192 52.251 52.2563 51.3784C52.2136 51.276 52.1211 51.1841 52.0322 51.1134C50.5308 49.8981 49.1859 48.3508 46.916 48.6087L46.9124 48.6051Z" fill="black" fill-opacity="0.8"/>
<path d="M20.7832 53.6775C20.3919 52.4728 20.2246 51.4448 19.7443 50.5898C18.9972 49.2615 18.0045 48.0709 17.172 46.7885C16.2398 45.3471 16.6881 44.2837 18.3639 44.2519C22.5088 44.1707 26.6608 44.1742 30.8057 44.2448C32.4708 44.2731 32.9369 45.3118 32.0368 46.7638C31.2896 47.9614 30.3681 49.0601 29.6921 50.2895C29.162 51.254 28.8809 52.3527 28.5323 53.2924C28.9663 53.6069 29.0553 53.7234 29.1513 53.734C32.3356 54.0096 32.389 54.0096 32.3143 57.2104C32.2858 58.468 32.4922 59.5279 33.5062 60.3334C37.5621 63.5518 38.7825 67.7241 38.2132 72.769C37.8467 76.0227 38.1456 79.3506 38.142 82.6468C38.142 83.6324 38.0709 84.6569 36.7331 84.6428C35.4238 84.6287 35.3029 83.6112 35.2993 82.6291C35.2851 78.3332 35.2922 74.0372 35.2922 69.7413C35.2922 69.1089 35.2922 68.4766 35.2922 67.7276H13.8596C13.8596 70.7199 13.8596 73.6416 13.8596 76.5667C13.8596 78.6864 13.9557 80.8097 13.7956 82.9188C13.7493 83.53 13.0556 84.4697 12.5148 84.5827C11.4189 84.8124 11.0169 83.8938 11.0133 82.8976C11.0027 77.4252 10.9813 71.9529 11.0347 66.4805C11.0418 65.9082 11.4189 65.2687 11.7961 64.7883C12.593 63.7673 13.4398 62.7675 14.3826 61.8808C16.1865 60.1779 17.3143 58.2985 16.8945 55.6842C16.6846 54.377 17.4673 53.7411 18.8122 53.7976C19.2747 53.8188 19.7443 53.7482 20.7903 53.681L20.7832 53.6775ZM33.4563 64.6646C31.5351 62.0715 28.4647 60.3581 29.5107 56.7546H20.1393C19.6945 58.3055 19.5273 59.7964 18.8513 61.0046C18.1362 62.28 16.9336 63.2868 15.7204 64.6646H33.4599H33.4563ZM26.0702 53.6987C25.1132 51.0138 26.9668 49.2685 28.2903 47.1983H21.4023C22.2633 49.3604 23.0994 51.4624 23.9889 53.6987H26.0702Z" fill="black" fill-opacity="0.8"/>
<path d="M44.4366 0C46.2404 0.335619 47.7525 0.565254 49.2432 0.904406C52.5912 1.66397 54.5942 3.74834 55.2275 7.101C55.8537 10.4254 56.1277 13.7286 54.8042 16.9894C54.6334 17.4098 54.8575 18.187 55.1777 18.5756C57.099 20.9073 56.8855 22.8186 54.2812 25.5177C52.456 27.4077 50.1576 27.5702 48.0869 25.9345C47.4856 25.4576 46.7278 25.0549 46.3685 24.4331C46.0589 23.8926 46.2155 23.0906 46.1657 22.4052C46.8132 22.3664 47.4821 22.2074 48.0976 22.324C48.5067 22.4017 48.8483 22.868 49.2112 23.1719C50.9439 24.6203 51.289 24.5532 52.8189 22.8822C53.7297 21.8859 53.7546 21.1122 52.7086 20.2184C50.9617 18.7205 49.2966 17.1272 47.5497 15.6257C46.3364 14.5835 43.2874 14.5729 42.0706 15.6151C40.2774 17.1519 38.5625 18.777 36.78 20.3279C35.7696 21.2076 35.919 21.9954 36.7765 22.861C37.5983 23.6912 38.2886 24.857 39.6939 23.7583C40.345 23.2496 40.9178 22.5783 41.6472 22.2569C42.1204 22.0484 43.1379 22.1261 43.3372 22.4406C43.6325 22.8963 43.6858 23.9597 43.3621 24.2741C41.946 25.6554 40.5371 27.27 38.2565 27.0262C35.8657 26.7718 34.5599 25.0019 33.5353 23.1401C32.6885 21.6033 33.1012 19.9994 34.3322 18.7664C34.9726 18.1234 35.058 17.65 34.7271 16.8163C33.2435 13.1033 33.5602 9.31255 34.5777 5.56775C35.1399 3.50457 36.6662 2.12677 38.6728 1.46966C40.619 0.833749 42.6469 0.44867 44.4437 0L44.4366 0ZM52.5307 9.48213C52.5912 6.41916 51.5879 4.67041 49.3642 3.87552C46.187 2.74148 42.9956 2.73795 39.8505 4.03803C37.4845 5.01663 36.6093 6.68766 37.0753 9.4468C42.156 6.06941 47.2722 6.07648 52.5307 9.4786V9.48213ZM52.2318 15.9649C52.3208 14.5199 53.6585 13.4071 52.0433 12.3649C47.6351 9.51392 43.2126 8.67664 38.4949 11.8067C36.4278 13.1775 36.193 13.4707 37.6019 15.7741C39.701 14.0466 41.4266 11.9975 44.682 11.9657C48.0051 11.9304 49.8267 13.9406 52.2318 15.9649Z" fill="black" fill-opacity="0.8"/>
<path d="M46.7158 73.0025C46.7158 76.2915 46.7194 79.5771 46.7158 82.8661C46.7158 83.8377 46.6731 84.9116 45.3923 84.9682C43.9976 85.0282 43.8695 83.9225 43.8695 82.8697C43.8624 76.235 43.8588 69.6003 43.8731 62.9657C43.8731 61.9977 43.9513 60.9802 45.3033 60.9767C46.666 60.9732 46.7087 61.9977 46.7122 62.9621C46.7265 66.3077 46.7194 69.6533 46.7194 73.0025H46.7158Z" fill="black" fill-opacity="0.8"/>
<path d="M63.3662 81.1137C63.3662 81.8168 63.5334 82.5763 63.32 83.2087C63.0958 83.8693 62.5052 84.4063 62.0747 84.9963C61.5624 84.4593 60.6872 83.9718 60.6053 83.3783C60.3065 81.1738 60.2709 78.934 60.1428 76.7083C60.0254 74.7158 59.8012 72.7197 59.8617 70.7343C59.8831 70.0595 60.5128 68.9784 61.0678 68.8265C62.2811 68.5015 62.5906 69.5119 62.6511 70.5682C62.8575 74.0834 63.0994 77.595 63.3271 81.1102C63.3413 81.1102 63.3556 81.1102 63.3698 81.1102L63.3662 81.1137Z" fill="black" fill-opacity="0.8"/>
<path d="M46.7021 38.5892C46.7021 40.1154 46.8337 41.6593 46.6345 43.1607C46.5562 43.7436 45.7308 44.2312 45.2469 44.7611C44.7915 44.2524 43.9625 43.7578 43.9412 43.2314C43.8167 40.126 43.806 37.0065 43.9412 33.9047C43.9661 33.35 44.8627 32.8342 45.3572 32.3008C45.8055 32.8696 46.5669 33.403 46.6452 34.0177C46.8337 35.5192 46.7056 37.063 46.7056 38.5892H46.6985H46.7021Z" fill="black" fill-opacity="0.8"/>
<path d="M52.2333 39.239C51.4043 39.239 50.5184 39.4192 49.7677 39.179C49.1949 38.9953 48.7928 38.2781 48.3125 37.7976C48.7643 37.356 49.1877 36.5788 49.6787 36.5329C51.3794 36.3704 53.1156 36.3527 54.8127 36.5258C55.3393 36.5788 55.784 37.4196 56.2643 37.9001C55.7484 38.3488 55.3001 39.0165 54.7024 39.1931C53.941 39.4192 53.0622 39.2461 52.2333 39.2461C52.2333 39.2426 52.2333 39.239 52.2333 39.232V39.239Z" fill="black" fill-opacity="0.8"/>
<path d="M44.78 18.2328C45.5449 18.2328 46.3597 18.0738 47.0641 18.2823C47.6156 18.4483 48.3948 19.0666 48.4054 19.4976C48.4161 19.9922 47.7294 20.893 47.2776 20.939C45.5876 21.1085 43.8585 21.1015 42.1721 20.9248C41.7344 20.8789 41.1367 19.9851 41.0869 19.4375C41.0549 19.0772 41.8163 18.42 42.3215 18.2893C43.0971 18.0915 43.9581 18.2363 44.7835 18.2363V18.2293L44.78 18.2328Z" fill="black" fill-opacity="0.8"/>
<path d="M12.1497 37.395C11.2246 38.3666 10.5878 39.0343 9.95448 39.702C9.48485 39.0767 8.69144 38.4831 8.62384 37.819C8.52778 36.8404 8.68789 35.4767 10.2035 35.6427C10.7728 35.7063 11.2531 36.5507 12.1497 37.395Z" fill="black" fill-opacity="0.8"/>
<path d="M1.96877 25.249C2.84757 26.1711 3.71213 26.6586 3.81886 27.2769C4.03233 28.5204 2.98277 28.7783 1.95098 28.7819C0.936994 28.7819 -0.17306 28.5911 0.0226228 27.3475C0.122243 26.7046 1.05796 26.1888 1.97233 25.2526L1.96877 25.249Z" fill="black" fill-opacity="0.8"/>
<path d="M6.87402 25.207C7.81686 26.1962 8.7419 26.7156 8.83441 27.355C9.0123 28.5915 7.87378 28.9624 6.9096 28.7399C6.19447 28.5774 5.60031 27.8885 4.94922 27.4327C5.46867 26.8321 5.98811 26.2316 6.87758 25.207H6.87402Z" fill="black" fill-opacity="0.8"/>
<path d="M12.3436 32.2477C11.9273 33.728 11.9308 34.9291 10.4116 34.9256C9.31938 34.9256 9.07032 34.1378 9.14504 33.2016C9.21975 32.2124 9.1059 30.9582 10.5255 31.0042C11.1446 31.0254 11.7387 31.8096 12.3436 32.2477Z" fill="black" fill-opacity="0.8"/>
<path d="M8.39454 31.5412C7.55844 32.1523 6.77571 32.8836 5.85067 33.2899C5.62652 33.3888 4.92562 32.4032 4.44531 31.9192C5.15689 31.2409 5.78307 30.4071 6.61917 29.9655C6.93582 29.7995 7.73634 30.5343 8.31983 30.8558C8.34473 31.0854 8.37319 31.3151 8.3981 31.5447L8.39454 31.5412Z" fill="black" fill-opacity="0.8"/>
<path d="M5.37842 34.2791C4.02287 35.1481 3.20456 35.8052 2.26884 36.1656C2.0696 36.2398 1.00224 34.8584 1.09119 34.7525C1.70314 33.9964 2.44318 33.2581 3.30062 32.8306C3.57102 32.6964 4.3324 33.523 5.38197 34.2791H5.37842Z" fill="black" fill-opacity="0.8"/>
</g>
<defs>
<clipPath id="clip0_1218_92">
<rect width="74" height="85" fill="white"/>
</clipPath>
</defs>
</svg>
