<svg width="33" height="31" viewBox="0 0 33 31" fill="none" xmlns="http://www.w3.org/2000/svg">
<path d="M8.64044 15.9339C9.24493 14.9065 9.8716 13.8417 10.5468 12.6952C12.1953 14.4435 14.2056 14.8192 16.3241 14.8192C18.4426 14.8192 20.4654 14.4795 22.1444 12.6924C22.821 13.8293 23.4588 14.9038 24.073 15.9381C24.2283 15.8576 24.4418 15.6843 24.6802 15.6358C25.3346 15.5027 26.0112 15.468 26.6559 15.3072C27.3062 15.1464 27.4823 15.4542 27.546 15.9949C27.7346 17.5754 27.9328 19.1546 28.1283 20.7338C28.3557 22.5653 28.5706 24.3968 28.8271 26.2241C28.8618 26.4751 29.0559 26.7523 29.2555 26.9243C29.6562 27.2681 30.1428 27.5149 30.5324 27.8698C30.7224 28.0431 30.7709 28.3717 30.8832 28.6296C30.6018 28.5949 30.2732 28.6393 30.0472 28.509C29.5106 28.197 28.9907 27.8379 28.5276 27.4262C28.2822 27.2085 28.0562 26.8563 28.0146 26.5388C27.5613 23.1115 27.1453 19.6787 26.7114 16.1793C25.8546 16.2902 25.0241 16.3984 24.1756 16.5093C24.353 16.91 24.0674 17.0833 23.6945 17.1401C22.193 17.3689 20.6942 17.6933 19.1844 17.7709C16.1633 17.9262 13.1339 17.9359 10.1336 17.4146C9.72741 17.3439 9.31148 17.2635 8.93298 17.1068C8.72085 17.0181 8.57666 16.7644 8.30214 16.4857C7.67408 16.3997 6.85885 16.2888 5.98955 16.171C5.74138 18.1647 5.49459 20.1279 5.25335 22.0925C5.06202 23.6495 4.88039 25.2065 4.67936 26.762C4.65718 26.9312 4.57538 27.1447 4.44921 27.2404C3.7851 27.7395 3.10851 28.2247 2.40836 28.6698C2.27249 28.7558 2.01045 28.6435 1.80664 28.6227C1.84962 28.4202 1.82605 28.1443 1.95083 28.0279C2.26833 27.7312 2.62603 27.4483 3.01562 27.2639C3.76985 26.9062 3.92375 26.2809 4.00832 25.5364C4.36602 22.3739 4.76809 19.217 5.13966 16.0545C5.21314 15.4292 5.43497 15.1436 6.12265 15.3169C6.74516 15.4736 7.39957 15.5083 8.0304 15.6358C8.25639 15.6816 8.45881 15.8438 8.63766 15.9339H8.64044Z" fill="white"/>
<path d="M24.7347 21.3203C24.377 22.4198 24.0997 23.3584 23.7531 24.2721C23.6852 24.4523 23.3691 24.6048 23.1431 24.6478C21.9479 24.8807 20.7528 25.1843 19.5452 25.262C16.5741 25.4547 13.6071 25.4367 10.647 24.9459C9.4006 24.7393 8.70738 24.1556 8.45921 22.9577C8.35384 22.4503 8.22767 21.9456 8.0918 21.3591C10.9021 22.0357 13.6348 22.1328 16.3758 22.13C19.0988 22.1272 21.8162 22.0329 24.7333 21.3203H24.7347Z" fill="white"/>
<path d="M24.5277 17.875C24.5762 18.5765 24.6594 19.3044 24.6511 20.0309C24.6483 20.2167 24.3766 20.519 24.1838 20.5619C23.2203 20.7768 22.247 20.9987 21.2654 21.0791C17.2793 21.4091 13.2905 21.5047 9.33638 20.7588C7.73087 20.4552 8.03728 20.6035 8.05253 19.0743C8.05669 18.668 8.16483 18.2618 8.22168 17.8875C13.6538 18.9647 19.0401 18.9689 24.5277 17.8778V17.875Z" fill="white"/>
<path d="M21.3485 11.0482C21.6175 11.9757 21.5177 12.4609 20.665 12.9046C19.8414 13.333 18.9375 13.7018 18.028 13.8529C16.0648 14.1801 14.1071 14.0748 12.3006 13.0987C11.3259 12.5719 11.0874 12.0436 11.3134 11.202C10.1252 10.5476 8.94674 9.90017 7.72667 9.22775C6.53432 10.8443 5.34614 12.4291 4.19123 14.0373C3.90839 14.4325 3.59367 14.6183 3.1098 14.6515C2.28209 14.707 1.45993 14.8567 0.63222 14.9039C0.428412 14.915 0.21074 14.6862 0 14.567C0.19133 14.4089 0.35909 14.1857 0.578148 14.1094C0.876234 14.0054 1.21591 13.9625 1.53341 13.9819C2.90183 14.0664 3.76698 13.4259 4.47406 12.2807C5.26018 11.0079 6.2404 9.85719 7.11247 8.63573C7.38422 8.25585 7.6421 8.199 8.04001 8.42915C9.05766 9.01839 10.0878 9.58822 11.1179 10.1553C11.3578 10.287 11.6184 10.3799 11.8708 10.4894C11.7945 10.5837 11.7182 10.678 11.642 10.7722C11.7307 10.7057 11.8181 10.6378 11.9096 10.574C12.527 10.146 13.1019 10.1876 13.6343 10.6988C13.7175 10.7792 13.8076 10.8513 13.8964 10.9248C15.7653 12.4762 17.3652 12.4027 19.0955 10.6849C19.8414 9.94454 19.9496 9.93761 20.8175 10.5948C20.9451 10.6918 21.0684 10.793 21.1946 10.8929L21.3499 11.0482H21.3485Z" fill="white"/>
<path d="M9.6875 25.625C14.2142 26.4083 18.5621 26.4194 22.9017 25.6458C22.3721 27.0932 20.7985 28.4423 19.2692 28.506C17.2492 28.5892 15.2208 28.5282 13.1966 28.4894C12.484 28.4755 11.8642 28.1774 11.3914 27.6076C10.866 26.9754 10.3211 26.3584 9.68889 25.625H9.6875Z" fill="white"/>
<path d="M15.5397 3.24086H17.191C17.3379 2.59755 17.7622 2.02633 18.418 1.74627C19.8765 1.12376 21.367 0.57195 22.8615 0.0367817C23.0626 -0.0353135 23.3565 0.147698 23.6061 0.212861C23.4563 0.405577 23.3468 0.689798 23.1513 0.774371C22.2446 1.16812 21.3212 1.5286 20.3895 1.85719C19.3414 2.22598 18.3029 2.58646 17.7677 3.52647C17.8787 3.85367 18.1448 4.2599 18.0395 4.41518C17.8773 4.65504 17.4724 4.80616 17.1508 4.84914C16.6295 4.91708 16.0846 4.91708 15.5633 4.84914C15.2416 4.80755 14.8354 4.6592 14.6718 4.41795C14.5637 4.25851 14.816 3.85228 14.92 3.5126C14.4278 2.60587 13.4406 2.24539 12.4341 1.89046C11.458 1.54662 10.4903 1.17228 9.53917 0.764666C9.34923 0.682866 9.25079 0.388939 9.10938 0.192064C9.34368 0.126901 9.6182 -0.0519509 9.80398 0.0145986C11.318 0.562245 12.8306 1.1196 14.3113 1.75182C14.9491 2.02356 15.3539 2.59616 15.5397 3.24086Z" fill="#113D3C"/>
<path d="M19.4494 7.25964C19.1167 8.22322 18.4179 8.48803 17.4502 8.41455C16.5337 8.34523 15.6062 8.40762 14.6842 8.39652C13.8509 8.38682 13.4017 7.94038 13.3726 7.12377C13.3421 6.2614 13.7719 5.73177 14.6107 5.7082C15.7628 5.67493 16.9164 5.67632 18.0685 5.70682C18.9142 5.729 19.1028 5.97995 19.4258 7.28459L19.448 7.25825L19.4494 7.25964Z" fill="white"/>
<path d="M21.3467 11.0478C21.2954 10.9965 21.2441 10.9438 21.1914 10.8925C21.3508 10.6652 21.4604 10.3546 21.678 10.2229C22.6638 9.62949 23.6912 9.10264 24.6825 8.51618C25.14 8.24582 25.4076 8.32762 25.7071 8.75881C26.7982 10.331 27.9087 11.8922 29.0512 13.427C29.2383 13.6793 29.6085 13.8734 29.9246 13.9358C30.6692 14.0841 31.4359 14.1119 32.1832 14.2464C32.3759 14.281 32.5284 14.5306 32.6989 14.6817C32.5145 14.8065 32.3218 15.0491 32.1485 15.0366C31.1613 14.9659 30.1728 14.8592 29.1954 14.7039C28.968 14.6678 28.7295 14.4252 28.5784 14.2172C27.3999 12.5979 26.2422 10.9633 25.0416 9.28427C24.0627 9.82914 23.1297 10.3671 22.1758 10.8648C21.9332 10.991 21.624 10.9882 21.3439 11.0451L21.3467 11.0478Z" fill="white"/>
<path d="M19.4243 7.28639C20.026 7.06178 20.6153 6.79142 21.2322 6.62644C21.7882 6.47809 22.2014 6.21466 22.401 5.67395C23.1026 3.78006 24.6249 2.68754 26.2775 1.73921C26.4702 1.6283 26.7836 1.72673 27.0414 1.72812C26.9458 1.95272 26.9111 2.29518 26.7434 2.38114C24.8911 3.34472 23.6142 4.81851 22.7518 6.69576C22.6603 6.89402 22.4107 7.0701 22.1958 7.15329C21.5095 7.41671 20.8052 7.63438 20.1064 7.86592C19.5311 8.05725 19.3162 7.84512 19.4437 7.26143L19.4215 7.28639H19.4243Z" fill="white"/>
<path d="M13.3716 7.80258C13.1636 7.88993 12.9155 8.09928 12.756 8.04521C11.9075 7.75544 11.077 7.40745 10.2493 7.06222C10.1342 7.0137 10.0497 6.87505 9.97203 6.76414C9.87914 6.63242 9.7904 6.49378 9.72801 6.34681C9.01399 4.67337 7.84938 3.4228 6.23417 2.58677C6.07195 2.5022 5.88062 2.41208 5.78912 2.26789C5.69484 2.12092 5.62275 1.85611 5.69623 1.73411C5.76278 1.62319 6.108 1.53584 6.20505 1.60655C7.40294 2.5022 8.99597 2.95695 9.62126 4.50007C10.2008 5.92811 11.2018 6.81127 12.6992 7.16482C12.9363 7.22028 13.1401 7.41715 13.3605 7.55025C13.3647 7.63482 13.3702 7.71801 13.3744 7.80258H13.3716Z" fill="white"/>
<path d="M13.6016 9.08594H19.0545C18.9921 9.88453 17.5793 11.0894 16.5242 11.192C15.4705 11.2945 13.9038 10.1604 13.6016 9.08594Z" fill="white"/>
<path d="M13.787 29.476H18.9959C19.0167 29.5204 19.0375 29.5647 19.0583 29.6091C18.2222 30.0583 17.3904 30.5131 16.5474 30.9484C16.4462 31.0011 16.2646 30.9886 16.1606 30.9318C15.3426 30.4923 14.5357 30.0347 13.7246 29.5828C13.7454 29.5467 13.7676 29.5107 13.7884 29.4746L13.787 29.476Z" fill="white"/>
</svg>
