<svg width="33" height="31" viewBox="0 0 33 31" fill="none" xmlns="http://www.w3.org/2000/svg">
<mask id="mask0_346_70" style="mask-type:alpha" maskUnits="userSpaceOnUse" x="0" y="0" width="33" height="31">
<rect width="33" height="31" fill="#D9D9D9"/>
</mask>
<g mask="url(#mask0_346_70)">
<path d="M14.9031 18.5141C14.8132 18.8481 14.7104 19.1821 14.6205 19.5161C13.991 19.7088 13.4 19.6189 12.8605 19.2463C12.6678 18.7325 12.5393 18.1929 12.0511 17.8589C11.8584 17.0238 11.5115 16.3301 10.6508 15.9575C10.214 15.7648 9.85426 15.3922 9.52024 15.0454C8.98067 14.493 8.36401 14.1975 7.58035 14.2874C7.41333 14.3002 7.24632 14.2874 7.07931 14.2232C6.14148 14.3773 5.20365 14.5186 4.26582 14.2489C4.06027 14.1846 3.85472 14.1461 3.70055 14.0048C3.85472 13.7735 4.1502 13.7864 4.3686 13.6707C4.53561 13.5808 4.74116 13.5037 4.68977 13.2596C4.62554 13.0284 4.40714 13.0284 4.21443 13.0284C3.85472 13.0412 3.50785 13.1312 3.14813 13.1312C2.85265 13.1312 2.55717 13.0926 2.28738 12.9513C1.7735 12.7715 1.22108 12.6815 0.797131 12.309C1.24678 11.6666 1.02838 11.127 0.527344 10.626C1.85058 8.75034 3.41792 7.18301 5.74322 6.6049C6.01301 6.54066 6.2828 6.51497 6.56543 6.51497C6.80953 6.86184 6.5012 7.26009 6.68106 7.60696C6.95084 8.19792 7.24632 8.36493 7.87583 8.22362C8.58241 8.06945 9.12199 7.61981 9.63587 7.14447C9.87996 7.2344 9.90565 6.82329 10.1369 6.90038C11.0876 7.2344 12.0254 7.02885 12.9632 6.84899C15.3656 6.37365 17.7552 5.70561 20.2346 5.88546C22.7013 6.05247 24.9238 6.78475 26.5811 8.75034C27.6088 9.98366 27.9942 11.4611 28.1098 13.0155C28.1998 14.1846 28.1612 15.3665 27.7501 16.4971C27.6859 17.3707 27.172 17.9103 26.4526 18.3085C25.5661 18.938 24.5641 19.272 23.4849 19.362C22.6242 19.696 21.8148 19.6446 21.0568 19.105C20.4145 18.8866 19.8749 18.5141 19.3739 18.0516C18.4489 17.345 18.4874 16.3301 18.4874 15.328C18.4874 14.994 18.5902 14.66 18.6416 14.3131C18.693 13.9662 18.6031 13.6579 18.2177 13.5551C17.8579 13.4523 17.5882 13.5937 17.4083 13.9148C17.1771 14.3516 16.9972 14.8013 16.7017 15.2124C16.5219 15.4565 16.3548 15.7263 16.0979 15.8676C15.4042 16.2787 15.2115 16.9082 15.1472 17.6405C15.1215 17.9359 15.083 18.2443 14.8774 18.4884L14.9031 18.5141Z" fill="white"/>
<path d="M26.4624 18.3349C26.9763 17.7824 27.4645 17.23 27.76 16.5234C29.4429 17.0245 31.0488 17.6668 32.1665 19.0928C33.2585 20.4803 33.0658 21.9063 31.704 23.0369C30.4322 24.0903 28.9162 24.6042 27.336 24.8997C24.5996 25.4264 21.8632 25.3622 19.1011 25.0795C17.097 24.874 15.1314 24.54 13.1658 24.1417C12.9217 24.0903 12.5748 24.1417 12.6262 23.7691C12.6776 23.3837 13.0116 23.358 13.3328 23.3966C14.5147 23.5379 15.6966 23.7178 16.8914 23.8205C20.5014 24.116 24.0986 24.283 27.6572 23.358C28.5436 23.1268 29.4044 22.8056 30.1495 22.2275C30.9846 21.5852 31.0488 20.9171 30.3037 20.1848C29.3915 19.2984 28.2096 18.8873 27.0277 18.489C26.8478 18.4248 26.6551 18.3863 26.4753 18.3349H26.4624Z" fill="#113D3C"/>
<path d="M14.9022 18.515C14.8637 17.847 15.1334 17.2175 15.1591 16.5623C15.1591 16.3568 15.3261 16.2668 15.4675 16.1897C16.3025 15.6759 16.8164 14.905 17.189 14.0186C17.4459 13.4019 17.8699 13.1707 18.3837 13.3891C18.8848 13.6075 18.9619 14.0058 18.8334 14.5068C18.4994 15.7786 18.6407 16.9863 19.3986 18.0911C17.9341 18.5921 16.4438 18.7206 14.915 18.515H14.9022Z" fill="white"/>
<path d="M7.07812 14.2359C7.93887 13.9918 8.72254 14.056 9.41628 14.7241C10.0201 15.3022 10.6496 15.8803 11.4333 16.2529C11.8444 16.4456 12.1655 17.3449 12.0499 17.8716C10.0072 17.1907 8.34998 15.9702 7.07812 14.2359Z" fill="white"/>
<path d="M21.0633 19.1328C21.8598 19.3512 22.6691 19.4154 23.4914 19.3898C23.3543 20.4346 22.7634 20.9571 21.7185 20.9571C20.9733 20.9571 20.2282 20.9571 19.4831 20.9571C19.0848 20.9571 18.9564 20.8158 19.072 20.4047C19.2262 19.8522 19.5473 19.5054 20.1126 19.4026C20.4466 19.3384 20.7806 19.2998 21.089 19.1328H21.0633Z" fill="#113D3C"/>
<path d="M6.53451 7.71097C6.26472 7.32556 6.48312 6.94015 6.53451 6.54189C6.997 5.91239 7.48518 5.28288 8.30739 5.07733C8.84697 4.93602 9.36085 4.97456 9.82334 5.30858C10.3501 5.68114 10.44 6.22072 10.106 6.94015C9.95181 6.97869 10.016 7.32556 9.73341 7.19709C9.47647 6.7089 9.27092 6.18217 8.56433 6.20787C7.81921 6.23356 7.33102 6.59328 6.9713 7.20993C6.85568 7.40264 6.7786 7.64673 6.52166 7.71097H6.53451Z" fill="white"/>
<path d="M12.8582 19.2617C13.4491 19.3516 14.0273 19.4416 14.6182 19.5315C14.4298 20.4907 13.856 20.9704 12.8967 20.9704C12.5755 20.9704 12.2544 20.9704 11.9332 20.9704C11.4065 20.9575 11.3037 20.752 11.5606 20.3023C11.7148 20.0325 11.946 19.8527 12.2544 19.7884C12.5499 19.7242 12.7426 19.5572 12.8582 19.2746V19.2617Z" fill="#113D3C"/>
<path d="M2.26953 12.9769C2.88619 12.9384 3.49 13.0154 4.10665 12.8613C4.44067 12.7713 4.85178 12.7842 4.95455 13.2081C5.05733 13.6706 4.68477 13.8248 4.3122 13.9019C4.10665 13.9533 3.9011 13.979 3.69555 14.0175C3.10459 13.8376 2.65494 13.4522 2.28238 12.9769H2.26953Z" fill="#113D3C"/>
<path d="M0.511522 10.6523C1.42366 11.1405 1.51359 11.6673 0.781309 12.3353C-0.182215 11.7957 -0.233603 11.4746 0.511522 10.6523Z" fill="#113D3C"/>
<path d="M6.53516 7.71396C6.84348 7.04592 7.17751 6.41641 7.92263 6.13378C8.9247 5.74837 9.75975 6.22371 9.75975 7.20008C9.29726 7.84243 8.62922 8.22784 7.88409 8.43339C7.19035 8.63894 6.70217 8.34346 6.53516 7.70111V7.71396Z" fill="#113D3C"/>
<path d="M6.26818 10.0482C6.26818 10.4593 5.80569 10.9218 5.43312 10.8704C4.98348 10.8062 4.70084 10.5235 4.6623 10.0739C4.62376 9.68847 5.11195 9.22598 5.49736 9.27737C5.947 9.3416 6.20394 9.63708 6.28103 10.0482H6.26818Z" fill="#113D3C"/>
</g>
</svg>
