<svg width="64" height="64" viewBox="0 0 64 64" fill="none" xmlns="http://www.w3.org/2000/svg">
<g clip-path="url(#clip0_1218_88)">
<path d="M22.8685 28.4529C21.3217 28.7352 19.7849 29.19 18.228 29.2675C14.737 29.4399 11.2385 29.4549 7.74253 29.4374C7.3477 29.4374 6.95537 28.8052 6.56054 28.4654C6.98786 28.1605 7.40768 27.6033 7.84249 27.5908C10.5063 27.5083 13.1927 27.7482 15.8366 27.4959C18.8802 27.206 21.9015 26.5763 24.8952 25.9242C25.265 25.8442 25.4049 24.7173 25.7273 23.8827C24.9451 23.8427 24.5403 23.8052 24.1355 23.8052C17.5933 23.8027 11.0511 23.7977 4.51142 23.8102C4.02163 23.8102 3.37941 23.7627 3.07454 24.0351C2.57226 24.4849 2.07247 25.142 1.96002 25.7792C1.81258 26.6288 2.41982 27.241 3.27945 27.4934C3.43689 27.5383 3.67678 27.4759 3.76175 27.5708C4.08411 27.9256 4.35649 28.3254 4.64637 28.7102C4.22155 28.9601 3.78673 29.4349 3.37441 29.4174C1.49272 29.3374 -0.0416203 27.5333 0.000861416 25.6018C0.0458421 23.6803 1.5452 22.0636 3.45438 22.0086C5.57846 21.9462 7.70505 21.9862 9.82914 21.9862C14.1198 21.9862 18.4129 21.9862 22.7036 21.9862H23.7656C23.8206 21.8837 23.8781 21.7813 23.9331 21.6788C22.8061 20.5944 21.6241 19.5599 20.582 18.4005C20.1572 17.9282 19.8448 17.1936 19.8098 16.5589C19.7074 14.7323 19.7124 12.8933 19.7974 11.0642C19.8523 9.91228 19.505 8.97026 18.8827 8.04323C17.2759 5.64945 15.2468 3.72043 12.7454 2.28366C12.4205 2.09875 11.9957 1.98631 11.7983 1.70895C11.5734 1.39411 11.341 0.746937 11.4884 0.579522C11.7408 0.294666 12.408 0.0347985 12.6954 0.177226C16.6687 2.13623 19.7474 5.07224 21.5466 9.13018C21.9989 10.1497 21.8565 11.5365 21.679 12.7084C21.2217 15.7593 22.1913 18.1131 24.6903 19.8947C25.0876 20.1771 25.3575 20.6318 25.6648 20.9817C26.1346 20.4794 26.512 20.0746 26.9293 19.6273C25.9347 16.9287 26.1096 15.8518 28.6336 14.1301C30.5277 12.8383 31.2699 11.3615 31.07 9.0827C30.8601 6.68392 31.015 4.25516 31.0275 1.83888C31.03 1.06677 30.8651 0.0472921 32.0296 0.067282C33.0866 0.0847731 32.9617 1.04678 32.9617 1.78641C32.9667 4.90982 32.9867 8.03574 32.9492 11.1591C32.9392 11.9038 33.1641 12.391 33.7714 12.8233C34.686 13.4755 35.5506 14.2001 36.4027 14.9297C37.5322 15.8992 37.972 17.2386 37.4098 18.5304C36.91 19.6773 37.2549 20.277 38.2419 21.0316C39.4689 19.7698 40.7559 18.4929 41.9728 17.1561C42.2077 16.8962 42.2577 16.399 42.2627 16.0117C42.2927 14.2201 42.1977 12.426 42.3077 10.6394C42.3627 9.72488 42.5776 8.73538 43.0174 7.94328C44.8166 4.69743 47.4205 2.22619 50.6816 0.454585C51.2963 0.119755 51.991 -0.399981 52.5083 0.502061C53.0306 1.4141 52.2309 1.72894 51.6112 2.07126C48.7824 3.63297 46.4684 5.7519 44.8316 8.54548C44.4743 9.15517 44.2718 9.92977 44.2444 10.6369C44.1644 12.5484 44.3018 14.4725 44.1744 16.3815C44.1244 17.1261 43.7546 17.9732 43.2598 18.5354C42.2802 19.6498 41.1132 20.5994 40.0262 21.6163C40.0836 21.7388 40.1411 21.8612 40.1986 21.9837C40.6309 21.9837 41.0632 21.9837 41.493 21.9837C47.5754 21.9837 53.6603 21.9812 59.7427 21.9837C62.3341 21.9837 63.9834 23.4254 63.9934 25.6793C64.0034 27.8907 62.2766 29.4699 59.7877 29.4798C55.7869 29.4948 51.7836 29.5923 47.7903 29.4399C45.5263 29.3524 43.2773 28.8377 40.9258 28.5028C41.1607 28.7702 41.3731 29.0351 41.6105 29.2749C43.9945 31.6637 46.3509 34.08 48.7849 36.4163C49.5496 37.151 49.8294 37.9056 49.802 38.9375C49.737 41.1839 49.7245 43.4378 49.812 45.6841C49.8444 46.5137 50.0618 47.4157 50.4667 48.1329C52.7057 52.1134 55.9068 55.1393 59.9076 57.3332C60.295 57.5456 60.7198 57.818 60.9272 58.1778C61.0546 58.3977 60.9022 59.0323 60.6973 59.1373C60.3599 59.3097 59.7552 59.3847 59.4803 59.1923C57.2113 57.5931 54.9298 55.9989 52.7832 54.2423C51.7711 53.4152 51.0189 52.2558 50.1893 51.2163C48.585 49.2073 47.6279 47.0209 47.9328 44.3323C48.1227 42.6457 48.0002 40.919 47.9478 39.2149C47.9328 38.7626 47.7903 38.1954 47.493 37.8906C44.6967 35.032 41.8554 32.2185 39.0241 29.3949C38.9441 29.3149 38.8242 29.2724 38.6942 29.195C38.2169 30.5743 38.3269 31.7362 39.249 32.9581C40.7758 34.9796 42.1453 37.126 43.4847 39.2799C43.8945 39.942 44.1719 40.7966 44.1919 41.5712C44.2718 44.6097 44.1969 47.6531 44.2468 50.6916C44.2568 51.3213 44.4418 52.0134 44.7516 52.5606C46.9757 56.4936 50.0993 59.5421 54.0426 61.746C54.2975 61.8884 54.6549 61.9658 54.7848 62.1807C55.0247 62.5805 55.1322 63.0603 55.2946 63.5076C54.8273 63.6 54.2176 63.9274 53.9177 63.7449C52.146 62.668 50.3742 61.566 48.7449 60.2892C47.5754 59.3747 46.5858 58.2128 45.5938 57.0933C43.2198 54.4222 41.7904 51.4637 42.2302 47.6956C42.4976 45.4018 42.7175 42.8955 42.0678 40.7541C41.4331 38.6577 39.6713 36.9036 38.4019 35.002C38.0595 34.4873 37.7097 33.9776 37.3298 33.4128C36.2028 34.1425 35.673 34.9671 35.7105 36.3638C35.823 40.4018 35.753 44.4422 35.7505 48.4827C35.7505 51.0464 34.2811 52.723 32.0371 52.743C29.7431 52.7605 28.2587 51.0689 28.2587 48.4252C28.2587 44.5097 28.2137 40.5942 28.2812 36.6787C28.3037 35.3119 28.2262 34.115 26.6619 33.4428C25.1001 35.7667 23.4683 38.1629 21.8915 40.5917C21.6915 40.9015 21.734 41.3938 21.7315 41.8011C21.719 44.842 21.749 47.883 21.704 50.9215C21.694 51.5586 21.5516 52.2583 21.2542 52.8155C18.7628 57.5031 15.1444 61.0838 10.4739 63.605C9.82664 63.9548 9.12444 64.3496 8.68463 63.4101C8.2798 62.5431 9.03698 62.2632 9.61673 61.9484C13.62 59.767 16.8361 56.751 19.1102 52.7955C19.5 52.1158 19.7349 51.2538 19.7549 50.4667C19.8273 47.4282 19.7549 44.3848 19.8098 41.3463C19.8223 40.7241 20.0323 40.0295 20.3646 39.5048C21.6516 37.4658 22.991 35.4568 24.3804 33.4853C25.285 32.201 26.1971 30.9716 25.2825 29.2225C25.1101 29.3574 24.8552 29.5148 24.6503 29.7197C21.9939 32.3659 19.3251 34.9995 16.7162 37.6907C16.3388 38.0805 16.0865 38.7526 16.0665 39.3049C15.994 41.5112 16.1239 43.7251 15.999 45.924C15.939 46.9934 15.6866 48.1604 15.1643 49.0799C12.6979 53.4152 9.2119 56.7535 4.77631 59.0548C4.35649 59.2722 3.48436 59.3322 3.26196 59.0773C2.52977 58.2477 3.23697 57.7905 3.95416 57.4057C8.0499 55.2018 11.3035 52.1133 13.59 48.0604C13.9574 47.4107 14.1673 46.5912 14.1898 45.844C14.2647 43.4303 14.1598 41.0115 14.2547 38.5977C14.2797 37.9356 14.6021 37.1385 15.0594 36.6637C17.6558 33.9726 20.3321 31.3589 22.9835 28.7202C22.946 28.6303 22.9085 28.5428 22.871 28.4529H22.8685ZM27.2841 26.1615H27.2891C27.2891 27.201 27.2442 28.243 27.2966 29.2799C27.4391 32.0211 29.5307 34.055 32.1046 34.005C34.636 33.9551 36.6351 31.9086 36.7051 29.2175C36.7551 27.2235 36.7401 25.2245 36.7076 23.228C36.6851 21.7313 35.9554 21.0291 34.4636 21.0116C32.7993 20.9917 31.135 20.9892 29.4707 21.0116C28.0488 21.0316 27.3366 21.7363 27.2891 23.1656C27.2566 24.1625 27.2816 25.162 27.2816 26.159L27.2841 26.1615ZM38.6817 23.8752C38.3444 25.8542 38.3844 25.7767 40.1611 26.269C44.3343 27.4209 48.575 27.7007 52.8756 27.5633C55.3296 27.4859 57.786 27.5583 60.2425 27.5358C61.317 27.5258 61.9492 26.9461 62.0742 25.8792C62.1916 24.8772 61.5219 24.0426 60.4699 23.8452C60.1875 23.7927 59.8901 23.8052 59.6003 23.8052C52.9831 23.8052 46.3659 23.8027 39.7488 23.8052C39.3864 23.8052 39.0216 23.8527 38.6817 23.8752ZM31.9646 19.1101C31.9646 19.1101 31.9646 19.1276 31.9646 19.1351C32.6718 19.1351 33.424 19.285 34.0712 19.0901C34.6685 18.9102 35.4156 18.4554 35.6131 17.9382C35.7805 17.4984 35.4056 16.6589 35.0133 16.2416C34.2811 15.4645 33.3815 14.8323 32.5019 14.2101C32.2795 14.0527 31.7697 14.0177 31.5648 14.1651C30.6202 14.8398 29.6631 15.5294 28.8635 16.359C28.5011 16.7363 28.2487 17.5359 28.3987 17.9957C28.5486 18.4604 29.2133 18.9277 29.7381 19.0626C30.4378 19.245 31.2224 19.1076 31.9696 19.1076L31.9646 19.1101ZM30.1854 47.1909C30.1629 48.5127 29.7456 49.8695 31.085 50.5491C31.6223 50.8215 32.6318 50.739 33.1316 50.3917C34.2586 49.6096 33.8388 48.3553 33.8088 47.1909H30.1879H30.1854ZM30.1854 35.8091V37.6707H33.7564V35.8091H30.1854ZM30.1854 41.4013H33.7614V39.7346H30.1854V41.4013ZM33.6664 45.2119C33.8038 45.1219 33.9438 45.0319 34.0812 44.942C33.8013 44.4248 33.6039 43.5527 33.2241 43.4652C32.287 43.2504 31.2674 43.3953 30.2304 43.3953V45.2144H33.6664V45.2119Z" fill="black" fill-opacity="0.8"/>
</g>
<defs>
<clipPath id="clip0_1218_88">
<rect width="64" height="64" fill="white"/>
</clipPath>
</defs>
</svg>
