<svg width="41" height="45" viewBox="0 0 41 45" fill="none" xmlns="http://www.w3.org/2000/svg">
<g clip-path="url(#clip0_552_1060)">
<path d="M17.628 29.8175C15.2772 30.7148 12.9671 31.7445 10.5662 32.4726C8.25612 33.1731 5.84031 33.1621 3.25195 32.7245C3.64717 32.4689 3.88652 32.2998 4.13701 32.1545C9.21168 29.1905 14.2845 26.2229 19.3722 23.281C19.8342 23.0126 20.3889 22.8066 20.9177 22.7625C23.8642 22.518 26.7736 22.7276 29.6068 23.6304C29.7998 23.6929 29.9835 23.7903 30.041 23.8142C29.1634 24.5681 28.1781 25.2447 27.4211 26.1163C26.6659 26.986 26.1409 28.0542 25.4822 29.0876C25.0127 28.7695 24.5674 28.4698 24.1852 28.2124C23.0497 29.5656 21.9197 30.8509 20.8714 32.1968C20.5893 32.5609 20.3927 33.1253 20.4279 33.5758C20.6969 37.0509 21.0365 40.5224 21.3371 43.9956C21.3612 44.277 21.3445 44.6521 21.1794 44.8396C20.8435 45.2239 20.3351 44.8856 20.2591 44.1777C20.0902 42.5964 19.9659 41.0096 19.8212 39.4265C19.6523 37.5694 19.5132 35.7068 19.3016 33.8553C19.1922 32.8955 19.3202 32.1067 20.0401 31.3584C21.2016 30.1522 22.2463 28.8357 23.3428 27.5615C22.378 26.5097 22.3984 26.5373 21.2536 27.3611C20.0605 28.2179 18.8248 29.0159 17.6058 29.8378L17.6299 29.8175H17.628Z" fill="white"/>
<path d="M4.21831 6.37305C6.88646 10.2637 10.41 12.9096 14.0949 15.3348C17.0228 17.2599 20.0787 18.9938 23.079 20.8086C23.4167 21.0127 23.7655 21.1984 24.1088 21.3933C24.094 21.4962 24.0773 21.601 24.0624 21.704C22.4129 21.5367 20.7411 21.4779 19.1158 21.1837C14.0504 20.2643 9.17609 18.7603 4.78052 16.0261C3.53365 15.2502 2.34987 14.3327 1.27927 13.3306C-0.511243 11.6519 -0.405482 9.68636 1.50935 8.13267C2.33132 7.46523 3.2943 6.96694 4.22017 6.37489L4.21831 6.37305Z" fill="#113D3C"/>
<path d="M6.94265 0.636719C12.7335 7.09235 18.4984 13.5204 24.3134 20.0054C24.1501 20.0293 24.0555 20.0753 24.0017 20.0459C18.5392 17.0452 13.1807 13.8789 8.55875 9.66834C7.32301 8.54123 6.20046 7.22841 5.28944 5.83101C3.82363 3.58229 4.4285 1.8668 6.94265 0.636719Z" fill="#113D3C"/>
<path d="M8.03906 0.202215C10.0337 -0.235392 11.7166 0.0551206 13.3197 0.900916C15.1789 1.88277 16.7449 3.23789 17.949 4.91844C21.2054 9.46184 24.0387 14.2424 25.8533 19.5581C25.8904 19.6684 25.9015 19.7879 25.7958 19.9938C19.914 13.4408 14.0359 6.88768 8.03906 0.202215Z" fill="#113D3C"/>
<path d="M27.8425 30.4525C27.4009 30.1969 26.9593 29.9432 26.4453 29.6472C27.1281 28.5789 27.7478 27.529 28.4492 26.5343C29.2229 25.4366 30.4642 25.0744 31.687 24.7397C31.8707 24.6901 32.1508 24.8501 32.3401 24.9806C33.7818 25.9716 34.7652 27.29 35.2977 28.9595C35.4536 29.4504 35.3088 29.6766 34.9173 29.923C32.9895 31.1365 30.9318 31.2542 28.7832 30.6879C28.4585 30.6033 28.1356 30.515 27.8109 30.4268L27.8425 30.4507V30.4525Z" fill="white"/>
<path d="M17.6037 29.8387C18.5128 29.9803 18.6279 30.1972 18.164 30.9364C17.9525 31.2729 17.7428 31.6185 17.4831 31.9164C15.3549 34.3453 14.3418 37.2302 13.8612 40.3597C13.672 41.5916 13.3751 42.8125 13.0504 44.0186C12.9706 44.3165 12.581 44.5316 12.3342 44.7835C12.2154 44.4673 11.9445 44.1198 12.0021 43.8385C12.5568 41.1209 13.1617 38.4143 13.7647 35.7078C13.8241 35.4449 13.9095 35.1654 14.0598 34.9466C15.238 33.2311 16.4347 31.5285 17.6259 29.8203L17.6037 29.8405V29.8387Z" fill="white"/>
<path d="M27.8113 30.4287C28.2046 30.8516 28.136 31.2212 27.7203 31.6018C27.0153 32.2453 26.364 32.9495 25.6367 33.5637C25.1431 33.9792 25.0615 34.4058 25.2062 34.9997C25.8649 37.7007 26.4902 40.4091 27.1266 43.1156C27.1693 43.294 27.2713 43.4926 27.2268 43.6489C27.1452 43.9283 26.9726 44.1802 26.839 44.4432C26.6089 44.2483 26.236 44.0901 26.171 43.8511C25.7554 42.2864 25.4047 40.7051 25.0392 39.1294C24.6867 37.6125 24.3137 36.0974 24.0057 34.5713C23.9371 34.233 23.9853 33.7328 24.1968 33.5048C25.093 32.534 26.056 31.622 27.0301 30.7266C27.2212 30.5519 27.5663 30.5409 27.8409 30.4563L27.8113 30.4324V30.4287Z" fill="white"/>
<path d="M35.3851 32.0812C35.4055 30.9688 36.2739 30.1249 37.4001 30.123C38.5134 30.123 39.4857 31.0976 39.4486 32.1769C39.4115 33.2543 38.4967 34.1204 37.3964 34.1204C36.2219 34.1204 35.3647 33.2488 35.3851 32.0812Z" fill="white"/>
<path d="M38.3379 34.5104C38.6886 34.3541 38.9632 34.2309 39.351 34.0581C39.9132 35.3912 40.4828 36.6874 40.9893 38.0094C41.0598 38.1951 40.8131 38.5022 40.7129 38.7523C40.4568 38.6015 40.0709 38.5096 39.967 38.2889C39.3992 37.0791 38.9001 35.8361 38.3379 34.5123V34.5104Z" fill="white"/>
</g>
<defs>
<clipPath id="clip0_552_1060">
<rect width="41" height="45" fill="white"/>
</clipPath>
</defs>
</svg>
