<svg width="73" height="72" viewBox="0 0 73 72" fill="none" xmlns="http://www.w3.org/2000/svg">
<g clip-path="url(#clip0_1218_56)">
<path d="M25.8444 46.6447C25.0728 44.3749 24.3578 42.2767 23.6088 40.0717C22.6443 40.1701 21.535 40.2826 20.2555 40.4148C20.5023 41.5848 20.7037 42.6227 20.9477 43.6493C21.1974 44.6984 21.0839 45.5309 20.0398 46.175C19.0412 46.7882 18.1589 47.587 17.2198 48.2957C16.5928 48.7711 15.9063 49.238 15.2708 48.3857C14.6892 47.6066 15.2764 47.0976 15.8666 46.6447C16.2042 46.386 16.5077 46.0625 16.8851 45.8881C18.8228 44.9965 18.8795 43.5846 18.3773 41.7423C17.5007 38.5275 17.5943 38.5135 20.9137 38.235C21.847 38.1563 22.7748 38.0016 23.6599 37.8863C23.9323 35.2312 24.2018 32.6211 24.5025 29.6791C24.0344 29.3725 23.1379 28.7847 22.2386 28.2024C21.0451 27.4318 20.7642 26.3986 21.396 25.1029C22.0513 23.7557 22.6755 22.3916 23.3819 21.0697C23.728 20.42 23.5947 20.074 22.979 19.7196C21.8783 19.0868 20.7605 18.4511 19.7675 17.672C19.3987 17.3851 19.3561 16.6876 19.166 16.1757C19.7448 16.0998 20.4541 15.7707 20.8768 15.9901C22.3776 16.772 23.7564 17.7761 25.226 18.6199C26.2133 19.188 26.3608 19.8574 25.8671 20.8306C24.9621 22.6166 24.111 24.4307 23.206 26.2927C24.3124 27.0099 25.3366 27.6737 26.3409 28.3262C27.453 27.9071 28.5368 27.4993 29.2234 27.2405C30.0972 25.4236 30.8972 23.8316 31.6065 22.2031C31.7341 21.9078 31.4902 21.4494 31.4136 21.0697C31.0703 19.3512 30.6419 17.6411 30.4405 15.9057C30.3951 15.526 31.1554 15.0535 31.5469 14.626C31.8618 15.0985 32.3328 15.5344 32.4604 16.0548C32.6562 16.8564 32.52 17.7367 32.6987 18.5439C33.1158 20.4171 33.374 20.5043 35.289 20.3046C36.1656 20.2146 37.099 20.254 37.9473 20.465C38.8097 20.6787 39.3459 20.5521 39.536 19.6859C39.7913 18.513 39.919 17.312 40.2112 16.1476C40.3474 15.6104 40.6425 14.8116 41.034 14.6963C41.9106 14.4375 42.3731 15.1688 42.2596 15.9479C42.0156 17.6355 41.7149 19.3287 41.2524 20.9684C41.0623 21.6406 40.9857 22.0175 41.3744 22.6982C42.1433 24.0454 42.6114 25.5586 43.2752 27.1843C43.871 27.4149 44.7675 27.8002 45.6924 28.1068C45.9931 28.2053 46.4272 28.2193 46.6854 28.0703C47.6159 27.533 48.4954 26.9086 49.4543 26.2814C48.5607 24.4476 47.7266 22.67 46.8301 20.9234C46.3137 19.9165 46.3988 19.1993 47.4656 18.5974C48.8188 17.8352 50.0983 16.9492 51.4232 16.1363C52.0729 15.737 52.8304 15.2588 53.4092 16.111C54.073 17.087 53.185 17.5202 52.5183 17.9533C51.7268 18.4652 50.9551 19.0249 50.1097 19.4271C48.9749 19.9699 48.9295 20.6 49.5281 21.6209C50.2827 22.9119 50.8133 24.3295 51.5367 25.6373C52.124 26.6977 51.8658 27.3558 50.8587 27.9352C49.8004 28.5456 48.8018 29.2515 48.1408 29.6819C48.4387 32.5423 48.7082 35.1524 48.9947 37.8919C50.365 38.0438 51.8545 38.2125 53.3411 38.37C54.5497 38.4994 55.0802 39.1379 54.6291 40.2854C53.5397 43.0502 53.812 45.2862 56.8136 46.6897C57.4775 46.9991 57.9569 47.6545 57.3527 48.4195C56.754 49.1789 56.0987 48.7964 55.5029 48.3464C54.527 47.6066 53.6049 46.7854 52.5722 46.1356C51.5963 45.5197 51.4431 44.7406 51.6814 43.7365C51.9282 42.7014 52.1382 41.6552 52.402 40.4373C51.1764 40.2939 50.0756 40.1645 49.0316 40.0407C48.2883 42.2374 47.5648 44.3749 46.7903 46.6532C47.8486 47.2466 49.1167 47.9442 50.3735 48.6642C51.6218 49.3814 51.7041 49.8286 50.8246 50.993C50.1494 51.8874 49.4628 52.7762 48.6912 53.7831C49.4061 54.3288 50.1693 54.7479 50.6941 55.3638C51.0317 55.7604 51.0204 56.4495 51.1651 57.0092C50.5778 57.0036 49.8856 57.1976 49.4288 56.9558C48.5238 56.4748 47.7691 55.7295 46.9208 55.136C45.9619 54.4638 45.9619 53.7437 46.6598 52.8887C47.3407 52.0562 47.9791 51.1871 48.7309 50.2111C47.65 49.5952 46.674 48.9651 45.6272 48.4898C45.3264 48.3548 44.7335 48.5517 44.4214 48.7879C39.1473 52.7818 33.408 52.8212 28.3212 48.8076C27.6914 48.3098 27.2318 48.2564 26.5792 48.6726C25.7508 49.2042 24.8742 49.657 23.9266 50.1942C24.6302 51.1196 25.2487 51.9999 25.9381 52.8212C26.6927 53.7213 26.7097 54.4638 25.6884 55.1697C24.7976 55.7857 24.0004 56.5507 23.0556 57.0626C22.6584 57.2792 21.9917 57.012 21.4499 56.9642C21.5832 56.4382 21.5605 55.7773 21.8811 55.4144C22.4258 54.7985 23.1861 54.3653 23.9465 53.7888C23.2883 52.914 22.6783 52.0899 22.057 51.2799C20.8371 49.6936 20.8938 49.4264 22.6868 48.4251C23.7138 47.8513 24.7408 47.2747 25.7678 46.6982C25.8473 46.6532 25.9154 46.5857 25.8501 46.6363L25.8444 46.6447ZM40.0722 48.892C44.1774 47.2607 46.7762 43.3315 46.5435 39.1969C46.4073 36.7584 44.2228 35.1018 41.661 35.5996C41.661 36.5531 41.783 37.5487 41.6127 38.4966C41.5191 39.0057 40.9262 39.4276 40.5574 39.8888C40.1942 39.4276 39.6013 39.0029 39.5162 38.4938C39.3488 37.5122 39.4679 36.48 39.4679 35.504H33.2321C33.2321 37.7231 32.9995 39.8579 33.2945 41.9195C33.6151 44.1528 34.2506 46.386 35.0875 48.487C35.7032 50.0367 36.8692 50.0058 37.6011 48.4757C38.2962 47.0188 38.5884 45.3734 39.1984 43.8687C39.3885 43.4018 40.041 43.1177 40.4808 42.7521C40.7304 43.2274 41.2468 43.7449 41.1787 44.1696C40.9262 45.7194 40.4807 47.2354 40.0751 48.892H40.0722ZM26.1849 34.6096C29.3993 32.396 32.9456 33.2764 36.3245 33.2651C39.7346 33.2539 43.2979 32.4129 46.4868 34.5955C46.691 31.0376 45.0711 29.2994 41.7064 29.2909C38.1147 29.2825 34.523 29.3641 30.9341 29.2656C27.8616 29.184 25.5891 31.4032 26.1849 34.6096ZM32.8065 48.9961C30.8461 44.4903 31.0079 39.9479 30.9398 35.4674C27.8843 35.293 26.0884 36.9412 26.0998 39.7538C26.1168 43.7055 28.6191 47.286 32.8094 48.9961H32.8065ZM40.5517 27.1927C40.7957 25.1733 40.0013 23.7754 38.4012 22.8669C36.8295 21.9753 35.2294 22.1272 33.7598 23.1735C32.3696 24.1607 31.8533 25.5867 32.2647 27.1927H40.5517Z" fill="black" fill-opacity="0.8"/>
<path d="M39.6276 8.50534C39.2531 10.4432 40.0418 12.3417 38.4133 13.5568C37.8487 13.9787 37.0487 14.3556 36.3763 14.3246C32.6059 14.1446 33.2442 11.2083 33.1251 8.82879C21.4137 9.31255 9.58326 20.4392 8.87116 32.8794C9.67121 32.8794 10.4627 32.8625 11.2543 32.8822C13.2005 32.9272 14.5027 34.1957 14.4942 36.0211C14.4857 37.838 13.192 39.0784 11.2202 39.1318C10.4713 39.1515 9.71944 39.1347 8.99315 39.1347C7.19447 48.5428 22.279 63.6325 33.1591 63.2218C33.1591 62.5524 33.1534 61.869 33.1591 61.1883C33.1818 59.0001 34.3648 57.6557 36.277 57.6416C38.2658 57.6248 39.4545 58.9664 39.4744 61.253C39.48 61.8999 39.4744 62.544 39.4744 63.174C49.7501 64.1613 64.7695 49.2685 63.7169 39.1797C61.3338 39.0531 58.3861 39.6916 58.1535 35.9592C58.0684 34.5923 58.806 33.5263 60.077 33.155C61.2203 32.8203 62.48 32.8738 63.9524 32.7332C63.6914 31.4169 63.5212 30.0921 63.1609 28.8208C61.104 21.598 56.8002 16.0628 50.3175 12.187C50.0338 12.0183 49.631 11.9311 49.4806 11.6892C49.2423 11.3039 48.9246 10.6007 49.0863 10.4179C49.3757 10.086 49.9885 9.95946 50.4821 9.90883C50.7545 9.8807 51.0665 10.176 51.3474 10.3476C59.7536 15.3934 64.6248 22.7681 66.0546 32.3844C66.3979 34.6907 66.1539 34.9214 63.8616 34.9242C63.2006 34.9242 62.5367 34.9326 61.8757 34.9242C61.0529 34.9129 60.182 35.0817 60.3153 36.0408C60.372 36.4542 61.2487 36.8958 61.8303 37.0618C62.4402 37.239 63.1438 37.1011 63.8049 37.1011C66.1596 37.1011 66.3695 37.3065 66.0631 39.5762C65.3879 44.5799 63.6602 49.1954 60.6472 53.2793C55.5065 60.2517 48.5614 64.2822 39.951 65.4972C37.6445 65.8235 37.4147 65.5957 37.4118 63.3034C37.4118 62.5074 37.5395 61.6777 37.3523 60.9239C37.2388 60.4627 36.6345 60.1224 36.2515 59.7286C35.911 60.1167 35.3351 60.4711 35.2727 60.8986C35.1252 61.9084 35.1677 62.9575 35.2273 63.9841C35.2982 65.2272 34.7705 65.6716 33.5421 65.5563C28.6056 65.095 24.0522 63.5481 19.9356 60.8199C12.2671 55.7431 7.88103 48.6047 6.57032 39.5903C6.23838 37.3121 6.46818 37.1011 8.80875 37.0983C9.61163 37.0983 10.4429 37.208 11.2089 37.0421C11.6515 36.9464 11.9976 36.4036 12.3891 36.0633C11.9891 35.6864 11.6344 35.0704 11.1805 34.9832C10.267 34.8089 9.29955 34.9298 8.35482 34.9242C6.57032 34.9101 6.36038 34.7582 6.54762 32.9582C7.16042 27.0264 9.3875 21.733 13.226 17.1457C18.2731 11.1154 24.7841 7.6503 32.586 6.52807C33.0513 6.46057 33.5279 6.47463 34.0017 6.45213C34.833 6.41275 35.2273 6.82058 35.2188 7.63343C35.2188 7.86687 35.1734 8.11438 35.2301 8.33377C35.5819 9.65007 34.2996 12.0745 36.2884 12.0999C38.3793 12.128 37.0345 9.69507 37.409 8.40127C37.4714 8.1847 37.426 7.93438 37.4203 7.70093C37.3948 6.82058 37.8204 6.31431 38.7084 6.46619C40.978 6.85715 43.2476 7.26498 45.4832 7.805C45.8832 7.90062 46.1244 8.65159 46.4393 9.0988C45.8946 9.32099 45.3045 9.80195 44.8108 9.71757C43.1086 9.43068 41.4433 8.94973 39.6304 8.51096L39.6276 8.50534Z" fill="black" fill-opacity="0.8"/>
<path d="M72.9986 35.9483C72.4 36.9299 72.1219 37.9509 71.4666 38.339C70.3687 38.9859 70.2977 39.9113 70.1303 40.9013C68.0082 53.4315 61.0546 62.2856 49.3178 67.2948C46.5431 68.4789 43.4309 68.8811 40.4889 69.7052C39.9328 69.8599 39.32 70.1974 38.9711 70.639C37.5185 72.4728 35.09 72.4588 33.6459 70.5996C33.3254 70.189 32.7523 69.8009 32.2501 69.7277C21.1005 68.0824 12.5468 62.5781 6.71387 52.9814C6.44719 52.5427 6.08121 52.0899 6.02731 51.6173C5.97908 51.1983 6.19186 50.5317 6.50393 50.3573C6.79615 50.1942 7.40328 50.4782 7.81465 50.6807C8.02459 50.7848 8.10403 51.1448 8.24871 51.3867C13.7668 60.7133 21.8694 66.1979 32.7352 67.5705C33.9126 67.7195 35.2659 67.6042 35.473 69.3255C35.4985 69.528 36.0915 69.8402 36.3667 69.7924C36.7156 69.7305 37.249 69.3818 37.2802 69.109C37.4277 67.8152 38.3327 67.7561 39.3115 67.6548C47.7092 66.7998 54.7536 63.27 60.3652 57.0175C65.0322 51.817 67.5997 45.6827 68.2721 38.7693C68.36 37.8524 68.5076 37.1465 69.6367 36.9805C69.9488 36.9355 70.3885 36.3364 70.3857 35.9961C70.3828 35.653 69.9289 35.0651 69.6168 35.0229C68.4565 34.8682 68.3629 34.1145 68.2721 33.2201C67.4153 24.7963 63.8463 17.7141 57.4374 12.103C52.2541 7.56343 46.1658 5.02364 39.2888 4.35705C38.2873 4.25861 37.4277 4.15173 37.2688 2.88324C37.2348 2.61323 36.6447 2.19697 36.3553 2.23072C35.9808 2.27291 35.3936 2.65823 35.3453 2.96481C35.1723 4.06735 34.4885 4.2333 33.5523 4.33174C22.6382 5.51022 14.2888 10.736 8.60051 20.0486C6.11809 24.1128 4.80454 28.5849 4.35629 33.3044C4.27685 34.1538 4.17188 34.8514 3.07962 35.0004C2.74768 35.0454 2.23134 35.6361 2.25971 35.9314C2.29659 36.328 2.7335 36.9411 3.08529 37.0086C4.05273 37.1886 4.20025 37.7484 4.35345 38.5696C4.83859 41.1826 5.39465 43.787 6.00745 46.3746C6.19186 47.1481 6.31385 47.8203 5.42018 48.0847C4.52084 48.3519 4.13784 47.7134 3.95627 46.9625C3.40304 44.6477 2.89237 42.3217 2.30511 40.0153C2.18311 39.5428 1.90225 39 1.52208 38.7187C-0.51208 37.2083 -0.506406 34.8036 1.53343 33.2904C1.91359 33.0091 2.23418 32.4578 2.30794 31.9881C4.32224 19.1345 11.1964 9.90633 23.2737 4.74238C26.0909 3.53858 29.2485 3.12794 32.2359 2.29541C32.7523 2.15196 33.3225 1.83414 33.6374 1.4235C35.1155 -0.486264 37.5696 -0.463763 39.042 1.48256C39.3285 1.86227 39.8647 2.21103 40.3329 2.28416C54.0017 4.4133 63.486 11.7683 68.4707 24.5938C69.3927 26.9648 69.6906 29.5721 70.3374 32.0556C70.4594 32.5225 70.8651 32.9247 71.1545 33.3438C71.7418 34.1876 72.3376 35.0229 72.9958 35.9539L72.9986 35.9483Z" fill="black" fill-opacity="0.8"/>
</g>
<defs>
<clipPath id="clip0_1218_56">
<rect width="73" height="72" fill="white"/>
</clipPath>
</defs>
</svg>
