<svg width="34" height="33" viewBox="0 0 34 33" fill="none" xmlns="http://www.w3.org/2000/svg">
<g clip-path="url(#clip0_703_593)">
<path d="M23.5365 21.5331C17.7527 21.5331 13.0631 16.7343 13.0586 10.808C13.0556 4.85666 17.8195 -0.0436789 23.5683 4.62248e-05C29.34 0.0437714 34.0053 4.87228 34.0007 10.7986C33.9977 16.7374 29.3233 21.5316 23.538 21.5331H23.5365ZM22.2313 11.7887C22.2586 11.7933 22.2874 11.7996 22.3148 11.8043C22.3148 12.0385 22.3102 12.2728 22.3148 12.507C22.333 13.3425 22.8095 13.9328 23.4879 13.964C24.1906 13.9968 24.6702 13.3987 24.7658 12.5242C24.7976 12.2337 25.0132 11.8699 25.2529 11.7153C26.6704 10.7939 27.3094 9.23699 26.8647 7.62696C26.3942 5.92168 24.8128 4.88946 23.0007 5.1034C21.4755 5.28454 20.1476 6.76339 20.0595 8.39528C20.0231 9.06208 20.2705 9.58679 20.9216 9.77886C21.5559 9.96626 22.0765 9.73826 22.3709 9.11049C22.465 8.90905 22.4453 8.6545 22.5075 8.43275C22.6775 7.82997 23.0569 7.50984 23.6867 7.58948C24.2498 7.65976 24.5579 8.03767 24.57 8.58267C24.5821 9.16671 24.2528 9.50246 23.6807 9.66799C23.2679 9.78823 22.7579 9.97719 22.5515 10.3067C22.3026 10.7049 22.3284 11.2858 22.2358 11.7871L22.2313 11.7887ZM24.7385 16.447C24.7248 15.7755 24.186 15.2461 23.5183 15.2461C22.8171 15.2461 22.2799 15.8207 22.3148 16.5328C22.3466 17.1809 22.9491 17.7571 23.5653 17.729C24.186 17.7009 24.7521 17.0825 24.7385 16.447Z" fill="white"/>
<path d="M11.1622 6.56349C10.933 8.186 10.7145 9.74293 10.4823 11.392C9.26966 11.392 7.98724 11.3904 6.70331 11.3936C6.42558 11.3936 6.14026 11.3795 5.87315 11.4404C5.22815 11.5856 4.85936 12.012 4.86239 12.7053C4.86391 13.3487 5.3617 13.8609 6.04161 13.8734C7.48338 13.8999 8.92515 13.8999 10.3654 13.8796C10.807 13.8734 11.0544 13.9702 11.1591 14.4668C11.2806 15.0399 11.5143 15.5865 11.7374 16.2611C10.3669 16.2611 9.08299 16.2611 7.80057 16.2611C7.26939 16.2611 6.73821 16.2439 6.20704 16.2689C5.37384 16.308 4.84722 16.8124 4.85481 17.5307C4.86088 18.2553 5.38295 18.7441 6.23132 18.7488C8.35603 18.7628 10.4807 18.7394 12.6039 18.7722C12.9135 18.7769 13.3172 18.919 13.5115 19.147C17.2495 23.5257 21.8525 24.9343 27.313 23.4695C27.3844 23.4508 27.4572 23.4367 27.5301 23.4211C28.0263 25.5464 26.4328 27.9326 24.217 28.3714C23.7739 28.4589 23.3155 28.5041 22.8633 28.5057C20.259 28.5182 17.6532 28.5323 15.0489 28.5057C12.994 28.4838 11.1804 29.1241 9.57319 30.4265C8.72027 31.1183 7.85824 31.8007 7.00987 32.4987C6.38005 33.0156 5.6971 33.164 4.96408 32.8017C4.22953 32.4394 3.90172 31.8101 3.92297 30.9699C3.93966 30.3203 3.96546 29.6644 3.90324 29.021C3.88199 28.7962 3.65131 28.4635 3.45401 28.4058C1.21547 27.7483 0.00286668 26.1336 0.00134903 23.7225C0.00134903 19.5592 -0.00168628 15.3944 0.00134903 11.2311C0.00438433 8.49989 1.87413 6.54162 4.51182 6.52445C6.66081 6.51039 8.81133 6.52445 10.9603 6.52757C11.0347 6.52757 11.1075 6.55412 11.1622 6.56505V6.56349ZM9.99965 21.163C8.73696 21.163 7.47428 21.1536 6.21159 21.1661C5.3784 21.1755 4.85329 21.6674 4.85632 22.3967C4.85936 23.1119 5.39964 23.6444 6.2207 23.6491C8.69447 23.6663 11.1698 23.6663 13.6435 23.6491C14.5177 23.6428 15.0504 23.1119 15.0292 22.3498C15.0079 21.6159 14.4995 21.1724 13.636 21.1646C12.4233 21.1536 11.2123 21.1614 9.99965 21.1614V21.163Z" fill="#194342"/>
</g>
<defs>
<clipPath id="clip0_703_593">
<rect width="34" height="33" fill="white"/>
</clipPath>
</defs>
</svg>
