<svg width="32" height="36" viewBox="0 0 32 36" fill="none" xmlns="http://www.w3.org/2000/svg">
<mask id="mask0_346_55" style="mask-type:alpha" maskUnits="userSpaceOnUse" x="0" y="0" width="32" height="36">
<rect width="32" height="36" fill="#D9D9D9"/>
</mask>
<g mask="url(#mask0_346_55)">
<path d="M2.76454 24.0971C1.99111 23.7708 1.48355 23.1545 1.22977 22.4052C0.383834 19.9762 0.105884 17.4746 0.794718 14.9972C1.56814 12.1935 3.68298 10.5379 6.22079 9.36571C8.5169 8.30224 10.9097 8.22973 13.3025 8.83397C15.2602 9.31737 17.1213 9.16026 18.9823 8.45935C19.6349 8.20556 20.2996 7.96387 20.9642 7.72217C21.1939 7.85511 21.218 8.10889 21.3026 8.3385C21.4114 8.64062 21.5201 8.94274 21.7135 9.19652C22.1365 9.77659 22.7528 9.8491 23.2241 9.31737C23.6712 8.8098 24.1546 8.31433 24.2876 7.61341C24.2997 7.52882 24.3601 7.46839 24.4326 7.43214C26.487 7.35963 28.3964 7.91553 30.2695 8.68896C30.2091 8.93065 29.9674 8.97899 29.7982 9.11192C29.617 9.25694 29.3753 9.40196 29.5324 9.67991C29.6653 9.92161 29.8949 9.8491 30.1124 9.77659C30.5475 9.64366 30.9705 9.6074 31.2726 10.0545C30.3421 11.9035 28.8919 13.0274 26.8012 13.2449C26.3057 13.2933 25.7982 13.2933 25.3027 13.3295C24.2151 13.4141 23.3933 13.8975 23.0428 14.9851C22.7045 16.0365 22.1002 16.9187 21.2905 17.668C21.2301 17.8009 21.1334 17.8976 21.0005 17.958C19.9129 18.4172 18.8857 18.9973 17.8222 19.5049C17.653 19.5774 17.4838 19.6257 17.3026 19.6015C15.6832 19.8191 14.1363 20.2299 12.8312 21.3055C12.5411 21.0034 12.662 20.665 12.7345 20.3387C12.8674 19.662 13.1575 19.0335 13.3146 18.3689C13.8342 16.0849 13.1333 14.393 11.1393 13.1724C9.99125 12.4715 8.7586 12.0123 7.41719 11.8431C7.26009 11.8189 7.10298 11.7948 6.9338 11.8431C6.78878 11.8914 6.68002 11.976 6.66793 12.1331C6.66793 12.2902 6.74044 12.399 6.88546 12.4594C7.05464 12.5319 7.23592 12.544 7.41719 12.5682C8.80694 12.7978 10.1 13.257 11.236 14.1271C12.5532 15.1422 13.0124 16.4474 12.6378 18.0788C12.4565 18.8402 12.1423 19.5653 11.9973 20.3387C11.9006 20.8342 11.8644 21.3417 12.0215 21.8372C12.0215 21.9218 12.0215 22.0064 11.949 22.0547C11.2722 22.4777 10.6076 22.9249 9.80998 23.082C8.57733 23.5412 7.35676 24.0608 6.05161 24.3146C5.65281 24.1092 5.7374 23.6983 5.67698 23.372C5.61655 23.082 5.66489 22.7677 5.5803 22.4777C5.36277 21.7405 4.80687 21.3659 4.03344 21.4626C3.39295 21.5472 2.90956 22.091 2.8733 22.7919C2.86122 23.0094 2.89747 23.227 2.92164 23.4445C2.9579 23.662 2.99415 23.8796 2.81288 24.0608L2.76454 24.0971Z" fill="white"/>
<path d="M2.76534 24.0976C2.72909 23.7351 2.66866 23.3846 2.65658 23.0221C2.59615 22.0553 3.18831 21.3302 4.0705 21.2698C5.0252 21.2093 5.68986 21.8136 5.77446 22.8166C5.81071 23.3363 5.81071 23.8559 6.01615 24.3393C6.137 25.6324 6.49954 26.0674 7.73219 26.3937C9.27905 26.8046 10.8742 26.865 12.4453 26.9375C15.1402 27.0705 17.8351 27.0946 20.5179 27.2276C22.8624 27.3484 25.2068 27.4814 27.4788 28.1702C27.8292 28.279 28.1676 28.3998 28.4939 28.5569C28.8685 28.7503 29.074 29.0645 28.9048 29.4995C28.7356 29.9225 28.3851 30.0917 27.9742 29.9467C25.8231 29.1853 23.5875 29.2095 21.3638 29.2216C17.6901 29.2457 14.0042 29.3182 10.3304 29.3666C9.21862 29.3666 8.13099 29.2216 7.04336 29.0403C4.90435 28.6778 3.70795 27.3605 3.13997 25.3423C3.01912 24.9194 2.91036 24.4964 2.78951 24.0734L2.76534 24.0976Z" fill="#113D3C"/>
<path d="M17.2656 19.6253C18.595 18.9728 19.9243 18.3323 21.2657 17.6797C21.8095 18.9607 22.3533 20.2296 23.2234 21.3293C23.5981 21.8006 24.021 22.1752 24.589 22.3807C25.2053 22.6103 25.6404 23.0453 25.8821 23.6496C26.0634 24.1088 25.8821 24.423 25.3987 24.4351C24.5407 24.4593 23.6706 24.4351 22.8005 24.4351C22.45 24.4351 22.2204 24.2417 22.1116 23.9396C21.314 21.7402 19.5013 20.6646 17.5315 19.7462C17.4469 19.7099 17.3623 19.6495 17.2656 19.6012V19.6253Z" fill="white"/>
<path d="M11.9357 21.8996C11.4764 21.5009 11.6819 20.9691 11.7544 20.522C11.8752 19.7969 12.1049 19.0839 12.3345 18.383C13.1321 15.821 11.7061 14.4675 9.96584 13.5732C9.01114 13.0898 7.99602 12.7877 6.92047 12.7152C6.55793 12.691 6.36457 12.4856 6.38874 12.123C6.41291 11.7484 6.66669 11.6034 7.01715 11.6276C7.92351 11.688 8.8057 11.9055 9.63955 12.2439C10.8843 12.7635 12.0565 13.404 12.8662 14.5521C13.8571 15.9539 13.7726 17.4404 13.2892 18.9751C13.0596 19.7365 12.697 20.4736 12.7937 21.3075C12.6124 21.4646 12.4311 21.6096 12.262 21.7667C12.1774 21.8634 12.0928 21.9842 11.9357 21.8755V21.8996Z" fill="#113D3C"/>
<path d="M11.9366 21.8978C12.0454 21.8616 12.1541 21.8253 12.2629 21.7891C12.5046 22.6108 12.8671 22.8646 13.9669 22.8525C14.7765 22.8525 15.417 23.1184 15.9004 23.7589C16.1059 24.0368 16.2992 24.351 16.13 24.7015C15.9609 25.052 15.5983 25.0157 15.2841 25.0157C13.9548 25.0157 12.6255 25.0157 11.2961 25.0157C10.8369 25.0157 10.5348 24.8707 10.3777 24.4115C10.2085 23.9643 9.97888 23.5293 9.77344 23.0942C10.4985 22.6954 11.2236 22.2845 11.9366 21.8857V21.8978Z" fill="white"/>
<path d="M24.4215 7.42115C24.3973 8.44835 23.6722 9.07676 22.9955 9.69309C22.5967 10.0556 21.9803 9.85019 21.6178 9.37888C21.2311 8.88341 21.1223 8.29125 20.9531 7.71118C20.9652 7.40906 20.9773 7.10694 21.0015 6.81691C21.0619 6.04348 21.4365 5.49966 22.0166 5.33047C22.6087 5.16129 23.4184 5.43924 23.8414 5.99514C24.1677 6.41811 24.3127 6.91358 24.4215 7.43323V7.42115Z" fill="#113D3C"/>
<path d="M31.2511 10.0691C30.8523 9.89989 30.4656 9.70653 30.0184 10.0086C29.7647 10.1778 29.5109 10.057 29.3538 9.81529C29.1725 9.54943 29.2813 9.3319 29.4867 9.12646C29.7042 8.89685 30.0184 8.87268 30.2601 8.69141C30.5018 8.80017 30.7435 8.89685 30.961 9.0177C31.384 9.27148 31.5532 9.60985 31.2632 10.0691H31.2511Z" fill="white"/>
<path d="M25.7489 10.0681C25.3863 10.0802 25.0117 10.0439 25.0117 9.58471C25.0117 9.05298 25.4226 8.98047 25.8577 8.98047C26.2444 8.98047 26.5586 9.07715 26.5465 9.52428C26.5465 10.0681 26.1477 10.0923 25.7368 10.0681H25.7489Z" fill="#113D3C"/>
</g>
</svg>
