<svg width="32" height="36" viewBox="0 0 32 36" fill="none" xmlns="http://www.w3.org/2000/svg">
<mask id="mask0_346_101" style="mask-type:alpha" maskUnits="userSpaceOnUse" x="0" y="0" width="32" height="36">
<rect width="32" height="36" fill="#D9D9D9"/>
</mask>
<g mask="url(#mask0_346_101)">
<path d="M19.7275 18.8272C20.0451 21.3054 19.3114 23.4295 17.625 25.2217C17.3841 25.4762 17.0994 25.6643 16.76 25.7749C16.3657 25.7638 16.092 25.4983 15.8401 25.2328C14.6027 23.9827 14.0333 22.4228 13.7486 20.7301C13.5187 19.3804 13.7596 18.1303 14.4494 16.9797C14.975 16.0946 15.7087 15.4087 16.7271 15.1211C17.3841 15.1432 17.855 15.5415 18.3587 15.8845C19.0705 16.5261 19.4975 17.3448 19.7713 18.252C19.837 18.4511 19.8698 18.6502 19.7275 18.8272Z" fill="white"/>
<path d="M16.7587 15.1904C16.1674 15.5113 15.5761 15.81 15.1162 16.341C14.0431 17.569 13.6707 18.974 13.8788 20.5671C14.0759 22.0275 14.5358 23.3772 15.4228 24.572C15.7951 25.0698 16.255 25.4349 16.7478 25.7889C15.9156 26.143 15.1709 25.9328 14.5139 25.3796C13.1999 24.2733 12.6305 22.7576 12.2691 21.1314C12.1158 20.4454 12.1267 19.7485 12.1815 19.0404C12.1048 18.4983 12.2253 18.0005 12.4881 17.5248C12.74 17.0269 13.0247 16.5512 13.397 16.1308C13.4955 16.0312 13.5941 15.9427 13.6926 15.8653C14.1745 15.4781 14.7001 15.2015 15.3023 15.0688C15.7951 14.9581 16.2988 14.8807 16.7587 15.2015V15.1904Z" fill="white"/>
<path d="M19.7239 18.8318C19.5925 17.6923 19.0012 16.7852 18.2784 15.9554C18.2784 15.9001 18.2456 15.8448 18.2675 15.7895C18.6069 14.6942 18.4317 13.6432 18.0156 12.6143C18.0156 12.4152 18.1251 12.2382 18.1908 12.0612C18.3003 11.9284 18.2346 11.6629 18.5084 11.6629C19.0888 11.2868 19.6034 10.8664 19.8005 10.1473C19.9538 9.58305 20.1509 9.02989 20.2823 8.45461C20.6109 7.06065 21.1803 5.81052 22.1548 4.72633C22.9214 3.8966 23.5674 2.95623 24.2902 2.07118C24.7063 1.57334 25.2319 1.66184 25.5385 2.23712C25.4399 2.56902 25.1662 2.77922 24.9691 3.03367C24.0712 4.16211 23.2061 5.32374 22.2972 6.44112C21.9577 6.85045 21.8154 7.33723 21.673 7.83507C21.4212 8.73119 21.1255 9.6273 20.8846 10.5234C20.7642 10.9659 20.5452 11.32 20.2166 11.6297C19.8224 12.0059 19.4173 12.382 19.1764 12.8909C19.1216 13.0126 18.9902 13.1233 19.0888 13.2892C19.91 13.2892 20.6109 12.8245 21.3883 12.6697C21.9139 12.559 22.2096 12.2603 22.4286 11.7625C22.9871 10.5013 23.6003 9.27328 24.1697 8.03421C24.323 7.70232 24.5311 7.45893 24.8377 7.27085C25.9546 6.58494 27.0606 5.8769 28.1775 5.17992C28.4951 4.98078 28.8017 4.88122 29.1412 5.1246C29.2835 5.50075 28.955 5.60032 28.7469 5.73308C27.9476 6.25304 27.1482 6.75089 26.3269 7.23766C25.878 7.50318 25.5823 7.84614 25.3523 8.31079C24.7829 9.48348 24.2573 10.6783 23.6769 11.8399C23.436 12.3378 23.1185 12.6586 22.5819 12.8135C21.9906 12.9794 21.4102 13.2228 20.8189 13.3888C20.2604 13.5547 19.8662 13.8313 19.8443 14.484C19.8443 14.5836 19.7786 14.65 19.7129 14.7163C19.5925 14.7717 19.472 14.838 19.3187 14.9155C19.4392 14.9376 19.5158 14.9597 19.6034 14.9819C19.8553 15.4576 19.6472 15.9222 19.6034 16.3979C19.4611 16.409 19.3187 16.4201 19.0669 16.4422C19.5377 16.7962 19.9538 17.0949 20.3699 17.3936C20.8956 18.2897 21.6402 18.9757 22.352 19.7058C23.0966 20.4802 23.4689 21.5534 24.1259 22.4052C25.2866 23.943 25.5385 25.7905 25.8889 27.6049C25.9765 28.0364 26.1298 28.4457 26.086 28.8993C25.9327 29.2201 25.648 29.2754 25.3414 29.2091C24.9691 29.1316 24.8377 28.8219 24.772 28.4789C24.5092 27.2177 24.2464 25.9676 24.0055 24.7064C23.9507 24.4298 23.8631 24.1753 23.7207 23.943C22.8885 22.5822 22.0672 21.2104 21.2241 19.8607C20.8846 19.3186 20.348 19.0088 19.7458 18.8318H19.7239Z" fill="white"/>
<path d="M19.6035 16.3966C19.3188 15.9208 19.6582 15.4562 19.6035 14.9805C20.7861 15.0137 21.9688 15.0358 23.1514 15.069C23.3485 15.069 23.5018 15.1685 23.6551 15.257C25.0896 16.1089 26.5132 16.9497 27.9476 17.7905C28.1886 17.9343 28.3857 18.1113 28.5171 18.3658C28.9441 19.1181 29.3821 19.8593 29.8202 20.6005C30.0282 20.9435 30.1049 21.2754 29.7873 21.5962C29.5135 21.386 29.3821 21.0652 29.2507 20.7776C28.7032 19.6602 27.9038 18.8194 26.7979 18.2662C26.1408 17.9343 25.5276 17.5471 24.9035 17.1599C24.345 16.817 23.7756 16.5846 23.1076 16.5957C22.8338 16.4519 22.5491 16.4961 22.2535 16.4851C21.3665 16.4519 20.4795 16.4187 19.5925 16.3855L19.6035 16.3966Z" fill="white"/>
<path d="M19.7109 14.7285C19.7109 13.7328 19.8204 13.589 20.7622 13.2681C21.4192 13.0469 22.0653 12.8145 22.7332 12.6154C23.0727 12.5158 23.2917 12.3167 23.445 11.9959C23.9268 10.9449 24.4962 9.92706 24.9123 8.85393C25.3175 7.80294 26.0402 7.15021 26.982 6.64131C27.5733 6.32047 28.1427 5.95539 28.7012 5.59031C28.8764 5.47968 29.1282 5.42436 29.1282 5.13672C29.5881 5.64562 29.5443 6.0439 28.953 6.42004C28.0441 6.99533 27.1462 7.59274 26.2154 8.12377C25.6898 8.42247 25.3723 8.82074 25.1314 9.36284C24.5619 10.6351 23.9487 11.8852 23.3683 13.1464C23.2369 13.423 23.0836 13.6553 22.777 13.7549C21.7586 14.0757 20.7403 14.4076 19.7219 14.7285H19.7109Z" fill="white"/>
<path d="M23.1086 16.6081C23.4152 16.42 23.7875 16.42 24.0503 16.5638C25.5396 17.4046 27.1383 18.0684 28.3867 19.2632C29.0437 19.8938 29.4488 20.7346 29.7883 21.5976C29.2955 21.9626 28.9123 21.9073 28.6057 21.3984C28.2115 20.7568 27.8391 20.104 27.4778 19.4402C27.3245 19.1747 27.1274 18.9867 26.8646 18.8318C25.6053 18.0905 24.3569 17.3382 23.0977 16.597L23.1086 16.6081Z" fill="white"/>
<path d="M19.0687 13.3008C18.8497 13.1238 18.9592 12.9357 19.0577 12.7587C19.1891 12.5374 19.3096 12.283 19.5067 12.1391C20.536 11.3979 20.8317 10.2695 21.1383 9.12996C21.3245 8.42192 21.5435 7.72494 21.7734 7.02797C21.9705 6.41949 22.4633 6.01016 22.8466 5.52338C23.5912 4.56089 24.3358 3.58733 25.0914 2.62484C25.2118 2.46995 25.387 2.35932 25.5403 2.22656C25.7703 2.65802 25.4418 2.92354 25.2337 3.20012C24.3358 4.36175 23.4269 5.50125 22.5071 6.64076C22.3209 6.87308 22.1895 7.12753 22.1129 7.41518C21.7953 8.51043 21.4559 9.59461 21.1493 10.6788C21.0069 11.1877 20.7879 11.6081 20.3718 11.9621C19.9119 12.3715 19.452 12.7808 19.0796 13.2897L19.0687 13.3008Z" fill="white"/>
<path d="M26.0754 28.9119C25.736 28.0158 25.5717 27.0754 25.4513 26.1461C25.2651 24.73 24.6848 23.5242 23.9073 22.3847C23.1846 21.3226 22.7356 20.0393 21.6625 19.2427C21.0164 18.756 20.6112 18.1475 20.3594 17.4062C21.5639 17.9926 22.418 18.9108 23.0532 20.0946C23.6664 21.2341 24.3891 22.3293 25.068 23.4357C25.1775 23.6127 25.2542 23.7897 25.298 23.9888C25.5827 25.3717 25.8674 26.7546 26.1521 28.1375C26.2069 28.403 26.2835 28.6796 26.0645 28.923L26.0754 28.9119Z" fill="white"/>
<path d="M13.4942 16.173C13.1985 16.6155 12.9028 17.058 12.5962 17.5006C12.432 17.7329 12.2568 17.9431 12.0159 18.0648C11.326 18.4299 10.888 19.0162 10.5047 19.68C9.91341 20.6978 9.31114 21.7045 8.67602 22.6781C8.16136 23.4636 7.8657 24.3044 7.71239 25.2337C7.51529 26.4617 7.14298 27.6565 7.04442 28.9067C6.84732 29.2828 6.51881 29.2939 6.20125 29.1722C5.86179 29.0394 5.71943 28.7296 5.78514 28.3646C6.09174 26.8378 6.2779 25.2669 6.75972 23.7955C7.08822 22.7887 7.87665 21.9479 8.36941 20.9854C9.25639 19.2375 10.4828 17.8435 12.2239 16.9474C12.4648 16.8257 12.6838 16.6487 12.9138 16.5049C13.0562 16.2947 13.1547 16.007 13.5051 16.184L13.4942 16.173Z" fill="white"/>
<path d="M12.9219 13.4091C12.6481 12.8006 12.0896 12.4466 11.6407 12.0151C11.2684 11.6611 10.9946 11.2849 10.8632 10.7871C10.7208 10.2229 10.4799 9.66972 10.3814 9.09444C10.0748 7.23583 8.91403 5.89719 7.78615 4.52536C7.37004 4.01646 6.95392 3.49649 6.57066 2.96546C6.275 2.55612 6.30786 2.12466 6.66922 1.9034C7.05248 1.67107 7.43574 1.67107 7.69855 2.12466C7.6876 2.56719 7.87375 2.92121 8.14751 3.26417C9.00164 4.31516 9.83386 5.38829 10.677 6.43929C10.9289 6.76012 11.1041 7.11414 11.2246 7.51241C11.5421 8.64085 11.8925 9.76929 12.221 10.8867C12.3196 11.2296 12.5276 11.5062 12.7685 11.7607C13.108 12.1257 13.5132 12.4134 13.765 12.8559C13.8088 13.1657 13.7212 13.4201 13.5132 13.6525C13.2613 13.7188 13.0533 13.6635 12.9328 13.4091H12.9219Z" fill="white"/>
<path d="M13.4933 16.1761C13.2196 16.143 13.132 16.4527 12.902 16.497C12.464 16.3089 12.015 16.4417 11.5661 16.4417C11.4566 16.4417 11.347 16.497 11.2375 16.4749C9.50739 16.1983 8.1605 17.0612 6.72601 17.8356C5.22582 18.6432 4.11983 19.7053 3.44091 21.2541C3.38616 21.3869 3.27666 21.4865 3.18905 21.6082C2.90435 21.2209 3.0248 20.8337 3.21095 20.4686C3.60517 19.7164 4.05413 19.0083 4.47024 18.2671C4.6345 17.9684 4.8754 17.7582 5.17106 17.5922C6.27705 16.9506 7.37208 16.2757 8.46711 15.623C8.83942 15.4017 9.21173 15.1583 9.6388 15.0588C10.5148 15.0256 11.4018 14.9924 12.2778 14.9592C12.4202 14.9592 12.5735 14.9924 12.672 14.8486C12.902 14.7158 13.132 14.7933 13.351 14.8818C13.6685 15.1694 13.6795 15.5566 13.6795 15.9438C13.6138 16.0213 13.5481 16.0987 13.4714 16.1651L13.4933 16.1761Z" fill="white"/>
<path d="M13.3619 14.9562C13.1319 14.9672 12.9019 14.9562 12.6829 14.8566C11.5222 14.4805 10.3615 14.1154 9.20074 13.7392C8.89413 13.6397 8.75177 13.3963 8.62037 13.1197C7.9743 11.7368 7.31728 10.365 6.68216 8.98208C6.55076 8.7055 6.3865 8.4953 6.1237 8.34042C5.09436 7.70982 4.07598 7.06816 3.0576 6.42649C2.55389 6.10566 2.43343 5.70739 2.67434 5.32018C2.9262 4.92191 3.35326 4.88872 3.85698 5.23167C3.83508 5.92865 4.21834 6.31586 4.79871 6.62563C5.55428 7.0239 6.24415 7.55493 6.98877 7.97533C7.58009 8.30723 7.9524 8.78294 8.21521 9.40248C8.71892 10.5862 9.29929 11.7368 9.83586 12.8984C10.033 13.3299 10.3396 13.5843 10.7885 13.7392C11.4784 13.9716 12.1792 14.1596 12.8691 14.403C13.0772 14.4694 13.2962 14.5136 13.4166 14.7349C13.4385 14.8234 13.4385 14.9009 13.3728 14.9672L13.3619 14.9562Z" fill="white"/>
<path d="M13.3514 14.7376C12.4425 14.4389 11.5227 14.1291 10.6029 13.8415C10.1868 13.7087 9.92397 13.4654 9.73781 13.0781C9.17934 11.8501 8.57707 10.6332 8.02956 9.38305C7.7777 8.81883 7.42729 8.4095 6.90167 8.09973C6.00375 7.57976 5.12772 7.0266 4.25169 6.47345C3.69323 6.11943 3.61658 5.87604 3.82463 5.23438C4.97442 5.94242 6.1242 6.66152 7.27399 7.36956C7.50394 7.51338 7.6463 7.71252 7.7558 7.95591C8.39092 9.30561 9.02604 10.6443 9.65021 12.005C9.79256 12.3037 9.96777 12.5029 10.2963 12.6024C11.1723 12.8569 12.0374 13.1445 12.9025 13.4211C13.0777 13.4985 13.2638 13.576 13.439 13.6424C13.6471 14.0296 13.5595 14.3947 13.3295 14.7376H13.3514Z" fill="white"/>
<path d="M9.65054 15.0696C8.21605 15.9436 6.80346 16.8287 5.35801 17.6695C4.97475 17.8907 4.70099 18.1673 4.49294 18.5435C4.17538 19.1188 3.89067 19.7162 3.51836 20.2583C3.2227 20.6897 3.16795 21.1322 3.21175 21.619C2.89419 21.9399 2.55473 21.9177 2.23717 21.6522C1.94151 21.3867 1.91961 21.0437 2.11672 20.7008C2.58758 19.871 3.0694 19.0524 3.55121 18.2226C3.67166 18.0235 3.84687 17.9129 4.04398 17.7912C5.47847 16.9504 6.91296 16.1096 8.3365 15.2467C8.76357 14.9922 9.21253 15.0586 9.66149 15.0586L9.65054 15.0696Z" fill="white"/>
<path d="M13.9209 12.525C13.8552 12.6356 13.7786 12.7573 13.7129 12.868C12.7383 12.1046 12.0046 11.1974 11.7528 9.93623C11.5776 9.06224 11.2819 8.19932 11.0191 7.34746C10.7782 6.57304 10.1431 6.06413 9.6722 5.43353C9.05898 4.61486 8.39101 3.84044 7.76684 3.03283C7.55879 2.76732 7.43833 2.45755 7.70114 2.13672C8.79618 3.50855 9.90216 4.86931 10.9862 6.24114C11.0957 6.3739 11.1286 6.57304 11.1833 6.75005C11.4571 7.65723 11.7966 8.5644 11.9937 9.49371C12.2017 10.4783 12.7273 11.1753 13.4829 11.7616C13.8552 11.8944 13.8552 12.2374 13.9209 12.5361V12.525Z" fill="white"/>
<path d="M7.03251 28.91C6.8792 28.6556 6.89015 28.4011 6.95585 28.1135C7.24056 26.7969 7.51432 25.4694 7.77713 24.1529C7.90853 23.478 8.3356 22.9691 8.67506 22.4159C9.37588 21.2322 10.0876 20.0706 10.8104 18.9089C11.2374 18.2341 11.993 17.9686 12.5953 17.5039C12.4529 18.0128 12.3215 18.5217 12.1792 19.0306C12.1463 18.9642 12.1354 18.7872 12.0259 18.8647C11.5988 19.1634 11.0841 19.3404 10.7885 19.8161C9.95624 21.1879 9.11307 22.5598 8.28084 23.9316C7.85378 24.6396 7.88663 25.4804 7.67858 26.2548C7.43767 27.1288 7.41577 28.0581 7.04346 28.91H7.03251Z" fill="white"/>
<path d="M16.7576 15.1931C16.2539 15.171 15.7393 15.0825 15.2356 15.1931C14.9399 15.171 14.907 14.9165 14.8961 14.7174C14.8304 13.6 15.356 12.1286 16.5277 11.5091C16.5934 11.4759 16.67 11.4648 16.7357 11.4648C16.7905 11.4648 16.8452 11.498 16.9 11.5312L17.0533 11.6308C17.5789 11.6861 17.9074 11.9737 18.0717 12.5269C18.6411 13.6332 18.8601 14.7727 18.2797 15.9565C17.776 15.6799 17.3161 15.3369 16.7467 15.1931H16.7576Z" fill="#113D3C"/>
<path d="M13.3516 14.7389C13.3844 14.3738 13.4282 14.0087 13.4611 13.6436C13.5487 13.3892 13.6253 13.1347 13.7129 12.8803C13.691 12.6922 13.7786 12.5484 13.8662 12.4046C14.1947 12.0395 14.2933 11.6523 14.1509 11.1434C14.0414 10.734 13.9648 10.2694 14.2495 9.87109C14.4575 10.4464 14.567 11.0438 14.9284 11.5638C15.1365 11.4421 14.9613 11.2097 15.1036 11.088C15.2131 11.2319 15.2569 11.4863 15.5307 11.265C15.6511 11.1655 15.8373 11.1765 16.0125 11.1765C16.2863 11.254 16.6367 11.1434 16.7571 11.5416C15.3664 12.1612 14.797 14.1525 15.1146 15.0155C15.1365 15.0818 15.1912 15.1371 15.2241 15.1925C14.6656 15.3473 14.1947 15.7014 13.691 15.9669C13.4392 15.6792 13.5268 15.281 13.3625 14.9712C13.3625 14.8938 13.3625 14.8163 13.3625 14.7499L13.3516 14.7389Z" fill="#113D3C"/>
<path d="M13.9225 12.5277C13.7801 12.2732 13.6268 12.0077 13.4844 11.7533C13.2216 10.7686 13.145 9.78401 13.5721 8.81046C13.6268 8.68876 13.6706 8.57813 13.7254 8.4675C13.7911 8.35687 13.8787 8.24624 14.021 8.27942C14.1853 8.31261 14.24 8.43431 14.24 8.61132C14.24 9.03172 14.24 9.45212 14.24 9.87252C14.24 10.4478 14.1853 11.0231 14.4043 11.5984C14.5795 12.063 14.0758 12.229 13.9006 12.5387L13.9225 12.5277Z" fill="#113D3C"/>
<path d="M18.0731 12.5299C17.7884 12.1648 17.4708 11.8329 17.0547 11.6338C17.5256 10.7045 17.8541 9.75304 17.7555 8.69097C17.7446 8.52503 17.7555 8.34802 17.9526 8.2927C18.1607 8.23739 18.2483 8.39227 18.314 8.54715C18.4673 8.90117 18.6315 9.24413 18.6425 9.6424C18.752 10.1071 18.6425 10.5385 18.4673 10.9589C18.303 11.3351 18.2045 11.7001 18.303 12.1095C18.2811 12.2754 18.2045 12.4303 18.084 12.552L18.0731 12.5299Z" fill="#113D3C"/>
<path d="M15.9912 11.3098C15.827 11.343 15.6737 11.3651 15.5094 11.4094C15.1919 11.5089 15.0824 11.3762 15.1043 11.0775C15.3561 10.3473 15.827 10.1592 16.4621 10.5132C16.3416 10.8009 16.2102 11.0775 15.9912 11.2987V11.3098Z" fill="#113D3C"/>
<path d="M18.2917 12.0843C18.007 11.7634 18.0398 11.4426 18.226 11.0775C18.4669 10.6239 18.6202 10.1372 18.6311 9.61719C18.8392 10.3142 18.6749 10.978 18.4997 11.6528C18.434 11.7966 18.3683 11.9404 18.2917 12.0843Z" fill="#113D3C"/>
<path d="M15.9922 11.3128C16.0688 11.0031 16.1126 10.6712 16.4631 10.5273C16.8901 10.7375 16.923 11.1248 16.8901 11.5341C16.8463 11.5341 16.8025 11.5341 16.7587 11.5341C16.5178 11.3903 16.255 11.335 15.9922 11.3128Z" fill="#113D3C"/>
</g>
</svg>
