<svg width="32" height="36" viewBox="0 0 32 36" fill="none" xmlns="http://www.w3.org/2000/svg">
<mask id="mask0_396_67" style="mask-type:alpha" maskUnits="userSpaceOnUse" x="0" y="0" width="32" height="36">
<rect width="32" height="36" fill="#D9D9D9"/>
</mask>
<g mask="url(#mask0_396_67)">
<path d="M29.6552 13.2063C29.6632 15.5601 28.7331 17.4574 27.3148 19.1782L27.5111 19.3374L29.9087 19.1583C29.9445 19.2087 29.9803 19.2605 30.0148 19.3109C29.5106 19.7886 29.0011 20.2622 28.5049 20.7478C27.9198 21.3197 27.9304 21.3887 28.5978 21.8079C29.0993 22.1224 29.6022 22.4342 30.2231 22.8216C29.4735 23.0817 28.8525 23.3218 28.2143 23.5115C27.6836 23.6694 27.6014 23.8883 28.0167 24.2705C28.5991 24.8065 29.1789 25.3452 29.8437 25.9608C29.1312 26.2262 28.6004 26.4225 28.0711 26.6229C27.2949 26.9148 27.2843 26.9586 27.8176 27.5742C28.4001 28.2469 28.7185 29.0217 28.7345 30.0566C28.2475 29.7448 27.8322 29.4888 27.4276 29.2168C27.007 28.9328 26.804 28.9819 26.7814 29.5405C26.731 30.797 26.2799 31.8956 25.3777 32.8495C25.1282 32.2671 24.9226 31.7138 24.6585 31.191C24.2937 30.4679 24.1796 30.4666 23.6953 31.0995C22.7771 32.3016 21.595 33.0724 19.975 33.3869C21.2885 31.5612 21.0298 29.6586 20.6251 27.7546C20.5057 27.1934 20.5481 26.7091 20.779 26.1691C21.8962 23.558 21.6441 20.911 20.8904 18.2627C20.3544 16.3774 19.7321 14.5106 19.3288 12.5973C18.4889 8.61296 20.036 5.44988 22.9974 2.71403C23.0797 3.13993 23.1287 3.47561 23.2163 3.80067C23.2628 3.97581 23.3755 4.13502 23.4591 4.30087C23.6064 4.16952 23.8067 4.0647 23.8943 3.90151C24.7262 2.34783 26.0172 1.54645 27.8906 1.42969C27.2949 2.72862 27.2949 3.99836 27.6133 5.28403C27.872 6.33087 27.7394 7.34321 27.3267 8.32504C27.198 8.62888 27.0176 8.91281 26.9021 9.22063C26.8504 9.35994 26.8982 9.53641 26.9008 9.69562C27.0547 9.65449 27.2577 9.66113 27.3533 9.56427C27.8628 9.04682 28.3457 8.50416 28.8379 7.96946C28.9282 8.00926 29.0184 8.0504 29.1086 8.0902C28.9799 8.93669 28.9574 9.81769 28.6986 10.6217C28.351 11.7031 27.8163 12.7247 27.3771 13.7782C27.2869 13.9958 27.2617 14.2399 27.2073 14.4721C27.4435 14.4057 27.7035 14.3792 27.9132 14.2638C28.4824 13.9467 29.0317 13.5898 29.6526 13.209L29.6552 13.2063Z" fill="white"/>
<path d="M8.26172 21.1342C7.91675 20.3315 7.60097 19.5938 7.24805 18.7712C10.0343 17.3754 12.0709 15.1862 12.9188 11.9023C13.2425 12.3282 13.5357 12.6984 13.8104 13.0819C17.4086 18.0879 19.5634 23.6644 20.3979 29.7637C20.7588 32.4 18.5669 35.0178 15.8802 35.0815C13.8926 35.1279 11.9024 35.0974 9.91358 35.0894C9.2117 35.0868 8.75661 34.6728 8.75794 34.085C8.75927 33.4959 9.20905 33.1125 9.92154 33.1032C10.3634 33.0966 10.8065 33.1218 11.247 33.0939C11.4712 33.0793 11.6915 32.9825 11.9131 32.9214C11.8361 32.7251 11.7897 32.5088 11.6769 32.3363C10.7773 30.9578 10.0184 29.5049 9.77957 27.8663C9.64159 26.919 9.58719 25.9199 9.72783 24.9792C10.037 22.9161 11.6596 21.852 13.8515 22.124C13.8953 22.1293 13.9404 22.1479 13.9829 22.1426C14.2628 22.1041 14.5428 22.0616 14.8227 22.0205C14.5879 21.8785 14.3636 21.645 14.1169 21.6158C13.7255 21.572 13.5769 21.3849 13.5291 21.0453C13.4442 20.4575 13.3805 19.8644 13.2744 19.2807C13.2107 18.937 13.1112 18.5934 12.9692 18.2749C12.8909 18.0985 12.6919 17.9764 12.5486 17.8291C12.4385 17.9777 12.2846 18.1104 12.2235 18.2763C11.8414 19.3138 11.1382 20.0237 10.1126 20.423C9.47706 20.6698 8.84153 20.9126 8.26437 21.1355L8.26172 21.1342Z" fill="white"/>
<path d="M6.89325 14.8663C6.76322 14.3502 6.79374 13.9495 7.33242 13.5966C7.94009 13.1972 7.94673 12.3786 7.45979 11.8492C6.97286 11.3198 6.12238 11.3278 5.6381 11.8638C5.15382 12.3998 5.16709 13.2105 5.79068 13.6032C6.32804 13.9429 6.29354 14.3515 6.20995 14.9406C5.83314 14.8929 5.44837 14.869 5.07554 14.7907C3.74344 14.5161 2.58515 13.9004 1.64047 12.9226C0.820509 12.0734 0.503404 11.0571 0.744881 9.88289C1.02351 8.52293 1.39368 7.17092 1.53698 5.79636C1.64578 4.74289 1.4587 3.66022 1.41491 2.5895C1.39634 2.13043 1.41226 1.67003 1.41226 1C1.73998 1.29853 1.96421 1.43386 2.09158 1.63155C2.70323 2.57358 3.30427 3.52356 3.87346 4.49213C4.07514 4.83709 4.28742 4.99233 4.70138 4.98304C5.93796 4.95518 7.17718 4.9565 8.41376 4.98304C8.82772 4.99233 9.03868 4.83444 9.23902 4.48682C9.77903 3.55143 10.3615 2.64257 10.9386 1.72841C11.0859 1.49489 11.273 1.28791 11.4415 1.06767C11.5423 1.1141 11.6445 1.16054 11.7453 1.20698C11.6737 2.22331 11.5821 3.2383 11.537 4.25596C11.5118 4.81852 11.4959 5.39567 11.5888 5.94762C11.817 7.29432 12.1765 8.62111 12.3517 9.97312C12.4353 10.6179 12.3543 11.357 12.1115 11.9593C11.4534 13.5913 8.70831 15.0667 6.89458 14.865L6.89325 14.8663ZM11.0289 9.30308C10.9731 8.88116 10.7556 8.56141 10.2434 8.55477C9.73127 8.54946 9.45264 8.86259 9.44866 9.33891C9.44468 9.79134 9.74719 10.0978 10.1956 10.1164C10.6746 10.1363 10.9731 9.85901 11.0302 9.30308H11.0289ZM2.09158 9.32431C2.1274 9.84442 2.42062 10.131 2.89827 10.1164C3.38122 10.1005 3.68241 9.76614 3.65852 9.28716C3.63597 8.85197 3.3653 8.54814 2.88235 8.55344C2.37551 8.55875 2.13006 8.84799 2.09291 9.32431H2.09158Z" fill="#113D3C"/>
<path d="M3.14062 20.9902C3.79872 21.2436 4.33474 21.3856 4.79779 21.6549C5.03529 21.7942 5.19185 22.1432 5.29003 22.4298C5.37097 22.6686 5.29003 22.9578 5.3232 23.2192C5.42006 23.9622 6.08478 24.5155 6.79462 24.4677C7.49517 24.42 8.15724 23.8309 8.07365 23.1263C7.94097 22.0158 8.43719 21.5448 9.43096 21.2662C10.7312 20.9026 11.8802 20.2631 12.6657 19C12.7824 19.8306 12.8992 20.6598 13.0213 21.5209C12.8236 21.5474 12.6285 21.5647 12.4375 21.5992C10.5494 21.9442 9.45352 23.0879 9.14835 24.9865C8.75297 27.449 9.5172 29.6436 10.6728 31.7532C10.7883 31.9654 10.9064 32.1751 11.0218 32.3874C11.0311 32.4033 11.0218 32.4298 11.0218 32.5479C9.79981 32.5744 8.32043 32.268 8.1851 34.2343C6.64867 33.6226 5.53416 32.6076 4.7832 31.2039C3.83719 29.4352 3.5997 27.522 3.78677 25.553C3.93007 24.0378 3.93405 22.5532 3.14062 20.9902Z" fill="white"/>
<path d="M3.24719 22.293C3.24719 23.3584 3.30425 24.2991 3.23525 25.2305C3.10257 26.9898 3.20208 28.712 3.80578 30.3838C4.48908 32.2771 5.73228 33.6769 7.5354 34.5751C7.69196 34.6534 7.84587 34.7396 7.99845 34.8245C8.01172 34.8312 8.01039 34.8644 8.0356 34.9559C7.67073 35.0023 7.31382 35.0833 6.95691 35.0859C5.05694 35.0992 3.15697 35.0952 1.25833 35.0912C0.455618 35.0899 -0.0180483 34.6932 0.000526813 34.0577C0.0191019 33.4487 0.466232 33.1077 1.25568 33.1024C1.72005 33.0997 2.1831 33.1117 2.64748 33.0984C3.22995 33.0811 3.31486 32.9166 2.98184 32.4231C2.03981 31.018 1.32201 29.5187 0.991643 27.8496C0.743532 26.5944 0.722303 25.3473 1.20393 24.1385C1.54226 23.2881 2.08625 22.63 3.24852 22.2956L3.24719 22.293Z" fill="white"/>
<path d="M0.811565 13.4258C1.63816 15.0843 2.71817 16.5146 4.20816 17.6039C4.70438 17.9661 5.23377 18.2925 5.77776 18.5791C6.96524 19.2066 7.57291 20.1619 7.55832 21.5099C7.55301 22.0181 7.56628 22.5263 7.55301 23.0331C7.53974 23.5585 7.2306 23.8783 6.73438 23.8982C6.22489 23.9194 5.93299 23.5797 5.86533 23.0795C5.83879 22.8845 5.84808 22.6828 5.85339 22.4838C5.87329 21.774 5.52302 21.3162 4.88615 21.0575C4.4576 20.8837 4.02904 20.7099 3.58987 20.5666C2.03222 20.0571 1.16715 18.9996 0.888519 17.381C0.662964 16.0688 0.58601 14.7672 0.810239 13.4258H0.811565Z" fill="white"/>
<path d="M11.7607 13.5248C11.0018 15.093 10.0253 16.2513 8.77541 17.1827C6.90596 18.5759 6.41637 18.5719 4.55886 17.1801C3.35678 16.2805 2.36699 15.1236 1.7832 13.8923C5.17715 16.1651 8.44106 16.0523 11.7607 13.5234V13.5248Z" fill="white"/>
<path d="M6.68527 11.9023C6.86439 12.1558 7.20272 12.4224 7.1815 12.6573C7.15894 12.9027 6.79009 13.2942 6.57382 13.2942C6.33765 13.2942 5.9489 12.9372 5.91441 12.6944C5.88124 12.4609 6.21559 12.1757 6.38807 11.913C6.48758 11.9103 6.58709 11.9063 6.6866 11.9037L6.68527 11.9023Z" fill="#113D3C"/>
</g>
</svg>
