<svg width="54" height="74" viewBox="0 0 54 74" fill="none" xmlns="http://www.w3.org/2000/svg">
<g clip-path="url(#clip0_1218_84)">
<path d="M19.6839 18.1181C19.6839 15.995 19.4519 13.8807 19.7448 11.8386C20.0667 9.5912 21.6558 7.9859 23.5524 6.79711C23.9497 6.54836 24.7472 6.47605 25.072 6.71322C25.3562 6.92148 25.42 7.74582 25.2634 8.18547C24.2716 10.968 25.0198 13.603 25.8782 16.2178C25.9652 16.4781 26.6467 16.6921 27.0352 16.6661C27.4151 16.6401 28.0154 16.3595 28.1053 16.0616C28.9231 13.4323 29.6394 10.7887 28.5751 8.0235C28.4301 7.65037 28.6099 6.89545 28.9057 6.68141C29.2073 6.46448 29.9265 6.53968 30.3064 6.75661C33.534 8.5962 35.1928 12.4778 34.4069 16.1888C34.2706 16.8367 34.1169 17.4789 33.9719 18.1239C34.0792 18.202 34.1894 18.2801 34.2967 18.3582C35.4509 17.0392 36.7008 15.7868 37.7419 14.384C40.3518 10.861 41.5466 6.7595 42.3818 2.52787C42.4833 2.01013 42.4572 1.41429 42.7153 0.9891C42.9676 0.569697 43.5012 0.320948 43.9101 -0.000111764C44.2001 0.430861 44.7684 0.887865 44.7278 1.28413C44.5742 2.75927 44.2987 4.23441 43.9275 5.67484C42.1498 12.5617 39.7022 16.4607 34.4301 20.9324C36.0686 25.9392 35.5582 28.2705 31.9942 31.9266C32.1943 32.4298 32.4002 32.9534 32.6495 33.5839C35.3697 32.2563 38.0638 30.9894 40.6969 29.6097C41.0942 29.4015 41.3117 28.6928 41.4422 28.1722C41.9642 26.0752 42.4862 23.9724 42.8719 21.8464C43.0633 20.7965 43.507 20.0965 44.4436 19.6106C45.2962 19.1651 46.056 18.5259 46.9318 18.147C47.2943 17.9908 48.1817 18.173 48.2571 18.3958C48.405 18.8296 48.1585 19.4023 48.0541 19.9143C48.0396 19.9808 47.912 20.0444 47.8221 20.0763C45.2556 20.97 44.609 23.0902 44.2842 25.4649C44.1479 26.4599 43.6926 27.4202 43.6259 28.4123C43.4983 30.3415 42.4804 31.3712 40.7578 32.103C38.3219 33.1414 35.9584 34.3562 33.6152 35.5913C33.2092 35.8053 32.8177 36.5111 32.8293 36.9796C32.896 39.4324 33.128 39.6725 35.4393 40.3378C38.635 41.2576 41.8221 42.2005 45.0323 43.0624C46.056 43.3372 46.6795 43.8231 47.0652 44.8471C48.028 47.4069 49.1126 49.9233 50.1885 52.5641C51.0149 52.3616 51.7863 52.0637 52.5693 52.0261C53.0333 52.0029 53.5147 52.3963 53.9903 52.6017C53.7119 53.0847 53.5437 53.8107 53.129 54.0045C52.1807 54.447 51.1164 54.6495 50.0899 54.9098C49.1619 55.147 48.666 54.6669 48.3354 53.8367C47.3407 51.3348 46.3576 48.827 45.2585 46.3714C45.0091 45.816 44.3857 45.2375 43.8115 45.0524C41.0623 44.1644 38.2726 43.4037 35.4944 42.6083C35.2305 42.5331 34.9434 42.5389 34.6244 42.5042C35.0594 43.8202 35.3958 45.0669 35.9004 46.2412C36.0628 46.6172 36.6312 46.9383 37.072 47.0511C38.1885 47.3374 39.3368 47.6122 40.4823 47.6701C42.1208 47.754 42.5268 48.6593 42.6834 50.0939C43.1329 54.1578 43.7361 58.2072 44.1856 62.2711C44.3306 63.5756 44.9395 64.4896 45.853 65.3226C46.3866 65.8114 46.955 66.3089 47.3146 66.9192C47.5756 67.3618 47.5147 67.9923 47.5959 68.539C47.0072 68.4956 46.2445 68.6749 45.853 68.3741C43.3446 66.4535 41.8801 64.0326 41.7525 60.7034C41.6278 57.4465 40.9956 54.207 40.6012 50.9588C40.5084 50.2067 40.2735 49.7411 39.3774 49.6832C38.4349 49.6225 37.5041 49.3506 36.8719 49.2291C36.3789 53.5475 36.0309 57.7994 35.3552 62.0021C35.0072 64.154 34.1169 66.2308 33.3745 68.3076C33.07 69.1551 32.5626 69.9505 32.0522 70.7025C29.0652 75.0874 24.898 75.1048 21.9168 70.7025C19.5679 67.2316 18.5587 63.2574 18.0309 59.182C17.6046 55.9019 17.4625 52.5843 17.1957 49.2869C13.4316 49.7555 13.4751 49.7584 13.0633 53.5533C12.7008 56.9027 12.2861 60.2464 11.7612 63.5727C11.6307 64.4028 11.0942 65.23 10.5635 65.9184C9.89073 66.7919 9.10194 67.6105 8.22906 68.2787C7.80276 68.6026 7.07198 68.5332 6.48039 68.6402C6.53838 68.0559 6.59058 67.4717 6.66308 66.8874C6.67178 66.8093 6.77618 66.7312 6.85448 66.6763C9.36874 64.8829 9.94003 62.2566 10.1865 59.3931C10.4707 56.0871 10.9956 52.8041 11.3813 49.5068C11.506 48.4424 11.9961 47.8205 13.0952 47.7453C13.1445 47.7424 13.1909 47.7308 13.2402 47.7279C16.6592 47.6903 19.0633 46.461 19.0749 42.4839C16.636 43.1666 14.087 44.0025 11.477 44.5723C9.67323 44.9657 8.69015 45.8681 8.13046 47.6093C7.45477 49.7092 6.48329 51.7108 5.6916 53.776C5.28561 54.8375 4.63602 55.1788 3.55143 54.8231C2.63795 54.5222 1.65197 54.395 0.79358 53.9871C0.407887 53.8049 0.254189 53.1281 -0.00390625 52.6769C0.448486 52.4397 0.909579 52 1.35617 52.0145C2.10726 52.0376 2.84965 52.35 3.78343 52.5872C4.64182 50.4989 5.6539 48.425 6.34409 46.247C6.99368 44.1992 8.12466 43.1261 10.2851 42.6719C13.2953 42.0414 16.1981 40.9191 19.1967 40.2134C21.2063 39.739 20.7974 38.1135 21.1657 36.8495C21.5079 35.6694 20.4176 35.5797 19.7448 35.2442C17.332 34.038 14.925 32.8088 12.4659 31.7067C11.3291 31.1977 10.7578 30.463 10.5403 29.2626C10.1778 27.2784 9.66163 25.3231 9.27014 23.3418C9.05264 22.2427 8.64375 21.3692 7.53597 20.9006C7.01108 20.6779 6.41949 20.3944 6.10049 19.9606C5.796 19.5469 5.8076 18.9048 5.68 18.3639C6.19329 18.3003 6.80518 18.0284 7.20247 18.2135C8.24356 18.7024 9.23534 19.3329 10.1517 20.03C10.5635 20.3424 10.8883 20.918 11.0159 21.4299C11.5727 23.6687 12.0599 25.9248 12.5413 28.1809C12.7211 29.0255 13.0691 29.6068 13.9304 29.9973C16.3837 31.108 18.7849 32.3286 21.2817 33.5434C21.5137 32.9649 21.7225 32.4501 21.9951 31.7704C21.6587 31.4927 21.1396 31.2526 20.9627 30.8593C20.7481 30.382 20.8235 29.7746 20.7742 29.225C21.3252 29.2655 22.056 29.0949 22.3982 29.3812C23.7815 30.5498 25.2576 31.2989 27.1164 31.2468C30.3731 31.1572 32.9743 28.7189 33.1164 25.5661C33.2817 21.8725 31.072 19.2635 27.4151 18.8354C24.4804 18.4941 21.5166 20.7531 20.8931 23.8133C20.8728 23.9087 20.8641 24.0042 20.8409 24.0967C20.6728 24.8459 20.5916 25.8004 19.5244 25.6413C18.4021 25.4707 18.4891 24.4901 18.6602 23.6831C18.8574 22.7547 19.2054 21.8551 19.5099 20.863C13.5621 16.3739 10.81 10.0511 9.46444 2.95306C9.35714 2.38615 9.15704 1.78163 9.26434 1.24942C9.35714 0.789522 9.82983 0.407721 10.1343 -0.00878906C10.5345 0.329626 11.1667 0.598622 11.2885 1.01513C11.6974 2.39193 11.8743 3.83815 12.2223 5.23519C13.4229 10.0424 15.4847 14.3811 19.2431 17.7681C19.4171 17.9243 19.6143 18.0545 19.6839 18.1094V18.1181ZM20.1798 59.0576C20.4524 60.2695 20.6264 61.4005 20.983 62.4735C21.1135 62.8669 21.6326 63.3095 22.0473 63.402C25.3388 64.1367 28.6505 64.128 31.9478 63.3933C32.2697 63.321 32.722 63.0781 32.8061 62.8149C33.1947 61.6 33.4731 60.3476 33.7892 59.1125C33.4934 59.0315 33.4006 58.9795 33.3165 58.9911C32.4582 59.1039 31.4055 59.4162 31.1938 58.2043C30.9995 57.0849 32.1189 57.0936 32.8438 56.7841C33.3281 56.5759 34.0792 56.2577 34.1285 55.9048C34.2938 54.7652 34.1894 53.5851 34.1894 52.3847C29.2711 53.6256 24.463 53.5851 19.5012 52.3385C19.5824 53.4347 19.7332 54.3863 19.7013 55.3321C19.6694 56.2548 20.0667 56.6424 20.9134 56.7697C22.4823 57.0097 24.0396 57.325 25.6143 57.5159C26.4263 57.6143 27.1976 57.8052 26.9511 58.7278C26.8438 59.1328 25.9913 59.6129 25.4896 59.5956C23.8134 59.5377 22.1459 59.2716 20.174 59.0518L20.1798 59.0576ZM20.609 45.038C20.3103 46.49 19.9739 47.8697 19.7825 49.2725C19.7419 49.5762 20.1711 50.172 20.4901 50.2617C24.811 51.4852 29.1551 51.4794 33.476 50.2501C33.7921 50.1605 34.2242 49.5733 34.1807 49.2783C33.9806 47.8812 33.6355 46.5073 33.3281 45.0495C29.0101 46.6924 24.9183 46.7214 20.606 45.038H20.609ZM30.9415 39.2965H22.9666C22.6041 40.3869 22.1749 41.6856 21.7167 43.0624C25.3156 44.6128 28.7607 44.581 32.2204 43.0248C31.7419 41.6307 31.3098 40.3696 30.9444 39.2965H30.9415ZM21.8327 65.9155C23.071 67.7233 24.1527 69.5022 25.4461 71.1161C26.2929 72.1748 27.4992 72.0851 28.5374 71.2318C30.2397 69.8348 30.9473 67.8593 31.7593 65.9184H21.8356L21.8327 65.9155ZM23.7235 33.2542C23.6684 33.7922 23.651 34.5818 23.4973 35.3425C23.2595 36.5313 23.8018 37.0982 24.898 37.1127C26.464 37.1358 28.0357 37.0693 29.5988 36.9652C29.9033 36.9449 30.4311 36.5747 30.4311 36.3664C30.4311 35.2558 30.2977 34.1451 30.2252 33.2513H23.7206L23.7235 33.2542ZM23.7206 17.2764C23.2711 15.1042 22.8535 13.0968 22.4011 10.9159C21.1019 13.3571 21.3484 15.6103 22.3576 17.9677C22.897 17.6929 23.3175 17.4818 23.7206 17.2764ZM31.5824 18.0053C32.522 15.567 32.8061 13.3398 31.5128 10.9564C31.0575 13.1576 30.6399 15.1649 30.2078 17.2475C30.6051 17.4673 31.0169 17.6958 31.5795 18.0082L31.5824 18.0053Z" fill="black" fill-opacity="0.8"/>
</g>
<defs>
<clipPath id="clip0_1218_84">
<rect width="54" height="74" fill="white"/>
</clipPath>
</defs>
</svg>
