<svg width="33" height="36" viewBox="0 0 33 36" fill="none" xmlns="http://www.w3.org/2000/svg">
<path d="M22.8088 23.2384C21.7512 26.1259 19.9953 28.2133 16.7855 28.366C13.212 28.5355 11.2202 26.3803 10.0377 23.2199C9.08344 24.0108 8.54078 24.9373 8.42978 26.1367C8.30182 27.515 8.12453 28.8886 7.92103 30.2576C7.8717 30.5875 7.70674 30.9636 7.47087 31.1903C5.97084 32.6317 4.43536 34.0361 2.91221 35.4529C2.553 35.7859 2.14446 36.0943 1.72051 35.6318C1.28885 35.16 1.66501 34.7977 2.01959 34.4694C3.3562 33.2299 4.71594 32.012 6.0063 30.7262C6.35163 30.3809 6.60755 29.8444 6.69234 29.3588C6.92359 28.0222 7.00838 26.6609 7.21342 25.3181C7.38762 24.185 7.98578 23.2245 8.8599 22.5262C9.57523 21.9542 9.7741 21.3129 9.63381 20.4758C9.59681 20.2599 9.60452 20.0349 9.58294 19.6649C9.08036 19.9917 8.62711 20.1937 8.29566 20.5189C7.28587 21.5102 6.04176 21.6536 4.78377 21.41C3.38395 21.1387 2.02267 20.67 0.647521 20.2723C0.218941 20.1489 -0.126389 19.8992 0.0447348 19.3843C0.2359 18.8123 0.679895 18.9203 1.12852 19.042C2.53296 19.4244 3.93432 19.819 5.34956 20.1505C6.04947 20.3139 6.70621 20.1536 7.27354 19.631C7.62812 19.3041 8.04282 19.0112 8.48065 18.817C9.42569 18.4007 9.98377 17.7686 10.0192 16.6972C10.03 16.3827 10.2042 16.0744 10.3106 15.7383C14.4037 18.1494 18.4567 18.1433 22.5297 15.7522C22.596 15.9079 22.7024 16.0435 22.7055 16.1823C22.7486 17.6869 23.7769 18.3452 24.8622 19.1916C26.2837 20.3016 27.6496 20.2939 29.1804 19.8699C30.0422 19.631 30.8839 19.3195 31.7365 19.0451C32.1774 18.9033 32.6306 18.8108 32.8172 19.3889C32.9837 19.9038 32.626 20.1243 32.2098 20.2815C30.5772 20.9013 28.9291 21.4439 27.1547 21.4794C26.242 21.4979 25.4496 21.2682 24.7497 20.6515C24.3396 20.2908 23.8417 20.0302 23.2805 19.6541C23.2389 20.3925 23.1865 20.9722 23.1865 21.5518C23.1865 21.6937 23.3237 21.8741 23.4486 21.9727C24.9578 23.1829 25.761 24.7277 25.8366 26.6809C25.8736 27.6506 26.0185 28.6234 26.1912 29.5792C26.259 29.9492 26.4656 30.3578 26.7354 30.6198C28.0797 31.9256 29.4641 33.1913 30.8377 34.4678C31.1892 34.7946 31.5746 35.1538 31.1476 35.6302C30.7267 36.0989 30.3182 35.7936 29.959 35.4591C28.4358 34.0408 26.8464 32.6887 25.4296 31.1718C24.9748 30.6846 24.9208 29.7781 24.7898 29.0458C24.6094 28.0376 24.5385 27.0108 24.4075 25.9933C24.2487 24.7754 23.837 24.0678 22.8072 23.2446L22.8088 23.2384Z" fill="white"/>
<path d="M13.9244 10.5249C15.5817 9.55978 17.2636 9.54437 18.981 10.5464C20.1604 8.27405 22.257 7.66663 24.5572 7.43539C25.8244 7.30897 26.6862 6.62294 27.2196 5.49753C27.8085 4.25804 27.9072 2.93531 27.8594 1.58944C27.8486 1.30732 27.7653 0.994365 27.8594 0.750784C27.9673 0.468662 28.2324 0.248206 28.4298 0C28.661 0.218915 29.0511 0.408538 29.0958 0.659827C29.381 2.28164 29.1944 3.88188 28.6641 5.43432C27.9488 7.52634 26.4719 8.63479 24.2673 8.81825C22.8829 8.93233 21.5648 9.27458 20.6414 10.4123C20.3947 10.716 20.1064 11.308 20.2374 11.5331C20.5041 11.9863 20.8156 12.4658 21.5525 12.5444C24.3907 12.8497 26.626 11.8769 28.3589 9.64457C28.6502 9.26841 29.0033 8.86912 29.4981 9.32237C29.9622 9.74632 29.6539 10.1441 29.344 10.5218C27.44 12.8466 25.0952 14.2094 22.1028 13.8579C21.8593 14.1724 21.7251 14.4376 21.5139 14.6056C18.8052 16.7547 13.9537 16.7346 11.2974 14.5655C11.1078 14.4098 10.9875 14.1709 10.7517 13.8625C7.75777 14.2171 5.39905 12.8358 3.48586 10.4771C3.16673 10.0824 2.92007 9.67849 3.40877 9.28537C3.88669 8.89996 4.1981 9.29154 4.49564 9.62762C5.64725 10.9241 6.83587 12.2037 8.67351 12.4334C9.63396 12.5537 10.6222 12.5398 11.5919 12.4858C12.412 12.4396 12.8899 11.3496 12.4305 10.6729C11.5764 9.41333 10.2552 8.93541 8.85235 8.85062C5.42371 8.64096 4.19039 6.41636 3.82039 3.90346C3.66469 2.85051 3.74331 1.75902 3.7464 0.686035C3.7464 0.238956 4.01618 -0.115624 4.47251 0.0369996C4.71455 0.118707 4.97355 0.516453 5.00592 0.797034C5.16163 2.1136 5.09534 3.47334 5.38517 4.75445C5.74746 6.36548 6.81737 7.37064 8.58564 7.47085C9.16993 7.50476 9.75575 7.63272 10.3231 7.78226C11.9002 8.19696 12.6941 8.81671 13.9213 10.5279L13.9244 10.5249Z" fill="#113D3C"/>
<path d="M14.1995 8.92804C14.1887 7.28926 14.4662 5.88482 15.4236 4.70237C16.0079 3.98088 16.8835 4.00554 17.4663 4.74708C18.3866 5.92028 18.678 7.29851 18.6919 8.88333C17.1672 8.41159 15.7165 8.31909 14.1995 8.92804Z" fill="#113D3C"/>
</svg>
