<svg width="33" height="32" viewBox="0 0 33 32" fill="none" xmlns="http://www.w3.org/2000/svg">
<g clip-path="url(#clip0_767_31)">
<path d="M20.3413 21.2682C19.8394 21.0868 19.3504 20.8833 18.8459 20.7332C18.0769 20.5049 17.3027 20.1826 16.5182 20.1369C15.2899 20.0652 14.4344 19.5798 13.7506 18.5438C13.3493 17.9357 12.77 17.3812 12.1519 17.0002C11.09 16.3465 10.6062 15.488 10.5365 14.2406C10.4965 13.5138 10.2655 12.7466 9.93008 12.0981C9.38945 11.0517 9.3959 10.1266 9.93266 9.07882C10.2746 8.41207 10.4784 7.62137 10.5378 6.86981C10.6307 5.68375 11.0913 4.8526 12.1003 4.20934C12.7493 3.79703 13.3532 3.21378 13.7854 2.57574C14.4564 1.58802 15.2924 1.04522 16.4601 1.07393C17.3491 1.09611 18.1478 0.876904 18.913 0.426751C19.8819 -0.144747 20.8806 -0.142138 21.8496 0.428056C22.6135 0.878209 23.4134 1.09872 24.3011 1.07393C25.4443 1.04131 26.3423 1.52408 26.9126 2.54573C27.3384 3.30903 27.9345 3.86879 28.6971 4.27589C29.6725 4.7965 30.1951 5.60938 30.1628 6.75238C30.137 7.62398 30.3706 8.4186 30.8351 9.1558C31.435 10.1083 31.435 11.0817 30.8325 12.0329C30.3538 12.7896 30.1383 13.6078 30.1603 14.5015C30.1874 15.5623 29.6983 16.3491 28.8016 16.841C27.9642 17.3016 27.3229 17.9175 26.8365 18.7499C26.3075 19.6555 25.4753 20.1343 24.4224 20.0978C23.4676 20.0652 22.6122 20.3118 21.7799 20.7763C21.3619 21.0098 20.8626 21.0933 20.3374 21.2669L20.3413 21.2682ZM16.5401 17.603C16.7053 17.4269 16.9569 17.2338 17.113 16.9806C19.62 12.9384 22.1167 8.88963 24.6121 4.84086C24.7127 4.67776 24.8547 4.49378 24.8495 4.32286C24.843 4.11409 24.7501 3.79442 24.6056 3.73179C24.4173 3.64959 24.1282 3.7357 23.9076 3.81921C23.7928 3.86227 23.7308 4.05277 23.6508 4.18064C21.14 8.24506 18.6291 12.3108 16.1195 16.3765C16.0292 16.5227 15.9169 16.6714 15.8795 16.8345C15.7802 17.2651 16.0227 17.4752 16.5389 17.6017L16.5401 17.603ZM26.8094 13.9535C26.8094 12.3356 25.8004 10.9368 24.4663 10.7059C22.8702 10.4293 21.5154 11.507 21.158 13.3364C20.7606 15.3705 22.256 17.3251 24.1476 17.2416C25.6262 17.175 26.8094 15.7137 26.8107 13.9535H26.8094ZM13.9157 7.31213C13.9402 7.49089 13.957 7.77403 14.0228 8.04673C14.3002 9.19364 14.9234 10.0705 16.0718 10.4254C17.1117 10.7463 18.0162 10.4123 18.7517 9.62553C19.3194 9.0188 19.5658 8.26594 19.6432 7.44783C19.8226 5.5585 18.3349 3.82965 16.6163 3.93012C15.1531 4.01493 13.9338 5.49586 13.917 7.31213H13.9157Z" fill="#2D9742"/>
<path d="M5.40987 30.1575C5.40987 28.8384 5.39955 27.5649 5.41375 26.2914C5.42407 25.4224 5.49632 24.5521 5.48471 23.6844C5.47955 23.2774 5.61761 23.049 5.95695 22.8676C8.23299 21.6451 10.5735 21.4885 12.8754 22.6615C14.3424 23.4091 15.843 23.7406 17.4571 23.7536C18.7887 23.764 20.1241 23.7901 21.4518 23.8919C22.7511 23.9911 23.8143 25.0975 23.8956 26.174C21.7163 26.174 19.528 26.174 17.3397 26.174C17.083 26.174 16.7952 26.1074 16.5785 26.2027C16.3798 26.2901 16.1178 26.5733 16.1385 26.7364C16.1656 26.9438 16.4172 27.2113 16.6301 27.2844C16.9449 27.3927 17.3088 27.3627 17.652 27.3731C19.8016 27.4344 21.9499 27.4957 24.0995 27.544C25.1136 27.5675 25.2775 27.3718 25.1536 26.3723C25.1433 26.2875 25.142 26.2014 25.1317 26.0422C27.04 25.1471 28.9496 24.2181 30.8889 23.3569C31.6385 23.0242 32.3443 23.2904 32.9985 23.8749C32.734 24.0576 32.512 24.2194 32.2824 24.3695C28.9651 26.5393 25.6465 28.7066 22.3305 30.8778C20.6067 32.0064 18.7345 32.2608 16.7785 31.7402C14.2921 31.0787 11.8161 30.3754 9.35166 29.633C8.08203 29.2507 6.90272 29.2872 5.76728 30.0049C5.66406 30.0701 5.54148 30.1014 5.40987 30.1575Z" fill="#194342"/>
<path d="M0.274828 21.0137H4.39209C4.30048 24.5666 4.21016 28.0334 4.11984 31.4951H0C0.0928996 27.9356 0.184509 24.4714 0.274828 21.0137Z" fill="#194342"/>
<path d="M25.6474 13.9547C25.6409 14.0944 25.6396 14.2027 25.6293 14.311C25.539 15.2282 24.859 16.0072 24.0978 16.0659C23.2952 16.1272 22.6075 15.5936 22.3933 14.6215C22.2952 14.1766 22.303 13.6703 22.4075 13.2267C22.6217 12.3068 23.3275 11.7797 24.0978 11.8462C24.8448 11.9114 25.4848 12.5886 25.6177 13.4681C25.6435 13.639 25.6396 13.8138 25.6474 13.9561V13.9547Z" fill="#2D9742"/>
<path d="M18.4854 7.31332C18.4532 7.48946 18.4287 7.77391 18.3461 8.04139C18.0661 8.94561 17.279 9.4871 16.5203 9.3227C15.652 9.13481 15.0159 8.16274 15.083 7.12412C15.0856 7.08107 15.0933 7.03801 15.0985 6.99495C15.2468 5.8376 15.9694 5.06125 16.8584 5.10822C17.7422 5.15389 18.4699 6.09464 18.4854 7.31462V7.31332Z" fill="#2D9742"/>
</g>
<defs>
<clipPath id="clip0_767_31">
<rect width="33" height="32" fill="white"/>
</clipPath>
</defs>
</svg>
