<?xml version="1.0" encoding="utf-8"?>
<!-- Generator: Adobe Illustrator 26.0.1, SVG Export Plug-In . SVG Version: 6.00 Build 0)  -->
<svg version="1.1" xmlns="http://www.w3.org/2000/svg" xmlns:xlink="http://www.w3.org/1999/xlink" x="0px" y="0px"
	 viewBox="0 0 720 69.29" style="enable-background:new 0 0 720 69.29;" xml:space="preserve">
<style type="text/css">
	.st0{enable-background:new    ;}
	.st1{fill:#FBBC05;}
	.st2{fill:#FFFFFF;}
	.st3{fill:#EA4335;}
	.st4{fill:#4285F4;}
	.st5{fill:#34A853;}
</style>
<g id="Shape_1_copy_4_00000037672279800690165000000018005933425407057320_" class="st0">
</g>
<g id="Over_2_x2C_000">
</g>
<g id="Reviews">
</g>
<g id="Google_x5F_2015_x5F_logo_xA0_Image_00000162337798822056824440000003562942994445215394_">
</g>
<g id="Rectangle_1_00000134965172128606584110000012789029970541759617_" class="st0">
	<g>
		<g id="Shape_1_copy_4">
			<g>
				<path class="st1" d="M259.04,32.77l-3.3-10.13l-3.3,10.13h-10.69l8.65,6.26l-3.3,10.13l8.65-6.26l8.65,6.26l-3.3-10.13
					l8.65-6.26H259.04z M293.7,32.77l-3.3-10.13l-3.3,10.13H276.4l8.65,6.26l-3.3,10.13l8.65-6.26l8.65,6.26l-3.3-10.13l8.65-6.26
					H293.7z M327.69,32.77l-3.3-10.13l-3.3,10.13h-10.69l8.65,6.26l-3.3,10.13l8.65-6.26l8.65,6.26l-3.3-10.13l8.65-6.26H327.69z
					 M362.35,32.77l-3.3-10.13l-3.3,10.13h-10.69l8.65,6.26l-3.3,10.13l8.65-6.26l8.65,6.26l-3.3-10.13l8.65-6.26H362.35z
					 M407.03,32.77h-10.69l-3.3-10.13l-3.3,10.13h-10.69l8.65,6.26l-3.3,10.13l8.65-6.26l8.65,6.26l-3.3-10.13L407.03,32.77z"/>
			</g>
		</g>
		<g>
			<path class="st2" d="M39.81,46.65c-1.84-1.04-3.29-2.49-4.36-4.36c-1.07-1.86-1.6-3.96-1.6-6.3c0-2.33,0.53-4.43,1.6-6.3
				c1.07-1.87,2.52-3.32,4.36-4.36c1.84-1.04,3.87-1.56,6.1-1.56c2.25,0,4.3,0.52,6.13,1.56c1.84,1.04,3.28,2.49,4.34,4.34
				c1.06,1.85,1.58,3.96,1.58,6.32c0,2.36-0.53,4.46-1.58,6.31c-1.06,1.85-2.5,3.3-4.34,4.34c-1.84,1.04-3.88,1.56-6.13,1.56
				C43.68,48.21,41.65,47.69,39.81,46.65z M50.44,44.33c1.34-0.78,2.4-1.89,3.17-3.33c0.77-1.44,1.15-3.11,1.15-5.01
				c0-1.92-0.38-3.6-1.15-5.03c-0.77-1.43-1.82-2.53-3.15-3.31c-1.33-0.78-2.85-1.17-4.55-1.17s-3.22,0.39-4.55,1.17
				c-1.33,0.78-2.38,1.88-3.15,3.31c-0.77,1.43-1.15,3.11-1.15,5.03c0,1.9,0.38,3.57,1.15,5.01s1.83,2.55,3.17,3.33
				c1.34,0.78,2.85,1.17,4.53,1.17S49.1,45.11,50.44,44.33z"/>
			<path class="st2" d="M82.64,24.05l-9.06,23.92h-3.62L60.9,24.05h3.34l7.55,20.62l7.55-20.62H82.64z"/>
			<path class="st2" d="M89.91,26.59v8h8.75v2.57h-8.75v8.24h9.78v2.57H86.78V24.02H99.7v2.57H89.91z"/>
			<path class="st2" d="M117.79,47.97l-5.72-9.78h-3.79v9.78h-3.14V24.05h7.75c1.81,0,3.35,0.31,4.6,0.93
				c1.25,0.62,2.19,1.45,2.81,2.5c0.62,1.05,0.93,2.25,0.93,3.6c0,1.65-0.48,3.1-1.43,4.36c-0.95,1.26-2.38,2.09-4.29,2.5
				l6.03,10.02H117.79z M108.28,35.68h4.62c1.7,0,2.97-0.42,3.82-1.25c0.85-0.83,1.28-1.95,1.28-3.34c0-1.42-0.42-2.52-1.26-3.3
				c-0.84-0.78-2.12-1.17-3.84-1.17h-4.62V35.68z"/>
			<path class="st2" d="M136.43,42.41c2.25-1.85,4.02-3.38,5.32-4.56c1.3-1.19,2.39-2.44,3.29-3.74c0.9-1.3,1.35-2.57,1.35-3.81
				c0-0.94-0.22-1.67-0.66-2.2c-0.44-0.53-1.09-0.79-1.96-0.79c-0.87,0-1.56,0.33-2.05,0.98c-0.49,0.65-0.74,1.57-0.74,2.76h-5.69
				c0.05-1.94,0.47-3.57,1.26-4.87s1.84-2.27,3.14-2.88c1.3-0.62,2.74-0.93,4.32-0.93c2.73,0,4.8,0.7,6.19,2.09s2.09,3.21,2.09,5.46
				c0,2.45-0.84,4.72-2.52,6.81c-1.68,2.09-3.81,4.13-6.41,6.12h9.3v4.77h-17.3v-4.36C136.14,42.65,136.5,42.36,136.43,42.41z"/>
			<path class="st2" d="M162.86,42.55l-3.83,9.85h-3.76l2-9.85H162.86z"/>
			<path class="st2" d="M168.8,25.8c1.53-2.27,3.99-3.4,7.39-3.4s5.86,1.13,7.39,3.4c1.53,2.27,2.29,5.37,2.29,9.3
				c0,3.98-0.76,7.1-2.29,9.37c-1.53,2.27-3.99,3.4-7.39,3.4s-5.86-1.13-7.39-3.4c-1.53-2.26-2.29-5.39-2.29-9.37
				C166.51,31.16,167.27,28.06,168.8,25.8z M179.33,29.76c-0.51-1.25-1.55-1.87-3.14-1.87s-2.63,0.62-3.14,1.87
				c-0.51,1.25-0.76,3.03-0.76,5.34c0,1.56,0.09,2.84,0.28,3.86c0.18,1.02,0.56,1.84,1.12,2.47c0.56,0.63,1.4,0.95,2.5,0.95
				s1.93-0.32,2.5-0.95c0.56-0.63,0.94-1.45,1.12-2.47c0.18-1.02,0.28-2.3,0.28-3.86C180.09,32.79,179.83,31.01,179.33,29.76z"/>
			<path class="st2" d="M191.95,25.8c1.53-2.27,3.99-3.4,7.39-3.4c3.4,0,5.86,1.13,7.39,3.4c1.53,2.27,2.29,5.37,2.29,9.3
				c0,3.98-0.76,7.1-2.29,9.37c-1.53,2.27-3.99,3.4-7.39,3.4c-3.4,0-5.86-1.13-7.39-3.4c-1.53-2.26-2.29-5.39-2.29-9.37
				C189.66,31.16,190.43,28.06,191.95,25.8z M202.48,29.76c-0.51-1.25-1.55-1.87-3.14-1.87s-2.63,0.62-3.14,1.87
				c-0.51,1.25-0.76,3.03-0.76,5.34c0,1.56,0.09,2.84,0.28,3.86c0.18,1.02,0.56,1.84,1.12,2.47c0.56,0.63,1.4,0.95,2.5,0.95
				c1.1,0,1.93-0.32,2.5-0.95c0.56-0.63,0.94-1.45,1.12-2.47c0.18-1.02,0.28-2.3,0.28-3.86C203.24,32.79,202.99,31.01,202.48,29.76z
				"/>
			<path class="st2" d="M215.11,25.8c1.53-2.27,3.99-3.4,7.39-3.4s5.86,1.13,7.39,3.4c1.53,2.27,2.29,5.37,2.29,9.3
				c0,3.98-0.76,7.1-2.29,9.37c-1.53,2.27-3.99,3.4-7.39,3.4s-5.86-1.13-7.39-3.4c-1.53-2.26-2.29-5.39-2.29-9.37
				C212.82,31.16,213.58,28.06,215.11,25.8z M225.64,29.76c-0.51-1.25-1.55-1.87-3.14-1.87s-2.63,0.62-3.14,1.87
				c-0.51,1.25-0.76,3.03-0.76,5.34c0,1.56,0.09,2.84,0.28,3.86c0.18,1.02,0.56,1.84,1.12,2.47c0.56,0.63,1.4,0.95,2.5,0.95
				s1.93-0.32,2.5-0.95c0.56-0.63,0.94-1.45,1.12-2.47c0.18-1.02,0.28-2.3,0.28-3.86C226.39,32.79,226.14,31.01,225.64,29.76z"/>
		</g>
		<g>
			<path class="st2" d="M560.57,48.77l-5.63-9.66h-3.73v9.66h-3.09V25.14h7.63c1.78,0,3.29,0.31,4.52,0.92
				c1.23,0.61,2.15,1.44,2.76,2.48c0.61,1.04,0.92,2.23,0.92,3.56c0,1.63-0.47,3.06-1.41,4.31s-2.35,2.07-4.22,2.48l5.93,9.9H560.57
				z M551.22,36.63h4.54c1.67,0,2.93-0.41,3.76-1.24c0.84-0.82,1.25-1.93,1.25-3.3c0-1.4-0.41-2.49-1.23-3.26
				c-0.83-0.77-2.09-1.15-3.78-1.15h-4.54V36.63z"/>
			<path class="st2" d="M586.27,40.63h-14.85c0.11,1.83,0.74,3.26,1.88,4.29c1.14,1.03,2.52,1.54,4.15,1.54
				c1.33,0,2.45-0.31,3.34-0.93c0.89-0.62,1.52-1.45,1.88-2.49H586c-0.5,1.79-1.49,3.24-2.98,4.36c-1.49,1.12-3.35,1.68-5.56,1.68
				c-1.76,0-3.34-0.39-4.73-1.19c-1.39-0.79-2.48-1.92-3.27-3.37c-0.79-1.46-1.19-3.15-1.19-5.07c0-1.92,0.38-3.61,1.15-5.05
				c0.77-1.45,1.85-2.56,3.24-3.34c1.39-0.78,2.99-1.17,4.8-1.17c1.76,0,3.32,0.38,4.68,1.15c1.35,0.77,2.4,1.83,3.14,3.17
				c0.73,1.35,1.1,2.87,1.1,4.56C586.37,39.35,586.33,39.97,586.27,40.63z M582.4,35.09c-0.52-0.85-1.23-1.49-2.12-1.93
				c-0.89-0.44-1.88-0.66-2.97-0.66c-1.56,0-2.89,0.5-3.98,1.49c-1.1,1-1.72,2.37-1.88,4.14h11.73
				C583.18,36.94,582.92,35.93,582.4,35.09z"/>
			<path class="st2" d="M598.03,45.92l5.76-15.73h3.29l-7.29,18.58h-3.59l-7.29-18.58h3.32L598.03,45.92z"/>
			<path class="st2" d="M610.91,26.56c-0.41-0.41-0.61-0.9-0.61-1.49s0.21-1.09,0.61-1.49c0.41-0.41,0.9-0.61,1.49-0.61
				c0.57,0,1.04,0.2,1.44,0.61s0.59,0.9,0.59,1.49s-0.2,1.08-0.59,1.49s-0.88,0.61-1.44,0.61
				C611.82,27.17,611.32,26.97,610.91,26.56z M613.9,30.19v18.58h-3.09V30.19H613.9z"/>
			<path class="st2" d="M636.68,40.63h-14.85c0.11,1.83,0.74,3.26,1.88,4.29c1.14,1.03,2.52,1.54,4.15,1.54
				c1.33,0,2.45-0.31,3.34-0.93c0.89-0.62,1.52-1.45,1.88-2.49h3.32c-0.5,1.79-1.49,3.24-2.98,4.36c-1.49,1.12-3.35,1.68-5.56,1.68
				c-1.76,0-3.34-0.39-4.73-1.19c-1.39-0.79-2.48-1.92-3.27-3.37c-0.79-1.46-1.19-3.15-1.19-5.07c0-1.92,0.38-3.61,1.15-5.05
				c0.77-1.45,1.85-2.56,3.24-3.34c1.39-0.78,2.99-1.17,4.8-1.17c1.76,0,3.32,0.38,4.68,1.15c1.35,0.77,2.4,1.83,3.14,3.17
				c0.73,1.35,1.1,2.87,1.1,4.56C636.78,39.35,636.74,39.97,636.68,40.63z M632.81,35.09c-0.52-0.85-1.23-1.49-2.12-1.93
				c-0.89-0.44-1.88-0.66-2.97-0.66c-1.56,0-2.89,0.5-3.98,1.49c-1.1,1-1.72,2.37-1.88,4.14h11.73
				C633.59,36.94,633.33,35.93,632.81,35.09z"/>
			<path class="st2" d="M666.27,30.19l-5.8,18.58h-3.19l-4.47-14.75l-4.47,14.75h-3.19l-5.83-18.58h3.15l4.27,15.6l4.61-15.6h3.15
				l4.51,15.63l4.2-15.63H666.27z"/>
			<path class="st2" d="M672.75,48.34c-1.13-0.49-2.02-1.16-2.68-2.03c-0.65-0.87-1.02-1.87-1.08-3h3.18
				c0.09,0.93,0.53,1.68,1.31,2.27c0.78,0.59,1.8,0.88,3.07,0.88c1.18,0,2.1-0.26,2.78-0.78c0.68-0.52,1.02-1.17,1.02-1.97
				c0-0.81-0.36-1.42-1.08-1.81c-0.72-0.4-1.84-0.79-3.36-1.17c-1.38-0.36-2.5-0.73-3.38-1.1c-0.87-0.37-1.62-0.93-2.24-1.66
				c-0.62-0.73-0.93-1.7-0.93-2.9c0-0.95,0.28-1.82,0.85-2.61c0.57-0.79,1.37-1.42,2.41-1.88c1.04-0.46,2.23-0.69,3.56-0.69
				c2.06,0,3.72,0.52,4.98,1.56c1.27,1.04,1.94,2.46,2.03,4.27h-3.08c-0.07-0.97-0.46-1.75-1.17-2.34
				c-0.71-0.59-1.67-0.88-2.87-0.88c-1.11,0-1.99,0.24-2.64,0.71c-0.66,0.48-0.98,1.1-0.98,1.86c0,0.61,0.2,1.11,0.59,1.51
				c0.4,0.39,0.89,0.71,1.49,0.95c0.6,0.24,1.43,0.5,2.49,0.8c1.33,0.36,2.42,0.72,3.26,1.07c0.84,0.35,1.55,0.88,2.15,1.58
				c0.6,0.7,0.91,1.62,0.93,2.75c0,1.02-0.28,1.93-0.85,2.75c-0.57,0.81-1.36,1.45-2.39,1.92c-1.03,0.46-2.21,0.69-3.54,0.69
				C675.16,49.07,673.88,48.83,672.75,48.34z"/>
		</g>
		<g id="Google_x5F_2015_x5F_logo_xA0_Image_00000005246338809751162560000002703529691720764082_">
			<path class="st3" d="M467.28,40.16c0,5.39-4.22,9.36-9.39,9.36c-5.18,0-9.39-3.97-9.39-9.36c0-5.43,4.22-9.36,9.39-9.36
				C463.06,30.79,467.28,34.73,467.28,40.16z M463.17,40.16c0-3.37-2.44-5.67-5.28-5.67c-2.84,0-5.28,2.3-5.28,5.67
				c0,3.33,2.44,5.67,5.28,5.67C460.72,45.83,463.17,43.49,463.17,40.16z"/>
			<path class="st1" d="M487.54,40.16c0,5.39-4.22,9.36-9.39,9.36c-5.18,0-9.39-3.97-9.39-9.36c0-5.42,4.22-9.36,9.39-9.36
				C483.32,30.79,487.54,34.73,487.54,40.16z M483.43,40.16c0-3.37-2.44-5.67-5.28-5.67c-2.84,0-5.28,2.3-5.28,5.67
				c0,3.33,2.44,5.67,5.28,5.67C480.99,45.83,483.43,43.49,483.43,40.16z"/>
			<path class="st4" d="M506.96,31.36v16.81c0,6.91-4.08,9.74-8.9,9.74c-4.54,0-7.27-3.03-8.3-5.52l3.58-1.49
				c0.64,1.52,2.2,3.32,4.71,3.32c3.09,0,5-1.9,5-5.49v-1.35h-0.14c-0.92,1.14-2.69,2.13-4.93,2.13c-4.68,0-8.97-4.08-8.97-9.32
				c0-5.28,4.29-9.4,8.97-9.4c2.23,0,4.01,0.99,4.93,2.09h0.14v-1.52L506.96,31.36L506.96,31.36z M503.34,40.19
				c0-3.3-2.2-5.71-5-5.71c-2.84,0-5.21,2.41-5.21,5.71c0,3.26,2.38,5.64,5.21,5.64C501.15,45.83,503.34,43.45,503.34,40.19z"/>
			<path class="st5" d="M513.39,21.51v27.44h-4.01V21.51H513.39z"/>
			<path class="st3" d="M529.02,43.24l3.19,2.13c-1.03,1.52-3.51,4.15-7.8,4.15c-5.32,0-9.29-4.11-9.29-9.36
				c0-5.57,4.01-9.36,8.83-9.36c4.86,0,7.23,3.87,8.01,5.96l0.43,1.06l-12.52,5.18c0.96,1.88,2.45,2.84,4.54,2.84
				C526.51,45.83,527.96,44.8,529.02,43.24L529.02,43.24z M519.2,39.87l8.37-3.47c-0.46-1.17-1.84-1.98-3.47-1.98
				C522,34.41,519.09,36.26,519.2,39.87z"/>
			<path class="st4" d="M433.32,37.72v-3.97h13.39c0.13,0.69,0.2,1.51,0.2,2.4c0,2.98-0.81,6.67-3.44,9.29
				c-2.55,2.66-5.82,4.08-10.14,4.08c-8.01,0-14.75-6.53-14.75-14.54s6.74-14.54,14.75-14.54c4.43,0,7.59,1.74,9.96,4.01l-2.8,2.8
				c-1.7-1.6-4.01-2.84-7.16-2.84c-5.85,0-10.43,4.71-10.43,10.57s4.58,10.57,10.43,10.57c3.79,0,5.96-1.52,7.34-2.91
				c1.12-1.12,1.86-2.73,2.15-4.92L433.32,37.72z"/>
		</g>
		<g id="Rectangle_1">
			<g>
			</g>
		</g>
	</g>
</g>
</svg>
